<svg enable-background="new 0 0 595 842" viewBox="0 0 595 842" xmlns="http://www.w3.org/2000/svg"><path clip-rule="evenodd" d="m47.1 87.9h18.3c-.4 2.2-1.7 3.9-3.9 5.2s-4.8 1.9-8 1.9c-5.8 0-9.9-1.5-12.6-4.5l-6 4.2c4.1 4.8 10.2 7.2 18.4 7.2 6.7 0 11.9-1.6 15.8-4.8 3.8-3.2 5.8-7.4 5.8-12.5 0-5.2-1.9-9.4-5.7-12.5-3.7-3.1-8.9-4.6-15.4-4.6-6.3 0-14 1.5-18.3 6.4l6 4.8c1.5-1.5 3.3-2.6 5.5-3.2s4.3-1 6.5-1c3.1 0 5.7.6 7.8 1.7s3.4 2.7 4.1 4.7h-18.3zm28.1-13h13.2v26.6h9.1v-26.6h13.3v-7h-35.6zm36 9.9c0 5 2.1 9.1 6.2 12.4s9.1 5 15.1 5 10.9-1.7 15.1-5c4.1-3.3 6.2-7.5 6.2-12.4 0-5-2.1-9.1-6.2-12.4s-9.1-5-15.1-5-11 1.7-15.1 5c-4.2 3.5-6.2 7.6-6.2 12.4zm9.5 0c0-3 1.1-5.5 3.4-7.3s5.1-2.8 8.3-2.8 5.9.9 8.2 2.8c2.4 1.9 3.5 4.3 3.5 7.3s-1.1 5.5-3.4 7.3-5 2.8-8.4 2.8c-3.2 0-6.1-.9-8.4-2.8-2.1-1.8-3.2-4.3-3.2-7.3zm62.3 16.8v-10.6h8c6 0 10.4-1.1 13.3-3.3 2.8-2.2 4.2-5 4.2-8.1 0-1.5-.3-2.9-.8-4.2s-1.4-2.5-2.7-3.7c-1.2-1.1-3.1-2.1-5.5-2.7s-5.2-1-8.6-1h-17.1v33.6zm8.2-26.7c5.2 0 7.8 1.5 7.8 4.5s-2.7 4.5-8.1 4.5h-7.9v-9.1zm14.4 26.7 18.1-33.6h6.8l18.1 33.6h-9.6l-3.4-6.3h-17.3l-3.4 6.3zm21.4-22.6-5.4 10h10.7zm40.8 23.2c5.1 0 9.1-1.1 12.2-3s4.7-4.7 4.7-8.1c0-3.8-1.9-6.3-5.6-7.6 2.8-1.4 4.2-3.5 4.2-6.4 0-3.1-1.4-5.5-4.1-7.2s-6.7-2.6-11.8-2.6c-8.1 0-14.1 2.2-18.1 6.8l7 3.9c2.7-2.5 6.2-3.7 10.5-3.7 1.9 0 3.6.3 5.1.8 1.4.6 2.2 1.4 2.2 2.7 0 .9-.6 1.7-2 2.3s-3.2.9-5.6.9h-6.1v7h6.5c5.8 0 8.6 1.2 8.6 3.6 0 2.5-2.7 3.7-8 3.7-5.5 0-9.6-1.5-12.5-4.5l-7.3 4c4.3 4.9 10.9 7.4 20.1 7.4zm23.1-.6h18c6.6 0 16.1-1.5 16.1-10 0-3.8-1.8-6.5-5.4-7.8 2.7-1.9 4-4.3 4-7.2 0-5.8-4.8-8.6-14.3-8.6h-18.5zm17.6-13.8c2.6 0 4.4.3 5.4.8 1.1.5 1.6 1.4 1.6 2.6s-.6 2.2-1.7 2.7-3.1.8-5.8.8h-7.9v-6.8zm-.6-12.9c2.4 0 4 .3 5 .8s1.4 1.4 1.4 2.5c0 .9-.5 1.6-1.4 2.1s-2.3.7-4.1.7h-8.6v-6.1zm21.6 9.9c0 5 2.1 9.1 6.2 12.4s9.1 5 15.1 5 10.9-1.7 15.1-5c4.1-3.3 6.2-7.5 6.2-12.4 0-5-2.1-9.1-6.2-12.4s-9.1-5-15.1-5-11 1.7-15.1 5c-4.1 3.5-6.2 7.6-6.2 12.4zm9.5 0c0-3 1.1-5.5 3.5-7.3 2.3-1.9 5.1-2.8 8.4-2.8 3.2 0 5.9.9 8.2 2.8 2.4 1.9 3.5 4.3 3.5 7.3s-1.1 5.5-3.4 7.3-5 2.8-8.4 2.8c-3.2 0-6-.9-8.4-2.8s-3.4-4.3-3.4-7.3zm33.2 22.4h8.6v-5.6h26.5v5.6h8.6v-12.6h-4.9v-26.7h-30v4c0 10.1-1.4 17.7-4.3 22.6h-4.5zm17.6-32.3h12.2v19.6h-15.8c2.2-4 3.3-9.9 3.5-17.8zm40.9-20.4c0 15.8-1.9 30.1 4.4 44.7 5 11.8 25.9 32.3 35.6 30.4 8.1-1.6 20.8-13.1 25.5-19.4 13.2-17.6 11.4-32.3 11.4-53.7 0-8.3-7.4-10.7-13.7-13-15.2-5.5-33.3-5.5-48.8-.4-4.8 1.6-14.4 5.6-14.4 11.4zm18.7 13.9c.1-10.7 7.7-18.2 21.1-18.2 12.4 0 20.6 6.9 20.6 16.8 0 6.6-3.1 11.1-9.3 14.7-5.8 3.4-7.4 5.5-7.4 9.7v2.3h-11.5l-.1-2.5c-.5-6.8 1.9-10.7 7.9-14.2 5.6-3.4 7.3-5.5 7.3-9.6s-3.4-7.1-8.3-7.1c-5 0-8.3 3.1-8.5 8.1zm19.5 46.1c-4 0-7.1-3-7.1-6.8s3.2-6.8 7.1-6.8c4 0 7.1 3 7.1 6.8s-3.2 6.8-7.1 6.8zm38-85.7v-2.9h12v2.9h-4.4v11h-3.1v-11zm13.4 11h3.1v-8.3l3.7 5.6h.8l3.6-5.5v8.3h3.1v-13.9h-2.7l-4.2 6.6-4.4-6.6h-2.9z" fill="#001640" fill-rule="evenodd"/></svg>