<svg enable-background="new 0 0 595 842" viewBox="0 0 595 842" xmlns="http://www.w3.org/2000/svg"><path clip-rule="evenodd" d="m52.9 353.01h18.28c-.43 2.16-1.73 3.89-3.89 5.18-2.16 1.3-4.82 1.94-7.99 1.94-5.76 0-9.93-1.51-12.59-4.46l-6.05 4.25c4.1 4.82 10.22 7.2 18.42 7.2 6.69 0 11.95-1.58 15.76-4.82s5.76-7.41 5.76-12.52c0-5.18-1.87-9.36-5.69-12.45-3.74-3.09-8.92-4.61-15.4-4.61-6.27 0-13.98 1.54-18.35 6.41l6.05 4.82c1.51-1.51 3.31-2.59 5.54-3.24 2.16-.65 4.32-1.01 6.48-1.01 3.09 0 5.69.58 7.77 1.73 2.09 1.15 3.45 2.66 4.1 4.68h-18.2v6.98zm28.07-12.95h13.24v26.63h9.14v-26.63h13.31v-6.98h-35.62v6.98zm35.99 9.86c0 4.97 2.09 9.07 6.19 12.38s9.14 4.97 15.11 4.97 10.94-1.66 15.11-4.97c4.1-3.31 6.19-7.49 6.19-12.38 0-4.97-2.09-9.07-6.19-12.38s-9.14-4.97-15.11-4.97-11.01 1.66-15.11 5.04c-4.11 3.38-6.19 7.48-6.19 12.31zm9.5 0c0-3.02 1.15-5.47 3.45-7.34s5.11-2.81 8.35-2.81c3.17 0 5.9.94 8.2 2.81 2.38 1.87 3.53 4.32 3.53 7.34s-1.15 5.47-3.38 7.34-5.04 2.81-8.35 2.81c-3.24 0-6.05-.94-8.35-2.81s-3.45-4.32-3.45-7.34zm62.32 16.76v-10.58h7.99c6.05 0 10.44-1.08 13.31-3.31 2.81-2.23 4.25-4.97 4.25-8.13 0-1.51-.29-2.88-.79-4.17-.5-1.3-1.44-2.52-2.66-3.67s-3.1-2.09-5.47-2.74c-2.38-.65-5.25-1.01-8.64-1.01h-17.13v33.61zm8.21-26.62c5.18 0 7.77 1.51 7.77 4.53s-2.74 4.53-8.13 4.53h-7.84v-9.14h8.2zm14.39 26.62 18.14-33.61h6.76l18.14 33.61h-9.57l-3.38-6.26h-17.27l-3.38 6.26zm21.45-22.52-5.4 10h10.72zm40.79 23.17c5.11 0 9.08-1.08 12.25-3.02 3.09-1.94 4.68-4.68 4.68-8.06 0-3.81-1.87-6.33-5.61-7.56 2.81-1.37 4.25-3.45 4.25-6.41 0-3.1-1.37-5.47-4.1-7.2s-6.69-2.59-11.8-2.59c-8.06 0-14.11 2.23-18.14 6.77l7.05 3.89c2.66-2.45 6.19-3.67 10.51-3.67 1.94 0 3.6.29 5.11.79 1.44.58 2.16 1.44 2.16 2.66 0 .94-.65 1.73-2.02 2.3-1.37.58-3.24.86-5.61.86h-6.12v6.98h6.48c5.76 0 8.64 1.22 8.64 3.6 0 2.45-2.66 3.67-7.99 3.67-5.54 0-9.64-1.51-12.45-4.53l-7.27 3.96c4.17 5.04 10.8 7.56 19.94 7.56zm23.12-.65h17.99c6.62 0 16.12-1.55 16.12-10 0-3.81-1.8-6.48-5.4-7.84 2.66-1.87 4.03-4.32 4.03-7.2 0-5.76-4.75-8.56-14.32-8.56h-18.5v33.61h.08zm17.56-13.74c2.59 0 4.39.29 5.4.79 1.08.5 1.58 1.37 1.58 2.59s-.58 2.16-1.73 2.66-3.09.79-5.76.79h-7.92v-6.84h8.43zm-.58-12.88c2.37 0 4.03.29 4.97.79s1.37 1.37 1.37 2.52c0 .86-.5 1.58-1.44 2.09-.94.5-2.3.72-4.1.72h-8.56v-6.12zm21.59 9.86c0 4.97 2.09 9.07 6.19 12.38s9.14 4.97 15.11 4.97 10.94-1.66 15.11-4.97c4.1-3.31 6.19-7.49 6.19-12.38 0-4.97-2.09-9.07-6.19-12.38s-9.14-4.97-15.11-4.97-11.01 1.66-15.11 5.04-6.19 7.48-6.19 12.31zm9.5 0c0-3.02 1.15-5.47 3.45-7.34s5.11-2.81 8.35-2.81c3.17 0 5.9.94 8.2 2.81 2.38 1.87 3.53 4.32 3.53 7.34s-1.15 5.47-3.38 7.34-5.04 2.81-8.35 2.81c-3.24 0-6.05-.94-8.35-2.81s-3.45-4.32-3.45-7.34zm33.18 22.38h8.56v-5.61h26.48v5.61h8.56v-12.6h-4.75v-26.63h-30.08v4.03c0 10.15-1.44 17.7-4.32 22.6h-4.46zm17.56-32.24h12.16v19.65h-15.76c2.16-4.03 3.31-9.93 3.53-17.78zm40.91-20.41c0 15.79-1.85 30.15 4.38 44.71 4.99 11.76 25.91 32.34 35.62 30.42 8.07-1.57 20.78-13.06 25.5-19.35 13.19-17.64 11.42-32.27 11.42-53.74 0-8.34-7.38-10.67-13.74-12.99-15.18-5.47-33.29-5.54-48.81-.41-4.72 1.57-14.36 5.54-14.36 11.28v.08zm18.73 13.88h-.07c.21-10.73 7.79-18.19 21.13-18.19 12.44 0 20.65 6.9 20.65 16.82 0 6.56-3.15 11.08-9.3 14.7-5.81 3.35-7.38 5.47-7.38 9.71v2.32h-11.55l-.07-2.53c-.55-6.77 1.85-10.73 7.86-14.22 5.61-3.35 7.32-5.47 7.32-9.57s-3.35-7.11-8.27-7.11c-4.99 0-8.27 3.15-8.55 8.07zm19.48 46.15c-3.97 0-7.11-3.01-7.11-6.84s3.21-6.84 7.11-6.84c3.97 0 7.11 3.01 7.11 6.84.01 3.83-3.14 6.84-7.11 6.84zm38.02-85.73v-2.87h11.96v2.87h-4.44v11.01h-3.08v-11.01zm13.4 11.01h3.08v-8.34l3.69 5.61h.82l3.62-5.54v8.27h3.08v-13.81h-2.73l-4.24 6.63-4.44-6.63h-2.87v13.81z" fill="#001640" fill-rule="evenodd"/></svg>