<svg clip-rule="evenodd" fill-rule="evenodd" height="157.646mm" image-rendering="optimizeQuality" shape-rendering="geometricPrecision" text-rendering="geometricPrecision" viewBox="0 0 57259 9349" width="965.508mm" xmlns="http://www.w3.org/2000/svg"><path d="m47889 2556c0 1424-165 2718 395 4035 450 1058 2338 2916 3211 2747 730-141 1875-1180 2298-1745 1191-1591 1031-2913 1031-4845 0-751-665-963-1239-1169-1368-491-3003-498-4401-40-424 139-1296 499-1296 1016zm-46422 3410h2198c-52 261-207 469-464 622-258 154-578 230-961 230-690 0-1193-179-1510-536l-730 507c492 576 1229 864 2212 864 803 0 1436-193 1896-579 461-386 691-886 691-1501 0-626-227-1124-681-1492-454-369-1070-553-1850-553-449 0-870 64-1262 193s-707 322-943 579l723 576c180-180 401-311 663-392s521-121 776-121c373 0 684 68 932 205 248 136 412 324 493 562h-2183v835zm3374-1556h1588v3198h1099v-3198h1595v-836h-4282zm4324 1181c0 595 248 1092 744 1489 496 398 1101 596 1815 596s1317-200 1811-599 741-895 741-1487c0-595-247-1092-741-1489-494-398-1098-596-1811-596-718 0-1325 202-1818 605-494 403-741 897-741 1481zm1141 0c0-361 138-655 415-882 276-227 611-340 1003-340 378 0 708 113 989 340s422 520 422 882c0 365-135 660-404 884-269 225-605 337-1007 337-392 0-727-113-1003-340-277-227-415-521-415-882zm7486 2017v-1268h957c723 0 1255-133 1595-400s510-593 510-977c0-181-32-348-96-501-64-154-170-300-319-438s-368-248-656-328c-288-81-633-121-1035-121h-2056v4033h1099zm985-3198c624 0 936 182 936 547s-326 547-978 547h-943v-1095h985zm1730 3198h1134l404-749h2077l404 749h1148l-2176-4033h-815zm2573-2708 638 1204h-1290zm4891 2777c610 0 1101-118 1474-354s560-560 560-971c0-457-224-759-673-905 340-161 510-417 510-766 0-369-164-657-493-864-328-207-802-311-1421-311-964 0-1690 271-2176 812l851 467c321-296 742-444 1262-444 232 0 435 33 610 98s262 173 262 323c0 115-80 206-241 274-161 67-385 101-674 101h-737v835h780c690 0 1035 144 1035 432 0 292-319 438-957 438-662 0-1160-182-1496-547l-872 478c501 603 1300 905 2396 905zm2779-69h2162c591 0 1061-98 1411-294s525-497 525-905c0-461-215-774-645-939 321-227 482-515 482-864 0-688-572-1031-1716-1031h-2219zm2105-1654c307 0 525 32 652 95 128 63 191 166 191 308 0 150-68 256-206 320-137 63-369 95-695 95h-950v-818h1007zm-71-1544c288 0 487 32 596 95s163 164 163 303c0 108-57 191-170 251s-279 89-496 89h-1028v-737h936zm2595 1181c0 595 248 1092 744 1489 496 398 1101 596 1815 596s1317-200 1811-599 741-895 741-1487c0-595-247-1092-741-1489-494-398-1098-596-1811-596-718 0-1325 202-1818 605-494 403-741 897-741 1481zm1141 0c0-361 138-655 415-882 276-227 611-340 1003-340 378 0 708 113 989 340s422 520 422 882c0 365-135 660-404 884-269 225-605 337-1007 337-392 0-727-113-1003-340-277-227-415-521-415-882zm3984 2691h1028v-674h3183v674h1028v-1510h-574v-3198h-3608v484c0 1218-172 2122-517 2714h-539v1510zm2105-3872h1460v2362h-1893c255-484 397-1197 425-2138l7-225zm12149-4151h400v990h277v-990h401v-259h-1078zm1211 990h277v-755l335 503h73l325-498v749h277v-1249h-250l-380 598-400-598h-257v1249zm-3816 2709c0 145-51 270-152 376-102 106-224 197-368 272s-288 158-434 248c-146 91-269 220-371 388s-152 369-152 601c0 140 20 274 60 403l934-16c0-16-4-52-13-109s-13-111-13-163c0-119 39-221 116-306s174-155 291-209 243-125 378-213 261-185 378-291 214-260 291-462 116-440 116-714c0-429-155-786-464-1071-309-284-735-427-1278-427-278 0-548 50-808 151-261 101-502 269-725 504s-379 519-467 850l934 380c88-243 213-424 374-543s379-178 652-178c216 0 391 52 523 155s199 228 199 372zm-1543 3220c0 160 53 300 159 419s243 178 411 178c155 0 285-59 391-178s159-259 159-419c0-145-54-278-162-400s-237-182-387-182c-163 0-299 59-407 178s-162 253-162 403z" fill="#001640"/></svg>