<svg clip-rule="evenodd" fill-rule="evenodd" height="157.646mm" image-rendering="optimizeQuality" shape-rendering="geometricPrecision" text-rendering="geometricPrecision" viewBox="0 0 104961 104475" width="158.38mm" xmlns="http://www.w3.org/2000/svg"><path d="m253 28560c0 15918-1842 30372 4419 45096 5030 11827 26121 32583 35879 30699 8154-1574 20957-13188 25683-19502 13308-17779 11521-32557 11521-54140 0-8392-7431-10761-13846-13064-15290-5489-33559-5564-49178-444-4736 1553-14478 5571-14478 11356zm76797-25669h4466v11065h3090v-11065h4486v-2891h-12042zm13537 11065h3090v-8433l3748 5622h817l3629-5562v8373h3090v-13956h-2791l-4246 6679-4466-6679h-2871zm-42638 30272c0 1618-567 3020-1702 4205s-2504 2196-4108 3034-3220 1763-4848 2774c-1628 1012-3010 2456-4145 4335s-1703 4118-1703 6719c0 1561 222 3063 666 4508l10436-173c0-173-49-578-148-1214s-148-1243-148-1821c0-1329 432-2471 1295-3425 864-954 1949-1734 3257-2341 1307-607 2714-1402 4219-2384 1505-983 2911-2066 4219-3251s2393-2904 3257-5159c863-2254 1295-4913 1295-7976 0-4797-1727-8785-5181-11964s-8216-4768-14285-4768c-3109 0-6119 564-9030 1691s-5613 3005-8105 5635-4231 5794-5218 9493l10436 4248c987-2717 2381-4740 4182-6069s4231-1994 7291-1994c2418 0 4367 578 5847 1734s2221 2543 2221 4161zm-17246 35980c0 1792 592 3352 1776 4682 1184 1329 2714 1994 4589 1994 1727 0 3183-665 4367-1994s1776-2890 1776-4682c0-1618-605-3107-1813-4465-1209-1358-2652-2037-4330-2037-1826 0-3343 665-4552 1994s-1813 2832-1813 4508z" fill="#001640"/></svg>