<svg clip-rule="evenodd" fill-rule="evenodd" height="157.646mm" image-rendering="optimizeQuality" shape-rendering="geometricPrecision" text-rendering="geometricPrecision" viewBox="0 0 3947 3929" width="158.38mm" xmlns="http://www.w3.org/2000/svg"><path d="m10 1074c0 599-69 1142 166 1696 189 445 982 1225 1349 1154 307-59 788-496 966-733 500-669 433-1224 433-2036 0-316-279-405-521-491-575-206-1262-209-1849-17-178 58-544 209-544 427zm2888-965h168v416h116v-416h169v-109h-453zm509 416h116v-317l141 211h31l136-209v315h116v-525h-105l-160 251-168-251h-108v525zm-1603 1138c0 61-21 114-64 158-43 45-94 83-154 114-60 32-121 66-182 104s-113 92-156 163-64 155-64 253c0 59 8 115 25 170l392-7c0-7-2-22-6-46s-6-47-6-68c0-50 16-93 49-129 32-36 73-65 122-88s102-53 159-90 109-78 159-122c49-45 90-109 122-194s49-185 49-300c0-180-65-330-195-450s-309-179-537-179c-117 0-230 21-340 64-109 42-211 113-305 212s-159 218-196 357l392 160c37-102 90-178 157-228 68-50 159-75 274-75 91 0 164 22 220 65s83 96 83 156zm-648 1353c0 67 22 126 67 176s102 75 173 75c65 0 120-25 164-75 45-50 67-109 67-176 0-61-23-117-68-168s-100-77-163-77c-69 0-126 25-171 75s-68 106-68 170z" fill="#001640"/></svg>