<svg clip-rule="evenodd" fill-rule="evenodd" height="33.5873mm" image-rendering="optimizeQuality" shape-rendering="geometricPrecision" text-rendering="geometricPrecision" viewBox="0 0 1563 321" width="163.512mm" xmlns="http://www.w3.org/2000/svg"><g fill="#001640"><path d="m1241 88c0 49-6 93 14 139 15 36 80 100 110 94 25-5 64-41 79-60 41-55 35-100 35-166 0-26-23-33-43-40-47-17-103-17-151-1-15 5-44 17-44 35zm236-79h14v34h9v-34h14v-9h-37zm42 34h9v-26l12 17h3l11-17v26h9v-43h-9l-13 21-14-21h-9v43zm-131 93c0 5-2 9-5 13s-8 7-13 9c-5 3-10 5-15 9-5 3-9 8-13 13-3 6-5 13-5 21 0 5 1 9 2 14l32-1c0-1 0-2 0-4s0-4 0-6c0-4 1-8 4-11s6-5 10-7 8-4 13-7 9-6 13-10 7-9 10-16 4-15 4-25c0-15-5-27-16-37s-25-15-44-15c-10 0-19 2-28 5s-17 9-25 17-13 18-16 29l32 13c3-8 7-15 13-19s13-6 22-6c7 0 13 2 18 5 5 4 7 8 7 13zm-53 111c0 6 2 10 5 14 4 4 8 6 14 6 5 0 10-2 13-6 4-4 5-9 5-14s-2-10-6-14-8-6-13-6c-6 0-10 2-14 6s-6 9-6 14z"/><path d="m38 191h57c-1 7-5 12-12 16s-15 6-25 6c-18 0-31-5-39-14l-19 13c13 15 32 22 58 22 21 0 37-5 49-15s18-23 18-39-6-29-18-39-28-14-48-14c-12 0-23 2-33 5s-18 8-25 15l19 15c5-5 10-8 17-10s14-3 20-3c10 0 18 2 24 5 6 4 11 8 13 15h-57v22zm88-40h41v83h29v-83h42v-22h-111v22zm113 31c0 15 6 28 19 39 13 10 29 16 47 16 19 0 34-5 47-16 13-10 19-23 19-39s-6-28-19-39c-13-10-29-16-47-16-19 0-34 5-47 16-13 10-19 23-19 39zm30 0c0-9 4-17 11-23s16-9 26-9 18 3 26 9c7 6 11 14 11 23s-4 17-11 23-16 9-26 9-19-3-26-9-11-14-11-23zm195 53v-33h25c19 0 33-3 42-10s13-15 13-25c0-5-1-9-2-13-2-4-4-8-8-11-4-4-10-6-17-9-8-2-16-3-27-3h-54v105h29zm26-83c16 0 24 5 24 14s-8 14-25 14h-25v-29h26zm45 83h30l11-19h54l11 19h30l-57-105h-21l-57 105zm67-71 17 31h-34zm127 72c16 0 29-3 38-9 10-6 15-15 15-25 0-12-6-20-18-24 9-4 13-11 13-20 0-10-4-17-13-23-9-5-21-8-37-8-25 0-44 7-57 21l22 12c8-8 19-12 33-12 6 0 11 1 16 3s7 4 7 8c0 3-2 5-6 7s-10 3-18 3h-19v22h20c18 0 27 4 27 11 0 8-8 11-25 11s-30-5-39-14l-23 12c13 16 34 24 62 24zm72-2h56c15 0 28-3 37-8s14-13 14-24c0-12-6-20-17-24 8-6 13-13 13-22 0-18-15-27-45-27h-58zm55-43c8 0 14 1 17 2 3 2 5 4 5 8s-2 7-5 8c-4 2-10 2-18 2h-25v-21h26zm-2-40c8 0 13 1 16 2 3 2 4 4 4 8 0 3-1 5-4 7s-7 2-13 2h-27v-19zm68 31c0 15 6 28 19 39 13 10 29 16 47 16 19 0 34-5 47-16 13-10 19-23 19-39s-6-28-19-39c-13-10-29-16-47-16-19 0-34 5-47 16-13 10-19 23-19 39zm30 0c0-9 4-17 11-23s16-9 26-9 18 3 26 9c7 6 11 14 11 23s-4 17-11 23-16 9-26 9-19-3-26-9-11-14-11-23zm104 70h27v-18h83v18h27v-39h-15v-83h-94v13c0 32-4 55-13 71h-14v39zm55-101h38v62h-49c7-13 10-31 11-56z" fill-rule="nonzero"/></g></svg>