<svg clip-rule="evenodd" fill-rule="evenodd" height="159.978mm" image-rendering="optimizeQuality" shape-rendering="geometricPrecision" text-rendering="geometricPrecision" viewBox="0 0 24900 4119" width="967.112mm" xmlns="http://www.w3.org/2000/svg"><g fill="#001640"><path d="m637 2494h954c-23 113-90 203-202 270s-251 100-417 100c-300 0-518-78-656-233l-317 220c213 250 533 375 960 375 349 0 623-84 823-251 200-168 300-385 300-652 0-272-98-488-295-648s-465-240-803-240c-195 0-378 28-548 84s-307 140-409 251l314 250c78-78 174-135 288-170s226-53 337-53c162 0 297 30 405 89s179 140 214 244h-948v363zm1465-675h689v1388h477v-1388h692v-363h-1859v363zm1877 513c0 258 108 474 323 647s478 259 788 259 572-87 786-260 322-389 322-645c0-258-107-474-322-647-214-173-476-259-786-259-312 0-575 88-789 263s-322 389-322 643zm495 0c0-157 60-284 180-383 120-98 265-148 435-148 164 0 307 49 429 148 122 98 183 226 183 383 0 158-58 286-175 384s-263 146-437 146c-170 0-315-49-435-148-120-98-180-226-180-383zm3250 876v-550h415c314 0 545-58 692-174 148-116 222-257 222-424 0-78-14-151-42-218s-74-130-138-190c-65-60-160-108-285-143s-275-53-449-53h-892v1751h477zm428-1388c271 0 406 79 406 238 0 158-142 238-425 238h-409v-475h428zm751 1388h492l175-325h902l175 325h499l-945-1751h-354l-945 1751zm1117-1176 277 523h-560zm2124 1206c265 0 478-51 640-154s243-243 243-422c0-198-97-329-292-393 148-70 222-181 222-333 0-160-71-285-214-375s-348-135-617-135c-419 0-733 118-945 353l369 203c140-128 322-193 548-193 101 0 189 14 265 43 76 28 114 75 114 140 0 50-35 90-105 119s-167 44-292 44h-320v363h339c300 0 449 63 449 188 0 127-139 190-415 190-287 0-504-79-649-238l-379 208c218 262 564 393 1040 393zm1206-30h939c256 0 461-43 612-128 152-85 228-216 228-393 0-200-93-336-280-408 140-98 209-223 209-375 0-299-248-448-745-448h-963v1751zm914-718c133 0 228 14 283 41 55 28 83 72 83 134 0 65-30 111-89 139s-160 41-302 41h-412v-355zm-31-670c125 0 211 14 259 41 47 28 71 71 71 131 0 47-25 83-74 109s-121 39-215 39h-446v-320h406zm1126 513c0 258 108 474 323 647s478 259 788 259 572-87 786-260 322-389 322-645c0-258-107-474-322-647-214-173-476-259-786-259-312 0-575 88-789 263s-322 389-322 643zm495 0c0-157 60-284 180-383 120-98 265-148 435-148 164 0 307 49 429 148 122 98 183 226 183 383 0 158-58 286-175 384s-263 146-437 146c-170 0-315-49-435-148-120-98-180-226-180-383zm1730 1168h446v-293h1382v293h446v-655h-249v-1388h-1567v210c0 529-75 921-225 1178h-234v655zm914-1681h634v1026h-822c111-210 172-519 185-928z"/><path d="m23815 112h173v430h120v-430h174v-112h-468v112zm526 430h120v-328l146 218h32l141-216v325h120v-542h-108l-165 259-173-259h-112v542z"/><path d="m20830 1121c0 629-73 1199 175 1781 199 467 1032 1287 1417 1212 322-62 828-521 1014-770 526-702 455-1286 455-2138 0-331-293-425-547-516-604-217-1325-220-1942-18-187 61-572 220-572 448zm1916 705c0 72-25 134-74 186s-108 97-178 134c-69 37-139 78-210 123-70 45-130 109-179 192s-74 182-74 297c0 69 10 135 29 199l451-8c0-8-2-26-6-54s-6-55-6-80c0-59 19-109 56-151s84-77 141-103c57-27 117-62 182-105s126-91 182-144c57-52 103-128 141-228 37-100 56-217 56-353 0-212-75-388-224-529s-355-211-617-211c-134 0-264 25-390 75s-243 133-350 249c-108 116-183 256-226 420l451 188c43-120 103-210 181-268 78-59 183-88 315-88 105 0 189 26 253 77s96 112 96 184zm-395 1323c-141 0-255 114-255 255s114 255 255 255 255-114 255-255-114-255-255-255z"/></g></svg>