<svg clip-rule="evenodd" fill-rule="evenodd" height="47.4269mm" image-rendering="optimizeQuality" shape-rendering="geometricPrecision" text-rendering="geometricPrecision" viewBox="0 0 7043 1519" width="219.903mm" xmlns="http://www.w3.org/2000/svg"><path d="m5523 417c0 231-27 441 64 654 73 172 379 473 521 445 118-23 304-191 373-283 193-258 167-472 167-786 0-122-108-156-201-190-222-80-487-81-714-6-69 23-210 81-210 165zm274 203h172c4-72 52-118 125-118 72 0 121 44 121 104s-25 91-107 140c-88 51-123 109-115 208l1 37h169v-34c0-62 23-93 108-142 90-53 136-119 136-215 0-145-120-246-302-246-195 0-306 109-309 266zm285 675c58 0 104-44 104-100s-46-100-104-100c-57 0-104 44-104 100s46 100 104 100zm556-1254h65v161h45v-161h65v-42h-175zm196 161h45v-122l54 82h12l53-81v121h45v-202h-40l-62 97-65-97h-42zm-6664 689h254c-6 30-24 54-54 72s-67 27-111 27c-80 0-138-21-175-62l-84 59c57 67 142 100 256 100 93 0 166-22 219-67s80-103 80-174c0-72-26-130-79-173-52-43-124-64-214-64-52 0-101 7-146 22s-82 37-109 67l84 67c21-21 46-36 77-45 30-9 60-14 90-14 43 0 79 8 108 24s48 37 57 65h-253v97zm390-180h184v370h127v-370h185v-97h-495v97zm500 137c0 69 29 126 86 172s127 69 210 69 152-23 210-69c57-46 86-104 86-172 0-69-29-126-86-172s-127-69-210-69-153 23-210 70-86 104-86 171zm132 0c0-42 16-76 48-102s71-39 116-39c44 0 82 13 114 39 33 26 49 60 49 102s-16 76-47 102-70 39-116 39c-45 0-84-13-116-39s-48-60-48-102zm866 233v-147h111c84 0 145-15 185-46 39-31 59-69 59-113 0-21-4-40-11-58s-20-35-37-51-43-29-76-38-73-14-120-14h-238v467zm114-370c72 0 108 21 108 63s-38 63-113 63h-109v-127h114zm200 370h131l47-87h240l47 87h133l-252-467h-94zm298-313 74 139h-149zm566 321c71 0 127-14 171-41 43-27 65-65 65-112 0-53-26-88-78-105 39-19 59-48 59-89 0-43-19-76-57-100s-93-36-164-36c-112 0-196 31-252 94l98 54c37-34 86-51 146-51 27 0 50 4 71 11 20 8 30 20 30 37 0 13-9 24-28 32s-45 12-78 12h-85v97h90c80 0 120 17 120 50 0 34-37 51-111 51-77 0-134-21-173-63l-101 55c58 70 150 105 277 105zm322-8h250c68 0 123-11 163-34s61-58 61-105c0-53-25-90-75-109 37-26 56-60 56-100 0-80-66-119-199-119h-257v467zm244-191c36 0 61 4 75 11 15 7 22 19 22 36s-8 30-24 37-43 11-80 11h-110v-95h116zm-8-179c33 0 56 4 69 11s19 19 19 35c0 12-7 22-20 29s-32 10-57 10h-119v-85zm300 137c0 69 29 126 86 172s127 69 210 69 152-23 210-69c57-46 86-104 86-172 0-69-29-126-86-172s-127-69-210-69-153 23-210 70-86 104-86 171zm132 0c0-42 16-76 48-102s71-39 116-39c44 0 82 13 114 39 33 26 49 60 49 102s-16 76-47 102-70 39-116 39c-45 0-84-13-116-39s-48-60-48-102zm461 311h119v-78h368v78h119v-175h-66v-370h-418v56c0 141-20 246-60 314h-62zm244-448h169v273h-219c30-56 46-138 49-247z" fill="#001640"/></svg>