<svg clip-rule="evenodd" fill-rule="evenodd" height="143.803mm" image-rendering="optimizeQuality" shape-rendering="geometricPrecision" text-rendering="geometricPrecision" viewBox="0 0 5305 6204" width="122.959mm" xmlns="http://www.w3.org/2000/svg"><path d="m17 1030c0 1085-126 2070 301 3073 343 806 1780 2221 2445 2092 556-107 1428-899 1750-1329 907-1212 785-2219 785-3690 0-572-506-733-944-890-1042-374-2287-379-3352-30-323 106-987 380-987 774zm2577 2689c-160 0-289 129-289 289s129 289 289 289 289-129 289-289-129-289-289-289zm556-1572c0 81-28 152-85 212s-125 111-205 153-160 89-242 140c-81 51-150 124-207 218-57 95-85 207-85 338 0 79 11 154 33 227l520-9c0-9-2-29-7-61s-7-63-7-92c0-67 22-124 65-172s97-87 162-118 135-71 210-120 145-104 210-164 119-146 162-260c43-113 65-247 65-401 0-241-86-442-258-602s-409-240-712-240c-155 0-305 28-450 85s-280 151-404 284c-124 132-211 292-260 478l520 214c49-137 78-218 158-299 78-80 190-136 350-154 120-13 287 21 354 81 69 61 112 181 112 263z" fill="#731abb"/></svg>