<svg clip-rule="evenodd" fill-rule="evenodd" height="146.186mm" image-rendering="optimizeQuality" shape-rendering="geometricPrecision" text-rendering="geometricPrecision" viewBox="0 0 2686 3142" width="124.997mm" xmlns="http://www.w3.org/2000/svg"><path d="m9 522c0 549-64 1048 153 1556 174 408 902 1125 1238 1060 281-54 723-455 886-673 459-614 398-1124 398-1869 0-290-256-371-478-451-528-189-1158-192-1697-15-163 54-500 192-500 392zm1307 1483c-92 0-167 75-167 167s75 167 167 167 167-75 167-167-75-167-167-167zm289-841c0 45-16 85-47 118s-69 62-113 85c-44 24-88 50-133 78s-83 69-114 122-47 116-47 189c0 44 6 86 18 127l286-5c0-5-1-16-4-34s-4-35-4-51c0-37 12-69 36-96s53-49 89-66 74-39 116-67c41-28 80-58 116-91s66-82 89-145c24-63 36-138 36-224 0-135-47-247-142-336s-225-134-392-134c-85 0-168 16-248 48s-154 84-222 158-116 163-143 267l286 119c27-76 65-133 115-171 49-37 116-56 200-56 66 0 120 16 160 49 41 32 61 71 61 117z" fill="#731abb"/></svg>