<svg clip-rule="evenodd" fill-rule="evenodd" height="45.4247mm" image-rendering="optimizeQuality" shape-rendering="geometricPrecision" text-rendering="geometricPrecision" viewBox="0 0 10913 1607" width="308.416mm" xmlns="http://www.w3.org/2000/svg"><g fill="#2b2a29"><path d="m287 960h430c-10 51-40 92-91 122-50 30-113 45-188 45-135 0-233-35-295-105l-143 99c96 113 240 169 432 169 157 0 281-38 371-113s135-173 135-293c0-122-44-220-133-292s-209-108-362-108c-88 0-170 13-247 38s-138 63-184 113l141 113c35-35 78-61 130-77 51-16 102-24 152-24 73 0 134 13 182 40 49 27 81 63 96 110h-427v163zm660-304h310v625h215v-625h312v-163h-837zm845 231c0 116 49 213 146 291s215 117 355 117 258-39 354-117c97-78 145-175 145-291s-48-213-145-291-215-117-354-117c-140 0-259 39-355 118-97 79-145 175-145 289zm223 0c0-71 27-128 81-172s119-66 196-66c74 0 138 22 193 66s82 102 82 172c0 71-26 129-79 173s-118 66-197 66c-77 0-142-22-196-66s-81-102-81-172zm1463 394v-248h187c141 0 245-26 312-78s100-116 100-191c0-35-6-68-19-98-12-30-33-59-62-86s-72-48-128-64-124-24-202-24h-402v788h215zm193-625c122 0 183 36 183 107s-64 107-191 107h-184v-214h193zm338 625h222l79-146h406l79 146h225l-425-788h-159l-425 788zm503-529 125 235h-252zm956 543c119 0 215-23 288-69s109-109 109-190c0-89-44-148-132-177 67-32 100-81 100-150 0-72-32-128-96-169s-157-61-278-61c-188 0-330 53-425 159l166 91c63-58 145-87 247-87 45 0 85 6 119 19s51 34 51 63c0 23-16 40-47 54-31 13-75 20-132 20h-144v163h152c135 0 202 28 202 84 0 57-62 86-187 86-129 0-227-36-292-107l-170 93c98 118 254 177 468 177zm543-14h423c115 0 207-19 276-57 68-38 103-97 103-177 0-90-42-151-126-184 63-44 94-101 94-169 0-134-112-202-335-202h-434v788zm412-323c60 0 103 6 128 19 25 12 37 32 37 60 0 29-13 50-40 63-27 12-72 19-136 19h-186v-160h197zm-14-302c56 0 95 6 116 19 21 12 32 32 32 59 0 21-11 37-33 49s-55 17-97 17h-201v-144zm507 231c0 116 49 213 146 291s215 117 355 117 258-39 354-117c97-78 145-175 145-291s-48-213-145-291-215-117-354-117c-140 0-259 39-355 118-97 79-145 175-145 289zm223 0c0-71 27-128 81-172s119-66 196-66c74 0 138 22 193 66s82 102 82 172c0 71-26 129-79 173s-118 66-197 66c-77 0-142-22-196-66s-81-102-81-172zm779 526h201v-132h622v132h201v-295h-112v-625h-705v95c0 238-34 415-101 531h-105v295zm412-757h285v462h-370c50-95 78-234 83-418l1-44z" fill-rule="nonzero"/><path d="m9310 440c0 245-28 467 68 694 77 182 402 501 552 472 125-24 322-203 395-300 205-273 177-501 177-833 0-129-114-166-213-201-235-84-516-86-756-7-73 24-223 86-223 175zm582 607c-36 0-65 29-65 65s29 65 65 65 65-29 65-65-29-65-65-65zm126-355c0 18-6 34-19 48-13 13-28 25-46 34-18 10-36 20-55 32-18 11-34 28-47 49s-19 47-19 76c0 18 2 35 7 51l117-2c0-2-1-7-2-14s-2-14-2-21c0-15 5-28 15-39s22-20 37-27 31-16 47-27c17-11 33-23 47-37 15-13 27-33 37-59s15-56 15-91c0-54-19-100-58-136s-92-54-161-54c-35 0-69 6-102 19s-63 34-91 64-48 66-59 108l117 48c11-31 18-49 36-68 18-18 43-31 79-35 27-3 65 5 80 18 16 14 25 41 25 59zm468-648h68v170h47v-170h69v-44h-185v44zm208 170h47v-129l57 86h13l56-85v128h47v-214h-43l-65 102-68-102h-44z"/></g></svg>