<svg clip-rule="evenodd" fill-rule="evenodd" height="156.84mm" image-rendering="optimizeQuality" shape-rendering="geometricPrecision" text-rendering="geometricPrecision" viewBox="0 0 206618 33593" width="964.666mm" xmlns="http://www.w3.org/2000/svg"><g fill="#2b2a29"><path d="m173119 9189c0 5117-592 9763 1421 14497 1617 3802 8397 10474 11534 9869 2621-506 6737-4240 8256-6269 4278-5715 3704-10466 3704-17404 0-2698-2389-3459-4451-4200-4915-1764-10788-1789-15809-143-1523 499-4654 1791-4654 3650zm12156 12685c-753 0-1364 610-1364 1364 0 753 610 1364 1364 1364 753 0 1364-610 1364-1364 0-753-610-1364-1364-1364zm2624-7415c0 384-133 717-400 998s-589 521-966 720-757 418-1139 658c-383 240-707 583-974 1029s-400 977-400 1595c0 370 52 727 157 1070l2453-41c0-41-12-137-35-288s-35-295-35-432c0-316 101-586 304-813 203-226 458-412 765-556s638-333 992-566 684-490 992-772c307-281 562-689 765-1224s304-1166 304-1893c0-1139-406-2085-1218-2840s-1931-1132-3358-1132c-731 0-1438 134-2122 401s-1319 713-1905 1338c-586 624-995 1375-1226 2253l2453 1008c232-645 367-1026 744-1411 369-377 895-643 1649-724 565-61 1354 100 1672 382 325 288 528 855 528 1239zm9775-13533h1431v3546h990v-3546h1437v-926h-3859v926zm4338 3546h990v-2702l1201 1802h262l1163-1782v2683h990v-4472h-894l-1361 2140-1431-2140h-920v4472z"/><path d="m5300 21330h7937c-188 943-747 1693-1677 2248s-2087 832-3469 832c-2492 0-4310-645-5453-1935l-2637 1831c1775 2081 4438 3121 7988 3121 2902 0 5185-697 6849-2091s2496-3201 2496-5421c0-2261-819-4058-2458-5390s-3866-1998-6682-1998c-1621 0-3140 232-4557 697s-2552 1162-3405 2091l2612 2081c649-652 1447-1123 2394-1415 947-291 1882-437 2803-437 1349 0 2471 246 3367 739s1489 1169 1779 2029h-7885v3017zm12187-5619h5735v11550h3968v-11550h5761v-3018h-15464zm15618 4266c0 2150 896 3943 2688 5379s3977 2154 6554 2154c2578 0 4758-721 6542-2164s2676-3232 2676-5369c0-2150-892-3944-2676-5379-1783-1436-3964-2154-6542-2154-2594 0-4784 728-6567 2185-1784 1457-2676 3239-2676 5348zm4122 0c0-1304 499-2366 1498-3184 999-819 2206-1228 3623-1228 1366 0 2556 409 3572 1228 1016 818 1523 1880 1523 3184 0 1318-486 2383-1459 3194-973 812-2185 1218-3636 1218-1417 0-2624-409-3623-1228s-1498-1880-1498-3184zm27037 7284v-4578h3456c2612 0 4532-482 5761-1446s1844-2140 1844-3527c0-652-116-1255-346-1810s-614-1082-1152-1582-1327-895-2369-1186c-1041-291-2287-437-3738-437h-7425v14567h3968zm3559-11550c2253 0 3380 659 3380 1977s-1178 1977-3533 1977h-3405v-3954h3559zm6247 11550h4096l1460-2705h7501l1459 2705h4148l-7860-14567h-2944zm9294-9781 2304 4349h-4660l2355-4349zm17666 10031c2202 0 3977-426 5325-1280 1349-853 2023-2022 2023-3507 0-1651-811-2740-2432-3267 1229-583 1843-1505 1843-2768 0-1332-593-2372-1779-3122-1186-749-2897-1124-5133-1124-3482 0-6102 978-7860 2934l3072 1686c1161-1068 2680-1602 4557-1602 836 0 1570 118 2202 354s948 624 948 1165c0 416-290 746-870 989-581 243-1391 364-2433 364h-2663v3017h2816c2492 0 3738 520 3738 1561 0 1054-1152 1582-3457 1582-2389 0-4190-659-5402-1977l-3149 1727c1809 2178 4694 3267 8654 3267zm10037-250h7809c2134 0 3832-354 5095-1061 1263-708 1895-1796 1895-3267 0-1665-777-2795-2330-3392 1161-819 1741-1859 1741-3121 0-2483-2065-3725-6196-3725h-8014v14567zm7604-5973c1110 0 1895 115 2356 344s691 600 691 1113c0 541-247 926-743 1155-495 229-1331 344-2509 344h-3431v-2955h3636zm-256-5577c1041 0 1758 114 2151 343s589 593 589 1093c0 388-205 690-614 905-410 215-1007 322-1792 322h-3712v-2664h3379zm9371 4266c0 2150 896 3943 2688 5379s3977 2154 6554 2154c2578 0 4758-721 6541-2164 1784-1443 2676-3232 2676-5369 0-2150-892-3944-2676-5379-1784-1436-3964-2154-6541-2154-2594 0-4784 728-6567 2185-1784 1457-2676 3239-2676 5348zm4122 0c0-1304 499-2366 1498-3184 999-819 2206-1228 3623-1228 1366 0 2556 409 3572 1228 1016 818 1523 1880 1523 3184 0 1318-487 2383-1459 3194-973 812-2185 1218-3636 1218-1417 0-2624-409-3623-1228s-1498-1880-1498-3184zm14389 9718h3712v-2435h11496v2435h3713v-5452h-2074v-11550h-13032v1748c0 4398-623 7665-1869 9802h-1946zm7604-13984h5274v8532h-6836c922-1748 1434-4322 1536-7721l25-812z" fill-rule="nonzero"/></g></svg>