<svg clip-rule="evenodd" fill-rule="evenodd" height="46.3993mm" image-rendering="optimizeQuality" shape-rendering="geometricPrecision" text-rendering="geometricPrecision" viewBox="0 0 3630 3611" width="46.6384mm" xmlns="http://www.w3.org/2000/svg"><path d="m9 993c0 550-64 1049 153 1555 174 409 903 1126 1241 1058 280-54 724-454 888-673 460-613 397-1122 397-1870 0-290-258-370-479-452-529-190-1160-194-1701-14-164 54-501 194-501 392 0 2 0 2 1 4zm653 484h409c9-170 123-280 297-280 171 0 287 104 287 247s-59 216-255 333c-209 122-292 260-274 495l2 88h402v-80c0-148 54-221 258-338 214-126 324-284 324-512 0-345-285-585-719-585-465 0-728 260-735 633h2v-1l3-1zm679 1605c138 0 248-104 248-238s-110-238-248-238c-136 0-248 104-248 238s110 238 248 238zm1324-2983h154v383h108v-383h154v-99h-416v99h-1zm466 383h108v-290l129 195h28l126-194v287h108v-481h-95l-148 231-154-231h-99v481l1 1h-2z" fill="#fefefe"/></svg>