<svg clip-rule="evenodd" fill-rule="evenodd" height="297mm" image-rendering="optimizeQuality" shape-rendering="geometricPrecision" text-rendering="geometricPrecision" viewBox="0 0 21000 29700" width="210mm" xmlns="http://www.w3.org/2000/svg"><path d="m13764 1026c0 525-62 999 148 1486 165 391 861 1074 1184 1009 268-51 690-436 848-645 439-583 377-1074 377-1784 0-275-247-357-456-432-504-182-1105-182-1620-14-161 55-480 189-480 381zm621 463c3-357 257-604 700-604 412 0 683 230 683 559 0 220-103 367-309 487-192 113-247 182-247 323v75h-381l-3-82c-17-226 62-357 261-470 185-113 244-182 244-319s-113-237-275-237c-165 0-275 103-281 268h-391zm645 1530c-134 0-237-100-237-226 0-127 106-226 237-226 134 0 237 100 237 226 0 127-106 226-237 226zm-14477-868h628c-14 75-58 134-134 178-75 45-165 65-275 65-199 0-340-51-432-154l-206 144c141 165 350 247 631 247 230 0 408-55 542-165 130-110 199-254 199-429 0-178-65-323-196-429-127-106-305-158-528-158-216 0-480 51-628 220l206 165c51-51 113-89 189-110 75-21 148-34 223-34 106 0 196 21 268 58 72 38 117 93 141 161h-628v240zm964-446h453v913h312v-913h456v-240h-1222v240zm1235 340c0 172 72 312 213 425s312 172 518 172 374-58 518-172c141-113 213-257 213-425 0-172-72-312-213-425s-312-172-518-172-377 58-518 172c-144 120-213 261-213 425zm326 0c0-103 38-189 117-250 79-62 175-96 285-96s202 31 281 96c82 65 120 148 120 250 0 103-38 189-117 250-79 62-172 96-288 96-110 0-209-31-288-96-72-62-110-148-110-250zm2138 576v-364h275c206 0 357-38 456-113 96-75 144-172 144-278 0-51-10-100-27-144-17-45-48-86-93-127-41-38-106-72-189-93-82-21-178-34-295-34h-587v1153zm281-916c178 0 268 51 268 154s-93 154-278 154h-271v-312l281 3zm494 916 621-1153h233l621 1153h-329l-117-216h-594l-117 216h-319zm734-775-185 343h367zm1400 796c175 0 312-38 419-103 106-65 161-161 161-278 0-130-65-216-192-261 96-48 144-120 144-220 0-106-48-189-141-247s-230-89-405-89c-278 0-484 75-621 233l240 134c93-86 213-127 360-127 65 0 124 10 175 27 48 21 75 48 75 93 0 31-21 58-69 79s-110 31-192 31h-209v240h223c199 0 295 41 295 124 0 86-93 127-275 127-189 0-329-51-429-154l-250 137c148 168 374 254 690 254zm793-21h618c226 0 552-51 552-343 0-130-62-223-185-268 93-65 137-148 137-247 0-199-165-295-491-295h-635l3 1153zm604-474c89 0 151 10 185 27 38 17 55 48 55 89s-21 75-58 93c-38 17-106 27-199 27h-271v-233zm-21-443c82 0 137 10 172 27 34 17 48 48 48 86 0 31-17 55-48 72s-79 24-141 24h-295v-209zm741 340c0 172 72 312 213 425s312 172 518 172 374-58 518-172c141-113 213-257 213-425 0-172-72-312-213-425s-312-172-518-172-377 58-518 172c-141 120-213 261-213 425zm326 0c0-103 38-189 120-250 79-65 175-96 288-96 110 0 202 31 281 96 82 65 120 148 120 250 0 103-38 189-117 250-79 62-172 96-288 96-110 0-206-31-288-96s-117-148-117-250zm1139 769h295v-192h909v192h295v-432h-168v-916h-1029v137c0 347-48 607-148 775h-154zm604-1108h419v673h-542c75-137 113-340 120-611zm4018-1582v-100h412v100h-151v377h-106v-377h-154zm456 377h106v-285l127 192h27l124-189v285h106v-477h-93l-144 226-151-226h-100l-3 474z" fill="#001640"/></svg>