<svg viewBox="0 0 634.02 131.53" xmlns="http://www.w3.org/2000/svg"><path d="m15.53 78.36h23.22a9.54 9.54 0 0 1 -5 6.53 19.18 19.18 0 0 1 -10.15 2.46c-7.29 0-12.58-1.91-16-5.68l-7.6 5.33c5.2 6.11 12.95 9.09 23.37 9.09 8.51 0 15.17-2 20-6.11a20 20 0 0 0 7.29-15.9c0-6.53-2.37-11.85-7.23-15.77s-11.33-5.76-19.51-5.76c-7.92 0-17.72 1.95-23.28 8.12l7.66 6.11a16.06 16.06 0 0 1 7.05-4.1 29.76 29.76 0 0 1 8.21-1.28 20.08 20.08 0 0 1 9.85 2.19 10.26 10.26 0 0 1 5.2 5.93h-23.11v8.81zm35.62-16.42h16.85v33.77h11.54v-33.77h16.9v-8.84h-45.23v8.84zm45.65 12.49c0 6.29 2.64 11.49 7.84 15.71s11.58 6.29 19.18 6.29 13.89-2.1 19.18-6.29 7.84-9.48 7.84-15.71-2.64-11.48-7.84-15.71-11.58-6.29-19.18-6.29-14 2.1-19.18 6.35-7.84 9.49-7.84 15.59zm12.07 0a11.44 11.44 0 0 1 4.41-9.3 16.33 16.33 0 0 1 10.58-3.53 15.89 15.89 0 0 1 10.39 3.53 11.28 11.28 0 0 1 4.47 9.3 11.69 11.69 0 0 1 -4.29 9.3 15.94 15.94 0 0 1 -10.58 3.53 16.27 16.27 0 0 1 -10.58-3.53 11.48 11.48 0 0 1 -4.41-9.3zm79.13 21.28v-13.4h10.15c7.66 0 13.22-1.37 16.9-4.22 3.53-2.83 5.38-6.29 5.38-10.33a15.3 15.3 0 0 0 -1-5.32 12.88 12.88 0 0 0 -3.43-4.66 16.09 16.09 0 0 0 -6.93-3.46 43.52 43.52 0 0 0 -11-1.28h-21.66v42.61h11.59zm10.39-33.77q9.85 0 9.85 5.74c0 3.83-3.46 5.74-10.33 5.74h-10v-11.54h10.39v.06h.06zm18.27 33.77h-.06l23-42.61h8.6l23 42.61h-12.2l-4.29-7.93h-21.86l-4.29 7.93zm27.2-28.57-6.86 12.67h13.62l-6.75-12.67zm51.72 29.36c6.5 0 11.52-1.37 15.53-3.83s5.89-5.93 5.89-10.21c0-4.83-2.37-8-7.11-9.6 3.53-1.73 5.38-4.41 5.38-8.12a10.17 10.17 0 0 0 -5.2-9.09c-3.46-2.19-8.51-3.28-15-3.28-10.21 0-17.87 2.83-23 8.57l8.94 5c3.37-3.1 7.84-4.65 13.31-4.65a21.22 21.22 0 0 1 6.5 1c1.85.73 2.74 1.85 2.74 3.37 0 1.15-.79 2.19-2.55 2.92a18.77 18.77 0 0 1 -7.11 1.09h-7.75v8.84h8.21c7.29 0 11 1.55 11 4.59s-3.37 4.65-10.15 4.65c-7.05 0-12.25-1.91-15.8-5.74l-9.24 5c5.32 6.35 13.71 9.6 25.26 9.6h.09v-.06zm29.3-.79h22.83c8.39 0 20.42-2 20.42-12.67a9.88 9.88 0 0 0 -6.87-10c3.37-2.37 5.14-5.5 5.14-9.09 0-7.29-6-10.88-18.15-10.88h-23.46v42.64zm22.28-17.45c3.28 0 5.56.36 6.87 1a3.29 3.29 0 0 1 2 3.28 3.46 3.46 0 0 1 -2.19 3.37 20.67 20.67 0 0 1 -7.29 1h-10v-8.71h10.7zm-.73-16.32c3 0 5.14.36 6.32 1a3.36 3.36 0 0 1 1.73 3.19 2.94 2.94 0 0 1 -1.85 2.64 11.62 11.62 0 0 1 -5.2.91h-10.88v-7.77h9.85zm27.38 12.49c0 6.29 2.64 11.49 7.84 15.71s11.58 6.29 19.18 6.29 13.89-2.1 19.18-6.29 7.84-9.48 7.84-15.71-2.64-11.48-7.85-15.71-11.58-6.29-19.18-6.29-14 2.1-19.18 6.35-7.84 9.48-7.84 15.59v.06zm12.07 0a11.44 11.44 0 0 1 4.41-9.3 16.33 16.33 0 0 1 10.58-3.53 15.89 15.89 0 0 1 10.39 3.53 11.28 11.28 0 0 1 4.47 9.3 11.69 11.69 0 0 1 -4.29 9.3 15.94 15.94 0 0 1 -10.58 3.53 16.27 16.27 0 0 1 -10.58-3.53 11.48 11.48 0 0 1 -4.41-9.3zm42.12 28.39h10.88v-7.11h33.62v7.11h10.88v-16h-6v-33.72h-38.19v5.14c0 12.86-1.85 22.43-5.5 28.66h-5.69v16zm22.26-40.82h15.41v24.87h-20c2.74-5.14 4.22-12.58 4.47-22.55l.06-2.37zm51.88-25.83c0 20-2.34 38.2 5.56 56.65 6.35 14.89 32.89 41 45.2 38.54 10.21-2 26.38-16.53 32.34-24.53 16.76-22.33 14.46-40.83 14.46-68.11 0-10.58-9.39-13.49-17.45-16.47-19.25-6.93-42.25-7.05-61.94-.52-6 2-18.24 7.05-18.24 14.29v.09.06zm23.8 17.63h-.06-.06c.24-13.62 9.85-23.07 26.78-23.07 15.8 0 26.2 8.75 26.2 21.31 0 8.3-4 14-11.79 18.63-7.42 4.25-9.39 6.93-9.39 12.31v3.02h-14.69l-.06-3.22c-.67-8.57 2.34-13.59 10-18 7.11-4.26 9.27-6.93 9.27-12.13s-4.22-9-10.46-9-10.49 4-10.82 10.21zm24.74 58.48a8.67 8.67 0 1 1 9-8.66 8.78 8.78 0 0 1 -9 8.66zm48.23-108.66v-3.62h15.17v3.62h-5.62v14h-3.92v-14zm17 14h3.92v-10.62l4.68 7.11h1l4.59-7.05v10.45h3.9v-17.51h-3.46l-5.38 8.42-5.61-8.42h-3.62v17.54z" fill="#001640" fill-rule="evenodd"/></svg>