<svg clip-rule="evenodd" fill-rule="evenodd" height="81.5575mm" image-rendering="optimizeQuality" shape-rendering="geometricPrecision" text-rendering="geometricPrecision" viewBox="0 0 15051 3126" width="392.63mm" xmlns="http://www.w3.org/2000/svg"><path d="m369 1865h551c-13 65-52 117-117 156s-145 58-241 58c-173 0-299-45-379-135l-182 128c124 145 308 217 555 217 202 0 360-48 475-145s173-224 173-377c0-156-57-282-171-375-113-93-269-138-464-138-189 0-421 46-552 193l182 145c45-45 100-78 167-97 65-19 130-30 195-30 93 0 171 17 234 52s104 80 124 141h-548v210-2zm845-391h399v802h275v-802h401v-210h-1073v210zm1084 297c0 150 63 273 186 373 124 100 275 150 455 150s330-50 455-150c124-100 186-225 186-373 0-150-63-273-186-373-124-100-275-150-455-150s-331 50-455 151c-124 102-186 225-186 371zm286 0c0-91 35-164 104-221 70-57 154-84 251-84 96 0 177 28 247 84 71 57 106 130 106 221s-35 164-102 221-151 84-251 84c-97 0-182-28-251-84-70-57-104-130-104-221zm1877 505v-318h241c182 0 314-32 401-100 84-67 128-150 128-245 0-45-9-87-23-126-15-39-43-76-80-110-37-35-93-63-164-83-71-19-158-30-260-30h-516v1012h275l-1 1zm247-802c156 0 234 45 234 137 0 91-83 137-245 137h-237v-275h247v2h1zm433 802h284l102-189h520l102 189h288l-546-1012h-204l-546 1012h1zm646-678 160 301h-323zm1229 698c154 0 273-32 369-91 93-58 141-141 141-243 0-115-57-190-169-228 84-41 128-104 128-193 0-93-41-164-124-217-83-52-202-78-356-78-243 0-424 67-546 204l212 117c80-74 186-110 317-110 58 0 109 9 154 23 43 17 65 43 65 80 0 28-19 52-61 70-41 17-97 26-169 26h-184v210h195c173 0 260 37 260 109 0 74-80 110-241 110-167 0-291-45-375-137l-219 119c126 151 325 228 600 228h2 1zm696-19h542c199 0 485-47 485-301 0-115-54-195-163-237 80-57 122-130 122-217 0-173-143-258-431-258h-557v1012h2zm529-414c78 0 132 9 163 23 32 15 48 41 48 78s-17 65-52 80-93 23-173 23h-238v-206h254l-1 1zm-17-388c71 0 122 9 150 23 28 15 41 41 41 76 0 26-15 48-43 63s-70 22-124 22h-258v-184h234l1 1zm651 297c0 150 63 273 186 373 124 100 275 150 455 150s330-50 455-150c124-100 186-225 186-373 0-150-63-273-186-373-124-100-275-150-455-150s-331 50-455 151c-124 102-186 225-186 371zm286 0c0-91 35-164 104-221 70-57 154-84 251-84 96 0 177 28 247 84 71 57 106 130 106 221s-35 164-102 221-151 84-251 84c-97 0-182-28-251-84-70-57-104-130-104-221zm999 674h258v-169h798v169h258v-379h-143v-802h-906v122c0 305-43 533-130 681h-135v379zm529-971h366v591h-475c65-122 100-299 106-536l2-57 1 1zm1232-614c0 476-56 908 132 1346 150 354 780 974 1072 916 243-47 626-393 768-583 398-531 344-972 344-1619 0-251-223-321-414-391-458-164-1003-167-1470-12-142 47-432 167-432 340v2zm565 418h354c8-148 107-243 257-243 148 0 249 90 249 214s-51 187-220 288c-181 105-253 224-237 428l2 77h348v-70c0-128 47-191 223-292 185-109 280-245 280-443 0-298-247-506-622-506-402 0-630 224-636 548h2zm587 1390c119 0 214-90 214-206s-95-206-214-206c-117 0-214 90-214 206s95 206 214 206zm1145-2582h134v331h93v-331h134v-86h-360v86zm404 331h93v-251l111 169h24l109-167v249h93v-416h-83l-128 200-134-200h-86v416 1z" fill="#001640"/></svg>