<svg clip-rule="evenodd" fill-rule="evenodd" height="46.4076mm" image-rendering="optimizeQuality" shape-rendering="geometricPrecision" text-rendering="geometricPrecision" viewBox="0 0 20861 4328" width="223.678mm" xmlns="http://www.w3.org/2000/svg"><path d="m511 2580h764c-18 90-72 163-163 215-90 55-202 81-334 81-240 0-414-63-526-187l-252 177c171 201 426 299 769 299 280 0 499-66 658-201s240-310 240-523c0-215-78-390-238-519-157-128-373-191-642-191-261 0-583 64-766 267l252 201c63-63 139-108 232-135 90-26 181-42 270-42 129 0 238 24 324 72 87 49 145 111 171 195h-760v291-2 1zm1172-540h553v1111h381v-1111h556v-291h-1488v291zm1502 411c0 207 87 378 258 517s381 207 631 207c249 0 457-69 631-207 171-139 258-312 258-517 0-207-87-378-258-517s-381-207-631-207c-249 0-460 69-631 209-171 141-258 312-258 513v1zm397 0c0-126 49-228 145-306s214-116 348-116c133 0 246 38 342 116 99 78 147 181 147 306 0 126-49 228-141 306-93 78-210 116-348 116-135 0-252-38-348-116s-145-181-145-306zm2602 700v-441h334c252 0 435-45 556-139 116-93 177-207 177-340 0-63-12-120-32-175s-61-105-111-153c-51-49-129-87-228-114-99-26-220-42-361-42h-715v1402h381l-1 1zm342-1111c216 0 324 63 324 189s-114 189-340 189h-328v-380h342v2h1zm601 1111h393l141-261h721l141 261h399l-757-1402h-283l-757 1402h1 2zm895-940 222 417h-448zm1703 966c214 0 379-45 511-126 129-81 195-195 195-336 0-159-78-264-234-316 116-57 177-145 177-267 0-128-57-228-171-299-114-72-280-108-493-108-336 0-588 93-757 282l294 163c111-102 258-153 438-153 81 0 151 12 214 32 61 24 90 61 90 111 0 38-26 72-84 96-57 24-135 36-234 36h-255v291h270c240 0 361 51 361 151 0 102-111 153-334 153-232 0-403-63-520-189l-304 165c175 209 451 316 831 316h2 1l1-2zm964-26h751c276 0 672-65 672-417 0-159-75-270-226-328 111-78 169-181 169-299 0-240-197-358-597-358h-772v1402h2zm733-574c108 0 183 12 226 32 45 20 66 57 66 108s-24 90-72 111c-49 20-129 32-240 32h-330v-285h352l-1 1h-1zm-24-537c99 0 169 12 208 32 38 20 57 57 57 105 0 36-20 66-61 87-38 20-96 30-171 30h-358v-255h324l1 1 1-1zm901 411c0 207 87 378 258 517s381 207 631 207c249 0 457-69 631-207 171-139 258-312 258-517 0-207-87-378-258-517s-381-207-631-207c-249 0-460 69-631 209-171 141-258 312-258 513v1zm397 0c0-126 49-228 145-306s214-116 348-116c133 0 246 38 342 116 99 78 147 181 147 306 0 126-49 228-141 306-93 78-210 116-348 116-135 0-252-38-348-116s-145-181-145-306zm1385 934h358v-234h1106v234h358v-525h-197v-1111h-1256v169c0 423-61 738-181 943h-187v525-1zm733-1343h507v818h-658c90-169 139-414 147-742l2-78 1 1h1zm1707-850c0 659-77 1257 183 1864 209 490 1082 1349 1487 1268 336-65 868-544 1064-807 551-735 476-1345 476-2241 0-348-309-444-574-542-634-228-1390-232-2038-17-196 65-600 232-600 470v2 1l1 2zm783 580h490c11-204 148-336 356-336 205 0 344 125 344 296s-71 259-305 399c-251 146-350 311-328 593l2 106h482v-96c0-177 65-265 309-405 257-151 388-340 388-613 0-413-342-701-862-701-557 0-873 311-881 759h2v-1l2-1zm814 1924c165 0 297-125 297-285s-132-285-297-285c-163 0-297 125-297 285s132 285 297 285zm1587-3575h185v459h129v-459h185v-119h-499v119h-1zm559 459h129v-348l154 234h33l151-232v344h129v-576h-114l-177 277-185-277h-119v576 1l1 1z" fill="#001640"/></svg>