<svg clip-rule="evenodd" fill-rule="evenodd" height="46.3993mm" image-rendering="optimizeQuality" shape-rendering="geometricPrecision" text-rendering="geometricPrecision" viewBox="0 0 216939 45003" width="223.667mm" xmlns="http://www.w3.org/2000/svg"><path d="m5314 26811h7945c-187 936-749 1695-1695 2236-936 572-2101 842-3473 842-2496 0-4305-655-5470-1945l-2621 1841c1778 2090 4430 3110 7997 3110 2912 0 5189-686 6843-2090s2496-3224 2496-5439c0-2236-811-4056-2475-5397-1633-1331-3879-1986-6677-1986-2714 0-6063 666-7966 2777l2621 2090c655-655 1446-1123 2413-1404 936-270 1882-437 2808-437 1342 0 2475 250 3369 749 905 510 1508 1154 1778 2028h-7904v3026-21 10l10 10zm12188-5616h5751v11554h3962v-11554h5782v-3026h-15475v3026h-21zm15620 4274c0 2153 905 3931 2683 5377s3962 2153 6562 2153c2590 0 4753-718 6562-2153 1778-1446 2683-3245 2683-5377 0-2153-905-3931-2683-5377s-3962-2153-6562-2153c-2590 0-4784 718-6562 2174-1778 1466-2683 3245-2683 5335v10 10zm4129 0c0-1310 510-2371 1508-3182s2226-1206 3619-1206c1383 0 2558 395 3557 1206 1030 811 1529 1882 1529 3182 0 1310-510 2371-1466 3182-967 811-2184 1206-3619 1206-1404 0-2621-395-3619-1206s-1508-1882-1508-3182zm27060 7280v-4586h3473c2621 0 4524-468 5782-1446 1206-967 1841-2153 1841-3536 0-655-125-1248-333-1820s-634-1092-1154-1591c-530-510-1342-905-2371-1186-1030-270-2288-437-3754-437h-7436v14580h3962l-10 10v10zm3557-11554c2246 0 3369 655 3369 1966 0 1310-1186 1966-3536 1966h-3411v-3952h3557v21h10 10zm6250 11554h4087l1466-2714h7498l1466 2714h4150l-7873-14580h-2943l-7873 14580h10 21-10zm9308-9776 2309 4337h-4659zm17711 10046c2226 0 3942-468 5314-1310 1342-842 2028-2028 2028-3494 0-1654-811-2746-2434-3286 1206-593 1841-1508 1841-2777 0-1331-593-2371-1778-3110-1186-749-2912-1123-5127-1123-3494 0-6115 967-7873 2933l3058 1695c1154-1061 2683-1591 4555-1591 842 0 1570 125 2226 333 634 250 936 634 936 1154 0 395-270 749-874 998-593 250-1404 374-2434 374h-2652v3026h2808c2496 0 3754 530 3754 1570 0 1061-1154 1591-3473 1591-2413 0-4191-655-5408-1966l-3162 1716c1820 2174 4690 3286 8642 3286h21 10l10-21h10zm10025-270h7810c2870 0 6989-676 6989-4337 0-1654-780-2808-2350-3411 1154-811 1758-1882 1758-3110 0-2496-2049-3723-6209-3723h-8029v14580h21 10zm7623-5969c1123 0 1903 125 2350 333 468 208 686 593 686 1123s-250 936-749 1154c-510 208-1342 333-2496 333h-3432v-2964h3661l-10 10h-10v10zm-250-5585c1030 0 1758 125 2163 333 395 208 593 593 593 1092 0 374-208 686-634 905-395 208-998 312-1778 312h-3723v-2652h3369l10 10 10-10zm9370 4274c0 2153 905 3931 2683 5377s3962 2153 6562 2153c2590 0 4753-718 6562-2153 1778-1446 2683-3245 2683-5377 0-2153-905-3931-2683-5377s-3962-2153-6562-2153c-2590 0-4784 718-6562 2174-1778 1466-2683 3245-2683 5335v10 10zm4129 0c0-1310 510-2371 1508-3182s2226-1206 3619-1206c1383 0 2558 395 3557 1206 1030 811 1529 1882 1529 3182 0 1310-510 2371-1466 3182-967 811-2184 1206-3619 1206-1404 0-2621-395-3619-1206s-1508-1882-1508-3182zm14404 9713h3723v-2434h11502v2434h3723v-5460h-2049v-11554h-13062v1758c0 4399-634 7675-1882 9807h-1945v5460-10h-10zm7623-13967h5273v8507h-6843c936-1758 1446-4305 1529-7717l21-811 10 10h10v10zm17752-8840c0 6853-801 13072 1903 19385 2174 5096 11252 14029 15464 13187 3494-676 9027-5657 11065-8393 5730-7644 4950-13988 4950-23306 0-3619-3214-4617-5969-5637-6593-2371-14456-2413-21195-177-2038 676-6240 2413-6240 4888v21 10l10 21h10zm8143 6032h5096c114-2122 1539-3494 3702-3494 2132 0 3578 1300 3578 3078s-738 2694-3172 4150c-2610 1518-3640 3234-3411 6167l21 1102h5013v-998c0-1841 676-2756 3214-4212 2673-1570 4035-3536 4035-6375 0-4295-3557-7290-8965-7290-5793 0-9079 3234-9162 7893h21v-10l21-10h10zm8465 20009c1716 0 3089-1300 3089-2964s-1373-2964-3089-2964c-1695 0-3089 1300-3089 2964s1373 2964 3089 2964zm16504-37179h1924v4773h1342v-4773h1924v-1238h-5189v1238h-10 10zm5813 4774h1342v-3619l1602 2434h343l1570-2413v3578h1342v-5990h-1186l-1841 2881-1924-2881h-1238v5990 10l10 10h-21z" fill="#001640"/></svg>