<svg clip-rule="evenodd" fill-rule="evenodd" height="137.643mm" image-rendering="optimizeQuality" shape-rendering="geometricPrecision" text-rendering="geometricPrecision" viewBox="0 0 17737 17744" width="137.59mm" xmlns="http://www.w3.org/2000/svg"><path d="m43 4854c0 2703-313 5157 750 7657 854 2008 4435 5533 6092 5213 1384-267 3558-2239 4361-3311 2260-3019 1956-5528 1956-9193 0-1425-1262-1827-2351-2218-2596-932-5698-945-8350-75-804 264-2458 946-2458 1928zm6421 6700c-398 0-720 322-720 720s322 720 720 720 720-322 720-720-322-720-720-720zm1386-3916c0 203-70 379-211 527-141 149-311 275-510 380s-400 221-602 348-374 308-515 543c-141 236-211 516-211 842 0 196 28 384 83 565l1296-22c0-22-6-72-18-152s-18-156-18-228c0-167 54-310 161-429 107-120 242-217 404-293s337-176 524-299 361-259 524-408c162-149 297-364 404-647s161-616 161-1000c0-601-214-1101-643-1500s-1020-598-1774-598c-386 0-760 71-1121 212s-697 377-1006 707-525 726-648 1190l1296 533c123-341 194-542 393-745 195-199 473-339 871-383 298-32 715 53 883 202 172 152 279 451 279 654zm5163-7148h756v1873h523v-1873h759v-489h-2038zm2291 1873h523v-1427l634 952h138l614-942v1417h523v-2362h-472l-719 1130-756-1130h-486v2362z" fill="#731abb"/></svg>