<svg clip-rule="evenodd" fill-rule="evenodd" height="137.643mm" image-rendering="optimizeQuality" shape-rendering="geometricPrecision" text-rendering="geometricPrecision" viewBox="0 0 5869 5871" width="137.59mm" xmlns="http://www.w3.org/2000/svg"><path d="m14 1606c0 894-103 1706 248 2533 283 664 1467 1831 2016 1725 458-88 1177-741 1443-1096 748-999 647-1829 647-3042 0-471-417-605-778-734-859-308-1885-313-2763-25-266 87-813 313-813 638zm2124 2217c-132 0-238 107-238 238 0 132 107 238 238 238 132 0 238-107 238-238 0-132-107-238-238-238zm459-1296c0 67-23 125-70 174s-103 91-169 126-132 73-199 115-124 102-170 180c-47 78-70 171-70 279 0 65 9 127 27 187l429-7c0-7-2-24-6-50s-6-52-6-76c0-55 18-102 53-142s80-72 134-97 111-58 173-99 120-86 173-135c54-49 98-120 134-214 35-93 53-204 53-331 0-199-71-364-213-496s-337-198-587-198c-128 0-251 23-371 70s-231 125-333 234-174 240-214 394l429 176c41-113 64-179 130-247 65-66 156-112 288-127 99-11 237 18 292 67 57 50 92 149 92 216zm1708-2365h250v620h173v-620h251v-162h-674zm758 620h173v-472l210 315h46l203-312v469h173v-782h-156l-238 374-250-374h-161z" fill="#fff"/></svg>