<svg viewBox="0 0 634.58 131.86" xmlns="http://www.w3.org/2000/svg"><path d="m15.54 78.65h23.21a9.79 9.79 0 0 1 -4.94 6.58 19.4 19.4 0 0 1 -10.14 2.47c-7.31 0-12.61-1.92-16-5.67l-7.67 5.39c5.21 6.12 13 9.14 23.4 9.14 8.5 0 15.17-2 20-6.12a19.94 19.94 0 0 0 7.31-15.9c0-6.58-2.38-11.88-7.22-15.81s-11.33-5.85-19.56-5.85c-8 0-17.75 2-23.31 8.13l7.68 6.12a16 16 0 0 1 7-4.11 28.58 28.58 0 0 1 8.23-1.28 20.22 20.22 0 0 1 9.87 2.19 10.3 10.3 0 0 1 5.21 5.94h-23.07v8.77zm35.64-16.45h16.82v33.8h11.61v-33.8h16.9v-8.87h-45.24v8.87zm45.7 12.52c0 6.31 2.65 11.52 7.86 15.72s11.61 6.31 19.19 6.31 13.89-2.1 19.19-6.31 7.88-9.5 7.88-15.72-2.67-11.52-7.87-15.72-11.61-6.31-19.19-6.31-14 2.1-19.19 6.4-7.86 9.51-7.86 15.63zm12.07 0a11.44 11.44 0 0 1 4.39-9.32 16.33 16.33 0 0 1 10.6-3.56 16 16 0 0 1 10.42 3.56 11.27 11.27 0 0 1 4.48 9.32 11.62 11.62 0 0 1 -4.3 9.32 16 16 0 0 1 -10.6 3.56 16.33 16.33 0 0 1 -10.61-3.6 11.44 11.44 0 0 1 -4.39-9.32zm79.14 21.28v-13.42h10.14c7.68 0 13.25-1.37 16.91-4.2s5.39-6.31 5.39-10.33a14.4 14.4 0 0 0 -1-5.3 13.17 13.17 0 0 0 -3.38-4.66 16.47 16.47 0 0 0 -6.95-3.47 42 42 0 0 0 -11-1.28h-21.71v42.66h11.61zm10.42-33.8q9.87 0 9.87 5.76c0 3.84-3.47 5.76-10.33 5.76h-10v-11.61h10.42v.09zm18.28 33.8 23-42.68h8.59l23 42.68h-12.09l-4.3-8h-21.93l-4.3 8zm27.21-28.59-6.85 12.7h13.62zm51.81 29.43c6.49 0 11.53-1.37 15.55-3.84s5.94-5.94 5.94-10.24q0-7.27-7.13-9.6c3.56-1.74 5.39-4.39 5.39-8.13a10.24 10.24 0 0 0 -5.21-9.14c-3.47-2.19-8.5-3.29-15-3.29-10.24 0-17.91 2.83-23 8.59l9 4.94c3.38-3.11 7.86-4.66 13.34-4.66a20.15 20.15 0 0 1 6.49 1c1.83.73 2.74 1.83 2.74 3.38 0 1.19-.82 2.19-2.56 2.92a18.83 18.83 0 0 1 -7.13 1.1h-7.77v8.87h8.23c7.31 0 11 1.55 11 4.57s-3.44 4.69-10.21 4.69c-7 0-12.25-1.92-15.81-5.76l-9.23 5c5.3 6.4 13.71 9.6 25.32 9.6zm29.38-.84h22.81c8.41 0 20.47-2 20.47-12.7a9.86 9.86 0 0 0 -6.85-10c3.38-2.38 5.12-5.48 5.12-9.14 0-7.31-6-10.88-18.19-10.88h-23.46v42.72zm22.3-17.46c3.29 0 5.58.37 6.86 1a3.32 3.32 0 0 1 2 3.29 3.46 3.46 0 0 1 -2.19 3.38 19.78 19.78 0 0 1 -7.31 1h-10.06v-8.65zm-.73-16.36c3 0 5.12.37 6.31 1a3.34 3.34 0 0 1 1.74 3.2 3 3 0 0 1 -1.81 2.67 11.32 11.32 0 0 1 -5.21.91h-10.91v-7.76zm27.42 12.52c0 6.31 2.65 11.52 7.86 15.72s11.61 6.31 19.19 6.31 13.89-2.1 19.19-6.31 7.86-9.51 7.86-15.72-2.65-11.5-7.86-15.7-11.61-6.31-19.19-6.31-14 2.1-19.19 6.4-7.86 9.51-7.86 15.63zm12.06 0a11.44 11.44 0 0 1 4.39-9.32 16.33 16.33 0 0 1 10.6-3.56 16 16 0 0 1 10.42 3.56 11.27 11.27 0 0 1 4.48 9.32 11.62 11.62 0 0 1 -4.3 9.32 16 16 0 0 1 -10.6 3.56 16.33 16.33 0 0 1 -10.61-3.58 11.44 11.44 0 0 1 -4.39-9.32zm42.13 28.42h10.88v-7.12h33.63v7.13h10.88v-16h-6v-33.8h-38.2v5.12c0 12.89-1.83 22.48-5.48 28.7h-5.67v16zm22.3-40.95h15.45v25h-20c2.74-5.12 4.2-12.61 4.48-22.57l.09-2.38zm51.95-25.91c0 20.06-2.34 38.29 5.56 56.78 6.34 14.93 32.9 41.07 45.23 38.63 10.24-2 26.39-16.58 32.38-24.57 16.76-22.4 14.5-41 14.5-68.24 0-10.59-9.38-13.54-17.45-16.5-19.27-6.95-42.28-7-62-.52-6 2-18.23 7-18.23 14.33v.09zm23.79 17.62h-.09c.26-13.63 9.9-23.09 26.83-23.09 15.8 0 26.22 8.77 26.22 21.36 0 8.33-4 14.06-11.81 18.67-7.38 4.25-9.38 6.94-9.38 12.33v3h-14.67l-.09-3.21c-.7-8.59 2.34-13.63 10-18.06 7.12-4.25 9.29-6.95 9.29-12.15s-4.25-9-10.51-9-10.51 4-10.85 10.24zm24.74 58.6a8.69 8.69 0 1 1 9-8.68 8.79 8.79 0 0 1 -9 8.68zm48.27-108.83v-3.65h15.19v3.65h-5.61v14h-3.91v-14zm17 14h3.91v-10.65l4.67 7.15h1l4.6-7v10.47h3.91v-17.53h-3.47l-5.38 8.42-5.57-8.42h-3.65z" fill="#001640" fill-rule="evenodd"/></svg>