<svg fill="none" height="442" viewBox="0 0 442 442" width="442" xmlns="http://www.w3.org/2000/svg"><path d="m219.803 63.0371c29.135 0 57.702 7.7348 82.538 22.966 24.837 15.2309 44.975 37.0379 58.185 63.0059 13.211 25.968 18.978 55.085 16.663 84.129-2.314 29.043-12.619 56.879-29.775 80.428l-82.437-60.059c6.073-8.336 9.721-18.19 10.54-28.471.82-10.281-1.222-20.589-5.898-29.782-4.677-9.192-11.806-16.912-20.598-22.304s-18.904-8.683-29.218-8.683z" fill="#f00" fill-opacity=".68"/><path d="m347.54 313.82c-23.029 31.586-56.176 50.27-94.436 58.282s-78.132 1.547-111.9-18.146l51.623-88.137c12.131 7.075 25.796 10.147 39.542 7.268 13.745-2.878 25.935-10.754 34.208-22.102z" fill="#9d7df9"/><path d="m141.751 354.443c-23.28-13.544-42.709-32.818-56.4383-55.989-13.7293-23.172-21.3029-49.47-22.0004-76.394l101.9967-2.643c.246 9.525 2.926 18.829 7.783 27.026 4.857 8.198 11.73 15.016 19.966 19.808z" fill="#21b67c"/><path d="m63.5171 222.061c-.2147-23.24 4.704-46.241 14.4049-67.361 9.7008-21.119 23.945-39.837 41.715-54.8161l65.523 77.7301c-6.328 5.335-11.4 12-14.855 19.521-3.454 7.52-5.206 15.711-5.129 23.987z" fill="#c1635d"/><path d="m119.808 99.8056c18.894-15.7758 41.215-26.9155 65.181-32.5297l23.144 98.7991c-8.563 2.006-16.538 5.986-23.289 11.623z" fill="#6321b6"/><path d="m184.394 67.3318c11.691-2.7809 23.66-4.2181 35.677-4.2838l.554 101.472c-4.293.024-8.57.537-12.747 1.531z" fill="#c4c4c4"/></svg>