<svg fill="none" height="324" viewBox="0 0 322 324" width="322" xmlns="http://www.w3.org/2000/svg" xmlns:xlink="http://www.w3.org/1999/xlink"><clipPath id="a"><path d="m0 0h322v323.325h-322z"/></clipPath><g clip-path="url(#a)"><path d="m153.248 114.187c-9.259-4.842-15.417-12.823-22.754-19.9329-3.319-3.2276-10.001-8.8104-14.892-5.7137-2.577 1.6574-2.62 5.1467-2.839 7.8073-.524 7.0223-7.162 3.7073-11.355 3.1403-2.1397-.3053-4.2797-.3489-6.4196-.0436-2.009.2617-4.0179.7846-5.8085 1.7006-25.9417 17.97-16.2027 44.838 6.8566 57.094 23.4525 9.508 51.7965-18.493 32.0995-42.09-.83-.828-1.659-1.832-2.053-2.922-.436-1.265.131-2.661 1.616-2.704 1.704-.044 3.582 1.701 4.761 2.748 1.354 1.265 2.533 2.704 3.625 4.187 3.712 5.19 6.813 11.907 13.363 13.957 5.372 1.701 13.059-3.315 11.879-9.378-.829-3.794-4.891-6.193-8.079-7.85z" fill="#ed9743"/><path d="m149.884 124.785c6.202.785 8.604-7.196 8.604-7.196-1.572-1.44-3.538-2.53-5.241-3.402-1.266-.655-2.489-1.396-3.668-2.181-2.009 3.14-4.324 5.975-7.119 8.374 2.402 2.486 4.891 4.362 7.424 4.405z" fill="#fff"/><path d="m94.5944 149.036c-12.4904-5.06-24.3258-16.792-16.3336-37.117-12.5778 19.365 2.402 39.167 17.2071 46.93 20.2201 8.156 44.2841-11.732 38.0391-32.494-2.926 16.095-22.317 29.354-38.9126 22.681z" fill="#d37e31"/><path d="m149.405 131.458c-4.498-1.439-7.381-5.059-9.958-8.897 1.049-.654 2.053-1.396 2.97-2.225-5.765-5.888-11.267-15.003-16.727-10.206.088.044 7.905 4.449 7.949 4.493 1.354 1.265 1.179 1.439 2.271 2.966 3.712 5.19 6.769 11.95 13.364 14 3.406 1.047 7.686-.567 10.132-3.402-2.446 2.792-6.638 4.318-10.001 3.271z" fill="#d37e31"/><path d="m149.885 124.785c-2.533-.043-5.022-1.962-7.468-4.405-.961.785-1.922 1.527-2.97 2.224 2.577 3.795 5.416 7.459 9.958 8.898 3.362 1.047 7.555-.48 10.001-3.271 1.485-1.701 2.271-3.838 1.834-6.106-.349-1.789-2.751-4.493-2.751-4.493 0-.043-2.359 7.938-8.604 7.153z" fill="#eacdb5"/><path d="m105.819 161.423c-3.363 0-6.8569-.611-10.2634-2.007-.6551-.261-.9608-1.003-.6987-1.657.262-.654 1.0045-.96 1.6595-.698 12.5776 5.103 25.6796-1.178 32.1866-10.032 6.901-9.421 6.333-20.63-1.485-30.051-.917-.96-1.834-2.05-2.314-3.358-.393-1.091-.262-2.268.349-3.141.568-.785 1.441-1.265 2.49-1.265h.043c2.009 0 3.931 1.571 5.547 3.053 1.266 1.134 2.445 2.53 3.799 4.406.786 1.09 1.529 2.224 2.271 3.358 2.795 4.231 5.634 8.636 10.438 10.163 2.402.741 5.677-.131 7.948-2.138 1.878-1.657 2.708-3.751 2.315-5.8-.611-3.097-3.887-5.234-7.381-7.023-7.118-3.707-12.534-9.333-17.731-14.742-1.703-1.7881-3.494-3.62-5.328-5.3646-3.275-3.1403-9.346-8.0689-13.32-5.5392-1.878 1.1776-2.053 3.8818-2.227 6.2807l-.044.567c0 .2181-.044.4361-.087.6542-.219 1.7447-.961 3.0099-2.097 3.8379-2.314 1.614-5.634.916-8.603.262-.874-.174-1.704-.349-2.402-.436-6.7259-.8288-13.2768 1.352-17.5568 5.757-3.8868 4.013-6.5946 9.421-8.0794 16.094-.1311.698-.8298 1.091-1.5286.96s-1.0918-.829-.9608-1.527c1.6159-7.109 4.542-12.953 8.7346-17.271 4.804-4.9727 12.141-7.4152 19.653-6.4992.786.0872 1.703.3053 2.62.4797 2.315.4798 5.197 1.134 6.595.1309.567-.3926.917-1.0904 1.048-2.0936.044-.1745.044-.3489.044-.5234l.043-.567c.175-2.6606.437-6.3679 3.363-8.2434 4.105-2.617 9.783-.567 16.465 5.8445 1.834 1.7883 3.625 3.6638 5.371 5.452 5.329 5.5395 10.351 10.7295 17.077 14.2625 4.017 2.094 7.861 4.623 8.69 8.767.568 2.922-.567 5.888-3.1 8.156-2.926 2.617-7.119 3.707-10.394 2.661-5.634-1.789-8.779-6.543-11.792-11.166-.743-1.134-1.441-2.225-2.227-3.271-1.223-1.701-2.315-2.966-3.451-4.013-.873-.785-2.664-2.443-3.886-2.399-.306 0-.394.131-.437.175-.088.174-.175.479-.044.828.35.916 1.092 1.745 1.791 2.486l.043.044c8.648 10.337 9.259 22.768 1.616 33.192-5.153 7.327-14.586 12.954-24.762 12.954z" fill="#001640"/><path d="m124.293 311.025c-3.494 2.748-8.691 4.275-13.276 4.754-8.08.829-16.1593 2.007-24.3261 2.007-8.4725 0-16.9451.174-25.3739-.436-6.944-.48-14.2811-1.265-20.8757-3.228-2.664-.785-5.4591-1.745-7.075-3.707-1.3538-1.614-1.9652-3.577-3.1881-5.278-18.0805 1.658-30.1342547 4.667-30.1342547 8.069 0 5.234 28.2126547 10.163 62.9762547 10.163s62.9758-4.929 62.9758-10.163c0-.741-.611-1.483-1.703-2.181z" fill="#e5dadd"/><path d="m115.165 236.704-16.3769 16.574s6.6379 2.661 21.7489 6.106c.35-8.81-1.659-16.53-5.372-22.68z" fill="#ed9743"/><path d="m39.8293 238.405c-4.2363-27.653-7.1624-41.392-7.1624-47.498s-12.7525-38.687-10.4378-47.978c2.3147-9.29 5.8085-21.328 12.8398-27.827 9.6081-8.854 18.7357-16.9661 31.7502-15.9629 4.7603.3925 25.1119.0436 29.4355 2.0499 9.9134 4.667 22.0984 6.542 30.5714 30.575 7.773 26.867-3.625 48.501-4.149 60.539 1.135 6.847 2.14 11.253-1.092 17.141-3.232 5.844-1.747 12.038-3.756 22.288-2.97 6.586-5.372 10.075-10.7 15.876-5.022 5.626-19.9147 10.075-27.2954 8.592-4.0179-.785-9.215-.48-13.3202-1.788-8.3415 3.315-27.1645 9.072-27.776 8.461-.6114-.523-.0436-19.801 1.0919-24.468z" fill="#ffbd6e"/><path d="m88.1318 252.144c-8.4288-.218-18.0369-1.265-24.8935-6.63-2.4894.96-5.1534 1.309-7.6428.218-2.1836-.959-3.8432-2.791-5.1534-4.754-3.0134-4.623-3.7995-30.356-3.7995-30.356 19.8712.567 50.1365.915 74.5934-3.577 0 0 .437-.087.044-1.788-21.138 4.143-81.0136 2.878-81.1447-.611-.0873-3.402.0437-6.804.0437-10.206 0-2.748.0437-7.328-2.7077-8.898-1.7032-.959-3.9306-.741-5.8522-.349.6988 2.574 1.0919 4.58 1.0919 5.67 0 6.107 2.926 19.846 7.1623 47.498-1.1355 4.667-1.6596 23.945-1.0918 24.469.6114.567 19.4781-5.147 27.7759-8.462 4.149 1.265 9.346.96 13.3203 1.789 5.8958 1.177 16.421-1.353 23.0593-5.278-4.8478.96-9.7828 1.396-14.8052 1.265z" fill="#ed9743"/><path d="m32.5799 204.254s31.5318 3.969 36.8599 4.099c7.3807.175 14.15-.392 21.5744-.436 7.599-.043 33.0168-3.663 33.0168-3.663s.306-10.294-1.31-12.213c.043-.872-.175.349.218-2.093-13.932 3.75-45.4634 5.364-73.021.959 0 0-38.6068-72.184 27.0335-91.5062-4.4546-.0873-8.3852-.1309-10.1321-.2617-13.0145-1.0468-22.1421 7.1089-31.7502 15.9639-7.075 6.498-10.5251 18.536-12.8398 27.827-2.3146 9.202 10.2195 41.26 10.4378 47.803 0 4.23-.0873 13.521-.0873 13.521z" fill="#ed9743"/><path d="m122.721 193.568c-.088 0-.175 0-.262-.044-.699-.174-1.092-.829-.961-1.527.568-2.529 1.223-5.103 1.834-7.545 1.66-6.717 3.407-13.652 4.106-20.674 1.484-14.393.698-25.385-2.49-34.588-3.45-10.031-11.486-18.754-21.967-23.901-12.8401-6.3244-29.2174-7.5893-43.7605-3.315-5.6775 1.658-10.8309 4.1-15.3292 7.197-16.3336 11.253-23.889 30.662-19.3034 49.46 1.3102 5.365 3.2755 10.686 5.1534 15.789 2.0526 5.67 4.1926 11.515 5.5465 17.49.131.698-.2621 1.352-.9608 1.527-.6988.131-1.3539-.262-1.5286-.96-1.3102-5.801-3.4065-11.602-5.4591-17.184-1.9216-5.191-3.8869-10.599-5.1971-16.095-4.8476-19.801 3.1445-40.301 20.3516-52.164 4.7167-3.272 10.1321-5.801 16.0716-7.546 15.1108-4.4488 32.1432-3.1404 45.5946 3.489 11.093 5.452 19.522 14.699 23.234 25.341 4.323 12.562 3.581 26.344 2.62 35.634-.742 7.197-2.489 14.219-4.192 21.023-.612 2.443-1.223 5.016-1.835 7.502-.174.698-.698 1.091-1.266 1.091z" fill="#001640"/><path d="m120.45 153.572c0 22.2-11.355 29.397-25.3307 29.397-13.9753 0-25.3302-7.197-25.3302-29.397 0-22.201 11.3549-30.095 25.3302-30.095 13.9757 0 25.3307 7.894 25.3307 30.095z" fill="#fff"/><path d="m80.5332 257.378c-3.3192 0-6.2453-.262-8.5599-.611-1.9653-.305-3.9306-.698-5.8085-1.178-.6551-.174-1.0918-.872-.9171-1.526.1746-.654.8734-1.09 1.5285-.916 1.7906.48 3.6249.829 5.5028 1.09 7.2497 1.047 21.0503 1.614 31.969-6.324 10.175-7.371 15.591-26.736 16.464-42.7.044-.698.655-1.221 1.31-1.178.699.044 1.223.611 1.18 1.309-.83 15.353-5.896 36.201-17.47 44.619-8.0791 5.932-17.5998 7.415-25.1988 7.415z" fill="#001640"/><path d="m120.537 260.649c-.087 0-.131 0-.218 0-14.456-2.312-23.3215-6.106-23.6709-6.237-.6551-.262-.9171-1.003-.6551-1.658.262-.654 1.0045-.916 1.6596-.654.0873.044 8.3414 3.577 21.6614 5.845.131-8.636-1.441-15.92-4.585-21.11-.35-.611-.175-1.352.436-1.745.612-.349 1.354-.174 1.747.436 3.581 5.932 5.285 14.175 4.935 23.945 0 .349-.174.698-.48.916-.262.175-.568.262-.83.262z" fill="#001640"/><path d="m38.7385 264.138c-.2621 0-.5241-.087-.7425-.218-.262-.174-.4804-.48-.524-.829-1.0919-6.586-.4804-15.701 1.5285-22.854-3.1008-11.777-4.673-24.251-4.3673-35.111 0-.698.5678-1.221 1.2665-1.221h.0437c.6988 0 1.2665.61 1.2228 1.308-.262 10.773 1.2666 23.116 4.3673 34.762.0437.218.0437.436 0 .654-1.8779 6.412-2.533 14.568-1.7469 20.805 18.561-3.62 25.9854-8.025 26.0727-8.069.6114-.349 1.3539-.174 1.7469.436.3494.611.1747 1.352-.4367 1.745-.3057.218-8.1668 4.841-28.2127 8.636-.0873-.087-.1747-.044-.2183-.044z" fill="#001640"/><path d="m83.3286 110.523-2.271-1.134 3.3628-6.717c.3057-.611 1.0918-.872 1.7033-.567.6114.305.8734 1.09.5677 1.701z" fill="#001640"/><path d="m90.0539 107.382h-.0437l-9.9574-.479c-.6988-.044-1.2228-.611-1.1792-1.309.0437-.698.6115-1.221 1.3102-1.177l9.9574.479c.6988.044 1.2229.611 1.1792 1.309-.0437.654-.6114 1.177-1.2665 1.177z" fill="#001640"/><path d="m116.418 126.202c1.552-1.411-.257-5.919-4.041-10.069-3.783-4.15-8.108-6.37-9.659-4.959-1.552 1.41.257 5.918 4.041 10.068 3.783 4.15 8.108 6.371 9.659 4.96z" fill="#ffd1a4"/><path d="m113.681 193.96v12.3l9.739-.916.349-12.561z" fill="#fff"/><path d="m119.838 192.739v12.212l4.193-.698.218-12.43z" fill="#fff"/><path d="m60.2691 251.708c-6.2452-2.268-9.608-4.318-12.7961-7.415 0 0-3.2318 2.835-3.2318 12.431 4.3236 0 13.9316-2.443 16.0279-5.016z" fill="#fff"/><path d="m89.6169 253.322c1.0045-.088 2.009-.219 2.9698-.306.3494-1.701.4367-3.445.2183-5.19.0437-.96-.5677-1.745-1.3975-1.788-.8298-.044-1.5286.697-1.5722 1.613.262 1.832.1747 3.664-.2621 5.452.0437.088.0437.175.0437.219z" fill="#ed9743"/><path d="m84.7246 253.191c0 .174 0 .349.0437.523h.4804.393c.0437-.044.0874-.044.1747-.044.6114-.043 1.2229-.087 1.7906-.13 0-.044.0437-.131.0437-.175.393-1.788.5241-3.62.262-5.452.0437-.959-.5677-1.745-1.3975-1.788-.8298-.044-1.5286.698-1.5722 1.614.3494 1.832.2183 3.62-.2184 5.452z" fill="#ed9743"/><path d="m79.834 253.235c.9608.131 1.9653.262 2.9261.349 0-.087.0436-.131.0436-.218.3931-1.788.5241-3.62.2621-5.452.0436-.959-.5678-1.744-1.3976-1.788-.8297-.044-1.5285.698-1.5722 1.614.3057 1.875.1747 3.663-.262 5.495z" fill="#ed9743"/><path d="m36.816 192.739v12.212l-4.2363-.698-.2184-12.43z" fill="#fff"/><g fill="#001640"><path d="m123.114 301.517c-.262 0-.48-.087-.743-.218-.567-.393-.698-1.178-.305-1.745 5.677-8.112 10.088-19.409 11.791-30.182.131-.698.743-1.177 1.442-1.047.698.131 1.179.742 1.048 1.44-1.791 11.165-6.333 22.811-12.229 31.229-.218.349-.611.523-1.004.523z"/><path d="m135.647 265.272c-.043 0-.087 0-.131 0-.698-.087-1.222-.698-1.135-1.396.742-7.894.262-14.655-1.485-20.63-.175-.654.175-1.352.874-1.57.655-.175 1.353.174 1.572.872 1.834 6.281 2.358 13.347 1.572 21.59-.087.611-.655 1.134-1.267 1.134z"/><path d="m132.198 239.277c-.524 0-1.004-.305-1.179-.829-.699-1.875-1.572-3.576-2.62-5.19-.394-.567-.219-1.352.349-1.745.568-.392 1.354-.218 1.747.349 1.135 1.745 2.096 3.62 2.839 5.67.262.655-.088 1.396-.743 1.614-.087.087-.218.131-.393.131z"/><path d="m79.0918 319.88c-17.8622 0-40.2227-2.225-45.3761-8.549-10.3941-10.991-15.3292-25.472-17.6001-35.722-3.0571-13.608-2.8388-26.649.655-37.727 1.9653-6.194 5.5902-12.518 10.8309-18.886 2.6641-3.228 6.2452-8.2 6.0705-13.87 0-.698.5241-1.265 1.2229-1.309.6988-.043 1.2665.524 1.3102 1.222.1747 6.498-3.7122 11.994-6.6383 15.527-5.0224 6.106-8.5162 12.125-10.3505 18.013-3.3628 10.643-3.5375 23.248-.5677 36.42 2.2273 9.944 7.0313 23.988 17.0324 34.587.0437.044.0437.044.0873.087 3.6686 4.58 21.7928 7.72 44.066 7.677 21.4437-.044 38.8687-3.228 42.3627-7.677.044-.043.044-.043.087-.087 10.001-10.599 14.805-24.643 17.033-34.587 2.969-13.172 2.751-25.734-.568-36.42-1.834-5.888-5.328-11.907-10.351-18.013-2.926-3.533-6.812-9.029-6.638-15.527 0-.698.612-1.265 1.31-1.222.699 0 1.267.611 1.223 1.309-.131 5.67 3.407 10.599 6.071 13.87 5.24 6.324 8.909 12.692 10.831 18.842 3.493 11.078 3.712 24.119.655 37.728-2.315 10.206-7.25 24.73-17.6 35.721-5.023 6.237-26.1605 8.505-44.3284 8.593-.3931 0-.6114 0-.8298 0z"/><path d="m78.4797 197.58c-12.272 0-23.8454-.567-32.5363-1.613-12.7524-1.527-14.543-3.359-14.543-5.104 0-.785.4804-1.482 1.3975-2.093.6114-.349 1.3539-.175 1.7469.392.3494.567.2184 1.309-.3493 1.701 2.795 1.789 19.085 4.144 44.2842 4.144 25.1553 0 41.4893-2.355 44.2843-4.144 0 0-.044 0-.044-.043-.611-.349-.829-1.134-.48-1.701.349-.611 1.135-.829 1.703-.48 1.048.611 1.616 1.352 1.616 2.224 0 1.745-1.747 3.577-14.543 5.104-8.735 1.046-20.2642 1.613-32.5363 1.613z"/><path d="m78.48 201.331c-12.2721 0-23.8017-.567-32.4926-1.613-14.2374-1.702-14.2374-3.795-14.2374-4.798 0-.524.4367-.96.9608-.96.4804 0 .9171.393.9608.873 1.1792 1.875 17.6875 4.536 44.8521 4.536 9.1276 0 17.9495-.306 25.4613-.916.524-.044.961.349 1.004.872.044.523-.349.96-.873 1.003-7.5991.698-16.4647 1.003-25.636 1.003z"/><path d="m78.5674 205.17c-9.1713 0-18.0369-.306-25.6359-.916-.5241-.044-.9172-.48-.8735-1.004.0437-.523.4804-.916 1.0045-.872 7.5117.611 16.3336.916 25.4613.916 27.1642 0 43.6732-2.661 44.8522-4.536.043-.48.436-.872.961-.872.524 0 .96.436.96.959 0 1.003 0 3.097-14.237 4.798-8.691.96-20.2205 1.527-32.4926 1.527z"/><path d="m78.4797 209.487c-12.272 0-23.8454-.567-32.5363-1.613-12.7524-1.527-14.543-3.359-14.543-5.103v-11.951c0-.698.5677-1.265 1.2665-1.265s1.2665.567 1.2665 1.265v11.733c1.7906 1.788 18.3863 4.361 44.5463 4.361 26.1603 0 42.7553-2.53 44.5463-4.361v-11.733c0-.698.568-1.265 1.267-1.265.698 0 1.266.567 1.266 1.265v11.994c0 1.745-1.747 3.577-14.543 5.103-8.735 1.003-20.2642 1.57-32.5363 1.57z"/><path d="m39.7418 308.365c-.3931 0-.7424-.218-.8735-.611-.1746-.48.0437-1.047.5241-1.221 5.7212-2.312 21.1377-4.667 39.524-4.667 18.5173 0 33.9336 2.355 39.5676 4.667.48.218.699.741.524 1.221-.218.48-.742.698-1.223.524-5.503-2.225-20.6134-4.536-38.8686-4.536-18.168 0-33.2788 2.268-38.8252 4.536-.131.087-.2184.087-.3494.087z"/></g><path d="m105.863 310.066c0-1.57-7.4679-2.879-16.6829-2.879s-16.683 1.265-16.683 2.879c0 1.57 7.468 2.878 16.683 2.878s16.6829-1.308 16.6829-2.878z" fill="#e2d5d7"/><path d="m188.295 198.273-31.569 19.963 36.732-7.035z" fill="#001640"/><path d="m155.73 218.641 32.639-20.663 5.348 13.37-.222.037zm32.455-20.074-30.5 19.3 35.515-6.814z" fill="#001640"/><path d="m111.103 287.342c7.424 15.353-8.997 29.223-22.9286 19.409-1.4412-1.003-2.6204-2.399-3.3628-3.969-7.4244-15.353 8.9966-29.223 22.9284-19.409 1.397 1.003 2.576 2.399 3.363 3.969z" fill="#ef5454"/><path d="m107.02 289.288c.711-1.341-.752-3.506-3.267-4.836-2.516-1.329-5.131-1.32-5.8419.021-.7108 1.341.7521 3.507 3.2679 4.836 2.515 1.33 5.13 1.321 5.841-.021z" fill="#ff7373"/><path d="m101.015 303.218c-7.599-.61-13.2328-7.284-12.5777-14.873.1747-2.355.9608-4.492 2.1836-6.368-4.1926 2.355-7.1623 6.673-7.5991 11.82-.6987 8.243 5.4591 15.484 13.7133 16.182 7.5119.61 14.1499-4.362 15.8529-11.471-2.838 3.227-7.031 5.103-11.573 4.71z" fill="#b93232"/><path d="m97.914 311.331c-8.9529 0-16.29-7.284-16.29-16.269 0-8.941 7.2934-16.269 16.29-16.269 8.997 0 16.29 7.284 16.29 16.269s-7.293 16.269-16.29 16.269zm0-29.964c-7.5991 0-13.757 6.149-13.757 13.739 0 7.589 6.1579 13.739 13.757 13.739 7.599 0 13.757-6.15 13.757-13.739 0-7.59-6.158-13.739-13.757-13.739z" fill="#001640"/><path d="m78.1265 238.952c2.2171-2.214 1.83-6.191-.8647-8.882s-6.6766-3.078-8.8937-.863c-2.2172 2.214-1.8301 6.191.8646 8.882s6.6766 3.078 8.8938.863z" fill="#fff"/><path d="m70.1823 231.862c-2.1836 3.664 1.6159 7.459 5.2844 5.278.3494-.218.6551-.523.8735-.872 2.1836-3.664-1.6159-7.459-5.2844-5.278-.3494.218-.6551.523-.8735.872z" fill="#001640"/><path d="m68.479 233.258c-.8298 1.309.5678 2.704 1.878 1.876.0873-.088.2183-.175.262-.262.8298-1.309-.5678-2.704-1.8779-1.876-.1311.088-.2184.175-.2621.262z" fill="#fff"/><path d="m105.942 238.942c2.217-2.215 1.83-6.191-.865-8.882-2.694-2.692-6.6763-3.078-8.8935-.864s-1.8301 6.191.8647 8.882c2.6947 2.691 6.6768 3.078 8.8938.864z" fill="#fff"/><path d="m98.0017 231.862c-2.1837 3.664 1.6159 7.459 5.2843 5.278.349-.218.655-.524.874-.872 2.183-3.664-1.616-7.459-5.2849-5.278-.3494.218-.6551.523-.8734.872z" fill="#001640"/><path d="m96.2554 233.258c-.8298 1.309.5677 2.704 1.8779 1.876.0874-.088.2184-.175.2621-.262.8297-1.309-.5678-2.704-1.878-1.876-.0873.088-.1747.175-.262.262z" fill="#fff"/><path d="m63.8935 214.198-19.7402-2.617s7.206 39.341 20.7446 35.198c11.0056-3.882-1.3538-16.53-1.0044-32.581z" fill="#ffbd6e"/><path d="m48.8265 214.678c-.9172-4.187-2.5331-4.624-4.804-4.362 0 0 7.337 40.607 20.8756 36.463 1.9216-.393 4.4546-3.576 3.3191-6.586.1747 2.399-3.8432 4.1-6.2452 2.704-6.8566-3.663-11.7917-21.939-13.1455-28.219z" fill="#ed9743"/><path d="m62.8893 248.306c-1.4849 0-2.9261-.436-4.3236-1.264-10.2195-6.194-15.4165-34.065-15.6349-35.242-.131-.698.3494-1.352 1.0045-1.483.6987-.131 1.3538.349 1.4849 1.003.0436.262 5.197 27.914 14.4994 33.541 1.5285.916 3.0571 1.134 4.6293.654 5.1534-1.788 4.1489-5.67 1.5722-13.608-1.6159-4.929-3.6248-11.122-3.4502-17.796 0-.697.6115-1.264 1.3102-1.221.6988 0 1.2665.611 1.2229 1.309-.131 6.237 1.7032 11.95 3.3628 16.966 2.4457 7.546 4.542 14.045-3.1881 16.749-.9172.305-1.7033.392-2.4894.392z" fill="#001640"/><path d="m64.2435 236.18c.6551 1.701-.2184 3.621-1.9217 4.275-1.7032.654-3.6248-.218-4.2799-1.919s.8298-2.399 2.533-3.053c1.7469-.655 3.0571-1.004 3.6686.697z" fill="#fff"/><path d="m60.1378 242.243c0 .567-.4367 1.003-1.0044 1.003-.5678 0-1.0045-.436-1.0045-1.003s.4367-.829 1.0045-.829c.5677.044 1.0044.306 1.0044.829z" fill="#eacdb5"/><path d="m66.8637 236.878c0 .436-.3494.829-.8298.829-.4367 0-.8298-.349-.8298-.829 0-.436.3494-.61.8298-.61s.8298.13.8298.61z" fill="#fff"/><path d="m67.3872 240.193c0 .698-.5677 1.309-1.3102 1.309-.6988 0-.9608-.567-.9608-1.309 0-.698.262-1.308.9608-1.308.7425 0 1.3102.567 1.3102 1.308z" fill="#fff"/><path d="m64.5927 243.377c.0437-.131.0437-.218.0437-.349 0-.916-.7425-1.396-1.6159-1.396-.7425 0-1.3539.349-1.5723.96.1747.087.3494.218.4804.305.7862.48 1.747.611 2.6641.48z" fill="#fff"/><path d="m63.0202 244.424c.7861 0 1.3975-.393 1.5722-1.047-.9171.131-1.8779 0-2.664-.48-.1747-.087-.3494-.218-.4804-.305-.0437.131-.0437.262-.0437.392 0 .916.6988 1.44 1.6159 1.44z" fill="#eacdb5"/><path d="m121.41 205.475c-2.62 4.797-12.053 8.679-18.604 7.72 4.061 15.396-4.3676 31.49 7.249 32.537 14.107.742 11.355-40.257 11.355-40.257z" fill="#ffbd6e"/><path d="m115.034 242.243c-12.053 2.879-5.415-12.692-8.516-27.173-.349-1.395-2.009-2.704-3.494-2.05 4.062 15.397-4.5416 31.622 7.032 32.712 3.319.175 5.721-1.875 7.424-5.146-1.223.915-.786 1.744-2.446 1.657z" fill="#ed9743"/><path d="m110.449 246.997c-.175 0-.306 0-.481 0-8.21-.785-7.686-7.502-7.075-15.353.393-5.19.874-11.078-.742-17.097-.175-.654.218-1.352.917-1.527.655-.174 1.354.218 1.528.916 1.704 6.412 1.18 12.78.786 17.926-.655 8.375-.698 12.126 4.761 12.649 1.616.087 3.013-.48 4.28-1.788 7.599-7.677 5.808-35.591 5.765-35.896-.044-.698.48-1.309 1.179-1.352.699-.044 1.31.479 1.354 1.177.087 1.178 1.878 29.354-6.508 37.815-1.616 1.701-3.581 2.53-5.764 2.53z" fill="#001640"/><path d="m109.313 234.654c-.742 1.57-.044 3.445 1.529 4.187 1.572.741 3.45.043 4.192-1.527.743-1.57-.611-2.355-2.184-3.096-1.615-.698-2.795-1.134-3.537.436z" fill="#fff"/><path d="m112.719 240.76c-.044.523.35 1.003.874 1.047.524.043 1.004-.349 1.048-.873.043-.523-.35-.785-.917-.828-.481-.088-.961.087-1.005.654z" fill="#fff"/><path d="m107.479 235.962c.437.044.83-.305.83-.741.043-.436-.306-.611-.743-.611-.043 0-.131 0-.174 0 .043.436.043.916.087 1.352z" fill="#fff"/><path d="m106.78 235.09c-.044.436.262.785.698.829-.043-.437-.043-.873-.043-1.352-.35.043-.655.174-.655.523z" fill="#eacdb5"/><path d="m108.178 238.361c.044-.611-.087-1.09-.612-1.265.088.742.219 1.396.393 2.007.131-.175.219-.437.219-.742z" fill="#fff"/><path d="m106.038 238.23c-.044.698.437 1.265 1.135 1.309.393.043.655-.131.83-.436-.175-.611-.306-1.265-.393-2.007-.087 0-.131-.043-.218-.043-.699-.044-1.31.479-1.354 1.177z" fill="#eacdb5"/><path d="m110.885 242.374c.349-.218.568-.524.611-1.003.088-.873-.567-1.352-1.441-1.44-.655-.043-1.179.175-1.485.611.524.916 1.267 1.527 2.315 1.832z" fill="#fff"/><path d="m109.837 242.592c.393.044.742-.044 1.048-.218-1.048-.305-1.79-.916-2.271-1.832-.087.174-.175.349-.175.567-.087.872.568 1.396 1.398 1.483z" fill="#eacdb5"/><path d="m83.2412 233.869c0 .959 7.7737.959 7.7737 0 0-1.789-2.2709-3.228-3.8868-3.228-1.5722 0-3.8869 1.439-3.8869 3.228z" fill="#001640"/><path d="m88.0879 226.759h-1.8779v4.973h1.8779z" fill="#001640"/><path d="m89.9227 224.971c0-1.57-1.2228-2.835-2.7514-2.835-1.5285 0-2.7514 1.265-2.7514 2.835s2.7514 2.835 2.7514 2.835 2.7514-1.308 2.7514-2.835z" fill="#001640"/><path d="m77.6501 102.018s-3.9306-9.0287-3.4502-16.269c.8298-12.2125 5.6775-22.4186 14.8488-30.4439 5.5028-4.8414 11.6173-9.1158 15.8533-15.222 13.014-18.624-3.276-39.777741-24.1948-38.77457-7.6865.34892-16.159 6.36792-14.2374 14.96027.4367 1.9627 1.6159 3.7946 3.3628 4.7541 6.2016 3.3148 11.1366-6.8041 18.1243-2.7042 9.7827 5.7137 3.7558 16.0943-2.271 22.0261-9.477 9.2902-17.6002 19.8889-21.1377 33.0173-3.1444 16.6177 3.2318 24.8611 3.2318 24.8611 1.9216 2.6168 7.4244 4.3178 9.8701 3.7948z" fill="#ffbd6e"/><path d="m87.3897 17.9698c1.1791-1.8755 2.0089-3.9254 2.0526-6.2807.131-3.96906-1.6596-7.45834-4.28-10.24976-1.4412-.13085-2.926-.21808-4.4546-.13085-7.6864.34893-16.159 6.36793-14.2374 14.96031.4368 1.9627 1.6159 3.7946 3.3629 4.7541 6.0705 3.184 10.8745-6.1935 17.5565-3.0531z" fill="#fff"/><path d="m79.6162 18.1878c-12.9272.8723-9.3024-18.88569 6.6382-16.66128-1.7906-.26169-3.6248-.34892-5.5028-.26169-7.6864.34893-16.1589 6.36793-14.2373 14.96027.4367 1.9627 1.6159 3.7946 3.3628 4.7541 2.0526 1.0904 8.5599-1.701 10.4378-2.5297-1.7469-.9595-.3057 1.701-.6987-.2617z" fill="#eacdb5"/><path d="m77.5192 100.884c-2.0089.654-4.673 1.177-5.8084-.524 0 0-6.3326-10.7292-2.7514-27.2596 3.8868-12.9976 12.3594-23.3782 22.0548-32.4067 6.2015-5.7573 8.4288-16.4432-1.1792-22.4622-2.0963-1.2213-.5241-.9596-2.4894-.2617.1311.0436.5241.2617.6551.3489 9.7828 5.7137 3.7559 16.0943-2.271 22.0261-9.477 9.2902-17.6001 19.8889-21.1376 33.0173-3.1445 16.6176 4.3236 28.2199 4.3236 28.2199 1.8779 2.617 6.2452 1.003 8.6909.436.0437 0 0-.96-.0874-1.134z" fill="#ed9743"/><path d="m72.7591 103.85c-2.8387 0-4.6293-.611-5.3281-1.745-.3057-.48-7.2496-12.0817-4.0615-29.0047 0-.0436 0-.0436 0-.0872 3.1444-11.6018 9.9574-22.2877 21.4433-33.5843 3.7559-3.7073 7.5991-9.3338 7.0314-14.0007-.3057-2.4425-1.8343-4.4924-4.4983-6.019-.9608-.567-1.878-.8287-2.8388-.8287-1.8779 0-3.7122 1.0032-5.6338 2.0936-2.0089 1.134-4.1052 2.268-6.3762 2.268-1.0918 0-2.1836-.2617-3.2318-.8287-2.0089-1.0468-3.4502-3.0967-4.0179-5.5829-.8298-3.5765-.0437-6.97851 2.1836-9.94439 2.8824-3.75097 8.0358-6.324314 13.2329-6.58601h1.4849c10.9619 0 21.1812 5.93177 25.9852 15.1347 4.28 8.2435 3.494 17.5773-2.14 25.6462-3.363 4.7978-7.8173 8.5051-12.0972 12.0816-1.3102 1.0904-2.6641 2.2244-3.9742 3.3585-8.7783 7.72-13.626 17.6644-14.4558 29.6152-.4367 6.8477 3.1882 15.3088 3.2318 15.3968.2184.523.0874 1.134-.3493 1.483-1.3539 1.09-5.1534 1.134-5.5902 1.134zm-6.9003-30.2263c-2.9697 15.8762 3.7122 27.0853 3.7559 27.1723.1747.175 1.1792.524 3.1444.524 1.2665 0 2.402-.131 3.1008-.305-1.0481-2.7046-3.3191-9.4215-2.9261-15.3533.8735-12.6486 6.0269-23.16 15.2855-31.3162 1.3102-1.1777 2.7077-2.3117 4.0179-3.4021 4.1926-3.4892 8.4728-7.0658 11.6608-11.6018 5.11-7.2839 5.808-15.6581 1.965-23.0292-4.367-8.3743-13.6695-13.78267-23.7142-13.78267-.4367 0-.9171 0-1.3539.04361-4.4546.21808-8.9092 2.39888-11.3112 5.58284-1.7469 2.31162-2.3584 5.01582-1.7033 7.85092.3931 1.7446 1.4412 3.1839 2.7514 3.8818.6551.3489 1.3102.5234 2.009.5234 1.6595 0 3.3628-.9596 5.1534-1.9628 2.1399-1.1776 4.3236-2.3988 6.8566-2.3988 1.3975 0 2.7951.3925 4.1052 1.1776 3.4065 1.9627 5.3281 4.6233 5.7212 7.8945.8734 7.0658-5.7212 14.1316-7.7301 16.1379-11.1803 10.9476-17.7748 21.241-20.7883 32.363z" fill="#001640"/><path d="m189.207 50.7134c-1.386-.9025-2.98-1.7356-4.712-2.4992.277-2.9853.623-5.7622.97-8.4003.416-3.6101 1.178-7.0118 1.178-8.4003 0-2.0827-1.317-3.1241-2.703-3.1241-1.247 0-2.495.9025-2.841 2.9158-.832 4.582-1.525 9.9276-2.079 15.2733-2.288-.5554-4.505-.9025-6.307-.9025-1.456 0-2.426.0694-3.327.2777 2.218-4.582 3.396-10.6913 3.396-17.6337 0-1.3191-.069-2.7075-.139-4.096-.138-2.0827-1.455-3.1241-2.772-3.1241-1.455 0-2.772 1.1108-2.772 3.1935 0 1.5273.139 3.2629.139 5.3456 0 5.1374-.971 11.8021-2.773 14.5791-1.455 2.291-3.465 3.5406-3.465 5.415 0 1.5968 1.248 2.9158 2.98 2.9158 1.802 0 2.842-1.805 8.109-1.805 2.218 0 4.436.3471 6.515.972-.347 4.7208-.555 9.3028-.555 13.0516 0 2.2216 1.386 3.3324 2.772 3.3324 1.387 0 2.773-1.1108 2.773-3.3324 0-3.8877.138-7.5672.416-10.9689.831.4165 1.594.9025 2.425 1.319.555.3471 1.109.486 1.594.486 1.456 0 2.495-1.2496 2.495-2.5687 0-.7637-.416-1.5967-1.317-2.2216z" fill="#001640"/><path d="m209.555 67.8612c9.217 0 14.069-9.2334 14.069-25.4786 0-13.4683-4.713-21.3826-13.099-21.3826-9.426 0-14.485 9.2334-14.485 25.4786 0 14.2319 4.297 21.3826 13.515 21.3826zm0-5.1374c-5.475 0-7.901-4.5126-7.901-16.2452 0-13.5377 3.257-20.3412 8.871-20.3412 4.713 0 7.485 5.5539 7.485 16.2452 0 13.3294-3.049 20.3412-8.455 20.3412z" fill="#001640"/><path d="m256.683 50.7134c-1.386-.9025-2.98-1.7356-4.713-2.4992.278-2.9853.624-5.7622.971-8.4003.416-3.6101 1.178-7.0118 1.178-8.4003 0-2.0827-1.317-3.1241-2.703-3.1241-1.248 0-2.495.9025-2.842 2.9158-.831 4.582-1.524 9.9276-2.079 15.2733-2.287-.5554-4.505-.9025-6.307-.9025-1.455 0-2.425.0694-3.326.2777 2.218-4.582 3.396-10.6913 3.396-17.6337 0-1.3191-.07-2.7075-.139-4.096-.139-2.0827-1.455-3.1241-2.772-3.1241-1.456 0-2.772 1.1108-2.772 3.1935 0 1.5273.138 3.2629.138 5.3456 0 5.1374-.97 11.8021-2.772 14.5791-1.455 2.291-3.465 3.5406-3.465 5.415 0 1.5968 1.247 2.9158 2.98 2.9158 1.802 0 2.841-1.805 8.109-1.805 2.217 0 4.435.3471 6.514.972-.346 4.7208-.554 9.3028-.554 13.0516 0 2.2216 1.386 3.3324 2.772 3.3324s2.772-1.1108 2.772-3.3324c0-3.8877.139-7.5672.416-10.9689.832.4165 1.594.9025 2.426 1.319.554.3471 1.109.486 1.594.486 1.455 0 2.495-1.2496 2.495-2.5687 0-.7637-.416-1.5967-1.317-2.2216z" fill="#001640"/><path d="m101.146 12.954c2.097 2.3116 3.101 4.7977 2.228 5.5828-.874.7851-3.232-.4362-5.3284-2.7478-2.0963-2.3117-3.1007-4.7978-2.2273-5.5829.8298-.74143 3.2318.4798 5.3277 2.7479z" fill="#ffd1a4"/><path d="m100.578 175.162c-2.5327-10.119-.6548-20.02-.218-30.226.175-4.623-.087-13.303-5.6339-14.917-2.9697-.829-5.6338 1.44-7.7301 3.097-5.5901 4.274-7.5554-2.879-9.9137-6.412-1.1792-1.788-2.6204-3.402-4.2363-4.797-1.5285-1.309-3.2318-2.486-5.1534-3.228-30.6583-7.415-44.3279 17.708-38.1264 43.049 8.4726 23.814 48.2585 26.344 52.8005-4.013.0874-1.177.2621-2.442.8298-3.489.6114-1.178 2.0963-1.701 3.1008-.567 1.1355 1.221 1.1355 3.795 1.0918 5.365-.0437 1.875-.3494 3.707-.7424 5.495-1.3976 6.238-4.3673 12.998-1.5723 19.235 2.3147 5.147 11.1803 7.546 14.8925 2.617 2.4021-3.097 1.4851-7.72.6111-11.209z" fill="#ffbd6e"/><path d="m90.4032 179.741c3.5375 5.147 11.0928 1.614 11.0928 1.614 0-2.137-.48-4.318-.917-6.193-.349-1.396-.6114-2.792-.7861-4.188-3.6685.567-7.3807.742-11.0056.219-.262 3.489-.0437 6.586 1.6159 8.548z" fill="#fff"/><path d="m35.5064 154.575c-4.4983-12.692-3.6249-29.31 16.9014-36.856-22.8409 3.49-27.6886 27.784-23.7144 44.053 7.337 20.499 38.2138 25.21 49.6124 6.804-13.9317 8.461-36.7726 2.791-42.7994-14.001z" fill="#ed9743"/><path d="m85.0749 183.798c-1.9216-4.318-1.1355-8.854.0436-13.303 1.2229.349 2.4021.567 3.6249.741.5677-8.2 3.7559-18.362-3.4938-19.278 0 .087 1.9216 8.854 1.9216 8.941-.0437 1.876-.3057 1.832-.6988 3.664-1.3975 6.237-4.4546 12.998-1.6159 19.235 1.4412 3.227 5.5028 5.364 9.3023 5.321-3.6685 0-7.6427-2.137-9.0839-5.321z" fill="#ed9743"/><path d="m90.403 179.741c-1.6596-1.919-1.878-5.059-1.6596-8.505-1.2228-.174-2.4457-.436-3.6248-.741-1.1355 4.449-1.9653 8.985-.0437 13.303 1.4412 3.184 5.4154 5.321 9.0839 5.321 2.2274-.044 4.3673-.829 5.8085-2.704 1.1357-1.44 1.5287-5.06 1.5287-5.06s-7.5555 3.533-11.093-1.614z" fill="#eacdb5"/><path d="m94.1153 190.34c-.4367 0-.8734-.044-1.3101-.087-3.9306-.436-7.5118-2.835-8.9093-5.976-2.402-5.408-.9171-10.904.5241-16.225.3493-1.308.6987-2.573.9608-3.838.4804-2.05.6987-3.707.6987-5.234 0-1.177.0437-3.62-.7861-4.492-.2183-.218-.3494-.218-.4367-.218-.1747.043-.4804.174-.6551.523-.4804.872-.6114 2.006-.6551 3.01v.087c-2.0089 13.346-10.8745 22.026-23.758 23.247-11.879 1.134-26.5531-5.016-31.4882-19.016-.2183-.655.1311-1.396.7862-1.614.655-.218 1.3975.131 1.6158.785 4.542 12.779 17.9496 18.406 28.8678 17.359 11.617-1.134 19.6528-8.985 21.4871-21.11.131-1.352.3057-2.748.9608-3.926.5677-1.003 1.4848-1.701 2.5767-1.831.9608-.131 1.8779.218 2.5767 1.003 1.3975 1.483 1.4412 4.012 1.4412 6.237 0 1.701-.2621 3.533-.7425 5.757-.3057 1.309-.6551 2.617-1.0045 3.926-1.3101 4.885-2.7077 9.944-.6551 14.524 1.0482 2.311 3.8433 4.143 6.9004 4.492 2.4893.305 4.6293-.48 5.8521-2.137 1.922-2.53 1.31-6.368.3494-10.163-1.9653-7.807-1.3539-15.571-.7424-23.029.1747-2.486.393-5.016.4804-7.545.1747-4.536-.1747-12.344-4.7167-13.609-2.14-.61-4.2799 1.047-6.1579 2.53l-.4367.349c-1.7032 1.309-3.3628 1.832-4.8914 1.483-2.664-.567-4.1925-3.446-5.5464-5.932-.4367-.828-.8735-1.614-1.2665-2.224-1.1792-1.745-2.4894-3.271-4.0179-4.58-1.6159-1.396-3.2318-2.399-4.7604-3.009-.6551-.262-.9608-.96-.7424-1.614.262-.654.9608-.96 1.6159-.742 1.8343.698 3.6248 1.832 5.5028 3.446 1.6595 1.439 3.1881 3.14 4.4546 5.06.4804.741.9171 1.57 1.3975 2.442 1.0919 2.05 2.3584 4.362 3.8432 4.667.7862.174 1.7033-.175 2.7951-1.003l.4367-.349c2.14-1.658 5.0224-3.882 8.3852-2.966 4.673 1.308 6.9439 6.935 6.5509 16.181-.087 2.574-.306 5.147-.524 7.633-.611 7.633-1.1792 14.83.699 22.244 1.092 4.406 1.79 8.942-.786 12.3-1.4852 2.094-3.9309 3.184-6.7697 3.184z" fill="#001640"/><ellipse cx="248.233" cy="188.021" fill="#001640" rx="67.9128" ry="67.3594"/><path d="m219.065 156.468c-.176 0-.374.066-.594.176-1.408.704-3.322 3.916-4.554 6.556-.704-2.046-1.122-4.158-1.188-6.05-.022-.484-.396-.836-.946-.836-.506 0-.902.396-.902.924 0 .132 0 .308.022.572.198 2.442.836 5.148 1.98 7.788-1.386 3.212-2.266 4.774-3.102 4.774-.462 0-.726-.22-.99-.462s-.506-.44-.858-.44c-.418 0-.726.374-.726.836 0 .308.132.638.462.946.484.462 1.188.792 2.024.792 2.024 0 3.058-1.694 4.224-4.334.99 1.76 2.2 3.432 3.696 4.928.198.198.44.352.704.352.396 0 .924-.352.924-.902 0-.286-.11-.528-.308-.704-1.65-1.474-3.036-3.564-4.092-5.852 1.914-4.422 3.476-6.446 4.708-7.524.198-.176.352-.462.352-.726 0-.418-.374-.792-.858-.792zm9.656 9.944c-.616 1.562-1.452 2.728-2.552 3.476.176-.396.264-.836.264-1.298 0-1.562-1.122-2.684-2.618-2.684-.748 0-1.54.264-2.244.792.286-1.54.704-2.574.704-3.058 0-.44-.308-.748-.77-.748s-.814.264-.968.77c-.396 1.276-.968 3.63-.968 5.324 0 1.98 1.166 3.146 3.322 3.146 3.454 0 5.874-1.826 7.172-5.258.044-.088.066-.198.066-.308 0-.418-.33-.748-.704-.748-.264 0-.55.176-.726.594zm-7.392 2.75c.022-.968.902-1.826 2.002-1.826.88 0 1.364.484 1.364 1.364 0 1.1-.792 1.892-1.826 1.892-.946 0-1.54-.594-1.54-1.342zm20.642-2.75c-.418 1.1-1.188 1.76-2.002 2.046.132-.528.176-1.078.176-1.628 0-1.716-.792-3.322-2.024-3.784-.418-.176-.924-.308-1.518-.308-2.112 0-3.564 1.738-4.114 3.718h-1.518c0-1.672.11-3.014.264-4.136h.088c3.432 0 5.17-1.738 5.17-3.476 0-1.496-1.034-2.53-2.574-2.53-1.738 0-3.344 1.1-4.158 4.4-.374-.066-.638-.132-.726-.132-.462 0-.748.352-.748.704 0 .33.22.682.704.814.154.044.308.088.484.11-.154 1.1-.264 2.42-.264 3.916 0 1.606.022 3.256.11 4.862.044.726.352 1.122.88 1.122.616 0 .946-.44.88-1.21-.044-.99-.088-1.958-.11-2.86h1.298c0 .044-.022.088-.022.132 0 2.09 1.078 4.004 3.498 4.004 1.694 0 2.882-.902 3.608-2.134 1.584-.154 3.19-1.166 3.96-3.168.066-.11.066-.22.066-.308 0-.44-.33-.704-.704-.704-.264 0-.572.154-.726.55zm-8.14-8.492c.572 0 .946.374.946.968 0 .902-1.078 1.98-3.256 1.98h-.022c.55-2.332 1.474-2.948 2.332-2.948zm3.542 6.6c.66 0 1.034 1.012 1.034 2.244 0 .66-.088 1.21-.22 1.694-.968-.374-1.584-1.408-1.584-2.53 0-.77.286-1.408.77-1.408zm-1.606 6.05c-1.012 0-1.782-.77-1.782-2.398 0-1.254.506-2.684 1.386-3.41-.132.44-.22.946-.22 1.43 0 1.43.902 2.926 2.332 3.564-.484.55-1.1.814-1.716.814zm10.539 1.606c2.134 0 4.246-1.474 5.742-5.302.022-.088.044-.198.044-.286 0-.418-.33-.726-.704-.726-.264 0-.55.154-.704.55-1.232 2.992-2.816 4.158-4.356 4.158-1.408 0-2.332-.924-2.332-2.662 0-2.156 1.166-3.322 2.31-3.322.594 0 .968.374.968.968 0 .616.286.902.836.902.506 0 .858-.352.858-1.232 0-1.21-1.034-2.244-2.662-2.244-2.134 0-4.07 1.936-4.07 4.95 0 2.618 1.628 4.246 4.07 4.246zm19.206-5.764c-.528 1.342-1.694 3.982-2.486 3.982-.286 0-.506-.22-.506-.682 0-1.782.352-3.322.352-4.422 0-1.298-.88-2.178-2.178-2.178-1.056 0-2.002.528-2.794 1.54-.33-.594-.968-.99-1.672-.99-1.298 0-2.398.704-3.256 2.024.088-1.034.176-1.518.176-1.716 0-.594-.242-.946-.814-.946-.55 0-.858.396-.924.88-.242 1.804-.352 4.4-.352 7.326 0 .616.286.99.902.99.528 0 .858-.374.858-.99 0-.55 0-1.034 0-1.496.242-2.794 1.936-4.444 3.014-4.444.462 0 .66.198.66.638 0 .748-.594 2.112-.594 3.916 0 1.848.33 2.266 1.1 2.266.484 0 .748-.352.748-.814 0-.132-.088-1.034-.088-1.54v-.044c.022-3.96 1.606-4.972 2.618-4.972.55 0 .814.264.814.946 0 .946-.33 2.2-.33 3.784 0 1.716.858 2.574 2.068 2.574 1.54 0 2.794-1.892 4.048-5.148.022-.132.044-.242.044-.33 0-.44-.33-.682-.682-.682-.286 0-.594.154-.726.55zm9.818 0c-.418 1.1-1.188 1.76-2.002 2.046.132-.528.176-1.078.176-1.628 0-1.716-.792-3.322-2.024-3.784-.418-.176-.924-.308-1.518-.308-2.728 0-4.356 2.86-4.356 5.434 0 2.09 1.078 4.004 3.498 4.004 1.694 0 2.882-.902 3.608-2.134 1.584-.154 3.212-1.166 3.982-3.146.044-.132.044-.242.044-.33 0-.418-.33-.704-.704-.704-.264 0-.572.154-.726.572zm-4.598-1.87c.66 0 1.034 1.012 1.034 2.244 0 .638-.066 1.188-.22 1.672-.968-.374-1.584-1.408-1.584-2.53 0-.77.286-1.408.77-1.408zm-1.606 6.028c-1.012 0-1.782-.77-1.782-2.398 0-1.254.506-2.684 1.386-3.41-.132.44-.22.946-.22 1.43 0 1.43.902 2.926 2.332 3.564-.484.55-1.1.814-1.716.814zm16.209-4.158c-.572 1.452-1.65 3.982-2.398 3.982-.264 0-.484-.22-.484-.792 0-1.672.352-4.576.506-5.632.088-.616-.33-.946-.814-.946-.418 0-.836.242-.924.77-.154.792-.286 1.826-.396 2.882-.638-.022-1.254-.044-1.848-.044-.484 0-.968.022-1.452.022.066-.902.132-1.826.198-2.728.044-.594-.396-.88-.858-.88-.44 0-.858.286-.902.836-.198 2.464-.33 4.906-.418 7.37-.022.594.418.88.88.88.418 0 .858-.264.88-.836.022-1.034.066-2.068.132-3.102.506 0 1.012-.022 1.54-.022.572 0 1.144.022 1.738.044-.022.33-.044.682-.044 1.012 0 1.914.88 2.794 2.112 2.794 1.716 0 2.618-1.914 3.894-5.126.044-.11.066-.22.066-.308 0-.418-.352-.748-.726-.748-.264 0-.528.176-.704.594zm.739 8.932c.154 0 .352-.044.528-.154.99-.616 1.826-1.87 1.826-3.454 0-1.144-.66-1.628-1.276-1.628-.572 0-1.122.44-1.122 1.166 0 .682.572.792.572 1.43 0 .748-.528 1.188-.924 1.54-.198.176-.286.352-.286.528 0 .33.286.572.682.572zm-48.32 15.068c-.55 1.276-1.386 3.058-2.75 4.4.022-.154.022-.308.044-.462.132-1.914.33-4.268.484-6.402.044-.638-.418-.968-.88-.968-.418 0-.836.286-.88.814-.066.726-.132 1.496-.198 2.31-.484 3.41-2.002 4.29-2.948 4.29-.638 0-.968-.33-.968-1.32 0-1.254.55-3.234.55-4.752 0-.946-.748-1.672-1.562-1.672-.484 0-.858.374-.858.814 0 .594.638.638.638 1.276 0 .902-.528 2.772-.528 4.84 0 1.452.968 2.42 2.288 2.42 1.166 0 2.222-.55 3.08-1.606-.066.616-.088 1.188-.132 1.694-2.31 1.232-3.74 2.244-3.74 3.608 0 1.012.858 1.87 2.178 1.87 2.53 0 3.102-2.838 3.256-4.334 0-.11.022-.22.022-.352 2.09-1.43 3.3-3.564 4.246-6.006.044-.088.066-.176.066-.286 0-.396-.352-.748-.726-.748-.242 0-.528.176-.704.572zm-6.094 9.548c-.374 0-.572-.198-.572-.484 0-.506.704-1.034 1.914-1.716-.198 1.562-.638 2.2-1.342 2.2zm22.035-9.548c-.572 1.452-1.65 3.982-2.398 3.982-.264 0-.484-.22-.484-.792 0-1.672.352-4.576.506-5.632.088-.616-.33-.946-.814-.946-.418 0-.836.242-.924.77-.154.792-.286 1.826-.396 2.882-.638-.022-1.254-.044-1.848-.044-.484 0-.968.022-1.452.022.066-.902.132-1.826.198-2.728.044-.594-.396-.88-.858-.88-.44 0-.858.286-.902.836-.198 2.464-.33 4.906-.418 7.37-.022.594.418.88.88.88.418 0 .858-.264.88-.836.022-1.034.066-2.068.132-3.102.506 0 1.012-.022 1.54-.022.572 0 1.144.022 1.738.044-.022.33-.044.682-.044 1.012 0 1.914.88 2.794 2.112 2.794 1.716 0 2.618-1.914 3.894-5.126.044-.11.066-.22.066-.308 0-.418-.352-.748-.726-.748-.264 0-.528.176-.704.594zm10.925 0c-.77 1.958-1.76 4.07-2.464 4.07-.44 0-.88-.44-.88-2.31 0-1.254.352-3.872.352-4.4 0-.638-.374-.946-.792-.946-.44 0-.726.264-.902.682-.55-.33-1.144-.462-1.716-.462-2.244 0-4.466 2.332-4.466 5.5 0 2.354 1.254 3.564 2.992 3.564 1.276 0 2.244-.682 3.102-1.98.374 1.342 1.232 1.98 2.156 1.98 1.584 0 2.728-1.892 3.982-5.214.022-.11.044-.22.044-.33 0-.418-.33-.726-.704-.726-.264 0-.55.154-.704.594zm-7.634 4.07c-.858 0-1.474-.616-1.474-2.002 0-2.178 1.452-3.828 2.926-3.828.66 0 1.166.308 1.342.792-.022.836-.088 1.364-.154 1.848-.55 2.486-1.87 3.19-2.64 3.19zm11.958 1.694c2.134 0 4.246-1.474 5.742-5.302.022-.088.044-.198.044-.286 0-.418-.33-.726-.704-.726-.264 0-.55.154-.704.55-1.232 2.992-2.816 4.158-4.356 4.158-1.408 0-2.332-.924-2.332-2.662 0-2.156 1.166-3.322 2.31-3.322.594 0 .968.374.968.968 0 .616.286.902.836.902.506 0 .858-.352.858-1.232 0-1.21-1.034-2.244-2.662-2.244-2.134 0-4.07 1.936-4.07 4.95 0 2.618 1.628 4.246 4.07 4.246zm-52.347 18.236c-.528 1.342-1.606 4.004-2.42 4.004-.308 0-.572-.264-.572-1.1 0-1.342.352-2.838.352-4.136 0-1.188-.88-2.068-2.266-2.068-1.122 0-2.134.638-2.97 1.892.044-.33.088-.638.154-.99 0-.066 0-.132 0-.198 0-.462-.264-.814-.814-.814-.572 0-.88.286-.946.77-.242 1.804-.33 4.51-.33 7.436 0 .616.308.924.924.924.528 0 .836-.308.836-.924 0-.572 0-1.122 0-1.606.066-3.388 1.804-4.884 2.816-4.884.594 0 .836.242.836.924 0 .902-.352 2.222-.352 3.806 0 1.716.858 2.574 2.134 2.574 1.716 0 2.706-1.848 3.982-5.148.022-.088.044-.176.044-.286 0-.418-.374-.748-.748-.748-.264 0-.528.176-.66.572zm10.172 0c-.44 1.078-1.21 2.222-2.596 2.97.506-.99.836-2.09.836-3.102 0-2.068-1.188-3.256-2.838-3.256-1.21 0-2.442.814-3.344 1.914-.066-.506-.132-.968-.242-1.43-.11-.396-.462-.594-.814-.594-.44 0-.88.286-.88.858 0 .33.308 2.024.308 4.07 0 4.202-.792 8.448-.792 8.888 0 .55.44.858.88.858.396 0 .814-.264.88-.792.396-3.08.77-6.204.792-8.954.374-1.628 1.738-3.212 3.058-3.212.814 0 1.232.682 1.232 1.584 0 1.298-.704 3.036-1.672 3.916-.286.044-.616.066-.924.066-.726 0-1.122.55-1.122 1.078 0 .506.374 1.012 1.166 1.012.638 0 1.298-.33 1.892-.836 2.64-.528 4.62-2.068 5.544-4.554.044-.132.066-.242.066-.352 0-.44-.33-.704-.704-.704-.264 0-.572.176-.726.594zm9.821 0c-.418 1.1-1.188 1.76-2.002 2.046.132-.528.176-1.078.176-1.628 0-1.716-.792-3.322-2.024-3.784-.418-.176-.924-.308-1.518-.308-2.728 0-4.356 2.86-4.356 5.434 0 2.09 1.078 4.004 3.498 4.004 1.694 0 2.882-.902 3.608-2.134 1.584-.154 3.212-1.166 3.982-3.146.044-.132.044-.242.044-.33 0-.418-.33-.704-.704-.704-.264 0-.572.154-.726.572zm-4.598-1.87c.66 0 1.034 1.012 1.034 2.244 0 .638-.066 1.188-.22 1.672-.968-.374-1.584-1.408-1.584-2.53 0-.77.286-1.408.77-1.408zm-1.606 6.028c-1.012 0-1.782-.77-1.782-2.398 0-1.254.506-2.684 1.386-3.41-.132.44-.22.946-.22 1.43 0 1.43.902 2.926 2.332 3.564-.484.55-1.1.814-1.716.814zm16.099-4.158c-.616 1.628-1.738 2.728-3.036 3.366.286-.572.528-1.232.726-1.98.154-.638.198-1.254.198-1.826 0-3.696-2.486-5.632-2.486-7.084 0-.44.286-.726.836-.726.374 0 .792.11 1.166.11 1.21 0 1.694-.484 1.694-1.078 0-.396-.308-.66-.836-.66-.352 0-.572.132-1.276.132-.902 0-1.012-.088-1.518-.088-.99 0-1.826.858-1.826 2.2 0 1.848 1.188 2.706 1.936 4.4-.374-.132-.77-.176-1.21-.176-2.024 0-4.202 2.156-4.202 5.192 0 2.508 1.342 3.872 3.344 3.894h.022c2.706 0 6.358-1.32 7.832-5.192.022-.11.044-.22.044-.33 0-.418-.33-.748-.704-.748-.264 0-.55.176-.704.616zm-8.074 1.892c0-2.244 1.43-3.696 2.574-3.696 1.034 0 1.65.616 1.65 2.068 0 1.782-1.254 3.806-2.618 3.806-.946 0-1.606-.748-1.606-2.178zm19.265-1.892c-.528 1.474-1.518 3.96-2.354 3.96-.484 0-1.034-.704-1.034-6.578 0-.528-.44-.858-.902-.858-.396 0-.814.242-1.034.792-.858 2.222-2.09 6.732-3.41 6.732-.484 0-.946-.462-.946-1.496 0-1.408.352-1.958.352-2.398 0-.418-.308-.726-.726-.726-.638 0-1.144 1.276-1.144 3.014 0 2.2 1.012 3.212 2.354 3.212 1.782 0 2.948-1.848 3.85-4.796.11 3.762 1.188 4.708 2.442 4.708 2.002 0 2.948-2.398 3.872-5.016.044-.132.066-.264.066-.374 0-.462-.33-.748-.682-.748-.286 0-.572.176-.704.572zm8.542 0c-.572 1.452-1.782 4.114-4.026 4.114-1.452 0-2.354-.814-2.464-2.42.616.286 1.21.396 1.914.396 1.87 0 3.234-1.364 3.234-2.926 0-1.518-1.122-2.64-2.816-2.64-2.222 0-4.092 1.87-4.092 4.84 0 2.706 1.65 4.356 4.048 4.356s4.202-1.672 5.566-5.258c.022-.088.044-.198.044-.308 0-.418-.33-.726-.704-.726-.264 0-.55.176-.726.572zm-4.136-1.87c.638 0 1.056.418 1.056 1.1 0 .77-.616 1.386-1.562 1.386-.528 0-1.188-.11-1.738-.352.33-1.364 1.254-2.134 2.244-2.134zm18.527 1.87c-.572 1.474-1.628 3.982-2.288 3.982-.616 0-.968-1.936-.968-4.136 0-.968.132-1.848.132-2.332 0-.462-.396-.726-.792-.726-.352 0-.704.198-.814.682-.44 1.804-1.386 5.17-2.134 5.17-.396 0-.748-1.078-.748-2.508 0-1.672.22-2.2.22-2.794 0-.55-.462-.88-.924-.88-.396 0-.792.242-.902.748-.726 3.322-1.694 6.842-2.816 6.842-.374 0-.836-.462-.836-1.496 0-1.386.352-1.958.352-2.398 0-.418-.308-.726-.726-.726-.616 0-1.144 1.276-1.144 3.014 0 2.2 1.012 3.212 2.288 3.212 1.342 0 2.332-1.166 3.058-3.52.396 1.628 1.254 2.134 2.002 2.134 1.034 0 1.782-.946 2.266-2.112.198 2.684 1.232 3.432 2.266 3.432 1.782 0 2.816-2.332 3.872-5.126.022-.11.044-.198.044-.308 0-.418-.33-.726-.704-.726-.264 0-.55.176-.704.572zm14.516 0c-.704 1.826-1.804 4.07-2.684 4.07-.462 0-.858-.396-.858-1.936 0-1.276.286-2.97.44-4.334.088-.792-.33-1.166-.792-1.166-.418 0-.836.33-.946.968-.132.66-.242 1.496-.33 2.332-.022.022-.022.044-.022.088-.616 1.562-1.452 2.706-2.552 3.454.176-.396.264-.836.264-1.276 0-1.562-1.122-2.684-2.618-2.684-.748 0-1.54.242-2.244.77.286-1.54.726-2.574.726-3.036 0-.44-.308-.748-.77-.748s-.814.264-.968.77c-.396 1.276-.968 3.63-.968 5.324 0 1.958 1.144 3.124 3.3 3.146 2.464 0 4.4-.924 5.764-2.706.264 1.87 1.232 2.64 2.442 2.64 1.87 0 2.904-2.002 4.158-5.214.044-.088.066-.198.066-.308 0-.418-.352-.726-.704-.726-.264 0-.55.176-.704.572zm-12.562 2.75c0-.968.88-1.848 1.98-1.848.88 0 1.364.484 1.364 1.364 0 1.1-.792 1.892-1.826 1.892-.946 0-1.54-.594-1.54-1.342z" fill="#fff"/></g></svg>