<svg fill="none" height="16" viewBox="0 0 15 16" width="15" xmlns="http://www.w3.org/2000/svg"><path clip-rule="evenodd" d="m7.5 15.0338c-1.48336 0-2.93343-.4399-4.1668-1.264s-2.19464-1.9954-2.762297-3.3659c-.56765689-1.37042-.716177-2.87842-.426788-4.33328.289389-1.45485 1.003685-2.79122 2.052575-3.84012 1.04889-1.04889 2.38528-1.763182 3.84014-2.052572 1.45486-.289389 2.96286-.1408684 4.33327.426789 1.3705.567653 2.5418 1.528953 3.3659 2.762313.8241 1.23337 1.264 2.68342 1.264 4.16678 0 1.98912-.7902 3.89679-2.1967 5.30329s-3.31418 2.1967-5.3033 2.1967zm0-13.74999c-1.23614 0-2.44453.36655-3.47233 1.05331-1.02781.68676-1.82886 1.66287-2.30191 2.80491-.47304 1.14204-.59684 2.39871-.35568 3.61109s.83643 2.32608 1.71051 3.20008c.87408.8741 1.98769 1.4694 3.20008 1.7105 1.21238.2412 2.46906.1174 3.6111-.3556 1.14203-.4731 2.11813-1.2742 2.80493-2.302.6867-1.02779 1.0533-2.23616 1.0533-3.47229 0-1.6576-.6585-3.24732-1.8306-4.41942-1.1721-1.17211-2.7618-1.83058-4.4194-1.83058zm2.5 9.37499c-.08176-.0001-.16271-.0163-.23816-.0478-.07544-.0316-.14389-.0777-.20141-.1358s-.10295-.127-.13371-.2028c-.03075-.0757-.04621-.1568-.04547-.2386v-3.11873c0-.16411.0652-.32149.18124-.43753s.2734-.18124.43751-.18124c.1641 0 .3215.0652.4375.18124s.1812.27342.1812.43753v3.11873c.0008.0818-.0147.1629-.0454.2386-.0308.0758-.0762.1447-.1337.2028-.0576.0581-.126.1042-.2015.1358-.0754.0315-.1563.0477-.2381.0478zm-2.5 0c-.16576 0-.32473-.0658-.44194-.1831-.11721-.1172-.18306-.2761-.18306-.4419v-4.99999c0-.16576.06585-.32472.18306-.44193s.27618-.18307.44194-.18307.32472.06586.44193.18307.18307.27617.18307.44193v4.99999c0 .1658-.06586.3247-.18307.4419-.11721.1173-.27617.1831-.44193.1831zm-2.5 0c-.08176-.0001-.16271-.0163-.23816-.0478-.07544-.0316-.14389-.0777-.20141-.1358s-.10295-.127-.13371-.2028c-.03075-.0757-.04621-.1568-.04547-.2386v-1.86812c0-.16411.0652-.32147.18124-.43751s.2734-.18124.43751-.18124c.1641 0 .32147.0652.4375.18124.11604.11604.18124.2734.18124.43751v1.86812c.00074.0818-.01472.1629-.04547.2386-.03076.0758-.07618.1447-.13371.2028-.05752.0581-.12597.1042-.20141.1358-.07545.0315-.15639.0477-.23815.0478z" fill="#001640" fill-rule="evenodd"/></svg>