<svg fill="none" height="46" viewBox="0 0 46 46" width="46" xmlns="http://www.w3.org/2000/svg" xmlns:xlink="http://www.w3.org/1999/xlink"><clipPath id="a"><path d="m12.3848 12.3846h21.2308v21.2308h-21.2308z"/></clipPath><circle cx="23" cy="23" fill="#6321b6" r="23"/><g clip-path="url(#a)"><path clip-rule="evenodd" d="m32.7309 28.3077h-19.4615c-.2346 0-.4597-.0932-.6256-.2591s-.259-.3909-.259-.6255.0931-.4596.259-.6255.391-.2591.6256-.2591h1.7692v-7.0769c0-1.8769.7456-3.677 2.0728-5.0042s3.1272-2.0728 5.0041-2.0728h1.7693c1.8769 0 3.6769.7456 5.0041 2.0728s2.0728 3.1273 2.0728 5.0042v7.0769h1.7692c.2346 0 .4597.0932.6256.2591s.259.3909.259.6255-.0931.4596-.259.6255-.391.2591-.6256.2591zm-3.5384-7.9615c0-1.6423-.6525-3.2174-1.8138-4.3786-1.1612-1.1613-2.7362-1.8137-4.3785-1.8137-1.6424 0-3.2174.6524-4.3786 1.8137-1.1613 1.1612-1.8138 2.7363-1.8138 4.3786v6.1923h12.3847zm-7.077 10.6154c0 .2346.0932.4596.2591.6255s.3909.2591.6256.2591c.2346 0 .4596-.0932.6255-.2591s.2591-.3909.2591-.6255v-.8846h1.7692v.8846c0 .7038-.2796 1.3788-.7773 1.8765s-1.1727.7773-1.8765.7773c-.7039 0-1.3789-.2796-1.8766-.7773s-.7773-1.1727-.7773-1.8765v-.8846h1.7692z" fill="#fff" fill-rule="evenodd"/></g></svg>