<svg viewBox="0 0 32 32" xmlns="http://www.w3.org/2000/svg"><g fill="#101820"><path d="m16 26a2 2 0 1 1 2-2 2 2 0 0 1 -2 2z"/><path d="m16 20a1 1 0 0 1 -1-1v-8a1 1 0 0 1 2 0v8a1 1 0 0 1 -1 1z"/><path d="m27.78 30h-23.56a3.19 3.19 0 0 1 -2.77-1.57 3.13 3.13 0 0 1 -.06-3.13l11.78-21.63a3.23 3.23 0 0 1 5.66 0l11.78 21.63a3.13 3.13 0 0 1 -.06 3.13 3.19 3.19 0 0 1 -2.77 1.57zm-11.78-26a1.18 1.18 0 0 0 -1.07.63l-11.78 21.62a1.12 1.12 0 0 0 0 1.16 1.19 1.19 0 0 0 1 .59h23.63a1.19 1.19 0 0 0 1-.59 1.12 1.12 0 0 0 0-1.16l-11.71-21.62a1.18 1.18 0 0 0 -1.07-.63z"/></g></svg>