<svg clip-rule="evenodd" fill-rule="evenodd" height="24.9189mm" image-rendering="optimizeQuality" shape-rendering="geometricPrecision" text-rendering="geometricPrecision" viewBox="0 0 42490 12283" width="86.2038mm" xmlns="http://www.w3.org/2000/svg"><path d="m41038 12283h-39585c-801 0-1453-649-1453-1453v-9377c0-801 649-1453 1453-1453h39585c801 0 1453 649 1453 1453v9377c0 801-649 1453-1453 1453zm-31570-6766c-10-1025 838-1522 877-1546-480-700-1225-795-1486-804-624-66-1231 376-1550 376-325 0-817-368-1344-357-681 11-1316 404-1664 1015-720 1247-183 3078 507 4088 346 494 748 1044 1275 1025 516-21 710-329 1332-329 619 0 799 329 1338 317 554-10 903-496 1234-993 398-566 561-1122 566-1152-13-4-1075-410-1087-1638v-2h1zm-1017-3012c278-348 469-821 415-1299-402 17-905 278-1194 619-256 299-486 789-426 1253 451 33 916-228 1206-570v-2zm11984 4668c-818 0-713-732-713-1241 0-309 253-683 621-683 235 0 418-7 603 265 327 481 235 1658-510 1658zm-806-1985v-403h-589c0 256 31 389 31 651v3350h651v-1458c103 69 57 68 138 141 412 377 1194 253 1559-181 738-877 329-2565-736-2565-887 0-815 378-1054 465zm-2450 1985c-802 0-713-690-713-1210 0-369 262-713 621-713 235 0 418-7 603 265 327 481 235 1658-510 1658zm-806-1954c0-505 119-435-589-435 0 297 31 474 31 775v3226h651v-1458c92 68 37 61 136 143 37 31 129 90 168 111 564 305 1368 5 1646-723 81-214 72-313 111-573 95-649-354-1563-1100-1563-827 0-817 322-1054 497h1zm-2761-930c5 211 271 985 360 1253 47 137 83 313 135 422h-1024c97-416 308-921 439-1483 28-117 3-129 88-192h1zm-1581 3350c710 0 545 103 748-555 59-191 136-426 182-624h1272c13 163 139 447 186 621 31 113 61 194 97 306 100 311-26 252 741 252 0-235-226-754-297-1006-100-353-216-657-319-983l-624-1982h-806l-1215 3782c-31 86-96 189 37 189v1zm11011-2916c0 1213 1737 1008 1737 1799 0 509-348 621-806 621-350 0-607-127-838-248-34 72-147 464-155 559 404 94 116 217 1210 217 627 0 1241-469 1241-1086 0-1479-1737-1035-1737-1954 0-263 282-465 559-465 697 0 490 67 868 155 32-68 148-440 155-527-111-26-192-77-323-111-342-88-806-87-1155 29-391 129-755 504-755 1013v-2zm5459 1489c0-1372 1458-1296 1458-155v279c0 1152-1458 1208-1458-124zm-651-31c0 622 285 1199 779 1393 1576 617 2596-1195 1673-2417-561-744-2452-622-2452 1025zm6420-1024c415 0 621 325 621 744h-1303c82-353 252-744 683-744zm-1303 1054c0 843 507 1458 1303 1458 401 0 738-2 1086-186-36-76-91-322-93-434-398 92-1070 276-1448-103-122-122-209-363-227-580h1892c37-442 99-704-241-1216-278-418-640-427-1061-427-711 0-1210 749-1210 1489zm-6793-1954v527h-403v465h403c0 500-66 1703 132 2070 211 388 514 350 860 350 121 0 231-24 310-62v-497c-213 18-651 177-651-435v-1427h683v-465h-683v-713l-651 186zm5552 992v-465h-559v2823h651v-1519c0-340 190-679 500-743 208-43 170-2 369-2v-621c-310 0-584-14-825 355-72 111-40 138-137 173h1z" fill="#000c3e" fill-rule="nonzero"/></svg>