<svg clip-rule="evenodd" fill-rule="evenodd" height="24.9189mm" image-rendering="optimizeQuality" shape-rendering="geometricPrecision" text-rendering="geometricPrecision" viewBox="0 0 2994719 865682" width="86.2038mm" xmlns="http://www.w3.org/2000/svg"><path d="m2892330 865682h-2789940c-56435 0-102389-45753-102389-102389v-660904c0-56435 45753-102389 102389-102389h2789940c56435 0 102389 45753 102389 102389v660904c0 56435-45753 102389-102389 102389zm-2296396-308380 108976-61945c31106-17669 31106-46628 0-64297l-108976-61945-2084-1209-66 66-323429-183684c-17940-10214-34063-9540-44408-469l-135-135-1612 1612v135l-135 135c-6382 6854-10144 17467-10144 31106v492738c0 13840 3828 24387 10280 31242l-135 135c10280 10818 27278 12228 46357 1344l323429-183684 66 66 1813-1073 201-135 3-3zm-93993-94128v135zm1008856-58113c-52471 0-95267 39909-95267 94864 0 54556 42730 94864 95267 94864 52471 0 95267-40312 95267-94864 0-54959-42730-94864-95267-94864zm0 152241c-28754 0-53614-23717-53614-57443 0-34129 24790-57443 53614-57443 28754 0 53614 23314 53614 57443 0 33726-24790 57443-53614 57443zm-207672-152241c-52471 0-95267 39909-95267 94864 0 54556 42730 94864 95267 94864 52471 0 95267-40312 95267-94864 0-54959-42730-94864-95267-94864zm0 152241c-28754 0-53614-23717-53614-57443 0-34129 24790-57443 53614-57443 28754 0 53614 23314 53614 57443 0 33726-24790 57443-53614 57443zm-246974-123219v40312h96209c-2890 22640-10415 39169-21904 50724-13976 13976-35876 29494-74441 29494-59190 0-105683-47837-105683-107027s46357-107027 105683-107027c31912 0 55362 12631 72492 28754l28351-28351c-24120-23043-56032-40580-100979-40580-81160 0-149420 66044-149420 147339 0 81160 68261 147339 149420 147339 43873 0 76859-14379 102792-41250 26604-26604 34803-64029 34803-94128 0-9338-670-17940-2216-25061h-135444l267-403 69-135zm1010267 31242c-7928-21230-31912-60333-81160-60333-48775 0-89490 38363-89490 94864 0 53145 40312 94864 94128 94864 43470 0 68664-26604 79079-42060l-32315-21501c-10818 15789-25464 26201-46760 26201-21230 0-36348-9741-45888-28754l126780-52471-4231-10818-135 135-7-129zm-129399 31645c-1073-36616 28351-55362 49584-55362 16595 0 30568 8195 35206 20156l-84856 35206zm-103060 91978h41653v-278754h-41653zm-68261-162656h-1344c-9338-11086-27278-21230-49918-21230-47434 0-90901 41653-90901 95267 0 53145 43470 94461 90901 94461 22640 0 40580-10012 49918-21501h1344v13705c0 36348-19482 55629-50724 55629-25464 0-41250-18343-47837-33726l-36348 15049c10415 25061 38092 56032 84050 56032 48775 0 90164-28754 90164-98828v-170247h-39506v15518l135-135 66 3zm-47837 131147c-28754 0-52742-24120-52742-57175 0-33458 24120-57846 52742-57846 28351 0 50724 24387 50724 57846 0 33055-22373 57175-50724 57175zm543729-247109h-99634v278754h41653v-105683h58117c46024 0 91439-33458 91439-86603s-45350-86603-91439-86603l-135 135zm1077 134305h-59190v-95538h59190c31106 0 48775 25798 48775 47837 0 21633-17669 47837-48775 47837v-135zm257118-40045c-30165 0-61274 13302-74305 42595l37019 15518c7928-15518 22640-20424 37960-20424 21501 0 43470 12899 43738 35876v2890c-7525-4231-23717-10818-43470-10818-39774 0-80288 21904-80288 62751 0 37286 32652 61274 69202 61274 27948 0 43470-12631 53010-27278h1344v21501h40177v-106891c0-49449-37019-77130-84585-77130l135 135h63zm-5037 152849c-13573 0-32652-6854-32652-23717 0-21501 23717-29762 44141-29762 18207 0 26875 3964 37960 9338-3293 25798-25464 44141-49449 44141zm236020-146665-47701 120867h-1344l-49449-120867h-44811l74305 168836-42327 93993h43470l114416-262895h-46357-135l-66 66zm-374692 178310h41653v-278754h-41653z" fill="#000c3e" fill-rule="nonzero"/></svg>