<svg enable-background="new 0 0 28 28" viewBox="0 0 28 28" xmlns="http://www.w3.org/2000/svg"><g fill="#d6d6d6"><path d="m23.2 18.7-3 3v-10.3c0-.6-.4-1-1-1s-1 .4-1 1v10.3l-2.9-2.9c-.4-.4-1-.4-1.4 0s-.4 1 0 1.4l4.1 4.1c.3.4.7.6 1.2.6.4 0 .7-.1 1-.4 0 0 .1-.1.1-.1l4.2-4.2c.4-.4.4-1 0-1.4-.2-.5-.9-.5-1.3-.1z"/><path d="m4.5 8.6 3-3v10.3c0 .6.4 1 1 1s1-.4 1-1v-10.3l2.9 2.9c.4.4 1 .4 1.4 0s.4-1 0-1.4l-4.2-4.1c-.3-.3-.7-.6-1.2-.6-.4 0-.7.1-1 .4 0 0-.1.1-.1.1l-4.3 4.2c-.4.4-.4 1 0 1.4s1.1.4 1.5.1z"/></g></svg>