<svg enable-background="new 0 0 28 28" viewBox="0 0 28 28" xmlns="http://www.w3.org/2000/svg"><path d="m2.5 9 4.3-4.3v15.1c0 .8.7 1.5 1.5 1.5s1.5-.7 1.5-1.5v-15l4.2 4.2c.6.6 1.5.6 2.1 0s.6-1.5 0-2.1l-6-6c-.5-.6-1.1-.9-1.9-.9-.5 0-1 .2-1.4.5-.1 0-.1.1-.2.1l-6.2 6.3c-.6.6-.6 1.5 0 2.1.6.5 1.5.5 2.1 0z"/><path d="m25.5 19-4.3 4.3v-15.1c0-.8-.7-1.5-1.5-1.5s-1.5.7-1.5 1.5v15l-4.2-4.2c-.6-.6-1.5-.6-2.1 0s-.6 1.5 0 2.1l6 6c.4.5 1 .9 1.8.9.6 0 1.1-.2 1.4-.5.1 0 .1-.1.2-.1l6.2-6.2c.6-.6.6-1.5 0-2.1-.5-.6-1.4-.6-2-.1z"/></svg>