<svg fill="none" height="16" viewBox="0 0 15 16" width="15" xmlns="http://www.w3.org/2000/svg" xmlns:xlink="http://www.w3.org/1999/xlink"><clipPath id="a"><path d="m0 .067505h15v15h-15z"/></clipPath><g clip-path="url(#a)"><path clip-rule="evenodd" d="m7.5 15.0675c-1.48336 0-2.93343-.4399-4.1668-1.264s-2.19464-1.9954-2.762297-3.3659c-.56765689-1.37042-.716177-2.87841-.426788-4.33327.289389-1.45485 1.003685-2.79123 2.052575-3.84012s2.38528-1.763203 3.84014-2.052593c1.45486-.2893887 2.96286-.1408589 4.33327.426798 1.3705.567655 2.5418 1.528945 3.3659 2.762315s1.264 2.68342 1.264 4.16678c0 1.98912-.7902 3.89679-2.1967 5.30329s-3.31418 2.1967-5.3033 2.1967zm0-13.74999c-1.23614 0-2.44453.36655-3.47233 1.05331-1.02781.68676-1.82886 1.66288-2.30191 2.80492-.47304 1.14204-.59684 2.3987-.35568 3.61108s.83643 2.32608 1.71051 3.20008c.87408.8741 1.98769 1.4694 3.20008 1.7105 1.21238.2412 2.46906.1174 3.6111-.3556 1.14203-.4731 2.11813-1.2742 2.80493-2.302.6867-1.0278 1.0533-2.23616 1.0533-3.47229 0-1.65761-.6585-3.24732-1.8306-4.41942-1.1721-1.17211-2.7618-1.83058-4.4194-1.83058zm5 6.25438v-.00438h-1.25c0-.99456-.3951-1.94839-1.0984-2.65166-.70323-.70326-1.65704-1.09834-2.6516-1.09834-.99457 0-1.94838.39508-2.65164 1.09834-.70326.70327-1.09836 1.6571-1.09836 2.65166h-1.25c0-1.32608.52678-2.59786 1.46446-3.53554s2.20945-1.46446 3.53554-1.46446c1.32608 0 2.5979.52678 3.5355 1.46446.9377.93768 1.4645 2.20946 1.4645 3.53554zm-5.59437.72625c-.01071-.03591-.01805-.07274-.0219-.11001v-2.49063c0-.16343.06494-.32018.18051-.43575s.27232-.18049.43576-.18049.32018.06492.43575.18049.18051.27232.18051.43575v2.49063c-.00379.03707-.01113.0737-.0219.10938.42221.14087.78054.42734 1.0109.80818s.31775.8312.2465 1.27051c-.07124.4394-.29647.8391-.63537 1.1276s-.7694.4471-1.21449.4473c-.44508.0003-.87573-.1579-1.21494-.446-.33921-.2882-.56481-.6876-.63652-1.1269-.07171-.43929.01517-.88974.24513-1.27082s.588-.66793 1.01006-.80924zm.59437 2.39436c.12361 0 .24443-.0367.34721-.1053.10278-.0687.18291-.1663.23022-.2805.0473-.1142.05967-.2399.03555-.36112-.02412-.12124-.08364-.23261-.17105-.32001-.08741-.08741-.19878-.14694-.32002-.17106-.12123-.02411-.24689-.01173-.3611.03558-.1142.0473-.21181.1274-.28049.23018-.06868.10279-.10532.22362-.10532.34723 0 .1658.06585.3247.18306.4419.11721.1173.27618.1831.44194.1831z" fill="#001640" fill-rule="evenodd"/></g></svg>