<svg fill="none" height="20" viewBox="0 0 20 20" width="20" xmlns="http://www.w3.org/2000/svg"><path clip-rule="evenodd" d="m19.1667 15h-18.333367c-.221013 0-.433014-.0878-.589294-.2441-.1562804-.1563-.244039-.3682-.244039-.5892s.0877586-.433.244039-.5893c.15628-.1563.368281-.2441.589294-.2441h1.666667v-6.66663c0-1.76811.70237-3.4638 1.95262-4.71405 1.25024-1.25024 2.94594-1.95262 4.71405-1.95262h1.66663c1.7681 0 3.4638.70238 4.7141 1.95262 1.2502 1.25025 1.9526 2.94594 1.9526 4.71405v6.66663h1.6667c.221 0 .433.0878.5893.2441.1562.1563.244.3683.244.5893s-.0878.4329-.244.5892c-.1563.1563-.3683.2441-.5893.2441zm-3.3334-7.5c0-1.5471-.6146-3.03083-1.7085-4.12479-1.094-1.09396-2.5777-1.70854-4.1248-1.70854s-3.03079.61458-4.12476 1.70854c-1.09396 1.09396-1.70857 2.57769-1.70857 4.12479v5.8333h11.66663zm-6.66663 10c0 .221.08776.433.24404.5893.15628.1562.36828.244.58929.244.221 0 .433-.0878.5893-.244.1563-.1563.244-.3683.244-.5893v-.8333h1.6667v.8333c0 .663-.2634 1.2989-.7322 1.7678-.4689.4688-1.1048.7322-1.7678.7322-.66304 0-1.29894-.2634-1.76778-.7322-.46884-.4689-.73222-1.1048-.73222-1.7678v-.8333h1.66667z" fill="#001640" fill-rule="evenodd"/></svg>