<svg fill="none" height="18" viewBox="0 0 15 18" width="15" xmlns="http://www.w3.org/2000/svg"><path clip-rule="evenodd" d="m13.5 18-6-3.75-6 3.75c-.39782 0-.779334-.158-1.060638-.4393-.281305-.2813-.439362-.6629-.439362-1.0607v-15c0-.39782.158057-.779357.439362-1.060661.281304-.281305.662818-.439339 1.060638-.439339h12c.3978 0 .7793.158034 1.0606.439339.2813.281304.4394.662841.4394 1.060661v15c0 .3978-.1581.7794-.4394 1.0607s-.6628.4393-1.0606.4393zm0-16.5h-12v15l6-3.75 6 3.75z" fill="#001640" fill-rule="evenodd"/></svg>