<svg fill="none" height="24" viewBox="0 0 24 24" width="24" xmlns="http://www.w3.org/2000/svg" xmlns:xlink="http://www.w3.org/1999/xlink"><clipPath id="a"><path d="m0 0h24v24h-24z"/></clipPath><g clip-path="url(#a)"><path clip-rule="evenodd" d="m12 24c-2.37338 0-4.69349-.7038-6.66688-2.0224-1.97339-1.3185-3.51142-3.1927-4.419675-5.3854-.90825123-2.1927-1.145884-4.6055-.682861-6.93328.463023-2.32777 1.605886-4.46597 3.284116-6.1442s3.81646-2.821115 6.14423-3.284138 4.74057-.22538257 6.93327.682869c2.1927.908249 4.0669 2.446329 5.3855 4.419719 1.3185 1.97339 2.0223 4.29346 2.0223 6.66683 0 3.1826-1.2643 6.2349-3.5147 8.4853-2.2505 2.2504-5.3027 3.5147-8.4853 3.5147zm0-21.99999c-1.9778 0-3.91124.58648-5.55573 1.6853-1.64449 1.09881-2.92617 2.6606-3.68305 4.48786-.75687 1.82723-.95494 3.83793-.56909 5.77773s1.33829 3.7216 2.73682 5.1202c1.39852 1.3985 3.18031 2.3509 5.12015 2.7368 1.9398.3858 3.9505.1878 5.7777-.5691 1.8273-.7569 3.3891-2.0386 4.4879-3.6831s1.6853-3.5779 1.6853-5.5557c0-2.65216-1.0536-5.1957-2.929-7.07106-1.8753-1.87536-4.4188-2.92893-7.071-2.92893zm4.706 14.70599c-.0883.0883-.1932.1584-.3085.2062-.1154.0478-.2391.0724-.364.0724s-.2486-.0246-.364-.0724c-.1153-.0478-.2202-.1179-.3085-.2062l-3.376-3.376-3.376 3.376c-.08713.0924-.19193.1663-.30816.2175-.11624.0511-.24156.0784-.36853.0803-.12698.0018-.25301-.0219-.37067-.0696-.11766-.0478-.22457-.1187-.31433-.2085-.08976-.0899-.16057-.1968-.20825-.3145-.04769-.1177-.07127-.2438-.06934-.3707.00193-.127.02933-.2523.08057-.3685.05123-.1162.12526-.2209.21771-.308l3.376-3.376-3.376-3.37599c-.09245-.08707-.16648-.1918-.21771-.30799-.05124-.1162-.07864-.2415-.08057-.36847-.00193-.12698.02165-.25305.06934-.37075.04768-.11769.11849-.22462.20825-.31445s.19667-.16073.31433-.2085.24369-.07144.37067-.06961c.12697.00184.25229.02913.36853.08028.11623.05115.22103.1251.30816.21748l3.376 3.376 3.376-3.376c.0878-.08978.1924-.16127.308-.21031s.2397-.07466.3652-.07538c.1256-.00073.25.02347.3661.07118s.2217.11799.3104.20676c.0888.08877.1591.19427.2068.3104.0477.11612.0719.24056.0712.3661s-.0263.24969-.0754.36526c-.049.11556-.1205.22025-.2103.308l-3.376 3.37599 3.376 3.376c.1781.1777.2784.4188.279.6704.0005.2516-.0987.4931-.276.6716z" fill="#eb5757" fill-rule="evenodd"/></g></svg>