<svg fill="none" height="11" viewBox="0 0 11 11" width="11" xmlns="http://www.w3.org/2000/svg"><path d="m10.0999 9.94004c.1186-.0478.2264-.11786.3172-.20618.1822-.17849.2843-.42003.2837-.67162s-.1037-.49268-.2868-.67038l-3.47064-3.376 3.47064-3.376c.0923-.08774.1658-.19243.2162-.308.0504-.11556.0768-.23971.0775-.365254.0007-.12554-.0241-.249981-.0732-.366104-.049-.116124-.1213-.221623-.2125-.310395-.0913-.088771-.1998-.159054-.3192-.2067638-.11935-.0477095-.24727-.0719038-.37633-.0711822-.12906.0007215-.25666.0263449-.37547.075386-.11881.049041-.22641.120525-.31662.210312l-3.47069 3.376011-3.47062-3.376011c-.08958-.092383-.19732-.166336-.31681-.2174836-.11949-.0511475-.24832-.07844336-.37886-.08027649-.13054-.00183314-.2601.02183219-.38106.06960299-.12096.0477711-.230864.1186751-.323142.2085041-.092279.089828-.165071.196755-.214091.314453-.04902.117697-.073262.243767-.07128.370742.001982.126979.030155.252269.082825.368469.052671.1162.128777.22093.223817.30799l3.470621 3.376-3.470621 3.376c-.09504.08706-.171146.1918-.223817.30799-.05267.1162-.080843.2415-.082825.36847-.001982.12698.02226.25305.07128.37074.04902.1177.121812.22463.214091.31446.092278.08982.202182.16073.323142.2085.12096.04778.25052.07148.38106.06958.13054-.0018.25937-.0291.37886-.08025s.22723-.1251.31681-.21749l3.47062-3.376 3.47069 3.376c.09079.08832.19856.15838.31718.20618.11863.0478.24576.07236.37416.07236s.25553-.02456.37418-.07236z" fill="#f00"/></svg>