<svg fill="none" height="15" viewBox="0 0 15 15" width="15" xmlns="http://www.w3.org/2000/svg"><path clip-rule="evenodd" d="m13.75 15h-12.5c-.331521 0-.649445-.1317-.883865-.3661-.234421-.2344-.366135-.5524-.366135-.8839v-10c0-.33152.131714-.64946.366135-.88388.23442-.23442.552344-.36612.883865-.36612h3.125v-1.25c0-.331521.13171-.649464.36613-.883884.23442-.234421.55235-.366116.88387-.366116h3.75c.33152 0 .6494.131695.8839.366116.2344.23442.3661.552363.3661.883884v1.25h3.125c.3315 0 .6494.1317.8839.36612.2344.23442.3661.55236.3661.88388v10c0 .3315-.1317.6495-.3661.8839-.2345.2344-.5524.3661-.8839.3661zm-4.375-13.75h-3.75v1.25h3.75zm4.375 8.125h-3.125c0 .33152-.1317.6495-.3661.8839-.2345.2344-.55238.3661-.8839.3661h-3.75c-.33152 0-.64945-.1317-.88387-.3661s-.36613-.55238-.36613-.8839h-3.125v-1.25h3.125c0-.33152.13171-.64946.36613-.88388s.55235-.36612.88387-.36612h3.75c.33152 0 .6494.1317.8839.36612.2344.23442.3661.55236.3661.88388h3.125v-4.375h-12.5v10h12.5zm-4.375-.625c0-.16576-.06582-.32473-.18303-.44194s-.27621-.18306-.44197-.18306h-2.5c-.16576 0-.32476.06585-.44197.18306s-.18303.27618-.18303.44194.06582.32473.18303.44194.27621.18306.44197.18306h2.5c.16576 0 .32476-.06585.44197-.18306s.18303-.27618.18303-.44194z" fill="#001640" fill-rule="evenodd"/></svg>