<svg fill="none" height="16" viewBox="0 0 15 16" width="15" xmlns="http://www.w3.org/2000/svg" xmlns:xlink="http://www.w3.org/1999/xlink"><clipPath id="a"><path d="m0 .033814h15v15h-15z"/></clipPath><g clip-path="url(#a)"><path clip-rule="evenodd" d="m13.75 3.78381v9.99999c0 .3315-.1317.6495-.3661.8839-.2345.2344-.5524.3661-.8839.3661h-10c-.33152 0-.64944-.1317-.88387-.3661-.23442-.2344-.36613-.5524-.36613-.8839v-9.99999c-.331521 0-.649445-.13169-.883865-.36611-.234421-.23442-.366135-.55237-.366135-.88389v-1.25c0-.331517.131714-.64946.366135-.883881.23442-.23442.552344-.3661155.883865-.3661155h12.5c.3315 0 .6494.1316955.8839.3661155.2344.234421.3661.552364.3661.883881v1.25c0 .33152-.1317.64947-.3661.88389-.2345.23442-.5524.36611-.8839.36611zm-11.25 9.99999h10v-9.99999h-10zm11.25-12.49999h-12.5v1.25h12.5zm-5 7.5h-2.5c-.49728 0-.97421-.19755-1.32584-.54918s-.54916-.82854-.54916-1.32582.19753-.97418.54916-1.32581.82856-.54919 1.32584-.54919h2.5c.49728 0 .97421.19756 1.3258.54919.3517.35163.5492.82853.5492 1.32581s-.1975.97419-.5492 1.32582c-.35159.35163-.82852.54918-1.3258.54918zm0-2.5h-2.5c-.16576 0-.32472.06586-.44193.18307s-.18307.27617-.18307.44193.06586.32473.18307.44194.27617.18306.44193.18306h2.5c.16576 0 .32472-.06585.44193-.18306s.18307-.27618.18307-.44194-.06586-.32472-.18307-.44193-.27617-.18307-.44193-.18307z" fill="#001640" fill-rule="evenodd"/></g></svg>