<svg enable-background="new 0 0 512 512" viewBox="0 0 512 512" xmlns="http://www.w3.org/2000/svg"><path d="m401.28 168.438-117.56-31.35c-1.354-.361-2.778-.361-4.131 0l-117.56 31.35c-4.871 1.3-8.144 5.56-8.144 10.601s3.273 9.302 8.145 10.601l51.749 13.799v35.457c0 9.136 7.432 16.568 16.568 16.568h102.613c9.136 0 16.568-7.432 16.568-16.568v-35.456l18.097-4.826.074 48.845c.006 4.423 3.595 8.005 8.017 8.005h.013c4.427-.006 8.011-3.601 8.005-8.029l-.08-53.095 17.627-4.7c4.871-1.3 8.144-5.56 8.144-10.601 0-5.039-3.274-9.301-8.145-10.601zm-67.785 70.46c0 .295-.239.534-.534.534h-102.614c-.295 0-.534-.239-.534-.534v-31.182l49.775 13.273c.677.181 1.371.27 2.066.27s1.388-.09 2.066-.27l49.775-13.273zm-51.842-33.952-97.155-25.907 97.155-25.908 97.155 25.908z"/><circle cx="375.716" cy="273.102" r="8.017"/><path d="m466.896 87.859-85.512-85.512c-1.502-1.503-3.542-2.347-5.668-2.347h-256.534c-13.851 0-25.119 11.268-25.119 25.119v291.273h-26.188c-13.851 0-25.119 11.268-25.119 25.119v85.511c0 13.851 11.268 25.119 25.119 25.119h26.188v34.739c0 13.851 11.268 25.119 25.119 25.119h324.944c13.851 0 25.119-11.268 25.119-25.119v-393.352c-.001-2.127-.845-4.165-2.349-5.669zm-83.163-60.489 58.141 58.141h-49.056c-5.01 0-9.086-4.076-9.086-9.086v-49.055zm-315.858 408.739c-5.01 0-9.086-4.076-9.086-9.086v-85.511c0-5.01 4.076-9.086 9.086-9.086h230.881c5.01 0 9.086 4.076 9.086 9.086v85.511c0 5.01-4.076 9.086-9.086 9.086zm385.336 50.772c0 5.01-4.076 9.086-9.086 9.086h-324.943c-5.01 0-9.086-4.076-9.086-9.086v-34.739h188.66c13.851 0 25.119-11.268 25.119-25.119v-85.511c0-13.851-11.268-25.119-25.119-25.119h-188.66v-291.274c0-5.01 4.076-9.086 9.086-9.086h248.518v60.393c0 13.851 11.268 25.119 25.119 25.119h60.393v385.336z"/><path d="m110.63 350.597h-25.653c-4.427 0-8.017 3.589-8.017 8.017v51.307c0 4.427 3.589 8.017 8.017 8.017h25.653c18.566 0 33.67-15.105 33.67-33.67.001-18.566-15.104-33.671-33.67-33.671zm0 51.307h-17.636v-35.274h17.637c9.725 0 17.637 7.912 17.637 17.637s-7.913 17.637-17.638 17.637z"/><path d="m187.591 350.597c-18.566 0-33.67 15.105-33.67 33.67 0 18.566 15.105 33.67 33.67 33.67s33.67-15.105 33.67-33.67-15.105-33.67-33.67-33.67zm0 51.307c-9.725 0-17.637-7.912-17.637-17.637s7.912-17.637 17.637-17.637 17.637 7.912 17.637 17.637-7.912 17.637-17.637 17.637z"/><path d="m289.019 395.397c-3.3-2.953-8.368-2.672-11.32.626-3.345 3.738-8.137 5.881-13.147 5.881-9.725 0-17.637-7.912-17.637-17.637s7.912-17.637 17.637-17.637c5.02 0 9.818 2.15 13.162 5.898 2.948 3.303 8.017 3.59 11.318.642 3.303-2.948 3.59-8.017.642-11.318-6.384-7.153-15.542-11.255-25.124-11.255-18.566 0-33.67 15.105-33.67 33.67 0 18.566 15.105 33.67 33.67 33.67 9.566 0 18.712-4.091 25.094-11.221 2.955-3.3 2.674-8.367-.625-11.319z"/></svg>