<svg viewBox="0 0 640 512" xmlns="http://www.w3.org/2000/svg"><path d="m128 224v64h383.47l.53-64s-384 0-384 0zm337.47 131.4-8.85-35.4h-49.48l8 32h-190.28l8-32h-49.48l-8.85 35.4a47.9 47.9 0 0 0 -30.53 44.6v32c0 11.72 6.61 21.52 16 27.1v28.9a24 24 0 0 0 24 24h32a24 24 0 0 0 24-24v-24h160v24a24 24 0 0 0 24 24h32a24 24 0 0 0 24-24v-28.9c9.39-5.58 16-15.38 16-27.1v-32a47.9 47.9 0 0 0 -30.53-44.6zm-257.47 76.45c-14.4 0-24-9.56-24-23.92s9.6-23.93 24-23.93 36 21.53 36 35.89-21.6 11.96-36 11.96zm224 0c-14.4 0-36 2.39-36-12s21.6-35.85 36-35.85 24 9.58 24 23.93-9.6 23.92-24 23.92zm178.5-314.85-272.09-113.33a57.4 57.4 0 0 0 -18.41-3.67 57.4 57.4 0 0 0 -18.5 3.67l-272 113.33a48.11 48.11 0 0 0 -29.5 44.28v334.72a16 16 0 0 0 16 16h64a16 16 0 0 0 16-16v-272c0-17.59 14.59-32 32.59-32h382.82c18 0 32.59 14.41 32.59 32v272a16 16 0 0 0 16 16h64a16 16 0 0 0 16-16v-334.72a48.11 48.11 0 0 0 -29.5-44.28z" fill="#999"/></svg>