<svg fill="none" height="12" viewBox="0 0 20 12" width="20" xmlns="http://www.w3.org/2000/svg"><path d="m.565313 12h8.479997v-1.824h-6.544v-2.976h5.968v-1.76h-5.968v-2.816h6.384v-1.824001h-8.319997zm10.312487 0h4.656c1.36 0 2.432-.256 3.216-.8.768-.528 1.168-1.344 1.168-2.464 0-1.376-.576-2.256-1.728-2.624.896-.544 1.344-1.376 1.344-2.496 0-.88-.304-1.568-.896-2.064-.608-.496-1.6-.752001-3.008-.752001h-4.752zm4.656-4.832c.832 0 1.44.128 1.808.352.368.24.56.608.56 1.104 0 .544-.208.944-.592 1.184-.4.256-1.04.368-1.904.368h-2.592v-3.008zm-.16-4.544c.8 0 1.36.128 1.68.352s.48.592.48 1.072c0 .432-.176.768-.512 1.008-.352.24-.832.352-1.44.352h-2.768v-2.784z" fill="#fff"/></svg>