<svg fill="none" height="16" viewBox="0 0 16 16" width="16" xmlns="http://www.w3.org/2000/svg"><path clip-rule="evenodd" d="m4.12379 15.0227-3.942054.0111-.007908-3.961 10.704472-10.616725c.144-.144557.315-.259268.5034-.337533.1885-.0782648.3905-.118542.5946-.118542.204 0 .406.0402772.5945.118542.1884.078265.3595.192976.5036.337533l1.6432 1.651075c.1447.1446.2594.31628.3377.50524.0783.18895.1185.39148.1185.59601s-.0402.40706-.1185.59601c-.0783.18896-.193.36064-.3377.50524zm-2.36998-1.58h2.36998l-2.36998-2.3699zm10.22249-11.88538-8.64251 8.72548 1.57999 1.58 8.70572-8.6544z" fill="#6321b6" fill-rule="evenodd"/></svg>