<svg enable-background="new 0 0 120 120" viewBox="0 0 120 120" xmlns="http://www.w3.org/2000/svg"><path d="m.1 0h120v120h-120z" fill="#0f1640"/><g fill="#fff"><path d="m57.6 68.6c-1.5 1.9-3.6 3.3-6.1 4.4-2.6 1-5.1 1.6-7.8 1.6-7.6 0-12.1-2.8-13.5-8.5h36.9c.5-3.6.8-6.5.8-8.8 0-7.4-2.5-13.5-7.2-18.1-4.8-4.6-10.9-6.9-18.3-6.9-8.9 0-15.7 2.7-20.5 7.9-4.9 5.3-7.3 12.1-7.3 20.3 0 8.6 2.6 15.3 7.9 20.5 5.3 5.1 12.3 7.6 21 7.6 9.7 0 17.3-3.6 23.1-10.9zm-15.7-22.7c5.8 0 9.4 2.4 10.6 7.1h-22c1.9-4.7 5.6-7.1 11.4-7.1z"/><path d="m74.5 87.8h14.9v-35.1c1-3.8 3.1-5.6 6.3-5.6 2.5 0 4 .7 4.8 2.2l7.6-12.1c-1.3-1.7-2.8-2.8-4.2-3.5-1.5-.7-3.6-1.1-6.3-1.1-1.6 0-3.3.4-4.9 1s-2.7 1.4-3.3 2.2v-2.2h-14.9z"/></g></svg>