<svg fill="none" height="20" viewBox="0 0 20 20" width="20" xmlns="http://www.w3.org/2000/svg"><path clip-rule="evenodd" d="m18.3333 20h-16.66663c-.44203 0-.86593-.1756-1.17849-.4882-.312561-.3125-.48818-.7364-.48818-1.1785v-16.66663c0-.44203.175619-.865955.48818-1.178516.31256-.312561.73646-.488154 1.17849-.488154h16.66663c.4421 0 .866.175593 1.1785.488154.3126.312561.4882.736486.4882 1.178516v16.66663c0 .4421-.1756.866-.4882 1.1785-.3125.3126-.7364.4882-1.1785.4882zm0-18.33333h-16.66663v12.98663l4.40002-4.3875c.16027-.1569.37564-.2448.59998-.2448.22433 0 .4397.0879.59997.2448l3.59176 3.5834 7.1249-4.56003c.1071-.06134.2269-.09727.35-.10501zm0 9.49163-6.8916 4.4117c-.0084.0058-.0084.0142-.0167.02-.1281.1212-.2916.198-.4666.2192-.1318.0345-.2707.031-.4005-.0104-.1299-.0413-.2453-.1186-.3329-.223l-3.55833-3.5383-4.40003 4.3883c-.15964.158-.37541.2461-.59997.245v1.6625h16.66663zm-12.49997-3.6583c-.32963 0-.65182-.09775-.9259-.28089-.27408-.18313-.48777-.44343-.61391-.74797-.12615-.30455-.15912-.63966-.09481-.96296s.22305-.62027.45614-.85336c.23308-.23309.53007-.39181.85337-.45612s.65839-.03132.96293.09483.56485.33977.74799.61385c.18313.27408.28086.59632.28086.92595 0 .44203-.17562.86596-.48818 1.17852s-.73646.48815-1.17849.48815z" fill="#6321b6" fill-rule="evenodd"/></svg>