<svg fill="none" height="17" viewBox="0 0 17 17" width="17" xmlns="http://www.w3.org/2000/svg" xmlns:xlink="http://www.w3.org/1999/xlink"><clipPath id="a"><path d="m0 0h17v17h-17z"/></clipPath><g clip-path="url(#a)"><path clip-rule="evenodd" d="m17 6.06754c.0108.10744-.0011.21595-.0348.31853s-.0886.19696-.161.27704c-.0725.08008-.1609.14408-.2596.18789-.0987.0438-.2055.06644-.3135.06644-.1079 0-.2147-.02264-.3134-.06644-.0987-.04381-.1872-.10781-.2596-.18789s-.1273-.17446-.161-.27704-.0456-.21109-.0348-.31853v-3.22614l-6.92363 6.92363c-.08696.08727-.19027.15656-.30401.20391-.11374.04736-.23571.07186-.35892.07206-.1232.0002-.24529-.0239-.35919-.07081-.11391-.04695-.21741-.11587-.30468-.20284-.08727-.08696-.15659-.19026-.20394-.304-.04734-.11374-.07175-.2357-.07197-.3589-.00021-.12321.0238-.24525.07075-.35915.04695-.11391.11584-.21745.2028-.30472l6.90049-6.89891h-3.1759c-.1086.01191-.2185.00081-.3225-.03259s-.1997-.08835-.2811-.16126c-.0813-.0729-.1465-.16214-.191-.26188-.0445-.099745-.0675-.207763-.0675-.317s.023-.217244.0675-.316986c.0445-.099743.1097-.188979.191-.261888.0814-.072909.1771-.1278506.2811-.1612518.104-.03340125.2139-.0445146.3225-.0326018h5.0845.0464.0541c.0232 0 .0386.00927858.0618.01082403.0231.00154546.0309-.01082403.0464-.01082403.177.00474467.3456.0768797.4713.2016826.0198.011743.0381.026037.0542.042507.0154.017.0308.036317.0463.054863.1227.127057.1942.294878.2009.471364 0 .017-.0077.031673-.0077.048672 0 .017.0077.040956.0077.063365v5.185004zm-15.45455 9.38706h12.36365v-6.95452h1.5454v6.95452c0 .4099-.1628.803-.4526 1.0928-.2899.2899-.6829.4527-1.0928.4527h-12.36365c-.40988 0-.802946-.1628-1.092774-.4527-.289829-.2898-.452676-.6829-.452676-1.0928v-12.36361c0-.40988.162847-.80297.452676-1.0928.289828-.28983.682894-.45266 1.092774-.45266h6.95455v1.54546h-6.95455z" fill="#001640" fill-rule="evenodd"/></g></svg>