<svg fill="none" height="20" viewBox="0 0 20 20" width="20" xmlns="http://www.w3.org/2000/svg"><path clip-rule="evenodd" d="m19.9087 11.1528c-.034.2967-.1757.5707-.3981.7701s-.5102.3104-.8088.3119c-.025 0-.0499 0-.0749 0h-.0916c-.271.0013-.5354.0846-.7582.2391-.2228.1544-.3936.3727-.49.6261-.0964.2533-.1138.5299-.05.7934.0639.2635.206.5015.4076.6826.2289.211.3699.5005.3945.8108.0247.3103-.0686.6184-.2613.8629-.4774.5933-1.022 1.1293-1.6229 1.5972-.2139.1676-.4774.2592-.7491.2605-.1703-.0004-.3388-.0359-.4949-.1042-.156-.0683-.2963-.168-.4123-.2928-.135-.1389-.2968-.249-.4756-.3236-.1789-.0745-.371-.1119-.5647-.11-.1595-.0008-.3178.0289-.4662.0874-.2538.1067-.4694.288-.618.5198s-.2233.5033-.2142.7786c.0098.3086-.0968.6096-.2988.8431-.2021.2335-.4847.3824-.7915.417-.7469.0829-1.50081.0809-2.24725-.0059-.30982-.0362-.59391-.19-.79369-.4296-.19977-.2395-.29992-.5466-.2799-.8579.01378-.2777-.05782-.553-.20512-.7888-.14731-.2359-.36334-.421-.61894-.5304-.15072-.0608-.31183-.0917-.47436-.0907-.19363-.0017-.3856.0357-.56438.1101-.17879.0744-.3407.1841-.47599.3227-.21063.232-.50181.3749-.81421.3997-.31239.0247-.6225-.0706-.86704-.2666-.58351-.4719-1.11128-1.0089-1.57304-1.6005-.19245-.2413-.28575-.5468-.26101-.8545.02474-.3076.16567-.5943.3942-.8017.2023-.1872.34314-.4312.40406-.6999.06091-.2688.03907-.5497-.06279-.8058-.09766-.2415-.26411-.4492-.47863-.5971-.21452-.148-.46773-.2297-.72826-.2351h-.04988c-.31144.0041-.614104-.103-.853629-.3021s-.400254-.4771-.4531284-.7841c-.0915543-.7543-.0915543-1.51697 0-2.27131.0318884-.30513.1786204-.58672.4104574-.78764.231836-.20093.53142-.30616.83798-.29436.28161.01089.56027-.06104.80141-.2069.24113-.14587.43415-.35925.55523-.61373.10627-.25727.13057-.54107.0695-.81264-.06108-.27156-.20448-.51764-.41066-.70463-.22882-.21082-.36972-.50023-.39441-.81038-.02469-.31014.06862-.61818.26121-.86254.47583-.59221 1.01749-1.12832 1.6146-1.59799.21718-.16733.48326-.25885.75742-.26052.17057.00052.33918.03628.49529.10503.15611.06874.29633.169.41188.29448.13556.138.29763.24724.47639.32118.17876.07393.37054.11104.56397.10911.1592.00168.31735-.02656.46614-.08323.25414-.10705.46981-.28873.61842-.52102.14862-.23229.22319-.50424.21387-.77985-.00966-.30839.09717-.609103.29921-.842296.20203-.233193.48442-.381757.79104-.4161212.7469-.0825316 1.50074-.0805868 2.24724.0058165.3096.0364327.5935.1901337.7932.4294817.1997.239347.3.546129.2804.857239-.0156.27824.0553.55451.2028.79096s.3645.42153.6213.52989c.1509.0601.3119.09062.4743.08989.1936.00167.3854-.03573.5642-.10996.1788-.07422.3407-.18372.4762-.32199.2093-.23116.4989-.37382.8097-.39887.3109-.02505.6196.06937.8632.26403.5869.47035 1.1175 1.00686 1.5814 1.59885.1937.24232.2878.54939.263.85866-.0247.30927-.1664.59748-.3962.80592-.2025.18323-.3442.42386-.4063.68978s-.0416.54445.0588.79839c.1004.25393.276.47118.5031.62272.2272.15154.4952.23015.7682.22534.3095-.00264.6099.10467.8477.30281.2377.19815.3975.47428.4508.77919.0868.75267.0868 1.51281 0 2.26551zm-1.6481-1.93344c-.5197-.0122-1.0246-.17548-1.453-.46989-.4285-.29441-.7619-.70722-.9596-1.18801s-.2511-1.00875-.1537-1.51941c.0973-.51065.3412-.98189.702-1.35618-.3247-.39872-.687-.76524-1.0819-1.09447-.5174.48227-1.1987.75001-1.906.74906-.3398.00205-.6765-.06388-.9904-.19393-.4828-.20419-.8954-.54523-1.1868-.98108-.2913-.43584-.4488-.94743-.4529-1.47167-.5121-.04744-1.02755-.04744-1.5397 0-.02825.50427-.20771.98835-.515 1.38917-.3073.40083-.72816.6998-1.2078.858-.27843.17668-.58992.29479-.91551.34709-.70341.00087-1.38121-.26402-1.89765-.7416-.40635.32843-.77983.69554-1.11524 1.09615.36476.37686.61113.8523.70875 1.36761.09762.51532.04214 1.04794-.15951 1.5321-.21056.47683-.55242.88387-.98571 1.17362-.43329.28974-.94009.45023-1.46119.46268-.04856.52032-.05135 1.0439-.00833 1.5647.52091.01 1.02744.1722 1.45743.4663.42999.2942.76466.7077.96275 1.1896s.25105 1.0111.15229 1.5227c-.09875.5115-.34492.983-.70814 1.3566.32882.3952.69084.7616 1.08202 1.0953.51891-.4799 1.19912-.7472 1.90589-.7491.34259-.0026.68228.0636.99881.1947.48304.2035.89575.5441 1.18717.9798.29143.4357.44876.9472.45242 1.4713.51213.0479 1.02755.0479 1.53975 0 .0162-.5178.1809-1.0202.4745-1.4471.2937-.4269.7039-.7603 1.1817-.9607.3095-.1245.6403-.1878.9738-.1864.7063-.0022 1.3872.2631 1.9059.7424.4037-.3315.777-.6983 1.1154-1.0961-.3666-.3758-.6142-.8513-.7119-1.3671-.0977-.5157-.0412-1.0489.1625-1.5326.2057-.4809.5462-.892.9805-1.1835.4342-.2916.9435-.4512 1.4664-.4595.0502-.5201.0502-1.04378 0-1.56387zm-8.27292 4.09734c-.66.0027-1.30595-.1906-1.856-.5554-.55005-.3647-.97941-.8845-1.23381-1.4935-.25439-.609-.32241-1.27985-.19527-1.92749s.44365-1.24298.90941-1.71061c.46576-.46762 1.05983-.78648 1.70695-.91621.64713-.12973 1.31824-.06448 1.92824.18748.61.25195 1.1315.67928 1.4985 1.22786.3669.54859.5628 1.19374.5628 1.85374.0013.88233-.3477 1.72923-.9703 2.35443-.6227.6251-1.4681.9775-2.35052.9797zm0-4.98706c-.32886.00164-.64987.10067-.92251.28458-.27264.1839-.48467.44445-.60939.74875-.12471.30431-.1565.63873-.09133.96103.06516.3224.22437.6182.45749.8502.23313.232.52974.3897.85241.4532.32267.0636.65695.0301.96065-.0961.3036-.1262.5631-.3396.7456-.6131.1825-.2736.28-.5951.28-.92397.0001-.21937-.0432-.43659-.1273-.63918-.0841-.2026-.2074-.38658-.3629-.54134-.1555-.15477-.34-.27729-.543-.3605-.2029-.08321-.4204-.1255-.63972-.12441z" fill="#001640" fill-rule="evenodd"/></svg>