<svg fill="none" height="17" viewBox="0 0 17 17" width="17" xmlns="http://www.w3.org/2000/svg"><path clip-rule="evenodd" d="m16.9221 9.49166c-.0289.25255-.1494.48574-.3384.65544s-.4336.2641-.6875.2654c-.0212 0-.0424 0-.0636 0h-.0778c-.2305.0011-.4552.0721-.6445.2035-.1894.1314-.3346.3172-.4165.5328-.082.2157-.0968.4511-.0425.6753.0542.2242.175.4268.3464.5809.1946.1796.3144.426.3354.6901.0209.264-.0584.5263-.2222.7344-.4058.5049-.8687.9611-1.3794 1.3593-.1818.1426-.4058.2206-.6368.2217-.1448-.0004-.288-.0306-.4206-.0887-.1327-.0581-.2519-.143-.3505-.2492-.1147-.1182-.2523-.2119-.4043-.2754-.152-.0634-.3153-.0953-.48-.0936-.1355-.0007-.27.0246-.3962.0744-.2158.0908-.399.245-.5253.4423-.1263.1974-.1898.4284-.1821.6627.0084.2626-.0823.5188-.254.7175-.17175.1988-.41193.3255-.67275.3549-.63484.0705-1.27569.0689-1.91016-.005-.26335-.0308-.50483-.1617-.67463-.3656-.16981-.2039-.25494-.4653-.23792-.7302.01171-.2363-.04915-.4706-.17436-.6713-.1252-.2007-.30883-.3582-.52609-.4514-.12812-.0518-.26506-.078-.40321-.0772-.16459-.0014-.32776.0304-.47972.0937-.15197.0633-.2896.1567-.40459.2746-.17904.1975-.42654.3192-.69208.3402-.26554.0211-.52913-.0601-.73698-.2268-.49599-.4017-.9446-.8587-1.33709-1.3621-.16358-.2054-.24288-.4654-.22186-.7273.02103-.2618.14082-.5058.33507-.6823.17196-.1593.29167-.367.34345-.5957s.03321-.4678-.05337-.6857c-.08301-.2056-.2245-.3823-.40683-.5082-.18234-.1259-.39757-.1955-.61902-.2001h-.0424c-.264727.0035-.521992-.0877-.725588-.2571-.203597-.16947-.340216-.40608-.3851593-.66731-.0778211-.642-.0778211-1.29106 0-1.93305.0271052-.25968.1518273-.49933.3488883-.67033s.451709-.26056.712289-.25051c.23936.00927.47623-.05195.68119-.17609.20497-.12414.36903-.30575.47195-.52233.09033-.21894.11099-.46048.05907-.6916-.05191-.23112-.1738-.44055-.34906-.59969-.1945-.17941-.31426-.42572-.33524-.68967-.02099-.26396.05832-.52612.22202-.73408.40446-.50401.86487-.96027 1.37241-1.35999.1846-.14241.41077-.2203.64381-.22172.14499.00044.2883.03088.42099.08938.1327.05851.25188.14384.3501.25063.11523.11745.25299.21041.40494.27334.15194.06292.31495.09451.47937.09286.13532.00143.26975-.0226.39622-.07084.21602-.0911.39933-.24572.52566-.44342.12633-.19769.18971-.42913.18178-.66369-.00821-.262462.0826-.51839.25433-.716852s.41176-.3248994.67239-.3541451c.63486-.0702396 1.27567-.06858442 1.91016.0049502.26315.0310065.50445.1618159.67422.3655149.1697.2037.255.464788.2383.729562-.0132.23681.047.47193.1724.67316.1254.20124.3098.35875.5281.45097.1283.05115.2651.07712.4032.0765.1645.00142.3276-.03041.4795-.09358.152-.06317.2897-.15636.4048-.27403.1779-.19674.4241-.31815.6883-.33947s.5266.05904.7337.2247c.4988.4003.9499.8569 1.3442 1.36073.1646.20623.2446.46756.2235.73077-.021.26321-.1414.5085-.3368.68589-.1721.15594-.2925.36073-.3453.58705-.0528.22631-.0354.46336.05.67947.0853.21612.2346.401.4276.52998.1931.12897.4209.19587.653.19178.2631-.00225.5184.08908.7205.25771.2021.16864.3379.40364.3832.66313.0738.64057.0738 1.28751 0 1.92808zm-1.4009-1.64546c-.4417-.01038-.8709-.14934-1.2351-.39991-.3641-.25056-.6476-.60189-.8156-1.01107-.1681-.40918-.2135-.85851-.1307-1.29311s.2901-.83565.5968-1.15419c-.276-.33934-.5839-.65127-.9197-.93146-.4398.41043-1.0189.6383-1.6201.63749-.2888.00175-.575-.05437-.8418-.16504-.4104-.17379-.76109-.46403-1.00874-.83497-.24765-.37093-.38151-.80632-.38498-1.25248-.43533-.04037-.87344-.04037-1.30877 0-.02401.42917-.17654.84115-.43775 1.18227-.2612.34113-.61892.59557-1.02663.73021-.23666.15037-.50143.25089-.77817.29539-.5979.00075-1.17404-.22469-1.61301-.63114-.3454.27952-.66285.59195-.94796.93289.31006.32073.51946.72536.60244 1.16393.08298.43856.03583.89186-.13558 1.30391-.17898.40581-.46955.75222-.83785.99882-.3683.24659-.79908.38318-1.24201.39377-.04128.44282-.04365.8884-.00708 1.33164.44277.00857.87332.14653 1.23881.39691s.64996.60224.81834 1.01234c.16837.4101.21339.8606.12945 1.2959-.08395.4354-.29318.8367-.60192 1.1546.2795.3363.58721.6482.91972.9321.44107-.4083 1.01924-.6359 1.62-.6375.2912-.0022.57994.0542.84899.1658.41058.1731.76138.463 1.0091.8338.24771.3708.38144.8062.38455 1.2522.43531.0408.87345.0408 1.30876 0 .01377-.4407.15378-.8682.40338-1.2316.24961-.3633.59831-.6471 1.00441-.8176.2631-.106.5442-.1598.8278-.1587.6003-.0018 1.1791.2239 1.62.6319.3431-.2821.6604-.5943.948-.9329-.3116-.3198-.522-.7245-.6051-1.1634-.083-.439-.035-.8927.1382-1.3044.1748-.4093.4642-.7591.8333-1.00723s.802-.38395 1.2465-.39104c.0427-.44263.0427-.88834 0-1.33096zm-7.03196 3.4871c-.561.0023-1.11006-.1622-1.5776-.4727-.46754-.3104-.8325-.7528-1.04874-1.27108-.21624-.5183-.27405-1.0892-.16598-1.64038s.3771-1.05786.77299-1.45584c.3959-.39797.90086-.66934 1.45091-.77975.55006-.11041 1.12049-.05488 1.639.15955.51848.21443.96178.57811 1.27368 1.04499s.4784 1.01594.4785 1.57765c.0011.75095-.2956 1.47166-.8249 2.00376-.52924.532-1.24785.832-1.99786.8338zm0-4.24431c-.27954.0014-.55239.08568-.78414.24219-.23175.15652-.41197.37826-.51798.63724-.106.25898-.13302.54359-.07763.81793s.19071.52611.38887.72353c.19815.19742.45028.33164.72455.38573.27426.05409.55839.02563.81652-.0818.25812-.10743.47862-.28901.63378-.52183.15516-.23281.238-.50643.238-.78632.0001-.1867-.0367-.37156-.1082-.54398-.07151-.17243-.17633-.329-.30847-.46072-.13215-.13172-.28898-.23598-.4615-.3068-.17253-.07082-.35734-.10681-.5438-.10588z" fill="#001640" fill-rule="evenodd"/></svg>