<svg fill="none" height="21" viewBox="0 0 20 21" width="20" xmlns="http://www.w3.org/2000/svg"><path clip-rule="evenodd" d="m19.9087 11.6006c-.034.2914-.1757.5603-.3981.7561-.2224.1957-.5102.3046-.8088.3061-.025 0-.0499 0-.0749 0h-.0916c-.271.0013-.5354.0831-.7582.2347s-.3936.3659-.49.6147c-.0964.2487-.1138.5202-.05.7789.0639.2586.206.4922.4076.6701.2289.2071.3699.4913.3945.7959.0247.3046-.0686.6071-.2613.8472-.4774.5824-1.022 1.1086-1.6229 1.5679-.2139.1644-.4774.2544-.7491.2557-.1703-.0004-.3388-.0353-.4949-.1023-.156-.067-.2963-.1649-.4123-.2874-.135-.1364-.2968-.2445-.4756-.3177-.1789-.0731-.371-.1099-.5647-.108-.1595-.0007-.3178.0284-.4662.0858-.2538.1047-.4694.2827-.618.5103s-.2233.4941-.2142.7643c.0098.303-.0968.5985-.2988.8277-.2021.2292-.4847.3754-.7915.4093-.7469.0814-1.50081.0795-2.24725-.0057-.30982-.0356-.59391-.1866-.79369-.4217-.19977-.2352-.29992-.5367-.2799-.8423.01378-.2726-.05782-.5428-.20512-.7744-.14731-.2315-.36334-.4132-.61894-.5206-.15072-.0597-.31183-.09-.47436-.0891-.19363-.0016-.3856.0351-.56438.1081-.17879.073-.3407.1808-.47599.3168-.21063.2278-.50181.3681-.81421.3924-.31239.0243-.6225-.0693-.86704-.2617-.58351-.4633-1.11128-.9904-1.57304-1.5712-.19245-.2368-.28575-.5368-.26101-.8388s.16567-.5834.3942-.7871c.2023-.1837.34314-.4232.40406-.6871.06091-.2638.03907-.5396-.06279-.7909-.09766-.2372-.26411-.441-.47863-.5863-.21452-.1452-.46773-.2254-.72826-.2308h-.04988c-.31144.0041-.614104-.1011-.853629-.2965-.239525-.1955-.400254-.4684-.4531284-.7697-.0915543-.7406-.0915543-1.4892 0-2.22976.0318884-.29954.1786204-.57597.4104574-.77321.231836-.19725.53142-.30056.83798-.28897.28161.0107.56027-.05992.80141-.20311.24113-.1432.43415-.35267.55523-.60249.10627-.25255.13057-.53116.0695-.79775-.06108-.26659-.20448-.50817-.41066-.69173-.22882-.20695-.36972-.49107-.39441-.79553-.02469-.30447.06862-.60687.26121-.84675.47583-.58136 1.01749-1.10765 1.6146-1.56872.21718-.16427.48326-.25411.75742-.25575.17057.00051.33918.03562.49529.1031.15611.06749.29633.16591.41188.28909.13556.13548.29763.24272.47639.3153s.37054.10901.56397.10711c.1592.00165.31735-.02607.46614-.08171.25414-.10508.46981-.28344.61842-.51147.14862-.22804.22319-.495.21387-.76556-.00966-.30275.09717-.59796.29921-.82688.20203-.22892.48442-.374763.79104-.408497.7469-.08102 1.50074-.079111 2.24724.00571.3096.035765.5935.186652.7932.421617.1997.23496.3.53612.2804.84153-.0156.27316.0553.54436.2028.77648s.3645.41381.6213.52018c.1509.05901.3119.08897.4743.08825.1936.00163.3854-.03508.5642-.10794.1788-.07287.3407-.18036.4762-.3161.2093-.22693.4989-.36697.8097-.39157.3109-.02459.6196.0681.8632.2592.5869.46173 1.1175.98841 1.5814 1.56957.1937.23788.2878.53932.263.84293-.0247.3036-.1664.58654-.3962.79116-.2025.17987-.3442.4161-.4063.67715-.0621.26104-.0416.53448.0588.78376s.276.46255.5031.61132c.2272.14876.4952.22593.7682.22121.3095-.00259.6099.10275.8477.29727.2377.19452.3975.46559.4508.76491.0868.73885.0868 1.48515 0 2.22395zm-1.6481-1.89796c-.5197-.01197-1.0246-.17226-1.453-.46128-.4285-.28902-.7619-.69427-.9596-1.16626-.1977-.47198-.2511-.99027-.1537-1.49157.0973-.5013.3412-.96391.702-1.33135-.3247-.39142-.687-.75122-1.0819-1.07442-.5174.47343-1.1987.73627-1.906.73534-.3398.00201-.6765-.06271-.9904-.19037-.4828-.20046-.8954-.53525-1.1868-.96312-.2913-.42786-.4488-.93008-.4529-1.44472-.5121-.04657-1.02755-.04657-1.5397 0-.02825.49504-.20771.97025-.515 1.36374-.3073.39348-.72816.68697-1.2078.84228-.27843.17345-.58992.28939-.91551.34073-.70341.00086-1.38121-.25918-1.89765-.72801-.40635.32241-.77983.6828-1.11524 1.07606.36476.36996.61113.8367.70875 1.34257.09762.50588.04214 1.02875-.15951 1.50404-.21056.46809-.55242.86768-.98571 1.15212s-.94009.44199-1.46119.4542c-.04856.51078-.05135 1.02478-.00833 1.53608.52091.0098 1.02744.169 1.45743.4578s.76466.6947.96275 1.1677c.19809.4731.25105.9926.15229 1.4948-.09875.5022-.34492.9651-.70814 1.3318.32882.388.69084.7477 1.08202 1.0752.51891-.4711 1.19912-.7335 1.90589-.7353.34259-.0026.68228.0624.99881.1911.48304.1998.89575.5342 1.18717.9619.29143.4276.44876.9298.45242 1.4444.51213.0469 1.02755.0469 1.53975 0 .0162-.5084.1809-1.0016.4745-1.4207.2937-.419.7039-.7464 1.1817-.9431.3095-.1222.6403-.1844.9738-.183.7063-.0021 1.3872.2583 1.9059.7288.4037-.3254.777-.6855 1.1154-1.076-.3666-.3689-.6142-.8357-.7119-1.342s-.0412-1.0297.1625-1.5046c.2057-.4721.5462-.8756.9805-1.1618.4342-.2862.9435-.4429 1.4664-.4511.0502-.5105.0502-1.0247 0-1.53522zm-8.27292 4.02236c-.66.0026-1.30595-.1872-1.856-.5453-.55005-.358-.97941-.8683-1.23381-1.4662-.25439-.5978-.32241-1.2563-.19527-1.89212.12714-.63578.44365-1.22022.90941-1.67928s1.05983-.77207 1.70695-.89943c.64713-.12736 1.31824-.06331 1.92824.18404.61.24734 1.1315.66684 1.4985 1.20538.3669.53853.5628 1.17187.5628 1.81981.0013.8662-.3477 1.6975-.9703 2.3112-.6227.6138-1.4681.9597-2.35052.9619zm0-4.89578c-.32886.00161-.64987.09883-.92251.27936-.27264.18054-.48467.43631-.60939.73504-.12471.29878-.1565.62698-.09133.94348.06516.3164.22437.6069.45749.8346.23313.2277.52974.3825.85241.4449s.65695.0296.96065-.0944c.3036-.1239.5631-.3333.7456-.6019.1825-.2685.28-.5841.28-.907.0001-.2153-.0432-.4286-.1273-.62746-.0841-.19888-.2074-.37949-.3629-.53142-.1555-.15194-.34-.27221-.543-.3539-.2029-.08169-.4204-.1232-.63972-.12213z" fill="#999" fill-rule="evenodd"/></svg>