<svg fill="none" height="33" viewBox="0 0 35 33" width="35" xmlns="http://www.w3.org/2000/svg"><path d="m29.0028 14.9825.1975-1.1336c.013-.0747.0045-.1515-.0245-.2217s-.0774-.1311-.1397-.1756c-.0623-.0446-.136-.0711-.2128-.0766s-.1536.0102-.2218.0455l-1.0339.5351-1.034-.5351c-.0682-.0353-.145-.0511-.2219-.0457-.0768.0055-.1505.032-.2128.0766-.0624.0446-.1108.1054-.1398.1757-.029.0702-.0375.1471-.0245.2218l.1975 1.1336-.8365.8028c-.0552.0529-.0942.12-.1127.1936-.0184.0736-.0156.1509.0082.223.0238.0722.0676.1363.1265.1852s.1305.0806.2068.0915l1.1558.1654.517 1.0313c.0341.0681.0868.1253.1522.1654.0654.04.141.0613.218.0613s.1525-.0213.218-.0613c.0654-.0401.1181-.0973.1522-.1654l.5169-1.0313 1.1558-.1654c.0763-.0109.1479-.0426.2068-.0915s.1027-.113.1265-.1852c.0238-.0721.0267-.1494.0082-.223s-.0575-.1407-.1127-.1936zm-.8818.8874c-.0662.0095-.1291.0347-.1833.0734-.0541.0388-.0979.0899-.1275.149l-.2428.4844-.2429-.4844c-.0296-.0591-.0734-.1102-.1275-.149-.0541-.0387-.117-.0639-.1832-.0734l-.5431-.0777.3929-.3771c.048-.046.0838-.1027.1045-.1654s.0256-.1294.0143-.1943l-.0928-.5326.4857.2514c.0592.0307.1252.0467.1921.0467s.1329-.016.1921-.0467l.4856-.2514-.0927.5326c-.0113.0649-.0064.1316.0142.1943.0207.0626.0566.1194.1045.1654l.393.3771z" fill="#feb32f"/><path d="m33.7507 9.38278-1.1352-.27163-.4163-1.07455c-.0274-.07088-.0745-.13278-.1358-.17871s-.1344-.07405-.2111-.08119c-.0767-.00713-.1539.00701-.2229.04083-.0689.03381-.1269.08595-.1673.15051l-.6131.97904-1.1667.05778c-.0769.00382-.1512.02874-.2145.07196s-.113.10301-.1436.17261-.0408.14623-.0294.22124c.0113.075.0438.14539.0936.20319l.7562.87664-.3046 1.1102c-.0201.0732-.019.1505.0032.2232.0222.0726.0646.1376.1224.1878.0578.0501.1287.0834.2046.0959.076.0125.154.0039.2252-.0249l1.0802-.4372.9788.6284c.0645.0415.1395.0643.2165.0659.077.0017.153-.0179.2193-.0565s.1202-.0947.1558-.1619c.0356-.0673.0514-.143.0456-.2186l-.0884-1.1469.909-.7219c.06-.0476.1052-.11071.1306-.18229s.0299-.14872.0131-.22272c-.0168-.07399-.0543-.14187-.1082-.19599-.0539-.05411-.1222-.09229-.197-.11022zm-1.4349.93482c-.0521.0414-.0932.0946-.1197.155-.0266.0605-.0378.1265-.0328.1922l.0413.5387-.4596-.2953c-.0561-.036-.1202-.058-.1868-.0642s-.1338.0037-.1957.0287l-.5075.2054.1431-.5216c.0175-.0636.019-.1304.0044-.1947s-.0449-.1242-.0882-.1744l-.3552-.4118.548-.02709c.0669-.00329.1319-.02253.1895-.05607s.1061-.08036.1412-.13645l.288-.45988.1955.50479c.0239.06156.0626.11648.1128.16003.0502.04356.1104.07444.1754.09l.5333.12762z" fill="#feb32f"/><path d="m27.6796 2.77549-.3047 1.11025c-.0201.07322-.019.15051.0032.22315.0221.07263.0645.13771.1223.18786.0578.05016.1287.08339.2047.09594.0759.01255.154.00392.2252-.02492l1.0802-.43725.9784.62855c.0645.04144.1395.06428.2165.06593.077.00166.153-.01793.2193-.05655.0662-.03862.1202-.09473.1558-.16199s.0514-.14298.0456-.2186l-.0885-1.14683.9093-.72197c.0599-.0476.1052-.11076.1306-.18234.0254-.07157.0299-.14872.0131-.22271s-.0543-.14188-.1082-.19599c-.054-.05412-.1222-.09229-.197-.11022l-1.1352-.27157-.4163-1.07462c-.0274-.070868-.0745-.132761-.1358-.1786757-.0613-.0459153-.1344-.07402161-.2111-.08114011s-.1539.00703484-.2229.04085931c-.0689.0338244-.1269.0859705-.1673.1505395l-.613.978967-1.1667.05772c-.077.0038-.1513.02871-.2146.07193-.0633.04321-.113.103-.1436.1726s-.0408.14624-.0294.22125c.0113.07501.0437.1454.0936.20321zm.9626-.80231c.0668-.0033.1319-.02256.1895-.05611s.106-.08038.1412-.13647l.2879-.45988.1956.50479c.0238.06157.0625.1165.1127.16007s.1105.07446.1755.09003l.5332.12755-.4271.3391c-.0521.04136-.0932.09457-.1198.15505s-.0378.12641-.0328.19212l.0413.5388-.4596-.29528c-.0561-.036-.1202-.05804-.1868-.06422s-.1338.00367-.1957.02873l-.5075.20538.1431-.52159c.0175-.06362.019-.13047.0044-.19479-.0146-.06431-.0449-.12416-.0882-.17439l-.3552-.41186z" fill="#feb32f"/><g fill="#f00"><path d="m20.1904 15.0412c-.932.5774-1.3873 1.2772-1.4062 1.3067-.0587.091-.0782.2013-.0543.3065.024.1052.0893.1967.1818.2544.0924.0578.2044.077.3113.0534.1068-.0235.1998-.0879.2584-.1789.0619-.0949 1.5555-2.3177 4.8064-1.526.1058.0248.2174.0074.3103-.0484.0929-.0557.1597-.1454.1858-.2494.0262-.104.0096-.2139-.0462-.3059s-.1462-.1586-.2516-.1853c-2.0001-.4873-3.4401.0425-4.2957.5729z"/><path d="m28.0237 10.7372c.1011.0413.2148.0414.316.0002s.1816-.1202.2235-.2198c.042-.0996.0421-.2115.0003-.3111-.0419-.0996-.1222-.1788-.2233-.2201-2.9387-1.20082-5.0746-.30158-6.3489.6644-.8454.6473-1.5451 1.4603-2.0549 2.3875-.0241.0478-.0384.0999-.0421.1531-.0037.0533.0033.1067.0206.1573.0172.0506.0445.0973.0801.1375.0356.0403.079.0732.1275.0969.0486.0238.1014.0379.1555.0415s.1084-.0033.1597-.0203c.0514-.017.0989-.0438.1397-.0789.0409-.0351.0743-.0777.0984-.1255.455-.816 1.0739-1.5323 1.8191-2.105 1.6022-1.2143 3.4624-1.40205 5.5288-.5577z"/><path d="m23.385 7.72591c-.0337.10255-.0246.21409.0252.31006.0499.09598.1364.16853.2405.20171.5683.16487 1.1577.24872 1.7502.24901.6903 0 1.4876-.12268 2.2026-.53995.9357-.54585 1.5356-1.47584 1.7843-2.76377.0103-.05252.01-.10654-.0009-.15895-.0109-.0524-.0322-.10217-.0627-.14645s-.0696-.0822-.115-.11158-.0963-.04964-.1496-.05963c-.0534-.00998-.1083-.0095-.1615.00144-.0532.01093-.1036.0321-.1485.06228s-.0832.06879-.1129.1136c-.0297.04482-.0501.09496-.06.14755-.2022 1.04732-.67 1.79239-1.3905 2.2144-1.3706.80292-3.252.22808-3.2818.21874-.1041-.03305-.2173-.02407-.3147.02497-.0973.04904-.171.13412-.2047.23657z"/><path d="m17.9284 18.2277c.1471 0 .2908-.0429.4131-.1234.1223-.0804.2176-.1947.2739-.3285.0562-.1337.071-.2809.0423-.4229s-.0995-.2724-.2035-.3748c-.1039-.1024-.2364-.1721-.3806-.2004-.1442-.0282-.2937-.0137-.4296.0417-.1358.0554-.2519.1492-.3336.2696s-.1253.2619-.1253.4067c.0002.194.0786.3801.2179.5173.1394.1372.3284.2144.5254.2147zm0-.8129c.0163 0 .0322.0047.0457.0136.0136.0089.0241.0215.0304.0363.0062.0148.0078.0311.0047.0468-.0032.0157-.011.0301-.0226.0415-.0115.0113-.0261.019-.0421.0221-.0159.0032-.0325.0015-.0475-.0046s-.0278-.0165-.0369-.0298c-.009-.0134-.0138-.029-.0138-.045.0001-.0215.0088-.042.0242-.0571.0154-.0152.0362-.0237.0579-.0238z"/><path d="m23.7779 4.9508c.147 0 .2908-.04293.413-.12336.1223-.08043.2176-.19476.2738-.32851.0563-.13375.071-.28093.0423-.42293-.0286-.14199-.0994-.27242-.2034-.37479s-.2365-.17208-.3807-.20033c-.1442-.02824-.2937-.01375-.4295.04166-.1359.0554-.252.14922-.3337.2696-.0817.12037-.1253.26189-.1253.40667.0002.19407.0786.38013.218.51736s.3284.21442.5255.21463zm0-.81287c.0162 0 .0321.00475.0457.01365.0135.00889.024.02154.0302.03633.0063.0148.0079.03108.0047.04678-.0032.01571-.011.03013-.0225.04145s-.0262.01902-.0421.02214c-.016.00311-.0325.0015-.0475-.00464-.0151-.00613-.0279-.01652-.0369-.02984s-.0139-.02898-.0138-.04499c.0001-.02143.0088-.04195.0242-.0571.0154-.01514.0362-.02369.058-.02378z"/><path d="m34.2566 4.39233c-.147 0-.2907.04294-.413.12337-.1223.08044-.2176.19476-.2738.32852-.0563.13376-.071.28094-.0423.42294.0287.14199.0995.27242.2035.37479.1039.10237.2364.17208.3806.20031.1443.02824.2937.01373.4296-.04168.1358-.05541.252-.14925.3336-.26963.0817-.12038.1253-.26191.1253-.40669-.0002-.19407-.0786-.38012-.218-.51734-.1394-.13721-.3284-.21439-.5255-.21459zm0 .81288c-.0162 0-.0321-.00475-.0456-.01365-.0136-.00889-.0241-.02153-.0303-.03632s-.0079-.03107-.0047-.04677c.0032-.01571.011-.03013.0225-.04145s.0262-.01903.0421-.02215c.0159-.00313.0325-.00153.0475.0046s.0279.0165.0369.02982c.009.01331.0139.02896.0139.04497-.0001.02144-.0088.04198-.0242.05714s-.0363.02372-.0581.02381z"/><path d="m17.6241 14.106c0-.1448-.0436-.2863-.1253-.4067s-.1979-.2142-.3337-.2696c-.1359-.0554-.2854-.0699-.4296-.0416-.1443.0283-.2767.0981-.3807.2005-.1039.1024-.1747.2328-.2034.3749-.0286.142-.0138.2892.0425.4229.0564.1338.1517.2481.274.3284.1223.0804.2661.1233.4132.1232.197-.0003.3859-.0775.5252-.2147.1393-.1373.2176-.3233.2178-.5173zm-.743.0813c-.0163 0-.0322-.0047-.0457-.0136s-.0241-.0215-.0303-.0362c-.0062-.0148-.0079-.0311-.0048-.0468.0032-.0157.011-.0301.0224-.0414.0115-.0114.0261-.0191.042-.0223.016-.0032.0325-.0016.0475.0045.015.006.0279.0164.037.0296.0091.0133.014.0289.014.0449-.0001.0215-.0088.0421-.0243.0573-.0154.0151-.0363.0236-.0582.0237z"/><path d="m33.0323 14.5657c-.1471 0-.2908.0429-.4131.1233-.1222.0805-.2175.1948-.2738.3285-.0563.1338-.071.281-.0423.423s.0995.2724.2035.3748c.1039.1023.2364.172.3806.2003.1442.0282.2937.0137.4296-.0417.1358-.0554.2519-.1492.3336-.2696.0817-.1203.1253-.2619.1253-.4066-.0002-.1941-.0786-.3802-.218-.5174-.1393-.1372-.3283-.2144-.5254-.2146zm0 .8128c-.0163 0-.0321-.0047-.0456-.0136s-.0241-.0215-.0303-.0363-.0078-.0311-.0046-.0468c.0032-.0156.011-.03.0225-.0413.0115-.0114.0261-.0191.042-.0222.016-.0031.0325-.0015.0475.0046.015.0062.0278.0165.0368.0298.0091.0133.0139.029.0139.045-.0001.0214-.0088.0419-.0242.0571-.0154.0151-.0363.0237-.058.0237z"/></g><path clip-rule="evenodd" d="m13.3535 2.43047c-.3632-.07961-.7388-.08778-1.1052-.02404-.3664.06373-.7164.19813-1.0299.39545-.3135.19733-.5843.4537-.7968.75438-.2123.30034-.3623.63898-.44146.9965l-.00027.00123-1.04844 4.63648-3.39691-.74446c-.68677-.1507-1.40595-.04358-2.01671.30038-.61077.34397-1.06915.90001-1.28538 1.55921-.21624.6593-.17476 1.3743.1163 2.005.17827.3863.44231.7239.76874.9904l-1.74841 1.0946c-.661026.4148-1.127936 1.0708-1.2982985 1.8242-.1703622.7533-.0302635 1.5424.3895605 2.1942l1.558398 2.4132c.06173.0956.14197.1783.23616.2434.0942.0651.20051.1113.31285.1359.11233.0247.22849.0273.34186.0077.11335-.0196.22171-.0609.31881-.1217l.73814-.462v9.4585c.00088.7718.31269 1.5117.86699 2.0575.55431.5457 1.30585.8526 2.08974.8535h15.38363c.7839-.0009 1.5354-.3079 2.0896-.8536.5543-.5457.8661-1.2856.867-2.0574v-11.0075c0-.1134-.0227-.2256-.0668-.3303-.044-.1047-.1086-.1998-.19-.2799s-.178-.1437-.2844-.187c-.1063-.0433-.2204-.0656-.3354-.0656h-16.56772l14.38212-9.00337c.0972-.06079.1812-.13983.2473-.2326s.113-.19746.138-.30808c.025-.11063.0277-.22502.0078-.33663-.0199-.11159-.062-.2183-.1238-.31391l-1.5583-2.41308c-.4213-.65085-1.0876-1.11058-1.8528-1.27832-.7651-.16773-1.5666-.02978-2.2286.3836l-.0004.00027-1.2932.80953c.0397-.28239.0352-.56959-.014-.85151-.0629-.36106-.1976-.70633-.3965-1.01596-.1988-.30964-.4579-.57754-.7622-.7883-.3043-.21077-.6479-.36025-1.0111-.43987zm-9.33657 9.29703-.39179.2438.39112-.2448c-.11374-.1761-.17188-.3815-.16707-.5902.0048-.2086.07234-.4112.19408-.582.12173-.1709.29219-.3023.48982-.3778.19762-.0755.41355-.0915.62045-.0462l2.23357.4896-2.58497 1.5954-.11436-.0251-.00132-.0002c-.13711-.0297-.26688-.0859-.3818-.1652-.11493-.0794-.21272-.1804-.28773-.2973zm8.14617-7.46021c.2402-.14974.5309-.19942.8082-.13813.2774.0613.5186.22856.6707.46499s.2026.52266.1403.79572l-.0007.00329-.2997 1.41151-2.5824 1.62258.7914-3.49991c.0624-.27294.2322-.51036.4722-.66005zm6.2508 1.7198c.0891.00007.1779.00973.2648.02882l.0014.0003c.1541.03338.3001.09653.4293.1858s.2392.20288.3235.33426l.0007.00106 1.0879 1.68468-5.7193 3.58049-1.7343-2.68548 4.703-2.94418.001-.00063c.1917-.12071.4144-.18494.642-.18512zm-6.8251 4.05581-2.98516 1.8687 1.73416 2.6855 2.9852-1.8687zm-9.27848 5.8083 4.81431-3.0137 1.73417 2.6855-5.83115 3.6504-1.08762-1.6844c-.17112-.2656-.22823-.5872-.15881-.8942.0694-.307.25958-.5743.52884-.7434zm8.11668 4.0931h-4.70773v10.1436.0005c.00049.3144.12755.6158.35335.8381.22591.2224.5322.3475.85168.3479h3.5025zm1.7524 11.3301v-11.3301h3.4944v11.3301zm11.3313-11.3301h-6.0843v11.3301h4.8794c.3195-.0004.6257-.1255.8516-.3479.2259-.2225.353-.524.3533-.8386z" fill="#001640" fill-rule="evenodd"/></svg>