<svg fill="none" height="27" viewBox="0 0 27 27" width="27" xmlns="http://www.w3.org/2000/svg"><path d="m22.1853 23.7674c-2.3415 1.9775-5.3789 3.2326-8.6854 3.2326-4.92012 0-9.23911-2.7106-11.58047-6.6657l.87655-4.0406 3.88537-.7213c.90175 2.9109 3.62275 5.0467 6.81855 5.0467 1.5503 0 2.99-.4904 4.1766-1.3605l3.7336.5695z" fill="#59c36a"/><path d="m22.1854 23.7674-.7752-3.9392-3.7336-.5696c-1.1866.8701-2.6263 1.3606-4.1766 1.3606v6.3808c3.3065 0 6.3439-1.255 8.6854-3.2326z" fill="#00a66c"/><path d="m6.38086 13.5c0 .7277.11074 1.4238.30059 2.0725l-4.76192 4.7619c-1.186522-1.9934-1.91953-4.3348-1.91953-6.8344s.733008-4.84098 1.91953-6.83434l3.82182.65775.9401 4.10419c-.18985.6485-.30059 1.3446-.30059 2.0724z" fill="#ffda2d"/><path d="m27 13.5c0 4.1132-1.9037 7.7994-4.8146 10.2674l-4.5088-4.5088c.9175-.6645 1.6927-1.5504 2.199-2.5945h-6.3756c-.443 0-.791-.3481-.791-.7911v-4.746c0-.4431.348-.7911.791-.7911h12.4875c.3797 0 .7119.2689.7752.6486.1582.8227.2373 1.677.2373 2.5155z" fill="#4086f4"/><path d="m19.8756 16.6641c-.5062 1.0441-1.2815 1.93-2.199 2.5945l4.5088 4.5088c2.9109-2.468 4.8146-6.1541 4.8146-10.2674 0-.8385-.0791-1.6928-.2374-2.5155-.0632-.3797-.3955-.6486-.7752-.6486h-12.4874v6.3282z" fill="#4175df"/><path d="m22.4067 3.77045c.0159.22149-.0791.42721-.2214.58536l-3.3856 3.36972c-.2689.28477-.7119.31641-1.0283.0791-1.2499-.93334-2.7212-1.42377-4.2715-1.42377-3.1958 0-5.91679 2.13569-6.81855 5.04664l-4.76192-4.76188c2.34136-3.95507 6.66036-6.66562 11.58047-6.66562 3.1482 0 6.2174 1.16016 8.6221 3.1851.174.14244.2689.36387.2847.58535z" fill="#ff641a"/><path d="m17.7715 7.80463c.3164.23736.7593.20567 1.0283-.0791l3.3855-3.36972c.1424-.15815.2374-.36382.2215-.58535-.0159-.22154-.1108-.44292-.2848-.58536-2.4046-2.02494-5.4738-3.1851-8.622-3.1851v6.38086c1.5503 0 3.0216.49043 4.2715 1.42377z" fill="#f03800"/></svg>