<svg fill="none" height="27" viewBox="0 0 27 27" width="27" xmlns="http://www.w3.org/2000/svg" xmlns:xlink="http://www.w3.org/1999/xlink"><clipPath id="a"><path d="m.402832 0h26.4373v26.4373h-26.4373z"/></clipPath><g clip-path="url(#a)" fill="#5b6068"><path d="m23.5354 11.5663v-3.3047h-1.6524v3.3047h-3.3046v1.6523h3.3046v3.3046h1.6524v-3.3046h3.3046v-1.6523z"/><path d="m8.66447 11.5663v3.3047h4.67443c-.6824 1.9233-2.5198 3.3047-4.67443 3.3047-2.73295 0-4.95698-2.2241-4.95698-4.957 0-2.733 2.22403-4.95701 4.95698-4.95701 1.18472 0 2.32483.42465 3.21043 1.19628l2.1712-2.49171c-1.4871-1.29542-3.3972-2.00923-5.38163-2.00923-4.55547 0-8.261638 3.70617-8.261638 8.26167 0 4.5554 3.706168 8.2616 8.261638 8.2616 4.55543 0 8.26163-3.7062 8.26163-8.2616v-1.6524z"/></g></svg>