<svg fill="none" height="62" viewBox="0 0 313 62" width="313" xmlns="http://www.w3.org/2000/svg" xmlns:xlink="http://www.w3.org/1999/xlink"><linearGradient id="a" gradientUnits="userSpaceOnUse" x1="220.795" x2="48.1087" y1="31.5" y2="97.727"><stop offset="0" stop-color="#716eff"/><stop offset="1" stop-color="#9871fa"/></linearGradient><g opacity=".2"><path d="m226.5 22.8758c17.447 7.1804 62.054-5.9836 86.5.0001v39.1242h-313v-39.1243c51.9622-29.41745 45.6914-23.334953 96.5-8.3757 19.476 5.7343 42.744-12.79728 73.181-13.48771 30.438-.690426 35.01 12.88781 56.819 21.86341z" fill="#c4c4c4"/><path d="m226.5 22.8758c17.447 7.1804 62.054-5.9836 86.5.0001v39.1242h-313v-39.1243c51.9622-29.41745 45.6914-23.334953 96.5-8.3757 19.476 5.7343 42.744-12.79728 73.181-13.48771 30.438-.690426 35.01 12.88781 56.819 21.86341z" fill="url(#a)"/></g></svg>