<svg width="313" height="61" viewBox="0 0 313 61" fill="none" xmlns="http://www.w3.org/2000/svg">
<path d="M90.8323 36.835C73.3848 44.0155 24.4456 15.8922 0 21.8758V61H313V44.4298C261.038 15.0124 251.167 21.8758 200.358 36.835C180.882 42.5694 173.756 0.70274 143.319 0.0123136C112.881 -0.678113 112.642 27.8595 90.8323 36.835Z" fill="#C4C4C4"/>
<path d="M90.8323 36.835C73.3848 44.0155 24.4456 15.8922 0 21.8758V61H313V44.4298C261.038 15.0124 251.167 21.8758 200.358 36.835C180.882 42.5694 173.756 0.70274 143.319 0.0123136C112.881 -0.678113 112.642 27.8595 90.8323 36.835Z" fill="url(#paint0_linear)"/>
<defs>
<linearGradient id="paint0_linear" x1="92.2054" y1="30.5" x2="264.891" y2="96.7269" gradientUnits="userSpaceOnUse">
<stop stop-color="#716EFF"/>
<stop offset="1" stop-color="#9871FA"/>
</linearGradient>
</defs>
</svg>
