<svg fill="none" height="12" viewBox="0 0 12 12" width="12" xmlns="http://www.w3.org/2000/svg"><path clip-rule="evenodd" d="m10 9.5c1.1046 0 2-.89543 2-2v-5.5c0-1.104569-.8954-2-2-2h-8c-1.104569 0-2 .89543-2 2v10s.465212-.6344 1.16129-1.264c.68575-.6203 1.59556-1.236 2.50538-1.236zm-8.83871-.25225c.68143-.47961 1.54998-.90904 2.50538-.90904h6.33312c.00004 0 .00021 0 .00021 1.16129l-.00021-1.16129c.46321 0 .83891-.3755.83891-.83871v-5.5c0-.46321-.3755-.83871-.8387-.83871h-8c-.46321 0-.83871.3755-.83871.83871z" fill="#fff" fill-rule="evenodd"/></svg>