<svg fill="none" height="9" viewBox="0 0 8 9" width="8" xmlns="http://www.w3.org/2000/svg"><path d="m2.71712 6.47109-1.06662-1.00355c-.16062-.13318-.36948-.20394-.58397-.19784-.214486.00611-.418358.08862-.570033.23069s-.239773.33298-.246127.53374c-.006355.20075.069441.3962.211863.54642l1.702907 1.59201c.05463.17521.17168.32764.33167.43198s.35323.15431.54776.1416c.12325.01153.24768-.00285.36422-.04209.11655-.03924.22224-.10235.3094-.18471.10538-.10252.17976-.22948.21529-.36779l3.68632-6.79189c.12692-.2073.16279-.452661.09993-.684225-.06285-.231564-.2195-.431177-.43674-.556635-.10797-.0587956-.22743-.0967615-.35132-.1116602-.12389-.01489874-.24971-.00642691-.37005.0249135-.12034.0313404-.23278.0849207-.33064.1575717-.09787.072652-.17916.162905-.23916.265444z" fill="#21b67b"/></svg>