<svg fill="none" height="23" viewBox="0 0 23 23" width="23" xmlns="http://www.w3.org/2000/svg"><path clip-rule="evenodd" d="m23 23.0001-5.89-1.473c-2.4233 1.3557-5.2552 1.7889-7.97295 1.2195-2.71772-.5694-5.13768-2.1028-6.81299-4.3172-1.675304-2.2144-2.492836-4.9602-2.3016309-7.7303.1912049-2.77013 1.3782609-5.37754 3.3419209-7.34076s4.57125-3.149662 7.34145-3.3402404c2.7702-.1905776 5.5158.6275804 7.7298 2.3033904 2.2141 1.67581 3.747 4.09608 4.3157 6.81393.5688 2.71788.135 5.54968-1.2213 7.97268zm-4.7901-18.245c-1.2901-1.29297-2.925-2.18735-4.7096-2.57636-1.7846-.389-3.64341-.2562-5.35458.38256-1.71117.63875-3.20236 1.75647-4.29553 3.21971-1.09318 1.46324-1.74209 3.21015-1.86939 5.03219-.12729 1.8221.27251 3.6423 1.15161 5.2433.87911 1.601 2.20031 2.9152 3.80603 3.7857 1.60573.8705 3.42806 1.2605 5.24936 1.1234 1.8214-.1371 3.5648-.7955 5.0221-1.8965l2.7901.931-.9301-2.792c1.3833-1.8302 2.0582-4.0988 1.9002-6.3874-.1581-2.28867-1.1385-4.44297-2.7602-6.0656zm-1.7099 8.245c-.2967 0-.5867-.088-.8334-.2528s-.439-.3991-.5525-.6732-.1432-.5757-.0853-.8666c.0579-.291.2007-.5583.4105-.7681.2098-.2097.4771-.3526.7681-.4105.2909-.05786.5925-.0282.8665.0854.2741.1135.5084.3058.6733.5524.1648.2467.2528.5367.2528.8334 0 .3978-.1581.7793-.4394 1.0606-.2813.2814-.6628.4394-1.0606.4394zm-5 0c-.2967 0-.5867-.088-.8334-.2528s-.439-.3991-.5525-.6732-.1432-.5757-.0853-.8666c.0579-.291.2007-.5583.4105-.7681.2098-.2097.4771-.3526.7681-.4105.2909-.05786.5925-.0282.8665.0854.2741.1135.5084.3058.6733.5524.1648.2467.2528.5367.2528.8334 0 .3978-.1581.7793-.4394 1.0606-.2813.2814-.6628.4394-1.0606.4394zm-5.00003 0c-.29667 0-.5867-.088-.83338-.2528-.24667-.1648-.43895-.3991-.55249-.6732-.11353-.2741-.1432-.5757-.08532-.8666.05787-.291.20074-.5583.41052-.7681.20978-.2097.47709-.3526.76807-.4105.29097-.05786.59248-.0282.86657.0854.27409.1135.5084.3058.67322.5524.16482.2467.25281.5367.25281.8334 0 .3978-.15803.7793-.43933 1.0606-.28131.2814-.66285.4394-1.06067.4394z" fill="#001640" fill-rule="evenodd"/></svg>