<svg fill="none" height="17" viewBox="0 0 17 17" width="17" xmlns="http://www.w3.org/2000/svg"><path clip-rule="evenodd" d="m15.5833 17h-4.25c-.3757 0-.736-.1493-1.0017-.4149-.2657-.2657-.41493-.626-.41493-1.0018v-4.25c0-.3757.14923-.736.41493-1.0017s.626-.41493 1.0017-.41493h4.25c.3758 0 .7361.14923 1.0017.41493.2657.2657.415.626.415 1.0017v4.25c0 .3758-.1493.7361-.415 1.0018-.2656.2656-.6259.4149-1.0017.4149zm0-5.6667h-4.25v4.25h4.25zm0-4.24997h-4.25c-.3757 0-.736-.14925-1.0017-.41493-.2657-.26567-.41493-.62601-.41493-1.00173v-4.25c0-.37573.14923-.736063.41493-1.001739.2657-.265677.626-.414931 1.0017-.414931h4.25c.3758 0 .7361.149254 1.0017.414931.2657.265676.415.626009.415 1.001739v4.25c0 .37572-.1493.73606-.415 1.00173-.2656.26568-.6259.41493-1.0017.41493zm0-5.66666h-4.25v4.25h4.25zm-9.91663 15.58333h-4.25c-.37573 0-.736041-.1493-1.001717-.4149-.265677-.2657-.414953-.626-.414953-1.0018v-4.25c0-.3757.149276-.736.414953-1.0017.265676-.2657.625987-.41493 1.001717-.41493h4.25c.37572 0 .73603.14923 1.00171.41493s.41495.626.41495 1.0017v4.25c0 .3758-.14927.7361-.41495 1.0018-.26568.2656-.62599.4149-1.00171.4149zm0-5.6667h-4.25v4.25h4.25zm0-4.24997h-4.25c-.37573 0-.736041-.14925-1.001717-.41493-.265677-.26567-.414953-.62601-.414953-1.00173v-4.25c0-.37573.149276-.736063.414953-1.001739.265676-.265677.625987-.414931 1.001717-.414931h4.25c.37572 0 .73603.149254 1.00171.414931.26568.265676.41495.626009.41495 1.001739v4.25c0 .37572-.14927.73606-.41495 1.00173-.26568.26568-.62599.41493-1.00171.41493zm0-5.66666h-4.25v4.25h4.25z" fill="#001640" fill-rule="evenodd"/></svg>