<svg fill="none" height="110" viewBox="0 0 108 110" width="108" xmlns="http://www.w3.org/2000/svg"><circle cx="57.5" cy="59.5" fill="#eff4f7" r="48.5"/><g fill="#001640"><path clip-rule="evenodd" d="m92.8939 23.696c1.747-1.222 4.1514-.793 5.3704.9583 4.6557 6.6878 7.7467 14.3372 9.0437 22.382s.767 16.2781-1.552 24.0901c-2.318 7.812-6.3639 15.0019-11.8381 21.0377-5.4742 6.0357-12.2359 10.7629-19.784 13.8319-7.548 3.069-15.6897 4.402-23.8225 3.901-8.1327-.502-16.049-2.825-23.1627-6.798-7.1138-3.9738-13.2432-9.4961-17.93377-16.1592l3.03757-2.1489-3.03757 2.1489c-4.69059-6.6631-7.82199-14.2961-9.1615942-22.3339-.3510408-2.1063 1.0676642-4.0991 3.1687742-4.451s4.08896 1.0703 4.44 3.1766c1.14835 6.8903 3.83289 13.435 7.85559 19.1494 4.0228 5.7144 9.2809 10.4524 15.3858 13.8624s12.8998 5.4047 19.8815 5.8347c6.9818.431 13.9708-.714 20.4493-3.3481 6.4786-2.6343 12.2802-6.6907 16.9758-11.8681s8.165-11.3431 10.1523-18.0403c1.9876-6.6972 2.4416-13.7551 1.3299-20.6513-1.1119-6.8962-3.7618-13.455-7.7543-19.1905-1.219-1.7513-.791-4.1616.9559-5.3837z" fill-rule="evenodd"/><path clip-rule="evenodd" d="m52.4383.00948875c13.694-.24450475 27.0531 4.24279125 37.8226 12.70461125 1.7371 1.3648 2.0389 3.8794.674 5.6165s-3.8795 2.0389-5.6166.674c-9.3215-7.3241-20.8844-11.20802-32.7371-10.99639-11.8528.21163-23.2697 4.50589-32.3238 12.15809-1.6873 1.426-4.2111 1.2142-5.6371-.4731-1.426-1.6872-1.2142-4.211.4731-5.637 10.4606-8.84087 23.651-13.802207 37.3449-14.04671125z" fill-rule="evenodd"/><circle cx="10.0005" cy="25" r="4"/><path clip-rule="evenodd" d="m30.7701 39.4219c1.7458 1.0588 2.3027 3.3323 1.244 5.0781-3.029 4.9942-2.0415 14.2036 0 19.3598 1.3112 3.3119 3.3717 6.276 6.0204 8.6602 2.6486 2.3841 5.8136 4.1237 9.2473 5.0823 3.4338.9587 7.043 1.1103 10.5452.4431 3.5022-.6671 6.8022-2.135 9.642-4.2886 2.8396-2.1536 5.1419-4.9344 6.7269-8.1247 1.5849-3.1903 2.4096-6.7037 2.4096-10.2653 0-2.0417 1.6552-3.6969 3.6969-3.6969 2.0418 0 3.697 1.6552 3.697 3.6969 0 4.7032-1.0891 9.3426-3.1818 13.555s-5.1323 7.8835-8.8808 10.7263c-3.7484 2.8427-8.1041 4.7801-12.7261 5.6606-4.6221.8805-9.3853.6803-13.9171-.5849s-8.7093-3.5611-12.2058-6.7084c-3.4964-3.1473-6.2169-7.0606-7.9484-11.4338-2.8878-7.2938-3.6843-18.9298.5526-25.9158 1.0588-1.7458 3.3324-2.3027 5.0781-1.2439z" fill-rule="evenodd"/></g><path d="m53.8564 40c2.2091 0 4 1.7909 4 4v6.8564h6.8564c2.2092 0 4 1.7909 4 4 0 2.2092-1.7908 4-4 4h-6.8564v6.8564c0 2.2092-1.7909 4-4 4-2.2092 0-4-1.7908-4-4v-6.8564h-6.8564c-2.2091 0-4-1.7908-4-4 0-2.2091 1.7909-4 4-4h6.8564v-6.8564c0-2.2091 1.7908-4 4-4z" fill="#6321b6"/><path clip-rule="evenodd" d="m53.3117 23.0057c7.6555-.1462 15.09 2.5395 21.0511 7.5488 1.5631 1.3136 1.7654 3.6456.4519 5.2087-1.3136 1.5632-3.6456 1.7655-5.2087.4519-4.6324-3.8928-10.3385-5.928-16.1531-5.8169-5.8151.111-11.4541 2.3633-15.9588 6.4352-1.5146 1.3691-3.8524 1.2511-5.2216-.2635-1.3691-1.5147-1.2511-3.8525.2635-5.2217 5.785-5.2291 13.1207-8.1963 20.7757-8.3425z" fill="#6321b6" fill-rule="evenodd"/><circle cx="78.454" cy="41.4847" fill="#6321b6" r="3.69693"/></svg>