<svg fill="none" height="24" viewBox="0 0 24 24" width="24" xmlns="http://www.w3.org/2000/svg"><path clip-rule="evenodd" d="m23 18h-22c-.265216 0-.519617-.1054-.707153-.2929-.187537-.1875-.292847-.4419-.292847-.7071s.10531-.5196.292847-.7071c.187536-.1875.441937-.2929.707153-.2929h2v-8c0-2.12173.84285-4.15656 2.34314-5.65685 1.50029-1.500294 3.53513-2.34315 5.65686-2.34315h2c2.1217 0 4.1566.842856 5.6569 2.34315 1.5003 1.50029 2.3431 3.53512 2.3431 5.65685v8h2c.2652 0 .5196.1054.7072.2929.1875.1875.2928.4419.2928.7071s-.1053.5196-.2928.7071c-.1876.1875-.442.2929-.7072.2929zm-4-9c0-1.85652-.7375-3.63699-2.0503-4.94975-1.3127-1.31275-3.0932-2.05025-4.9497-2.05025s-3.63695.7375-4.94971 2.05025c-1.31275 1.31276-2.05029 3.09323-2.05029 4.94975v7h14zm-8 12c0 .2652.1053.5196.2928.7071.1876.1875.442.2929.7072.2929s.5196-.1054.7072-.2929c.1875-.1875.2928-.4419.2928-.7071v-1h2v1c0 .7956-.3161 1.5587-.8787 2.1213s-1.3257.8787-2.1213.8787-1.5587-.3161-2.12134-.8787c-.56261-.5626-.87866-1.3257-.87866-2.1213v-1h2z" fill="#001640" fill-rule="evenodd"/></svg>