<svg fill="none" height="127" viewBox="0 0 154 127" width="154" xmlns="http://www.w3.org/2000/svg"><path d="m95 90c0-4.4183 3.5817-8 8-8h36c4.418 0 8 3.5817 8 8v5c0 4.4183-3.582 8-8 8h-36c-4.4183 0-8-3.5817-8-8z" fill="#eff4f7"/><path d="m52 26c0-6.6274 5.3726-12 12-12h74c6.627 0 12 5.3726 12 12v17c0 6.6274-5.373 12-12 12h-74c-6.6274 0-12-5.3726-12-12z" fill="#eff4f7"/><path clip-rule="evenodd" d="m44 8c-4.4183 0-8 3.5817-8 8v25c0 4.4183 3.5817 8 8 8h41.5584c2.9988 0 5.9371.8427 8.48 2.432l3.1847 1.9904c2.4315 1.5197 5.4899 1.6219 8.0179.2679l5.215-2.794c2.324-1.2449 4.92-1.8963 7.556-1.8963h19.988c4.418 0 8-3.5817 8-8v-25c0-4.4183-3.582-8-8-8h-60.5c-2.2091 0-4-1.79086-4-4s1.7909-4 4-4h60.5c8.837 0 16 7.16344 16 16v25c0 8.8366-7.163 16-16 16h-19.988c-1.318 0-2.616.3257-3.778.9482l-5.215 2.7939c-5.055 2.708-11.173 2.5037-16.0359-.5357l-3.1847-1.9904c-1.2714-.7946-2.7406-1.216-4.24-1.216h-41.5584c-8.8366 0-16-7.1634-16-16v-25c0-8.83656 7.1634-16 16-16h10c2.2091 0 4 1.79086 4 4s-1.7909 4-4 4z" fill="#001640" fill-rule="evenodd"/><path clip-rule="evenodd" d="m138 79h-48c-2.2091 0-4 1.7909-4 4v11c0 2.2091 1.7909 4 4 4h48c2.209 0 4-1.7909 4-4v-11c0-2.2091-1.791-4-4-4zm-48-8c-6.6274 0-12 5.3726-12 12v11c0 6.627 5.3726 12 12 12h48c6.627 0 12-5.373 12-12v-11c0-6.6274-5.373-12-12-12z" fill="#001640" fill-rule="evenodd"/><path d="m74 62.5c0 18.5015-14.9985 33.5-33.5 33.5s-33.5-14.9985-33.5-33.5 14.9985-33.5 33.5-33.5 33.5 14.9985 33.5 33.5z" fill="#fff"/><path clip-rule="evenodd" d="m80 63c0 22.0914-17.9086 40-40 40s-40-17.9086-40-40 17.9086-40 40-40 40 17.9086 40 40zm-9.5522 0c0 16.8158-13.632 30.4478-30.4478 30.4478s-30.44776-13.632-30.44776-30.4478 13.63196-30.4478 30.44776-30.4478 30.4478 13.632 30.4478 30.4478z" fill="#6321b6" fill-rule="evenodd"/><path clip-rule="evenodd" d="m47.086 77.086c-2.4312 1.2245-5.1781 1.914-8.086 1.914-9.9411 0-18-8.0589-18-18s8.0589-18 18-18 18 8.0589 18 18c0 4.1259-1.3881 7.9275-3.7229 10.9634l4.5513 4.5513c1.5621 1.5621 1.5621 4.0948 0 5.6569s-4.0947 1.5621-5.6568 0zm1.914-16.086c0 5.5228-4.4772 10-10 10s-10-4.4772-10-10 4.4772-10 10-10 10 4.4772 10 10z" fill="#6321b6" fill-rule="evenodd"/><path d="m66.238 104.276c.6606-1.701 3.0682-1.701 3.7288 0l1.7536 4.517c.2841.732.9698 1.23 1.7535 1.273l4.8387.269c1.8245.101 2.5687 2.395 1.1514 3.548l-3.7511 3.053c-.6097.496-.8722 1.303-.6709 2.063l1.2384 4.675c.4677 1.765-1.4804 3.182-3.0158 2.194l-4.0797-2.627c-.6593-.424-1.5058-.424-2.1651 0l-4.0796 2.627c-1.5354.988-3.4835-.429-3.0159-2.194l1.2384-4.675c.2014-.76-.0611-1.567-.6709-2.063l-3.7511-3.053c-1.4173-1.153-.673-3.447 1.1515-3.548l4.8387-.269c.7836-.043 1.4694-.541 1.7534-1.273z" fill="#212b46"/><g fill="#001640"><path d="m78 24c-2.2091 0-4 1.7909-4 4s1.7909 4 4 4 4-1.7909 4-4-1.7909-4-4-4z"/><path d="m89 24c-2.2091 0-4 1.7909-4 4s1.7909 4 4 4h42c2.209 0 4-1.7909 4-4s-1.791-4-4-4z"/></g></svg>