<svg fill="none" height="14" viewBox="0 0 24 14" width="24" xmlns="http://www.w3.org/2000/svg"><path clip-rule="evenodd" d="m23 8h-22c-.265216 0-.519556-.10536-.707092-.29289-.187537-.18754-.292908-.44189-.292908-.70711s.105371-.51957.292908-.70711c.187536-.18753.441876-.29289.707092-.29289h22c.2652 0 .5196.10536.7071.29289.1875.18754.2929.44189.2929.70711s-.1054.51957-.2929.70711c-.1875.18753-.4419.29289-.7071.29289zm0-6h-22c-.265216 0-.519556-.10536-.707092-.29289-.187537-.18754-.292908-.44189-.292908-.70711 0-.265216.105371-.519571.292908-.707108.187536-.187536.441876-.292892.707092-.292892h22c.2652 0 .5196.105356.7071.292892.1875.187537.2929.441892.2929.707108 0 .26522-.1054.51957-.2929.70711-.1875.18753-.4419.29289-.7071.29289zm-22 10h22c.2652 0 .5196.1054.7071.2929s.2929.4419.2929.7071-.1054.5196-.2929.7071-.4419.2929-.7071.2929h-22c-.265216 0-.519556-.1054-.707092-.2929-.187537-.1875-.292908-.4419-.292908-.7071s.105371-.5196.292908-.7071c.187536-.1875.441876-.2929.707092-.2929z" fill="#999" fill-rule="evenodd"/></svg>