<svg fill="none" height="20" viewBox="0 0 20 20" width="20" xmlns="http://www.w3.org/2000/svg" xmlns:xlink="http://www.w3.org/1999/xlink"><clipPath id="a"><path d="m0 0h20v20h-20z"/></clipPath><g clip-path="url(#a)"><path clip-rule="evenodd" d="m16.6667 6.66667c-.5162-.00039-1.0252-.1211-1.4867-.35254-.4614-.23145-.8625-.56726-1.1715-.98079l-7.36678 4.41c.00834.0875.02503.16666.02503.25996 0 .1067-.02504.2075-.03337.3117l7.33342 4.4167c.4649-.6407 1.1435-1.0943 1.9133-1.279s1.5803-.0884 2.2854.2716c.705.36 1.2584.96 1.5602 1.6918.3019.7319.3324 1.5475.0862 2.2999-.2463.7524-.7531 1.392-1.4293 1.8038-.6761.4117-1.4772.5684-2.2587.4418-.7814-.1265-1.492-.5281-2.0036-1.1322-.5117-.6041-.7907-1.3711-.7869-2.1627 0-.1242.025-.2425.0334-.3634l-7.35008-4.3466c-.41129.5671-.9908.9903-1.65629 1.2094-.66549.219-1.38312.2228-2.05088.0108-.66777-.212-1.25175-.6291-1.669008-1.1919-.417258-.5628-.64661658-1.2427-.6554157-1.9433-.0087992-.70056.2033927-1.38608.6063847-1.95919.402991-.57312.976359-1.00468 1.638589-1.23339.66223-.22872 1.37969-.24296 2.05048-.0407.67078.20226 1.26078.61074 1.68619 1.16741l7.40003-4.32416c-.0084-.10583-.0334-.20917-.0334-.31833 0-.65928.1955-1.30374.5617-1.85191.3663-.548161.8869-.975401 1.496-1.227694.6091-.25229173 1.2794-.3183028 1.926-.1896854s1.2404.4460844 1.7066.9122594c.4662.46618.7837 1.06012.9123 1.70672s.0627 1.31683-.1896 1.92591c-.2523.60909-.6796 1.12969-1.2277 1.49596-.5482.36628-1.1927.56177-1.852.56177zm0 11.66663c.3297 0 .6519-.0977.9259-.2808.2741-.1832.4878-.4435.614-.748.1261-.3046.1591-.6397.0948-.963s-.2231-.6203-.4562-.8533c-.2331-.2331-.53-.3919-.8533-.4562s-.6584-.0313-.963.0949c-.3045.1261-.5648.3397-.748.6138-.1831.2741-.2808.5963-.2808.926 0 .442.1756.8659.4882 1.1785.3125.3125.7364.4881 1.1784.4881zm-13.33329-9.99997c-.32963 0-.65182.09775-.9259.28089-.27408.18313-.48777.44343-.61391.74798-.12615.30454-.15912.6397-.09481.963s.22305.6202.45614.8533c.23308.2331.53007.3918.85337.4561.3233.0644.65839.0313.96293-.0948s.56485-.3398.74799-.6138c.18313-.2741.28086-.5964.28086-.926 0-.44203-.17562-.86595-.48818-1.17851s-.73646-.48816-1.17849-.48816zm13.33329-6.66666c-.3296 0-.6518.09775-.9259.28088-.274.18314-.4877.44344-.6139.74798-.1261.30454-.1591.63966-.0948.96296s.2231.62027.4562.85336c.233.23309.53.39182.8533.45613s.6584.0313.963-.09485c.3045-.12614.5648-.33976.7479-.61385.1832-.27408.2809-.59631.2809-.92594 0-.44203-.1756-.86596-.4882-1.17852-.3125-.31256-.7364-.48815-1.1785-.48815z" fill="#999" fill-rule="evenodd"/></g></svg>