<svg fill="none" height="14" viewBox="0 0 15 14" width="15" xmlns="http://www.w3.org/2000/svg" xmlns:xlink="http://www.w3.org/1999/xlink"><clipPath id="a"><path d="m0 .033814h15v13.75h-15z"/></clipPath><g clip-path="url(#a)"><path clip-rule="evenodd" d="m13.75 13.7838h-12.5c-.331521 0-.649445-.1317-.883865-.3661-.234421-.2344-.366135-.5524-.366135-.8839v-.625-10.62499c0-.331517.131714-.64946.366135-.883881.23442-.23442.552344-.3661155.883865-.3661155h5c.33152 0 .64945.1316955.88387.3661155.23442.234421.36613.552364.36613.883881h6.25c.3315 0 .6494.1317.8839.36612.2344.23442.3661.55236.3661.88388v9.99999c0 .3315-.1317.6495-.3661.8839-.2345.2344-.5524.3661-.8839.3661zm0-11.24999h-7.5v-1.25h-5v2.5h12.5zm0 2.5h-12.5v6.87499.625h12.5v-.625z" fill="#001640" fill-rule="evenodd"/></g></svg>