<svg fill="none" height="24" viewBox="0 0 24 24" width="24" xmlns="http://www.w3.org/2000/svg" xmlns:xlink="http://www.w3.org/1999/xlink"><clipPath id="a"><path d="m0 0h24v24h-24z"/></clipPath><g clip-path="url(#a)"><path clip-rule="evenodd" d="m19.9997 8c-.6195-.00046-1.2303-.14531-1.7841-.42305-.5537-.27773-1.035-.68071-1.4058-1.17695l-8.84012 5.292c.01.105.03003.2.03003.312 0 .128-.03004.249-.04004.374l8.80003 5.3c.558-.7688 1.3723-1.3131 2.296-1.5348.9238-.2216 1.8964-.106 2.7425.326s1.51 1.1519 1.8723 2.0301c.3622.8783.3989 1.857.1034 2.7599-.2955.9028-.9037 1.6705-1.7151 2.1645-.8114.4941-1.7727.6822-2.7105.5303-.9377-.1519-1.7904-.6337-2.4044-1.3587-.6139-.7249-.9488-1.6453-.9442-2.5953 0-.149.03-.291.04-.436l-8.82002-5.216c-.49356.6806-1.18896 1.1884-1.98755 1.4513-.79859.2628-1.65974.2674-2.46106.013-.80132-.2545-1.5021-.7549-2.00281-1.4303-.50071-.6753-.77594012-1.4913-.7864991-2.332-.0105589-.8406.2440721-1.6633.7276611-2.35099.483588-.68774 1.171628-1.20561 1.966308-1.48007s1.65563-.29155 2.46057-.04883c.80494.24271 1.51295.73288 2.02344 1.40089l8.87996-5.18899c-.01-.127-.04-.25101-.04-.38201 0-.79112.2346-1.56448.6741-2.22228s1.0642-1.170486 1.7951-1.473236c.7309-.30275088 1.5353-.3819642 2.3112-.2276233.7759.1543413 1.4886.5353013 2.048 1.0947093.5594.55941.9404 1.27214 1.0947 2.04807.1543.77592.0752 1.58019-.2275 2.31109-.3028.73091-.8155 1.35563-1.4733 1.79515-.6578.43953-1.4312.67412-2.2223.67412zm0 14c.3956 0 .7822-.1173 1.1111-.3371.3289-.2197.5853-.5321.7367-.8975.1514-.3655.1909-.7676.1138-1.1556-.0772-.3879-.2677-.7443-.5474-1.024s-.6361-.4702-1.0241-.5474c-.3879-.0771-.79-.0375-1.1555.1138-.3654.1514-.6778.4078-.8976.7367-.2197.3289-.337.7155-.337 1.1111 0 .5304.2107 1.0391.5858 1.4142s.8838.5858 1.4142.5858zm-15.99999-12c-.39557 0-.78219.1173-1.11109.3371-.3289.2197-.58532.5321-.73669.8975-.15138.3655-.19094.7676-.11377 1.1556.07717.3879.26766.7443.54736 1.024.27971.2797.63609.4702 1.02405.5474.38796.0771.79006.0375 1.15552-.1138.36545-.1514.67782-.4078.89758-.7367s.33704-.7155.33704-1.1111c0-.5304-.21075-1.0391-.58582-1.4142s-.88375-.5858-1.41418-.5858zm15.99999-8c-.3956 0-.7822.1173-1.1111.33706s-.5853.53212-.7367.89758c-.1513.36545-.1909.76758-.1137 1.15554.0771.38797.2676.74433.5473 1.02404.2797.2797.6361.47018 1.0241.54735.3879.07717.79.03756 1.1555-.11381.3654-.15138.6778-.40772.8976-.73662.2197-.3289.337-.71557.337-1.11114 0-.53043-.2107-1.03914-.5858-1.41421-.3751-.37508-.8838-.58579-1.4142-.58579z" fill="#000" fill-rule="evenodd"/></g></svg>