<svg enable-background="new 0 0 50 50" viewBox="0 0 50 50" xmlns="http://www.w3.org/2000/svg"><path d="m34.1 30.7c-2.1 1.3-5 1.9-6.9 2.1l1.6 1.6 5.8 5.8c2.1 2.2-1.3 5.6-3.5 3.5-1.5-1.5-3.6-3.6-5.8-5.9l-5.8 5.8c-2.2 2.1-5.6-1.3-3.5-3.5l5.8-5.8 1.6-1.6c-1.9-.2-4.8-.7-6.9-2.1-2.5-1.6-3.6-2.5-2.6-4.5.6-1.1 2.1-2.1 4.2-.4 0 0 2.8 2.2 7.2 2.2s7.2-2.2 7.2-2.2c2.1-1.6 3.6-.7 4.2.4.9 2.1-.2 3-2.6 4.6zm-18.7-15.6c0-5.5 4.5-9.9 9.9-9.9s9.9 4.4 9.9 9.9-4.5 9.9-9.9 9.9-9.9-4.4-9.9-9.9zm5 0c0 2.7 2.2 4.9 4.9 4.9s4.9-2.2 4.9-4.9-2.2-4.9-4.9-4.9-4.9 2.2-4.9 4.9z" fill="#fff"/></svg>