<svg fill="none" height="19" viewBox="0 0 21 19" width="21" xmlns="http://www.w3.org/2000/svg"><path d="m15.5858 14.9858c-1.5241 1.7788-3.7692 2.9031-6.2729 2.9031-4.59109 0-8.3129-3.7807-8.3129-8.44446 0-4.66373 3.72181-8.44444 8.3129-8.44444 4.5911 0 8.3129 3.78071 8.3129 8.44444 0 1.65306-.4676 3.19516-1.2758 4.49736l3.3613 2.2409c.2953.1968.3776.5995.1838.8995-.1938.2999-.5902.3835-.8855.1866l-3.407-2.2714c-.0057-.0038-.0113-.0076-.0168-.0116zm.7611-5.54136c0 3.94626-3.1492 7.14526-7.034 7.14526-3.88477 0-7.03399-3.199-7.03399-7.14526 0-3.94624 3.14922-7.14529 7.03399-7.14529 3.8848 0 7.034 3.19905 7.034 7.14529z" style="fill-rule:evenodd;clip-rule:evenodd;fill:#fff;stroke:#fff;stroke-width:.5;stroke-linecap:round;stroke-linejoin:round"/></svg>