<svg width="31" height="31" viewBox="0 0 31 31" fill="none" xmlns="http://www.w3.org/2000/svg">
<path fill-rule="evenodd" clip-rule="evenodd" d="M25.8333 24.5417C28.6868 24.5417 31 22.2285 31 19.375V5.16667C31 2.3132 28.6868 0 25.8333 0H5.16667C2.3132 0 0 2.31319 0 5.16667V31C0 31 1.2018 29.3612 3 27.7346C4.77152 26.1322 7.12187 24.5417 9.47222 24.5417H25.8333ZM3 23.89C4.76036 22.651 7.00412 21.5417 9.47222 21.5417H25.8328C25.8329 21.5417 25.8333 21.5417 25.8333 24.5417L25.8328 21.5417C27.0294 21.5417 28 20.5716 28 19.375V5.16667C28 3.97005 27.0299 3 25.8333 3H5.16667C3.97005 3 3 3.97005 3 5.16667V23.89Z" fill="#001640"/>
</svg>