<svg fill="none" height="20" viewBox="0 0 20 20" width="20" xmlns="http://www.w3.org/2000/svg"><path clip-rule="evenodd" d="m18.3333 19.9999h-16.66663c-.44203 0-.86593-.1756-1.17849-.4881-.312561-.3126-.48818-.7365-.48818-1.1785v-16.66671c0-.44203.175619-.865954.48818-1.178515.31256-.31256.73646-.48815384 1.17849-.48815384h10.67503l-1.6667 1.66666884h-9.00833v16.66671h16.66663v-9.00588l1.6667-1.66667v10.67255c0 .442-.1756.8659-.4882 1.1785-.3125.3125-.7364.4881-1.1785.4881zm-9.99997-4.1666-4.15832.0116-.00834-4.1783 11.29173-11.199175c.1519-.152488.3323-.273492.5311-.356051.1988-.0825589.4119-.1250459.6271-.1250459.2153 0 .4284.042487.6272.1250459.1987.082559.3793.203563.5312.356051l1.7334 1.741665c.1526.15253.2736.33363.3562.53295s.125.41296.125.62871c0 .21576-.0424.42939-.125.62872-.0826.19932-.2036.38042-.3562.53295zm-2.5-1.6667h2.5l-2.5-2.5zm10.78327-12.53751-9.1166 9.20421 1.66667 1.6666 9.18333-9.12915z" fill="#fff" fill-rule="evenodd"/></svg>