<svg fill="none" height="85" viewBox="0 0 138 85" width="138" xmlns="http://www.w3.org/2000/svg"><path d="m42.5 73v-52.5l43.5 30.5 52-37v59z" fill="#eff4f6"/><path d="m120 0 13 .00000024c.043 0 .086.00068283.129.00203895.916.02902031 1.755.36621881 2.415.91136781.025.02038.05.041048.074.062004.115.100209.225.206949.329.319649.026.02869.052.05778.078.08724.607.70155.975 1.61668.975 2.6177v70c0 2.2091-1.791 4-4 4h-96c-2.2091 0-4-1.7909-4-4v-69.99999c0-1.47519.8119-2.83063 2.1126-3.526701 1.3006-.696077 2.8788-.619787 4.1062.198496l18 11.999995c1.8381 1.2254 2.3348 3.7089 1.1094 5.547s-3.7089 2.3348-5.547 1.1094l-11.7812-7.8541v58.5259h88v-58.5259l-41.7812 27.8541c-1.3627.9085-3.1415.8945-4.4897-.0353l-14.5-10c-1.8186-1.2542-2.2762-3.7452-1.022-5.5638s3.7452-2.2761 5.5638-1.0219l12.2672 8.46 34.7509-23.1672h-46.789c-2.2091 0-4-1.79086-4-4s1.7909-4 4-4z" fill="#001640"/><path d="m67 51.5c0 18.5015-14.9985 33.5-33.5 33.5s-33.5-14.9985-33.5-33.5 14.9985-33.5 33.5-33.5 33.5 14.9985 33.5 33.5z" fill="#fff"/><g fill="#6321b6"><path clip-rule="evenodd" d="m33.5 85c18.5015 0 33.5-14.9985 33.5-33.5s-14.9985-33.5-33.5-33.5-33.5 14.9985-33.5 33.5 14.9985 33.5 33.5 33.5zm0-8c14.0833 0 25.5-11.4167 25.5-25.5s-11.4167-25.5-25.5-25.5-25.5 11.4167-25.5 25.5 11.4167 25.5 25.5 25.5z" fill-rule="evenodd"/><path d="m26.2791 52c0 2.7614-2.3011 5-5.1396 5-2.8384 0-5.1395-2.2386-5.1395-5s2.3011-5 5.1395-5c2.8385 0 5.1396 2.2386 5.1396 5z"/><path d="m38.1395 52c0 2.7614-2.301 5-5.1395 5s-5.1395-2.2386-5.1395-5 2.301-5 5.1395-5 5.1395 2.2386 5.1395 5z"/><path d="m44.8605 57c2.8384 0 5.1395-2.2386 5.1395-5s-2.3011-5-5.1395-5c-2.8385 0-5.1396 2.2386-5.1396 5s2.3011 5 5.1396 5z"/></g></svg>