<svg fill="none" height="20" viewBox="0 0 17 20" width="17" xmlns="http://www.w3.org/2000/svg"><path clip-rule="evenodd" d="m15.3 20-6.8-4.1667-6.8 4.1667c-.45087 0-.883245-.1756-1.202057-.4882-.318812-.3125-.497943-.7364-.497943-1.1785v-16.66663c0-.44203.179131-.865955.497943-1.178516s.751187-.488154 1.202057-.488154h13.6c.4509 0 .8832.175593 1.2021.488154.3188.312561.4979.736486.4979 1.178516v16.66663c0 .4421-.1791.866-.4979 1.1785-.3189.3126-.7512.4882-1.2021.4882zm0-18.33333h-13.6v16.66663l6.8-4.1666 6.8 4.1666z" fill="#001640" fill-rule="evenodd"/></svg>