<svg fill="none" height="109" viewBox="0 0 134 109" width="134" xmlns="http://www.w3.org/2000/svg"><rect fill="#eff4f7" height="96" rx="12" width="96" x="12" y="12"/><g fill="#001640"><path d="m16 0c-8.83656 0-16 7.16344-16 16v72c0 8.8366 7.16344 16 16 16h24.8l1.9061 2.723c1.2669 1.81 3.761 2.25 5.5708.983s2.2499-3.761.9831-5.571l-2.4295-3.4703c-.244-.6892-.6716-1.2917-1.2239-1.7485l-5.7589-8.227c-1.2669-1.8098-3.761-2.2499-5.5708-.9831-1.8098 1.2669-2.2499 3.761-.9831 5.5708l1.9062 2.7231h-19.2c-4.4183 0-8-3.5817-8-8v-72c0-4.4183 3.5817-8 8-8h72c4.4183 0 8 3.5817 8 8v72c0 4.4183-3.5817 8-8 8h-29.1765c-2.2091 0-4 1.7909-4 4 0 2.209 1.7909 4 4 4h29.1765c8.8366 0 16-7.1634 16-16v-72c0-8.83656-7.1634-16-16-16z"/><path d="m33 51.5c0 3.5899-2.9102 6.5-6.5 6.5s-6.5-2.9101-6.5-6.5 2.9102-6.5 6.5-6.5 6.5 2.9101 6.5 6.5z"/><path d="m58 51.5c0 3.5899-2.9102 6.5-6.5 6.5s-6.5-2.9101-6.5-6.5 2.9102-6.5 6.5-6.5 6.5 2.9101 6.5 6.5z"/><path d="m76.5 58c3.5898 0 6.5-2.9101 6.5-6.5s-2.9102-6.5-6.5-6.5-6.5 2.9101-6.5 6.5 2.9102 6.5 6.5 6.5z"/></g><path d="m134 53.5c0 18.5015-14.998 33.5-33.5 33.5-18.5015 0-33.5-14.9985-33.5-33.5s14.9985-33.5 33.5-33.5c18.502 0 33.5 14.9985 33.5 33.5z" fill="#fff"/><path d="m100.856 39c2.21 0 4 1.7909 4 4v6.8564h6.857c2.209 0 4 1.7909 4 4 0 2.2092-1.791 4-4 4h-6.857v6.8564c0 2.2092-1.79 4-4 4-2.2088 0-3.9996-1.7908-3.9996-4v-6.8564h-6.8564c-2.2091 0-4-1.7908-4-4 0-2.2091 1.7909-4 4-4h6.8564v-6.8564c0-2.2091 1.7908-4 3.9996-4z" fill="#6321b6"/><path clip-rule="evenodd" d="m134 53.5c0 18.5015-14.998 33.5-33.5 33.5-18.5015 0-33.5-14.9985-33.5-33.5s14.9985-33.5 33.5-33.5c18.502 0 33.5 14.9985 33.5 33.5zm-8 0c0 14.0833-11.417 25.5-25.5 25.5-14.0833 0-25.5-11.4167-25.5-25.5s11.4167-25.5 25.5-25.5c14.083 0 25.5 11.4167 25.5 25.5z" fill="#6321b6" fill-rule="evenodd"/></svg>