<svg fill="none" height="41" viewBox="0 0 30 41" width="30" xmlns="http://www.w3.org/2000/svg"><path clip-rule="evenodd" d="m26.6288 41c-.8683-7.4261-3.9499-13.6667-11.6287-13.6667-7.67879 0-10.76044 6.2406-11.62877 13.6667h-3.3881757c1.1066957-9.2677 5.4652857-17.0833 15.0169457-17.0833 9.5516 0 13.9102 7.8156 15.0169 17.0833zm-11.6287-20.5c-2.0205 0-3.9955-.6011-5.67545-1.7274-1.67996-1.1263-2.9895-2.7271-3.7627-4.6001-.7732-1.8729-.9755-3.9339-.58133-5.92217.39418-1.9883 1.36716-3.8147 2.79584-5.24819 1.42869-1.43349 3.24904-2.409684 5.23064-2.805183 1.9817-.395498 4.0358-.19252066 5.9024.583278 1.8667.775795 3.462 2.089535 4.5845 3.775145 1.1225 1.6856 1.7217 3.66736 1.7217 5.69462 0 2.7185-1.0762 5.3256-2.992 7.2478-1.9158 1.9223-4.5143 3.0022-7.2236 3.0022zm0-17.08334c-1.347 0-2.6637.40079-3.7837 1.15165-1.12.75085-1.99294 1.81806-2.50841 3.06668-.51546 1.24863-.65019 2.62261-.38741 3.94811.26279 1.3256.91144 2.5431 1.86392 3.4988.9524.9557 2.1658 1.6064 3.4869 1.8701s2.6905.1284 3.935-.3888c1.2444-.5172 2.3081-1.3931 3.0564-2.5168.7484-1.1237 1.1477-2.4449 1.1477-3.7964 0-1.81232-.7176-3.55041-1.9948-4.83191s-3.0094-2.00143-4.8156-2.00143z" fill="#fff" fill-rule="evenodd"/></svg>