<svg enable-background="new 0 0 16 16" viewBox="0 0 16 16" xmlns="http://www.w3.org/2000/svg" xmlns:xlink="http://www.w3.org/1999/xlink"><clipPath id="a"><path d="m0 0h16v16h-16z"/></clipPath><g clip-path="url(#a)"><path d="m8 16c-1.6 0-3.1-.5-4.4-1.3-1.3-.9-2.3-2.1-2.9-3.6-.7-1.5-.9-3.1-.5-4.7.3-1.6 1.1-3 2.2-4.1s2.5-1.9 4.1-2.2 3.1-.1 4.6.5 2.7 1.6 3.6 2.9c.8 1.4 1.3 2.9 1.3 4.5 0 2.1-.8 4.2-2.3 5.7s-3.6 2.3-5.7 2.3zm0-14.7c-1.3 0-2.6.4-3.7 1.1s-2 1.8-2.5 3c-.5 1.3-.6 2.6-.3 3.9s.9 2.5 1.8 3.4 2.1 1.6 3.4 1.8c1.3.3 2.6.1 3.9-.4 1.2-.5 2.3-1.4 3-2.5s1.1-2.4 1.1-3.7c0-1.8-.7-3.5-2-4.7-1.2-1.2-2.9-1.9-4.7-1.9zm-.1 9.6c0 .1-.1.2-.1.3-.1.1-.1.1-.2.1s-.2 0-.3 0-.3 0-.4-.1-.2-.2-.2-.3l-1.9-1.9c-.1-.1-.1-.3-.1-.4 0-.2.1-.3.2-.4 0-.1.2-.2.3-.2.2 0 .3 0 .4.2l1.5 1.5 3-5.3c0-.1.1-.1.2-.2 0-.1.1-.2.2-.2h.3c.1 0 .2 0 .3.1.2.1.3.2.3.4s0 .4-.1.5z" fill="#24a172"/></g></svg>