<svg fill="none" height="15" viewBox="0 0 15 15" width="15" xmlns="http://www.w3.org/2000/svg"><path clip-rule="evenodd" d="m13.75 15h-3.75c-.33152 0-.64944-.1317-.88387-.3661-.23442-.2344-.36613-.5524-.36613-.8839v-3.75c0-.33152.13171-.64946.36613-.88388.23443-.23443.55235-.36612.88387-.36612h3.75c.3315 0 .6494.13169.8839.36612.2344.23442.3661.55236.3661.88388v3.75c0 .3315-.1317.6495-.3661.8839-.2345.2344-.5524.3661-.8839.3661zm0-5h-3.75v3.75h3.75zm0-3.75h-3.75c-.33152 0-.64944-.1317-.88387-.36612-.23442-.23442-.36613-.55236-.36613-.88388v-3.75c0-.331521.13171-.649464.36613-.883884.23443-.234421.55235-.366116.88387-.366116h3.75c.3315 0 .6494.131695.8839.366116.2344.23442.3661.552363.3661.883884v3.75c0 .33152-.1317.64946-.3661.88388-.2345.23442-.5524.36612-.8839.36612zm0-5h-3.75v3.75h3.75zm-8.75 13.75h-3.75c-.331521 0-.649445-.1317-.883865-.3661-.234421-.2344-.366135-.5524-.366135-.8839v-3.75c0-.33152.131714-.64946.366135-.88388.23442-.23443.552344-.36612.883865-.36612h3.75c.33152 0 .64945.13169.88387.36612.23442.23442.36613.55236.36613.88388v3.75c0 .3315-.13171.6495-.36613.8839s-.55235.3661-.88387.3661zm0-5h-3.75v3.75h3.75zm0-3.75h-3.75c-.331521 0-.649445-.1317-.883865-.36612-.234421-.23442-.366135-.55236-.366135-.88388v-3.75c0-.331521.131714-.649464.366135-.883884.23442-.234421.552344-.366116.883865-.366116h3.75c.33152 0 .64945.131695.88387.366116.23442.23442.36613.552363.36613.883884v3.75c0 .33152-.13171.64946-.36613.88388s-.55235.36612-.88387.36612zm0-5h-3.75v3.75h3.75z" fill="#001640" fill-rule="evenodd"/></svg>