<svg fill="none" height="20" viewBox="0 0 20 20" width="20" xmlns="http://www.w3.org/2000/svg"><path d="m10 6v13m0-13v-2c0-.39556.1173-.78224.3371-1.11114.2197-.3289.5321-.58524.8975-.73662.3655-.15137.7676-.19098 1.1556-.11381.3879.07717.7443.26765 1.024.54736.2797.2797.4702.63607.5474 1.02403.0771.38796.0375.7901-.1138 1.15555-.1514.36545-.4078.67781-.7367.89757s-.7155.33706-1.1111.33706zm0 0v-2.5c0-.49445-.14662-.9778-.42133-1.38892-.2747-.41113-.66515-.73156-1.12196-.92078-.45682-.18922-.95948-.238725-1.44444-.14226-.48495.09646-.93041.33456-1.28004.68419-.34963.34964-.58773.79509-.68419 1.28005-.09647.48495-.04696.98761.14226 1.44443.18922.45681.50965.84726.92077 1.12196.41113.27471.89448.42133 1.38893.42133zm-7 4h14m-14 0c-.53043 0-1.03914-.21071-1.41421-.58579-.37508-.37507-.58579-.88378-.58579-1.41421s.21071-1.03914.58579-1.41421c.37507-.37507.88378-.58579 1.41421-.58579h14c.5304 0 1.0391.21072 1.4142.58579s.5858.88378.5858 1.41421-.2107 1.03914-.5858 1.41421c-.3751.37508-.8838.58579-1.4142.58579m-14 0v7c0 .5304.21071 1.0391.58579 1.4142.37507.3751.88378.5858 1.41421.5858h10c.5304 0 1.0391-.2107 1.4142-.5858s.5858-.8838.5858-1.4142v-7" stroke="#21b67b" stroke-linecap="round" stroke-linejoin="round" stroke-width="2"/></svg>