<svg fill="none" height="15" viewBox="0 0 15 15" width="15" xmlns="http://www.w3.org/2000/svg"><path clip-rule="evenodd" d="m14.375 11.25h-13.75c-.16576 0-.324761-.0658-.441971-.1831-.1172101-.1172-.183029-.2761-.183029-.4419s.0658189-.3247.183029-.4419c.11721-.1173.276211-.1831.441971-.1831h1.25v-5c0-1.32608.52678-2.59785 1.46446-3.53553.93768-.937685 2.20946-1.46447 3.53554-1.46447h1.25c1.32608 0 2.5979.526785 3.5355 1.46447.9377.93768 1.4645 2.20945 1.4645 3.53553v5h1.25c.1658 0 .3248.0658.442.1831.1172.1172.183.2761.183.4419s-.0658.3247-.183.4419c-.1172.1173-.2762.1831-.442.1831zm-2.5-5.625c0-1.16032-.461-2.27312-1.2814-3.09359-.8205-.82047-1.93328-1.28141-3.0936-1.28141s-2.2731.46094-3.09357 1.28141-1.28143 1.93327-1.28143 3.09359v4.375h8.75zm-5 7.5c0 .1658.06582.3247.18303.4419.11721.1173.27621.1831.44197.1831s.32476-.0658.44197-.1831c.11721-.1172.18303-.2761.18303-.4419v-.625h1.25v.625c0 .4973-.19753.9742-.54916 1.3258-.35163.3517-.82856.5492-1.32584.5492s-.97421-.1975-1.32584-.5492c-.35163-.3516-.54916-.8285-.54916-1.3258v-.625h1.25z" fill="#fff" fill-rule="evenodd"/></svg>