<svg fill="none" height="109" viewBox="0 0 149 109" width="149" xmlns="http://www.w3.org/2000/svg"><path d="m53.5 97v-52.5l43.5 30.5 52-37v59z" fill="#eff4f6"/><path d="m58.5 0c-2.2091 0-4 1.79086-4 4v16.5c0 2.2091 1.7909 4 4 4s4-1.7909 4-4v-12.5h66v22c0 1.7328 1.102 3.2082 2.643 3.7639l-35.1049 23.4033-12.2672-8.46c-1.8186-1.2542-4.3096-.7967-5.5638 1.0219s-.7966 4.3096 1.022 5.5638l14.5 10c1.3482.9298 3.127.9438 4.4897.0353l41.7812-27.8541v56.5259h-88v-56.5259l11.7812 7.8541c1.8381 1.2254 4.3216.7287 5.547-1.1094s.7287-4.3216-1.1094-5.547l-18-12c-1.2274-.8183-2.8056-.8946-4.1062-.1985-1.3007.6961-2.1126 2.0515-2.1126 3.5267v68c0 2.209 1.7909 4 4 4h96c2.209 0 4-1.791 4-4v-68c0-1.001-.368-1.9162-.975-2.6177-.026-.0295-.052-.0585-.078-.0872-.104-.1127-.214-.2195-.329-.3197-.024-.0209-.049-.0416-.074-.062-.66-.5451-1.499-.8823-2.415-.9114-.043-.0013-.086-.002-.129-.002h-7.5v-22c0-2.20914-1.791-4-4-4z" fill="#001640"/><path d="m28.3151 43.9851c4.6227-7.9801 16.1448-7.9801 20.7674 0l26.6808 46.0595c4.6342 8-1.1384 18.0154-10.3836 18.0154h-53.3617c-9.24531 0-15.01785-10.0154-10.38371-18.0154z" fill="#fff"/><g fill="#6321b6"><path d="m34 63.0596c0-2.2092 1.7909-4 4-4s4 1.7908 4 4v15c0 2.2091-1.7909 4-4 4s-4-1.7909-4-4z"/><path d="m34 89.0596c0-2.2092 1.7909-4 4-4s4 1.7908 4 4c0 2.2091-1.7909 4-4 4s-4-1.7909-4-4z"/><path clip-rule="evenodd" d="m28.3151 43.9851c4.6227-7.9801 16.1448-7.9801 20.7674 0l26.6808 46.0595c4.6342 8-1.1384 18.0154-10.3836 18.0154h-53.3617c-9.24531 0-15.01785-10.0154-10.38371-18.0154zm13.8449 4.0099 26.6809 46.0596c1.5447 2.6667-.3795 6.0054-3.4612 6.0054h-53.3617c-3.0818 0-5.00598-3.3387-3.46127-6.0054l26.68087-46.0596c1.5409-2.66 5.3816-2.66 6.9224 0z" fill-rule="evenodd"/></g></svg>