<svg fill="none" height="20" viewBox="0 0 20 20" width="20" xmlns="http://www.w3.org/2000/svg" xmlns:xlink="http://www.w3.org/1999/xlink"><clipPath id="a"><path d="m0 0h20v20h-20z" transform="matrix(-1 0 0 -1 20 20)"/></clipPath><g clip-path="url(#a)" fill="#001640"><path d="m.951102 9.6243c-.9726124.9529-.67209 2.8803 1.012588 2.8803l4.4327-.0029c-.16833.9238-.41216 2.4551-.40251 2.5997.09308 1.3694.98004 3.0359 1.01841 3.1041.16177.2965.97855.6985 1.80053.5262 1.06272-.2238 1.17127-.891 1.16694-1.0749 0 0-.04579-1.825-.05025-2.312.50809-1.0982 2.25999-3.9843 2.79099-4.2067.127.0756.271.1163.4209.1163h5.6003c.4757 0 .8582-.3785.8582-.8444l-.0007-7.61694c-.0333-.41061-.3878-.73267-.8065-.73267h-5.0302c-.446 0-.8087.35689-.8087.79588v.25287s-.1869.01377-.2718-.03995c-.3234-.20208-.7231-.45641-1.2444-.45641h-7.50653c-2.80644 0-2.50517 2.45147-2.24884 2.78583-.47417.50805-.767392 1.40418-.36711 2.11211-.3072.32047-.847848 1.20138-.364018 2.11358zm12.984198-6.76657 4.8589.00001v7.60166h-4.8589zm-11.6748 6.83198.0458-.18819c-1.29319-.36188-.60488-1.82867.3228-1.9238l.0458-.18819c-1.23997-.31037-.64845-1.82064.3228-1.92381l.04579-.18746c-1.01259-.16358-.76739-1.86424.76666-1.86424l7.63505-.00292c.5392 0 1.0303.60464 1.4269.60464h.3461v5.85132c-.4314.26314-.9616.60464-1.2563.85104-.5569.4674-2.83605 4.0918-2.83605 4.5455 0 .4536.05025 2.4159.05025 2.4159s-.44682.5668-1.44456.1533c0 0-.83968-1.5495-.92533-2.7844 0 0 .37813-2.5438.58124-3.3418h-5.29317c-1.300493-.0015-1.05233-1.8287.16622-2.01689z"/><path clip-rule="evenodd" d="m7.01806 18.7603c-.13635-.0932-.2745-.2161-.35734-.367-.03391-.0612-.26876-.5054-.5094-1.1079-.24296-.6083-.50587-1.4122-.55655-2.1577-.00387-.058.00377-.1339.00887-.1823.00665-.0629.0166-.1425.02889-.2332.02464-.1821.05993-.4189.10052-.6783.05632-.36.12341-.7672.18754-1.1382l-3.95663.0026c-.50215 0-.92724-.1451-1.254974-.4016-.325338-.2547-.533076-.6019-.6343655-.9727-.1769985-.6481-.038733-1.4034.4079355-1.97091-.177215-.4767-.145141-.93688-.029498-1.31966.094588-.31309.246542-.58155.394677-.78193-.284784-.74783-.032994-1.56759.371035-2.11534-.00527-.01702-.01015-.03381-.01467-.05023-.03469-.12589-.06035-.27425-.07223-.43514-.02364-.32019.00553-.71564.1506-1.10576.14678-.3947.41313-.78472.85709-1.07266.44207-.28672 1.03079-.45323 1.79151-.45323h7.50653c.4712 0 .859.16773 1.1558.33448.1362-.51007.6084-.88687 1.1691-.88687h5.0302c.6272 0 1.1553.47968 1.2052 1.09499l.0013.01562.0007 7.63254c0 .6827-.561 1.2382-1.2582 1.2382h-5.6003c-.1259 0-.249-.0193-.366-.0559-.0057.0056-.0116.0116-.0177.0179-.0851.0874-.1889.2097-.3076.3632-.2369.306-.5145.7112-.7953 1.1496-.5364.8375-1.0648 1.7655-1.3243 2.3066.0039.2744.015.7822.0257 1.2449.006.2584.0119.5016.0162.6802l.0072.2922.0001.0009c.0038.1619-.0397.4626-.2587.7617-.22576.3083-.61095.578-1.22444.7073-.49745.1042-.98413.0339-1.36719-.102-.19244-.0682-.36723-.1559-.51131-.2544zm2.56181-1.0944s0 .0001 0 0l-.00722-.2924c-.00437-.1788-.01023-.4223-.01624-.6811-.01198-.516-.02463-1.0972-.02689-1.3441l-.00067-.0737c-.00125.0041-.00223.0076-.00297.0103.00073.2364.01276.8151.02499 1.3478.00628.2734.01255.5326.01726.7235l.00784.313-.39987.0103c.28286.2159.31244.2387.3154.2413.00009-.0001-.00008.0001 0 0l-.3154-.2413.39987-.0103.00087.0341c.00264-.0184.00315-.0315.00303-.0374zm-.09109.259-.00365.0045-.01014.012c-.00781.009-.01775.02-.02987.0326-.02419.025-.05734.0567-.09982.0912-.08486.0689-.20847.1505-.37298.2131-.02359.009-.0478.0175-.07263.0255.33141-.0988.4918-.2448.57221-.3546.00595-.0082.01157-.0162.01688-.0243zm-.83167.4351c-.25957.0412-.52128.0137-.74937-.0516.28343.0747.53371.0835.74937.0516zm-1.25881-.3056-.01971-.0364.35295-.1852c-.35295.1852-.35292.1853-.35295.1852l-.00104-.0019-.00224-.0041-.00793-.0149c-.00677-.0128-.01647-.0313-.02868-.0549-.02442-.0473-.05896-.1155-.10048-.2008-.08294-.1705-.19428-.4108-.30852-.6913-.22497-.5524-.47538-1.2946-.52257-1.9748l-.00291-.0421.0062-.0417.39579.0569c-.39579-.0569-.39579-.0569-.39579-.0569l.01677-.1118c.01079-.0714.02641-.1743.04578-.3001.03874-.2518.09254-.5959.15274-.9652.08274-.5076.17944-1.0747.26653-1.5142h-4.79796c-.42738-.0005-.77964-.1556-1.00745-.4383-.219877-.2729-.28614-.6172-.25185-.9353.011763-.1091.035977-.2196.072271-.3284-.118365.2983-.139804.6294-.060046.9214.062848.2301.185335.4244.359765.5609.172.1346.41641.2305.75648.2305l4.91112-.0032-.08445.4634c-.08349.4582-.186 1.0687-.26638 1.5825-.04021.2569-.07459.4878-.09821.6624-.01185.0876-.02067.1586-.02617.2107-.00431.0408-.00517.0582-.00552.0604.04449.621.27017 1.3296.50204 1.9102.11516.2883.22877.5376.31577.7186.04345.0904.08009.1634.10674.2153.01333.026.02408.0465.03187.0612.00744.0141.01126.021.0119.0222l.00246.0044c.00007.0001.00029.0003.00067.0008.0025.0032.01211.0154.03301.0345zm-5.98231-8.40431c.04557-.03791.09366-.0736.14423-.10674-.0944-.08663-.17247-.18572-.2325-.29658-.13743-.25378-.15848-.52902-.11009-.78145-.088.29653-.09434.63292.08808.97683zm.36981-2.11652c.04407-.03662.09012-.07108.13798-.10306-.0835-.07925-.15364-.16926-.20916-.26926-.15784-.28428-.1707-.60105-.10163-.88307-.11912.34996-.12261.73291.05167 1.04114zm.39717-2.1354c.04008-.03212.08183-.06244.12514-.09073-.05589-.06363-.10388-.13379-.14338-.2093-.14858-.28401-.16415-.61627-.07815-.91924.17709-.62392.78585-1.15846 1.72341-1.15852l7.63511-.00292c.4044 0 .7581.22281.9828.36451.0205.01294.0402.02538.0591.03733.1009.06392.1801.11408.2559.15308.0423.02175.0743.03498.0982.04251.0214.00675.0309.00719.0312.00721h.663v-1.09992c-.1093.07231-.1815.19515-.1815.33409v.61816l-.3702.02726-.0298-.39255c.0298.39255.0299.39254.0298.39255l-.0026.00018-.0037.00025-.0108.00062c-.0086.00044-.02.00092-.0335.00124-.0267.00064-.0641.00073-.1064-.00169-.0591-.00337-.2216-.01438-.3597-.10124-.3342-.20876-.6404-.39462-1.0293-.39462h-7.50653c-.64249 0-1.06853.13992-1.35127.3233-.28086.18216-.44937.4259-.54605.68586-.09837.26454-.12122.54466-.10398.77815.00856.11596.02656.21397.04645.28614.01741.06318.03116.08817.03061.08848-.00001.00001.00002.00001 0 0zm11.48863-2.93408h5.2105c-.0289-.00658-.0588-.01005-.0894-.01005h-5.0302c-.0312 0-.0616.00347-.0909.01005zm5.5226.31561v7.7021c.0038-.0234.0057-.0474.0057-.0718l-.0007-7.59853c-.0012-.01072-.0029-.02131-.005-.03177zm-.3672 8.0733h-5.2917v-.7163l-.1064.065c-.3125.1906-.663.4141-.935.6083.0229-.0127.0462-.0242.0699-.0341l.1885-.079.1753.1044c.066.0393.1387.0595.2138.0595h5.6003c.0292 0 .0577-.0027.0853-.0078zm-6.5606.1278c-.0157.0126-.0308.025-.0451.037-.0356.0299-.1073.106-.2153.2403.0599-.0706.1183-.1354.1742-.1929.0267-.0274.0556-.056.0862-.0844zm-2.0224 2.9294c-.1498.2527-.28614.4916-.40028.7025-.10893.2013-.19465.3716-.25206.5015-.01825.0413-.03262.0762-.04356.105l.01736-.0375c.14762-.3191.39196-.7753.67854-1.2715zm-3.03558 1.1523c.04573.5455.25288 1.1767.46387 1.6948.10639.2612.21031.4855.2875.6441.02177.0448.04137.0842.05824.1177.33416.1109.54758.0699.66559.025.03408-.013.06335-.0275.08791-.0418l-.00317-.127c-.00471-.1912-.011-.4509-.01729-.7248-.01251-.5451-.02522-1.1546-.02522-1.3869 0-.0925.02553-.1818.04488-.2411.0224-.0686.05277-.1441.08735-.2224.0694-.157.16609-.3478.27954-.5575.22759-.4205.53449-.9382.85687-1.4531.32261-.5152.66381-1.0327.96111-1.4527.1485-.2099.288-.3982.4101-.5511.1167-.146.2342-.2811.3366-.3671.2751-.23.723-.52498 1.1159-.76952v-5.2415c-.1743-.01163-.3288-.07726-.4458-.13742-.111-.05712-.2262-.13023-.3256-.19334-.0173-.011-.0342-.02169-.0504-.03194-.2547-.16059-.4163-.24009-.551-.24014-.0001 0 0 0 0 0l-7.6351.00293c-.59639 0-.87735.31576-.95321.58303-.04049.14264-.02338.26622.01892.34709.03687.07046.10281.13111.23228.15203l.42474.06862-.21227.8689-.28014.02975c-.29119.03094-.56635.29126-.64659.59261-.03736.14033-.02175.25411.02263.33406.04074.07336.13317.16828.35683.22427l.38227.09568-.2036.83665-.2816.02888c-.27538.02824-.563.28319-.65187.58119-.04077.13671-.02794.24671.01503.32607.04056.07489.13796.1781.38199.24639l.36892.10324-.1975.81157-.26461.0409c-.40074.0619-.65595.3967-.692.7311-.01751.1624.02187.287.08314.363.05335.0662.15821.14.38107.1402h5.80526l-.12452.4893c-.09648.3791-.2391 1.1961-.35985 1.9369-.05973.3664-.11316.7082-.15166.9584-.01925.125-.03476.2271-.04545.2979zm11.18578-4.9967v-6.81442h-4.0589v6.81442z" fill-rule="evenodd"/></g></svg>