<svg fill="none" height="18" viewBox="0 0 21 18" width="21" xmlns="http://www.w3.org/2000/svg"><path d="m15.5858 14.2497c-1.5241 1.6851-3.7692 2.7503-6.2729 2.7503-4.59109 0-8.3129-3.5817-8.3129-8 0-4.41828 3.72181-8 8.3129-8 4.5911 0 8.3129 3.58172 8.3129 8 0 1.5661-.4676 3.027-1.2758 4.2606l3.3613 2.123c.2953.1865.3776.568.1838.8521-.1938.2842-.5902.3633-.8855.1769l-3.407-2.1519c-.0057-.0036-.0113-.0072-.0168-.011zm.7611-5.2497c0 3.7385-3.1492 6.7692-7.034 6.7692-3.88477 0-7.03399-3.0307-7.03399-6.7692 0-3.73854 3.14922-6.76923 7.03399-6.76923 3.8848 0 7.034 3.03069 7.034 6.76923z" style="fill-rule:evenodd;clip-rule:evenodd;fill:#000;stroke:#000;stroke-width:.5;stroke-linecap:round;stroke-linejoin:round"/></svg>