<svg fill="none" height="14" viewBox="0 0 15 14" width="15" xmlns="http://www.w3.org/2000/svg" xmlns:xlink="http://www.w3.org/1999/xlink"><clipPath id="a"><path d="m0 .067505h15v13.75h-15z"/></clipPath><g clip-path="url(#a)"><path clip-rule="evenodd" d="m13.75 13.8175h-12.5c-.331521 0-.649445-.1317-.883865-.3661-.234421-.2344-.366135-.5524-.366135-.8839v-11.24999c0-.331526.131714-.649469.366135-.88389.23442-.23442.552344-.3661151.883865-.3661151h10c.3315 0 .6494.1316951.8839.3661151.2344.234421.3661.552364.3661.88389v1.25h1.25c.3315 0 .6494.13169.8839.36611.2344.23442.3661.55236.3661.88389v8.74999c0 .3315-.1317.6495-.3661.8839-.2345.2344-.5524.3661-.8839.3661zm-2.5-12.49999h-10v1.25h10zm2.5 2.5h-12.5v8.74999h12.5zm-3.125 2.5c.3708 0 .7334.10996 1.0417.31599.3084.20602.5486.49887.6906.84148.1419.34261.179.7196.1067 1.08332-.0724.36371-.2509.6978-.5132.96002-.2622.26223-.5963.44081-.96.51318-.3637.0723-.7407.0352-1.08334-.10672-.34262-.14192-.63542-.38223-.84145-.69058-.20603-.30834-.31601-.67085-.31601-1.04169 0-.49729.19753-.97419.54916-1.32582s.82854-.54918 1.32584-.54918zm0 2.5c.1236 0 .2444-.03665.3472-.10533.1028-.06867.1829-.16629.2302-.28049.0473-.11421.0597-.23988.0356-.36112s-.0836-.23259-.171-.32c-.0874-.0874-.1988-.14693-.3201-.17105-.1212-.02411-.2469-.01175-.3611.03556-.1142.0473-.2118.12741-.2804.23019-.0687.10278-.1054.22362-.1054.34724 0 .16576.0658.32472.183.44193s.2762.18307.442.18307z" fill="#001640" fill-rule="evenodd"/></g></svg>