<svg fill="none" height="15" viewBox="0 0 15 15" width="15" xmlns="http://www.w3.org/2000/svg"><g fill="#001640"><path d="m14.2866 8.12264c.7295-.7487.5041-2.26313-.7594-2.26313l-3.3245.00229c.1262-.72582.3091-1.92902.3018-2.04262-.0698-1.07591-.73499-2.38535-.76377-2.43894-.12133-.23295-.73391-.548772-1.35039-.413446-.79704.175906-.87846.700076-.87521.844596 0 0 .03435 1.43394.03769 1.81657-.38107.86287-1.69498 3.1305-2.09323 3.30526-.09524-.05943-.20329-.0914-.31571-.0914h-4.200194c-.356746 0-.643684.29745-.643684.66352l.000557 5.98466c.024971.3227.290837.5757.604881.5757h3.77262c.33456 0 .60655-.2804.60655-.6253v-.1987s.14017-.0108.20385.0314c.24257.1588.54232.3586.93332.3586h5.62982c2.1049 0 1.8789-1.9262 1.6867-2.1889.3556-.3992.5755-1.1033.2753-1.6595.2304-.25179.6359-.94393.273-1.66066zm-9.73813 5.31656h-3.644144v-5.97272h3.644144zm8.75613-5.36796-.0344.14787c.9699.28433.4537 1.43681-.2421 1.51156l-.0343.14786c.93.24387.4863 1.43047-.2421 1.51157l-.0344.1473c.7595.1285.5756 1.4647-.575 1.4647l-5.72628.0023c-.40436 0-.77272-.475-1.07014-.475h-.25956v-4.5975c.32352-.20673.7212-.47508.94223-.66869.41764-.36722 2.12702-3.21501 2.12702-3.57142 0-.3564-.03769-1.8982-.03769-1.8982s.33512-.44541 1.08342-.12049c0 0 .62976 1.21745.694 2.18771 0 0-.2836 1.9987-.43593 2.62575h3.96983c.9754.00115.7893 1.43682-.1246 1.58468z"/><path clip-rule="evenodd" d="m9.73641.944323c.10226.073247.20588.169797.26799.288397.0254.04805.2016.39707.3821.87048.1822.47797.3794 1.10956.4174 1.69533.0029.0456-.0028.10524-.0067.14323-.005.04946-.0124.11194-.0216.18326-.0185.14308-.045.32913-.0754.53296-.0423.28284-.0926.60274-.1407.89429l2.9675-.00206c.3766.00001.6954.11401.9412.31556.244.20008.3998.47287.4758.76426.1327.50919.029 1.10264-.306 1.54856.1329.37455.1089.73612.0222 1.03687-.071.246-.1849.45693-.296.61438.2135.58756.0247 1.23166-.2783 1.66206.0039.0134.0076.0266.011.0395.026.0989.0452.2154.0542.3419.0177.2515-.0042.5622-.113.8688-.1101.3101-.3098.6165-.6428.8428-.3316.2253-.7731.3561-1.3437.3561h-5.62982c-.35343 0-.64426-.1318-.86684-.2628-.10216.4007-.45633.6968-.87688.6968h-3.77262c-.470404 0-.8665118-.3769-.90393239-.8604l-.00094947-.0122-.00055814-5.99703c0-.53642.420803-.97284.943686-.97284h4.200194c.09447 0 .18678.01513.27452.04394.00425-.00445.00868-.00915.0133-.01411.06382-.06863.14163-.16476.2307-.28535.17762-.24047.38583-.55879.59645-.9033.40231-.65804.7986-1.38712.9932-1.81227-.00287-.21561-.01119-.61461-.01925-.97819-.0045-.203-.00889-.39407-.01216-.5344l-.00541-.22957-.00002-.00072c-.00286-.12721.02978-.3635.19401-.59851.1693-.242237.4582-.454148.91832-.555695.37308-.081897.73809-.02665 1.02538.080083.14434.053622.27543.122488.38349.199885zm-1.92136.859897.00542.22977c.00327.14049.00767.33182.01218.53513.00898.40543.01847.86209.02016 1.05605l.00051.05794c.00094-.00325.00167-.00593.00222-.00807-.00054-.18577-.00957-.64048-.01874-1.05902-.00471-.21477-.00942-.41845-.01295-.56845l-.00587-.24592.2999-.00806c-.21215-.16966-.23433-.18762-.23655-.18964-.00007.0001.00006-.00011 0 0l.23655.18964-.2999.00806-.00066-.02681c-.00198.01445-.00236.02475-.00227.02938zm.06831-.20352.00274-.00352.00761-.0094c.00586-.00707.01331-.01571.0224-.02558.01815-.01972.04301-.04457.07486-.07167.06365-.05416.15636-.11826.27974-.16748.0177-.00706.03586-.01375.05448-.02002-.24856.0776-.36886.19235-.42916.27864-.00446.00638-.00868.01273-.01267.01903zm.62376-.34186c.19468-.03236.39096-.01075.56203.0406-.21257-.05875-.40028-.06562-.56203-.0406zm.94411.24014.01478.02857-.26471.14555c.26471-.14555.26469-.14559.26471-.14555l.00078.00151.00168.00328.00595.0117c.00508.01005.01235.02455.02151.04313.01831.03715.04422.09069.07536.15775.0622.13395.14571.32273.23139.54312.16873.43404.35652 1.01725.39192 1.55171l.0022.03305-.0047.03278-.2968-.04477c.2968.04477.2968.04475.2968.04477l-.0125.08779c-.0081.05613-.0198.13694-.0344.23585-.029.19777-.0694.46814-.1145.75831-.06208.39883-.13461.84446-.19992 1.18974h3.59842c.3206.00038.5848.1223.7556.34441.1649.21439.2146.48491.1889.73483-.0088.08574-.027.17258-.0542.25806.0888-.23434.1049-.49453.0451-.72398-.0472-.1808-.139-.33342-.2699-.44069-.129-.10578-.3123-.18107-.5673-.1811-.0001 0 0 0 0 0l-3.68337.00254.06334-.36413c.06261-.36.13953-.83971.19983-1.24337.0301-.20191.0559-.38332.0736-.52047.0089-.0688.0155-.12462.0196-.16554.0033-.03208.0039-.04571.0042-.04751-.0334-.48788-.2027-1.04468-.37656-1.50084-.08636-.22654-.17158-.42239-.23682-.56458-.03259-.07102-.06007-.12838-.08006-.16918-.00999-.02041-.01806-.03656-.0239-.04812-.00558-.01103-.00844-.01651-.00893-.01743l-.00185-.00345c-.00005-.00005-.00021-.00027-.00049-.00064-.00188-.00251-.00909-.01211-.02476-.0271zm4.48677 6.6034c-.0342.02978-.0703.05782-.1082.08386.0708.06807.1293.14592.1744.23303.103.1994.1188.41566.0825.61399.066-.23298.0708-.49729-.066-.76751zm-.2774 1.66297c-.033.02877-.0676.05585-.1035.08098.0626.06227.1152.13299.1569.21157.1184.2234.128.4722.0762.6938.0893-.2749.092-.5758-.0387-.81801zm-.2979 1.67785c-.03.0252-.0613.049-.0938.0713.0419.05.0779.1051.1075.1644.1114.2232.1231.4842.0586.7223-.1328.4902-.5894.9102-1.2925.9102-.0001 0 0 0 0 0l-5.72636.0023c-.30331 0-.56858-.175-.73713-.2864-.01539-.0101-.03012-.0199-.04428-.0293-.07568-.0502-.13508-.0896-.19196-.1203-.03173-.0171-.05572-.0275-.07364-.0334-.01605-.0053-.02316-.0056-.0234-.0056h-.49726v.8642c.08201-.0568.13614-.1534.13614-.2625v-.4857l.27761-.0214.02239.3084c-.02239-.3084-.02244-.3084-.02239-.3084l.00196-.0002.00282-.0002.0081-.0005c.00641-.0003.01495-.0007.02511-.0009.01998-.0005.04803-.0006.07982.0013.04427.0026.1662.0113.26978.0795.25061.1641.48028.3101.77197.3101h5.62982c.4819 0 .8015-.1099 1.0135-.254.2106-.1432.337-.3347.4095-.5389.0738-.2079.091-.428.078-.6114-.0064-.0911-.0199-.1681-.0348-.2248-.0131-.0497-.0234-.0693-.023-.0696zm-8.61645 2.3053h-3.907896c.021688.0052.044154.0079.067086.0079h3.77262c.02342 0 .04625-.0027.06819-.0079zm-4.141926-.248v-6.05164c-.002843.01839-.004319.03724-.00432.05646l.000555 5.97028c.000927.0084.002186.0167.003765.0249zm.275388-6.34331h3.968758v.56281l.07981-.051c.23437-.14976.49725-.32542.70123-.47801-.01717.01-.03466.01902-.05242.02681l-.14138.06204-.13146-.08202c-.04948-.03088-.10398-.04671-.16037-.04671h-4.200194c-.021877 0-.04326.00209-.063974.00608zm4.920428-.10041c.01178-.00989.02308-.01957.03387-.02902.0267-.02352.08047-.08332.16146-.18882-.04498.05548-.08871.1064-.13067.15152-.02006.02157-.04169.04403-.06466.06632zm1.51682-2.30162c.11231-.19859.2146-.38631.3002-.55201.0817-.15813.14599-.29198.18905-.39402.01368-.03243.02446-.05986.03267-.08249l-.01302.02948c-.11071.25068-.29397.60916-.5089.99904zm2.27668-.90543c-.0343-.42861-.18966-.92452-.3479-1.33156-.07979-.20526-.15774-.38148-.21563-.50613-.01633-.03517-.03103-.06616-.04368-.09246-.25062-.08711-.41069-.05494-.49919-.01963-.02556.01019-.04751.02161-.06593.03285l.00237.09976c.00354.15022.00825.35427.01297.56949.00938.42827.01892.90716.01892 1.08974 0 .07268-.01915.14278-.03366.18937-.01681.05395-.03958.11329-.06551.17475-.05206.12335-.12457.27333-.20966.43803-.17069.33042-.40087.73718-.64265 1.14175-.24193.40481-.49787.81138-.72081 1.14144-.11137.16486-.21601.31288-.30758.43296-.08752.11477-.17564.22089-.25248.28845-.20629.1807-.54222.41249-.83689.60463v4.11833c.13071.0091.24655.0607.33431.108.0833.0448.16967.1023.24422.1519.013.0086.02563.017.03783.0251.19101.1261.31221.1886.41325.1886l5.72626-.0023c.4473 0 .658-.2481.7149-.458.0304-.1121.0176-.2092-.0142-.2728-.0276-.0553-.0771-.103-.1742-.1194l-.3185-.0539.1592-.6827.2101-.0234c.2184-.0243.4248-.2289.4849-.4656.0281-.1103.0163-.1997-.0169-.2625-.0306-.0577-.0999-.1322-.2677-.1762l-.2867-.0752.1527-.65737.2112-.02269c.2066-.02219.4223-.2225.4889-.45665.0306-.10742.021-.19384-.0112-.2562-.0305-.05884-.1035-.13993-.2865-.19359l-.2767-.08111.1481-.63769.1985-.03211c.3005-.04863.4919-.31167.519-.57443.0131-.12762-.0164-.22548-.0624-.28522-.04-.05202-.1186-.10999-.2858-.11018h-4.35394l.09339-.38444c.07237-.29786.17933-.93978.26989-1.52187.0448-.28788.08487-.55638.11375-.75296.01443-.09827.02606-.1785.03408-.23413zm-8.38931 3.92605v5.35412h3.04413v-5.35412z" fill-rule="evenodd"/></g></svg>