<svg fill="none" height="16" viewBox="0 0 15 16" width="15" xmlns="http://www.w3.org/2000/svg"><path clip-rule="evenodd" d="m3.94996 15.0227-3.94205237.0111-.00790763-3.961 10.7044-10.616725c.144-.144557.3151-.259268.5035-.337533.1884-.0782648.3905-.118542.5945-.118542.2041 0 .4061.0402772.5945.118542.1885.078265.3596.192976.5036.337533l1.6433 1.651075c.1446.1446.2594.31628.3377.50524.0783.18895.1185.39148.1185.59601s-.0402.40706-.1185.59601c-.0783.18896-.1931.36064-.3377.50524zm-2.36998-1.58h2.36998l-2.36998-2.3699zm10.22242-11.88538-8.64243 8.72548 1.57998 1.58 8.70575-8.6544z" fill="#001640" fill-rule="evenodd"/></svg>