<svg enable-background="new 0 0 50 50" viewBox="0 0 50 50" xmlns="http://www.w3.org/2000/svg"><path d="m45.7 14.7c.3-1 0-1.7-1.4-1.7h-4.7c-1.2 0-1.8.6-2.1 1.3 0 0-2.4 5.9-5.8 9.7-1.1 1.1-1.6 1.5-2.2 1.5-.3 0-.8-.4-.8-1.4v-9.4c0-1.2-.3-1.7-1.3-1.7h-7.5c-.8 0-1.2.6-1.2 1.1 0 1.1 1.7 1.4 1.9 4.6v7c0 1.5-.3 1.8-.9 1.8-1.6 0-5.5-5.9-7.9-12.7-.5-1.3-.9-1.8-2.1-1.8h-4.8c-1.4 0-1.6.6-1.6 1.3 0 1.3 1.6 7.5 7.5 15.8 3.9 5.6 9.5 8.7 14.5 8.7 3 0 3.4-.7 3.4-1.8 0-5.4-.3-5.9 1.2-5.9.7 0 1.9.4 4.7 3.1 3.2 3.2 3.8 4.7 5.6 4.7h4.7c1.4 0 2-.7 1.6-2-.9-2.8-7-8.6-7.3-9-.7-.9-.5-1.3 0-2.1.1-.1 5.9-8.3 6.5-11.1z" fill="#fff"/></svg>