<svg fill="none" height="112" viewBox="0 0 160 112" width="160" xmlns="http://www.w3.org/2000/svg"><path d="m55.1353 24.7692c0-7.1372 5.7489-12.923 12.8405-12.923h79.1842c7.091 0 12.84 5.7858 12.84 12.923v18.3077c0 7.1372-5.749 12.9231-12.84 12.9231h-79.1842c-7.0916 0-12.8405-5.7859-12.8405-12.9231z" fill="#eff4f7"/><path d="m55.1353 80.7692c0-7.1372 5.7489-12.923 12.8405-12.923h79.1842c7.091 0 12.84 5.7858 12.84 12.923v18.3077c0 7.1371-5.749 12.9231-12.84 12.9231h-79.1842c-7.0916 0-12.8405-5.786-12.8405-12.9231z" fill="#eff4f7"/><path clip-rule="evenodd" d="m147.207 8.36923h-94.4142c-2.3551 0-4.2643 1.87347-4.2643 4.18457v25.5077c0 2.3111 1.9092 4.1846 4.2643 4.1846h94.4142c2.355 0 4.264-1.8735 4.264-4.1846v-25.5077c0-2.3111-1.909-4.18457-4.264-4.18457zm-94.4142-8.36923c-7.0653 0-12.7928 5.62055-12.7928 12.5538v25.5077c0 6.9333 5.7275 12.5539 12.7928 12.5539h94.4142c7.065 0 12.793-5.6206 12.793-12.5539v-25.5077c0-6.93325-5.728-12.5538-12.793-12.5538z" fill="#001640" fill-rule="evenodd"/><path clip-rule="evenodd" d="m147.207 64.3692h-94.4142c-2.3551 0-4.2643 1.8735-4.2643 4.1846v25.5077c0 2.3111 1.9092 4.1847 4.2643 4.1847h94.4142c2.355 0 4.264-1.8736 4.264-4.1847v-25.5077c0-2.3111-1.909-4.1846-4.264-4.1846zm-94.4142-8.3692c-7.0653 0-12.7928 5.6205-12.7928 12.5538v25.5077c0 6.9335 5.7275 12.5535 12.7928 12.5535h94.4142c7.065 0 12.793-5.62 12.793-12.5535v-25.5077c0-6.9333-5.728-12.5538-12.793-12.5538z" fill="#001640" fill-rule="evenodd"/><path d="m78.919 63.5385c0 19.6273-15.9726 35.5384-35.6757 35.5384s-35.67567-15.9111-35.67567-35.5384c0-19.6274 15.97257-35.5385 35.67567-35.5385s35.6757 15.9111 35.6757 35.5385z" fill="#fff"/><path clip-rule="evenodd" d="m85.4054 64.0769c0 23.4934-19.1186 42.5381-42.7027 42.5381-23.584 0-42.7027-19.0447-42.7027-42.5381 0-23.4933 19.1187-42.5384 42.7027-42.5384 23.5841 0 42.7027 19.0451 42.7027 42.5384zm-10.1977 0c0 17.883-14.553 32.38-32.505 32.38s-32.505-14.497-32.505-32.38 14.553-32.38 32.505-32.38 32.505 14.497 32.505 32.38z" fill="#6321b6" fill-rule="evenodd"/><path d="m128.812 14.286c.708-1.8172 3.289-1.8172 3.997 0l1.88 4.8239c.305.7814 1.04 1.3131 1.88 1.3596l5.187.2871c1.955.1083 2.753 2.5576 1.234 3.7894l-4.021 3.26c-.654.5299-.935 1.3922-.719 2.2037l1.327 4.9922c.502 1.8851-1.587 3.3986-3.233 2.343l-4.373-2.8047c-.706-.4533-1.614-.4533-2.321 0l-4.373 2.8047c-1.646 1.0556-3.734-.4579-3.232-2.343l1.327-4.9922c.216-.8115-.066-1.6738-.719-2.2037l-4.021-3.26c-1.519-1.2318-.722-3.6811 1.234-3.7894l5.187-.2871c.84-.0465 1.575-.5782 1.88-1.3596z" fill="#212b46"/><g fill="#001640"><path d="m83.1724 22.6154c-2.3491 0-4.2535 1.9286-4.2535 4.3077s1.9044 4.3077 4.2535 4.3077 4.2534-1.9286 4.2534-4.3077-1.9043-4.3077-4.2534-4.3077z"/><path d="m94.8693 22.6154c-2.3491 0-4.2534 1.9286-4.2534 4.3077s1.9043 4.3077 4.2534 4.3077h12.2287c2.349 0 4.253-1.9286 4.253-4.3077s-1.904-4.3077-4.253-4.3077z"/><path d="m83.1724 78.6154c-2.3491 0-4.2535 1.9286-4.2535 4.3077 0 2.379 1.9044 4.3077 4.2535 4.3077s4.2534-1.9287 4.2534-4.3077c0-2.3791-1.9043-4.3077-4.2534-4.3077z"/><path d="m94.8693 78.6154c-2.3491 0-4.2534 1.9286-4.2534 4.3077 0 2.379 1.9043 4.3077 4.2534 4.3077h44.6607c2.349 0 4.254-1.9287 4.254-4.3077 0-2.3791-1.905-4.3077-4.254-4.3077z"/></g><path d="m63.0956 56.4553-9.9178 8.7377c-1.2915 1.1378-3.3005.2054-3.3005-1.5319v-4.6834h-19.9428c-2.2028 0-3.9886-1.8153-3.9886-4.0546s1.7858-4.0548 3.9886-4.0548h19.9428v-4.6831c0-1.7374 2.009-2.67 3.3004-1.5321l9.9179 8.738c.9175.8083.9175 2.2557 0 3.0642z" fill="#6321b6"/><path d="m22.3097 71.6986 9.9179-8.7378c1.2914-1.1378 3.3004-.2053 3.3004 1.5319v4.6834h19.9428c2.2029 0 3.9886 1.8154 3.9886 4.0547s-1.7857 4.0547-3.9886 4.0547h-19.9428v4.6832c0 1.7374-2.009 2.6699-3.3004 1.532l-9.9179-8.7379c-.9175-.8083-.9175-2.2557 0-3.0642z" fill="#6321b6"/></svg>