<svg fill="none" height="109" viewBox="0 0 132 109" width="132" xmlns="http://www.w3.org/2000/svg"><rect fill="#eff4f7" height="83" rx="12" width="118" x="14" y="23"/><g fill="#001640"><path clip-rule="evenodd" d="m16 13c-4.4183 0-8 3.5817-8 8v72c0 4.4183 3.5817 8 8 8h95c4.418 0 8-3.5817 8-8v-57.8614c0-2.2091 1.791-4 4-4s4 1.7909 4 4v57.8614c0 8.837-7.163 16-16 16h-95c-8.83656 0-16-7.163-16-16v-72c0-8.8366 7.16344-16 16-16h84.064c2.209 0 4 1.79086 4 4 0 2.2091-1.791 4-4 4z" fill-rule="evenodd"/><circle cx="118" cy="13" r="8"/><path clip-rule="evenodd" d="m23 83c0-2.2091 1.7909-4 4-4h76c2.209 0 4 1.7909 4 4s-1.791 4-4 4h-76c-2.2091 0-4-1.7909-4-4z" fill-rule="evenodd"/></g><circle cx="65.5" cy="33.5" fill="#fff" r="29.5"/><path d="m65.8564 19c2.2091 0 4 1.7909 4 4v6.8564h6.8564c2.2092 0 4 1.7909 4 4 0 2.2092-1.7908 4-4 4h-6.8564v6.8564c0 2.2092-1.7909 4-4 4-2.2092 0-4-1.7908-4-4v-6.8564h-6.8564c-2.2091 0-4-1.7908-4-4 0-2.2091 1.7909-4 4-4h6.8564v-6.8564c0-2.2091 1.7908-4 4-4z" fill="#6321b6"/><path clip-rule="evenodd" d="m99 33.5c0 18.5015-14.9985 33.5-33.5 33.5s-33.5-14.9985-33.5-33.5 14.9985-33.5 33.5-33.5 33.5 14.9985 33.5 33.5zm-8 0c0 14.0833-11.4167 25.5-25.5 25.5s-25.5-11.4167-25.5-25.5 11.4167-25.5 25.5-25.5 25.5 11.4167 25.5 25.5z" fill="#6321b6" fill-rule="evenodd"/></svg>