<svg fill="none" height="15" viewBox="0 0 15 15" width="15" xmlns="http://www.w3.org/2000/svg" xmlns:xlink="http://www.w3.org/1999/xlink"><clipPath id="a"><path d="m0 0h15v15h-15z"/></clipPath><g clip-path="url(#a)"><path clip-rule="evenodd" d="m15 7.50306c.0012.08226-.0143.1639-.0455.24004-.0311.07615-.0773.14521-.1358.20308-.0356.03284-.0755.06061-.1187.08251-.0938.184-.2279.34443-.3924.46932s-.3552.21101-.5576.25193h-.625v4.99996c0 .3316-.1317.6495-.3661.8839-.2345.2344-.5524.3661-.8839.3661h-8.75c-.33152 0-.64944-.1317-.88387-.3661-.23442-.2344-.36613-.5523-.36613-.8839v-4.99996h-.625c-.324252-.00149-.635245-.12891-.86731-.35538s-.3670339-.53425-.3764339-.85837c0-.00937-.0062561-.01875-.0062561-.02813v-.00812c.00422266-.15699.0692247-.30621.181274-.41625l6.812436-6.816249c.01576-.03304.03694-.063245.06256-.089379.12018-.1128913.27884-.17574266.44373-.17574266s.32355.06285136.44373.17574266c.02564.02636.04681.056757.06256.089989l6.81241 6.815639c.1121.11004.1771.25926.1813.41625zm-8.125 6.25004h1.25v-3.125h-1.25zm.625-12.26192-6.0125 6.00876h1.6375v6.24996h2.5v-3.74996c0-.16576.06582-.32473.18303-.44194s.27621-.18306.44197-.18306h2.5c.16576 0 .32476.06585.44197.18306s.18303.27618.18303.44194v3.74996h2.5v-6.24996h1.6375z" fill="#001640" fill-rule="evenodd"/></g></svg>