<svg fill="none" height="22" viewBox="0 0 22 22" width="22" xmlns="http://www.w3.org/2000/svg" xmlns:xlink="http://www.w3.org/1999/xlink"><clipPath id="a"><path d="m0 0h22v22h-22z"/></clipPath><g clip-path="url(#a)"><path clip-rule="evenodd" d="m22 7.85202c.014.13905-.0014.27946-.045.41222-.0437.13275-.1147.25489-.2084.35852-.0938.10363-.2082.18646-.336.24315-.1277.05669-.2658.08598-.4056.08598-.1397 0-.2779-.02929-.4056-.08598-.1278-.05669-.2422-.13952-.336-.24315-.0937-.10363-.1647-.22577-.2083-.35852-.0437-.13276-.059-.27317-.0451-.41222v-4.175l-8.96 8.95998c-.1125.1129-.2462.2026-.3934.2639s-.305.0929-.4645.0932c-.1594.0003-.3174-.0308-.46481-.0916-.1474-.0607-.28135-.1499-.39428-.2625-.11294-.1125-.20265-.2462-.26392-.3934s-.09286-.305-.09314-.4645c-.00028-.1594.0308-.3173.09155-.4647.06076-.1475.14991-.2814.26246-.3944l8.93004-8.92799h-4.11c-.1405.01542-.2827.00105-.4173-.04217-.1346-.04323-.2585-.11433-.3638-.20868s-.1896-.20984-.2472-.33892c-.0576-.12907-.0874-.26886-.0874-.410228 0-.141365.0298-.281139.0874-.410217.0576-.129079.1419-.24456.2472-.338913s.2292-.1654541.3638-.2086792c.1346-.04322515.2768-.0576071.4173-.04219057h6.58.06.07c.03 0 .0499.01200757.0799.01400757s.0401-.01400757.0601-.01400757c.2292.00614016.4473.09949137.61.26100177.0256.015196.0492.033694.0701.055008.02.022.0399.046999.0599.070999.1587.164427.2513.381607.26.610001 0 .021998-.01.040988-.01.062988s.01.053.01.082v6.71001zm-20 12.14798h16v-9h2v9c0 .5305-.2107 1.0392-.5858 1.4142-.3751.3751-.8838.5858-1.4142.5858h-16c-.53043 0-1.039112-.2107-1.414185-.5858-.375072-.375-.585815-.8837-.585815-1.4142v-15.99998c0-.53044.210743-1.03915.585815-1.41422.375073-.37507.883755-.58578 1.414185-.58578h9v2h-9z" fill="#6321b6" fill-rule="evenodd"/></g></svg>