<svg fill="none" height="17" viewBox="0 0 17 17" width="17" xmlns="http://www.w3.org/2000/svg"><path clip-rule="evenodd" d="m15.5833 17h-14.16663c-.37573 0-.736041-.1493-1.001717-.4149-.265677-.2657-.414953-.626-.414953-1.0018v-4.25c0-.3757.149276-.736.414953-1.0017.265676-.2657.625987-.41493 1.001717-.41493h14.16663c.3758 0 .7361.14923 1.0017.41493.2657.2657.415.626.415 1.0017v4.25c0 .3758-.1493.7361-.415 1.0018-.2656.2656-.6259.4149-1.0017.4149zm0-5.6667h-14.16663v4.25h14.16663zm0-4.24997h-14.16663c-.37573 0-.736041-.14925-1.001717-.41493-.265677-.26567-.414953-.62601-.414953-1.00173v-4.25c0-.37573.149276-.736063.414953-1.001739.265676-.265677.625987-.414931 1.001717-.414931h14.16663c.3758 0 .7361.149254 1.0017.414931.2657.265676.415.626009.415 1.001739v4.25c0 .37572-.1493.73606-.415 1.00173-.2656.26568-.6259.41493-1.0017.41493zm0-5.66666h-14.16663v4.25h14.16663z" fill="#ccdbe1" fill-rule="evenodd"/></svg>