<svg fill="none" height="20" viewBox="0 0 20 20" width="20" xmlns="http://www.w3.org/2000/svg"><g fill="#001640"><path d="m19.0488 10.8301c.9727-.99826.6721-3.01751-1.0126-3.01751l-4.4327.00307c.1684-.96777.4122-2.57204.4026-2.7235-.0931-1.43455-.9801-3.18046-1.0185-3.25192-.1617-.3106-.9785-.7317-1.8005-.55126-1.0627.23454-1.1713.93344-1.1669 1.12612 0 0 .0458 1.91193.0502 2.4221-.50806 1.1505-2.25995 4.174-2.79094 4.40701-.12699-.07925-.27106-.12187-.42095-.12187h-5.60026c-.475663 0-.858247.3966-.858247.88466l.000742 7.9796c.033295.4302.387783.7676.806505.7676h5.03016c.44608 0 .80874-.3739.80874-.8338v-.2649s.18689-.0144.2718.0419c.32342.2117.72309.4781 1.24442.4781h7.50653c2.8064 0 2.5051-2.5682 2.2488-2.9185.4742-.5322.7674-1.471.3671-2.2127.3072-.3357.8479-1.2586.364-2.2142zm-12.98418 7.0888h-4.85885v-7.96367h4.85885zm11.67478-7.1573-.0458.1971c1.2932.3791.6049 1.9158-.3228 2.0154l-.0458.1972c1.24.3251.6485 1.9073-.3228 2.0154l-.0458.1964c1.0126.1714.7674 1.953-.7666 1.953l-7.6351.0031c-.53916 0-1.03029-.6335-1.42686-.6335h-.34607v-6.1299c.43135-.2757.96159-.63346 1.2563-.89161.55685-.48962 2.83603-4.28667 2.83603-4.76188 0-.4752-.0503-2.53094-.0503-2.53094s.4469-.59388 1.4446-.16066c0 0 .8397 1.62328.9253 2.91695 0 0-.3781 2.66493-.5812 3.50101h5.2932c1.3005.00153 1.0523 1.91573-.1663 2.11293z"/><path clip-rule="evenodd" d="m12.9819 1.25902c.1363.09766.2745.22639.3573.38453.0339.06406.2688.52943.5094 1.16063.243.6373.5059 1.47942.5566 2.26045.0038.06079-.0038.14032-.0089.19096-.0066.06595-.0166.14926-.0289.24436-.0246.19077-.0599.43884-.1005.7106-.0563.37713-.1234.80366-.1876 1.19239l3.9567-.00274c.5021.00001.9272.15201 1.255.42075.3253.26677.533.63048.6343 1.019.177.67892.0388 1.47015-.4079 2.06475.1772.4994.1451.9815.0295 1.3825-.0946.328-.2466.6092-.3947.8192.2848.7834.033 1.6422-.371 2.216.0052.0179.0101.0355.0146.0527.0347.1318.0604.2873.0723.4558.0236.3355-.0056.7497-.1506 1.1584-.1468.4135-.4132.8221-.8571 1.1238-.4421.3004-1.0308.4748-1.7915.4748h-7.50653c-.47124 0-.859-.1757-1.15579-.3504-.13621.5343-.60843.9291-1.16917.9291h-5.03016c-.627202 0-1.1553458-.5025-1.20523986-1.1472l-.00126596-.0163-.00074418-7.996c0-.71525.56107-1.29714 1.25825-1.29714h5.60026c.12595 0 .24904.02017.36602.05858.00567-.00593.01158-.01219.01773-.01881.0851-.09151.18884-.21968.30761-.38047.23682-.32062.51444-.74505.79527-1.20439.53641-.87739 1.06479-1.8495 1.32426-2.41637-.00382-.28748-.01492-.81947-.02567-1.30424-.006-.27067-.01185-.52543-.01622-.71254l-.00721-.30609-.00002-.00097c-.00381-.16961.0397-.48467.25869-.798.22573-.32299.61093-.60554 1.22443-.740935.4974-.109196.9841-.035533 1.3672.106778.1924.071497.3672.163317.5113.266517zm-2.5618 1.14653.0072.30636c.0044.18732.0102.44242.0162.71351.012.54057.0247 1.14945.0269 1.40807l.0007.07724c.0012-.00434.0022-.00791.003-.01076-.0008-.24769-.0128-.85396-.025-1.41202-.0063-.28637-.0126-.55794-.0173-.75794l-.0078-.32789.3998-.01075c-.2828-.22621-.3124-.25015-.3154-.25286-.0001.00014.0001-.00013 0 0l.3154.25286-.3998.01075-.0009-.03575c-.0026.01927-.0032.033-.003.03918zm.0911-.27137.0036-.00468.0102-.01254c.0078-.00942.0177-.02095.0298-.03411.0242-.02629.0574-.05943.0998-.09556.0849-.07221.2085-.15768.373-.22331.0236-.00941.0478-.01833.0726-.02669-.3314.10347-.4918.25647-.5722.37152-.0059.00851-.0115.01697-.0168.02537zm.8316-.4558c.2596-.04315.5213-.01434.7494.05413-.2834-.07834-.5337-.0875-.7494-.05413zm1.2588.32018.0197.0381-.3529.19405c.3529-.19405.3529-.19412.3529-.19405l.0011.00201.0022.00436.008.01561c.0067.0134.0164.03273.0286.0575.0245.04953.059.12093.1005.21034.083.17859.1943.43031.3085.72416.225.57872.4754 1.35633.5226 2.06894l.0029.04407-.0062.04371-.3958-.0597c.3958.0597.3958.05967.3958.0597l-.0168.11705c-.0107.07484-.0264.18259-.0457.31447-.0388.2637-.0926.62418-.1528 1.01107-.0827.53179-.1794 1.12596-.2665 1.58633h4.798c.4273.0005.7796.16306 1.0074.45921.2199.28585.2861.64655.2519.97978-.0118.11431-.036.2301-.0723.34403.1184-.31241.1398-.65933.06-.96526-.0628-.24107-.1853-.44456-.3597-.58759-.172-.14103-.4164-.24142-.7565-.24147-.0001 0 .0001 0 0 0l-4.9111.0034.0844-.48551c.0835-.48.186-1.11961.2664-1.65783.0402-.26921.0746-.5111.0982-.69397.0119-.09172.0207-.16615.0262-.22071.0043-.04278.0051-.06095.0055-.06334-.0445-.65051-.2702-1.39292-.502-2.00113-.1152-.30205-.2288-.56319-.3158-.75278-.0435-.09469-.0801-.17117-.1068-.22557-.0133-.0272-.024-.04875-.0318-.06415-.0075-.01472-.0113-.02202-.0119-.02325l-.0025-.0046c-.0001-.00006-.0003-.00035-.0006-.00085-.0026-.00334-.0122-.01615-.0331-.03613zm5.9823 8.80454c-.0455.0397-.0936.0771-.1442.1118.0944.0908.1725.1946.2325.3107.1375.2659.1585.5542.1101.8187.088-.3107.0943-.6631-.0881-1.0234zm-.3698 2.2173c-.044.0384-.0901.0745-.1379.108.0835.083.1536.1773.2091.282.1579.2979.1707.6297.1016.9252.1192-.3667.1227-.7679-.0516-1.0908zm-.3971 2.2371c-.0401.0336-.0819.0654-.1252.095.0559.0667.1039.1402.1434.2193.1486.2975.1642.6456.0782.963-.1771.6536-.7859 1.2136-1.7235 1.2137 0 0 .0001 0 0 0l-7.63505.0031c-.40441 0-.7581-.2335-.98284-.3819-.02052-.0136-.04016-.0266-.05904-.0391-.1009-.067-.1801-.1195-.25595-.1604-.0423-.0228-.07429-.0366-.09818-.0445-.0214-.0071-.03088-.0076-.0312-.0076h-.66302v1.1523c.10935-.0757.18152-.2044.18152-.35v-.6476l.37016-.0285.02985.4112c-.02985-.4112-.02992-.4112-.02985-.4112l.00261-.0002.00376-.0003.01079-.0006c.00856-.0005.01993-.001.03349-.0013.02664-.0007.06404-.0008.10643.0017.05902.0036.22159.0151.3597.1061.33415.2187.64037.4134 1.02929.4134h7.50653c.6425 0 1.0685-.1466 1.3512-.3387.2809-.1908.4494-.4462.5461-.7185.0984-.2771.1212-.5706.104-.8152-.0086-.1215-.0266-.2242-.0465-.2998-.0174-.0662-.0311-.0923-.0306-.0927zm-11.48867 3.0738h-5.21052c.02891.0069.05887.0105.08944.0105h5.03016c.03123 0 .06167-.0036.09092-.0105zm-5.522564-.3307v-8.06886c-.003791.02451-.005759.04965-.005761.07526l.000741 7.9604c.001235.0112.002915.0223.00502.0332zm.367184-8.45776h5.29167v.75046l.10642-.068c.31249-.1997.663-.43395.93498-.63739-.0229.01333-.04622.02535-.0699.03575l-.18851.08272-.17527-.10937c-.06598-.04117-.13865-.06228-.21383-.06228h-5.60026c-.02917 0-.05768.00279-.0853.00811zm6.56057-.13388c.0157-.01319.03077-.0261.04516-.0387.0356-.03135.1073-.11109.21529-.25176-.05998.07398-.11829.14188-.17424.20204-.02674.02875-.05558.0587-.08621.08842zm2.02242-3.06883c.14975-.26478.28616-.51507.40026-.73601.1089-.21085.1947-.38931.2521-.52536.0182-.04324.0326-.07981.0435-.10999l-.0173.03931c-.1476.33424-.392.81221-.67856 1.33205zm3.03556-1.20724c-.0457-.57147-.2529-1.23269-.4638-1.77541-.1064-.27368-.2104-.50864-.2875-.67484-.0218-.04689-.0414-.08821-.0583-.12328-.3342-.11614-.5476-.07326-.6656-.02618-.0341.0136-.0633.02882-.0879.0438l.0032.13302c.0047.2003.011.47236.0173.75932.0125.57103.0252 1.20954.0252 1.45299 0 .09691-.0255.19037-.0449.25249-.0224.07193-.0528.15105-.0873.233-.0694.16446-.1661.36444-.2796.58404-.2276.44055-.5345.98291-.8569 1.52233-.32252.53975-.66377 1.08184-.96103 1.52192-.14849.21982-.28801.41717-.41011.57728-.11668.15303-.23418.29452-.33663.3846-.27505.24093-.72296.55003-1.11586.80613v5.4911c.17428.0122.32874.081.44574.144.11107.0598.22624.1364.32564.2025.01732.0116.03417.0228.05043.0335.25469.1682.41629.2515.55101.2516l7.63501-.0031c.5964 0 .8774-.3308.9533-.6108.0404-.1494.0233-.2789-.019-.3636-.0368-.0738-.1028-.1374-.2323-.1593l-.4247-.0719.2123-.9102.2801-.0312c.2912-.0324.5664-.3051.6466-.6208.0374-.147.0218-.2662-.0226-.35-.0408-.0769-.1332-.1763-.3569-.2349l-.3822-.1003.2036-.8765.2816-.0302c.2754-.0296.563-.2967.6518-.6089.0408-.1432.028-.2585-.015-.3416-.0405-.0784-.1379-.1866-.382-.2581l-.3689-.1082.1975-.8502.2646-.0428c.4008-.0649.656-.41559.692-.76594.0175-.17016-.0218-.30063-.0831-.38029-.0534-.06935-.1582-.14665-.3811-.14691h-5.8053l.1246-.51258c.0965-.39715.2391-1.25305.3598-2.02916.0597-.38385.1132-.74185.1517-1.00395.0192-.13102.0347-.238.0454-.31217zm-11.18573 5.23471v7.1389h4.05885v-7.1389z" fill-rule="evenodd"/></g></svg>