<svg fill="none" height="24" viewBox="0 0 32 24" width="32" xmlns="http://www.w3.org/2000/svg" xmlns:xlink="http://www.w3.org/1999/xlink"><clipPath id="a"><path d="m0 0h32v24h-32z"/></clipPath><g clip-path="url(#a)"><path clip-rule="evenodd" d="m31.5299 12.073-3.7901 2.563c-.03.033-.0499.076-.0799.1-.02.085-.0301.174-.0501.259h-2.0699c.0716-.2416.1283-.4874.1699-.736l-3.24-2.191c-.2267-.1719-.3859-.4178-.4498-.6951-.064-.2772-.0287-.5681.0998-.8219.0487-.1209.1235-.2295.2193-.318.0957-.0885.2099-.1546.3343-.1935.1244-.039.2559-.04979.385-.0317.1291.0181.2526.0646.3615.1362l2.5699 1.739c-.0214-1.97573-.6282-3.90076-1.7435-5.53173s-2.6891-2.89464-4.5225-3.63132c-1.8333-.73667-3.8439-.91325-5.7777-.50741-1.9337.40584-3.7038 1.37586-5.08627 2.78747h-2.58996c1.474-2.05619 3.56101-3.59305 5.96203-4.390378 2.401-.797333 4.9929-.814207 7.4041-.048218 2.4112.765986 4.518 2.275526 6.0186 4.312346 1.5007 2.03682 2.3181 4.49636 2.3352 7.02624l2.59-1.747c.1089-.0716.2324-.1182.3615-.1362.129-.01811.2606-.0073.385.0317.1244.0389.2386.105.3343.1935s.1706.1971.2193.318c.1274.2534.1621.5434.0982.8197-.0639.2764-.2225.5216-.4482.6933zm-21.65005-.628c-.04873.1209-.1237.2294-.21948.3178-.09578.0883-.20997.1543-.33435.1931-.12439.0389-.25585.0496-.38489.0315-.12904-.0182-.25248-.0647-.36133-.1364l-2.40991-1.626c-.10753.5857-.16446 1.1796-.17004 1.775.00029 1.986.59198 3.927 1.69958 5.5755s2.68097 2.9299 4.51957 3.6808 3.8592.9373 5.8042.5354c1.9449-.4018 3.7261-1.3737 5.1167-2.7917h2.5899c-1.48 2.0628-3.5767 3.6025-5.9879 4.3973-2.4112.7947-5.0125.8035-7.4291.025-2.41651-.7784-4.52359-2.3039-6.01754-4.3567-1.49396-2.0527-2.2977-4.5268-2.29541-7.0656.00545-.6806.07234-1.3594.19995-2.028l-2.77991 1.879c-.10885.0717-.23229.1182-.36133.1364-.129038.0181-.260501.0074-.384886-.0315-.124385-.0388-.238573-.1048-.334351-.1931-.095777-.0884-.170756-.1969-.219482-.3178-.12856985-.254-.1639324-.545-.0999755-.8224.0639568-.2774.2231545-.5235.4499515-.69559l3.790043-2.56201c.07721-.10073.17529-.18361.28747-.24298s.23583-.09382.36255-.10101c.05953-.01067.12041-.01067.17993 0 .12672.00719.25037.04164.36255.10101s.21026.14225.28748.24298l3.79003 2.56201c.2268.17209.386.41819.44996.69559.06397.2774.02857.5684-.09998.8224z" fill="#fff" fill-rule="evenodd"/></g></svg>