<svg fill="none" height="15" viewBox="0 0 15 15" width="15" xmlns="http://www.w3.org/2000/svg"><path clip-rule="evenodd" d="m7.50037 15c-1.07448.0017-2.13679-.2275-3.115-.672s-1.84951-1.0941-2.55486-1.9046c-.70534-.8106-1.228285-1.7632-1.533429-2.79346-.30514487-1.03024-.3853583-2.11403-.2352146-3.17797.1501436-1.06394.5271726-2.08319 1.1055036-2.98875.57832-.90557 1.34444-1.67631 2.24655-2.26002.9021-.583712 1.91915-.96676 2.98217-1.1232388 1.06303-.1564789 2.14721-.08272766 3.17925.2162738l-.67497 1.117495c-1.26359-.29042-2.58619-.18068-3.78464.31401s-2.21345 1.34984-2.90428 2.44699c-.69083 1.09716-1.02332 2.38201-.95146 3.67655.07185 1.29454.54453 2.53472 1.35254 3.54872.808 1.0139 1.91136 1.7515 3.15719 2.1105 1.24584.359 2.57247.3217 3.79616-.1068 1.22372-.4284 2.28382-1.2269 3.03362-2.2846.7497-1.0578 1.1519-2.32258 1.1509-3.61911 0-.71469-.1247-1.42389-.3688-2.09563l.7938-1.3175c.5857 1.14294.8679 2.41721.8195 3.70056-.0484 1.28336-.4258 2.53278-1.0959 3.62838-.6701 1.0955-1.6105 2.0006-2.7309 2.6282-1.1205.6276-2.38346.9568-3.66773.956zm.57503-5.3944c-.02832.08348-.07541.15938-.13756.22189-.05822.05878-.12882.10383-.20668.13183-.07785.02801-.16097.03827-.2433.03004-.12994.00907-.25903-.0266-.3659-.10107-.10688-.07447-.18507-.18326-.22156-.3083l-2.38754-2.38625c-.09514-.10722-.14578-.24671-.14153-.38999s.06309-.27954.16441-.38094.23751-.1603.38079-.16466c.14327-.00436.28279.04617.39009.14122l2.03125 2.03186 4.61873-6.85875c.0401-.07324.0944-.13771.1597-.18963.0654-.05191.1404-.09022.2208-.11265.0804-.02242.1645-.02851.2473-.01793.0828.01059.1626.03766.2347.0796.1452.08954.2498.23201.2918.39728s.018.34039-.0668.48834z" fill="#001640" fill-rule="evenodd"/></svg>