<svg fill="none" height="15" viewBox="0 0 15 15" width="15" xmlns="http://www.w3.org/2000/svg"><path clip-rule="evenodd" d="m12.5 11.875c1.3807 0 2.5-1.1193 2.5-2.5v-6.875c0-1.38071-1.1193-2.5-2.5-2.5h-10c-1.38071 0-2.5 1.11929-2.5 2.5v12.5s.581515-.793 1.45161-1.58c.85719-.7754 1.99446-1.545 3.13172-1.545zm-11.04839-.3153c.85179-.5995 1.93748-1.1363 3.13172-1.1363h7.91637c.0001 0 .0003 0 .0003 1.4516l-.0003-1.4516c.5791 0 1.0487-.46939 1.0487-1.0484v-6.875c0-.57901-.4694-1.04839-1.0484-1.04839h-10c-.57901 0-1.04839.46938-1.04839 1.04839z" fill="#001640" fill-rule="evenodd"/></svg>