<svg fill="none" height="113" viewBox="0 0 142 113" width="142" xmlns="http://www.w3.org/2000/svg"><rect fill="#eff4f7" height="59" rx="22" width="105" x="17" y="54"/><path d="m54 21c-4.4183 0-8 3.5817-8 8v2c0 2.2091 1.7909 4 4 4s4-1.7909 4-4v-2h41v9h-55c-8.8366 0-16 7.1634-16 16v43c0 8.837 7.1634 16 16 16h73c8.837 0 16-7.163 16-16v-40.8947c0-2.2092-1.791-4-4-4s-4 1.7908-4 4v19.8947h-46c-2.2091 0-4 1.7909-4 4s1.7909 4 4 4h46v13c0 4.418-3.582 8-8 8h-73c-4.4183 0-8-3.582-8-8v-13h29c2.2091 0 4-1.7909 4-4s-1.7909-4-4-4h-29v-22c0-4.4183 3.5817-8 8-8h72.564c2.209 0 4-1.7909 4-4s-1.791-4-4-4h-9.564v-9c0-4.4183-3.5817-8-8-8z" fill="#001640"/><path d="m128 44.5c0 2.4853-2.015 4.5-4.5 4.5s-4.5-2.0147-4.5-4.5 2.015-4.5 4.5-4.5 4.5 2.0147 4.5 4.5z" fill="#001640"/><path d="m65 33.5c0 17.397-14.103 31.5-31.5 31.5s-31.5-14.103-31.5-31.5 14.103-31.5 31.5-31.5 31.5 14.103 31.5 31.5z" fill="#fff"/><path clip-rule="evenodd" d="m21.787 39.4635c1.9528-2.6378 4.8651-4.5551 8.2349-5.2754-2.7961-1.1007-4.7995-3.7066-4.7995-6.8131 0-4.1299 3.5408-7.375 7.7777-7.375s7.7777 3.2451 7.7777 7.375c0 3.1065-2.0034 5.7124-4.7995 6.8131 3.3698.7203 6.2821 2.6376 8.2349 5.2754 1.1319 1.5291.9577 3.2482.0184 4.5184-.9054 1.2243-2.492 2.0181-4.2373 2.0181h-13.9884c-1.7453 0-3.3319-.7938-4.2373-2.0181-.9393-1.2702-1.1135-2.9893.0184-4.5184zm13.8924-12.0885c0 1.1804-1.063 2.375-2.6793 2.375s-2.6793-1.1946-2.6793-2.375 1.063-2.375 2.6793-2.375 2.6793 1.1946 2.6793 2.375zm-10.2886 14.4903c-.0974-.047-.1695-.0978-.22-.1417 1.5749-2.0796 3.9986-3.5021 6.7708-3.7933-2.4179.254-4.5707 1.3687-6.1264 3.0292-.2279.2433-.4431.4984-.6444.7641.0246.0214.0544.0444.0896.0678.0371.0247.0804.0498.1304.0739zm7.6093-2.9903c-2.2224 0-4.246.8021-5.7839 2.125h11.5678c-1.5379-1.3229-3.5615-2.125-5.7839-2.125z" fill="#6321b6" fill-rule="evenodd"/><path clip-rule="evenodd" d="m67 33.5c0 18.5015-14.9985 33.5-33.5 33.5s-33.5-14.9985-33.5-33.5 14.9985-33.5 33.5-33.5 33.5 14.9985 33.5 33.5zm-8 0c0 14.0833-11.4167 25.5-25.5 25.5s-25.5-11.4167-25.5-25.5 11.4167-25.5 25.5-25.5 25.5 11.4167 25.5 25.5z" fill="#6321b6" fill-rule="evenodd"/><path d="m123.296 6.80238c.661-1.70157 3.068-1.70157 3.729-.00001l1.754 4.51693c.284.7317.969 1.2296 1.753 1.2731l4.839.2688c1.824.1014 2.568 2.3948 1.151 3.5482l-3.751 3.0526c-.61.4961-.872 1.3035-.671 2.0634l1.239 4.6745c.467 1.7652-1.481 3.1823-3.016 2.1939l-4.08-2.6262c-.659-.4245-1.506-.4245-2.165 0l-4.08 2.6262c-1.535.9884-3.483-.4287-3.016-2.1939l1.239-4.6745c.201-.7599-.061-1.5672-.671-2.0634l-3.751-3.0526c-1.417-1.1534-.673-3.4468 1.151-3.5482l4.839-.2688c.784-.0435 1.469-.5414 1.753-1.2731z" fill="#212b46"/></svg>