<svg fill="none" height="22" viewBox="0 0 22 22" width="22" xmlns="http://www.w3.org/2000/svg" xmlns:xlink="http://www.w3.org/1999/xlink"><clipPath id="a"><path d="m0 0h22v22h-22z"/></clipPath><g clip-path="url(#a)"><path clip-rule="evenodd" d="m11 22c-2.1756 0-4.30236-.6451-6.1113-1.8538s-3.21881-2.9267-4.051375-4.9367c-.83256404-2.01-1.050394-4.2217-.625956-6.35549.424437-2.13379 1.472061-4.0938 3.010441-5.63218s3.49842-2.586026 5.63221-3.010463c2.13378-.424438 4.34548-.20660085 6.35548.625963 2.01.83256 3.728 2.24247 4.9367 4.05141s1.8538 3.93567 1.8538 6.11126c0 2.9174-1.1589 5.7153-3.2218 7.7782s-4.8608 3.2218-7.7782 3.2218zm0-20.16666c-1.813 0-3.5853.53761-5.09275 1.54486s-2.68232 2.43888-3.37613 4.11387c-.6938 1.67499-.87536 3.51813-.52167 5.29623.3537 1.7782 1.22677 3.4115 2.50875 4.6935s2.91529 2.155 4.69344 2.5087c1.77816.3537 3.62126.1722 5.29626-.5216s3.1067-1.8687 4.1139-3.3762c1.0072-1.5074 1.5449-3.2797 1.5449-5.0927 0-2.43114-.9658-4.76272-2.6849-6.48181-1.7191-1.71908-4.0507-2.68485-6.4818-2.68485zm-.0734 13.13856c-.0325.1359-.1023.2601-.2016.3584-.0855.0861-.1891.152-.3032.1931-.1142.0411-.2361.0562-.3568.0444-.19061.0133-.37999-.039-.53674-.1483-.15675-.1092-.27143-.2688-.32495-.4522l-2.58501-2.5831c-.13954-.1573-.21374-.3619-.20751-.572.00622-.2102.09242-.41.24102-.5587.14861-.1487.3484-.2351.55854-.2415s.41477.0677.57214.2071l1.99832 2.002 4.08839-7.24809c.0587-.10742.1383-.20198.2341-.27813.0959-.07614.206-.13232.3239-.16521.1179-.0329.2412-.04184.3626-.02631s.2385.05522.3444.11673c.2128.13132.3662.34028.4278.58268.0616.24239.0265.49924-.0978.71623z" fill="#6321b6" fill-rule="evenodd"/></g></svg>