<svg fill="none" height="20" viewBox="0 0 20 20" width="20" xmlns="http://www.w3.org/2000/svg"><path clip-rule="evenodd" d="m19.9084 11.1527c-.034.2967-.1757.5707-.3981.7701-.2223.1994-.5101.3103-.8088.3119-.0249 0-.0499 0-.0749 0h-.0915c-.2711.0013-.5354.0846-.7582.239-.2228.1545-.3937.3728-.49.6261-.0964.2534-.1139.53-.05.7935.0638.2635.2059.5014.4076.6826.2289.2109.3698.5005.3945.8108.0247.3102-.0687.6184-.2613.8629-.4775.5933-1.0221 1.1293-1.6229 1.5972-.2139.1675-.4775.2592-.7491.2605-.1704-.0004-.3388-.0359-.4949-.1042s-.2964-.168-.4123-.2928c-.135-.139-.2968-.249-.4757-.3236-.1788-.0745-.3709-.112-.5647-.11-.1595-.0008-.3177.0289-.4661.0874-.2539.1067-.4694.2879-.618.5198-.1486.2318-.2233.5033-.2143.7785.0099.3087-.0967.6097-.2988.8432-.202.2335-.4846.3824-.7914.4169-.7469.083-1.50085.081-2.24729-.0058-.30983-.0362-.59392-.19-.79369-.4296s-.29993-.5467-.2799-.858c.01378-.2777-.05783-.5529-.20513-.7888-.1473-.2358-.36333-.4209-.61894-.5303-.15072-.0609-.31182-.0917-.47436-.0908-.19363-.0017-.38559.0358-.56438.1102-.17878.0743-.34069.1841-.47598.3226-.21064.2321-.50182.375-.81421.3998-.3124.0247-.62251-.0706-.86704-.2666-.58352-.4719-1.11129-1.0089-1.57305-1.6005-.19244-.2413-.28574-.5468-.261-.8545.02473-.3076.16567-.5943.3942-.8018.2023-.1871.34314-.4311.40405-.6998.06092-.2688.03907-.5497-.06278-.8058-.09767-.2416-.26412-.4492-.47863-.5971-.21452-.148-.46773-.2297-.72826-.2352h-.04988c-.31144.0042-.614108-.1029-.853633-.302s-.400254-.4772-.4531286-.7841c-.0915542-.7543-.0915542-1.51699 0-2.27134.0318884-.30512.1786206-.58671.4104566-.78764.231837-.20092.531425-.30616.837985-.29435.28161.01089.56027-.06104.80141-.20691.24113-.14586.43415-.35924.55523-.61373.10627-.25726.13057-.54106.06949-.81263-.06107-.27157-.20447-.51764-.41066-.70463-.22882-.21082-.36971-.50023-.3944-.81038-.02469-.31014.06862-.61818.26121-.86254.47583-.59221 1.01749-1.12832 1.6146-1.59799.21717-.16733.48325-.25886.75741-.26052.17058.00052.33918.03628.49529.10502.15611.06875.29633.16901.41188.29449.13556.138.29764.24724.4764.32117.17876.07394.37053.11105.56397.10912.1592.00168.31735-.02656.46613-.08323.25414-.10705.46981-.28873.61843-.52102.14862-.2323.22318-.50424.21386-.77985-.00965-.30839.09717-.609105.29921-.842298s.48442-.381758.79105-.4161213c.7469-.0825316 1.50078-.0805868 2.24728.0058165.3096.0364328.5934.1901338.7931.4294808.1998.239348.3001.546132.2805.857232-.0156.27825.0552.55452.2027.79097s.3646.42153.6213.52989c.1509.0601.3119.09062.4744.08989.1935.00166.3854-.03574.5642-.10996.1787-.07422.3407-.18372.4761-.32199.2094-.23116.4989-.37382.8098-.39887.3108-.02506.6195.06937.8632.26403.5868.47034 1.1175 1.00685 1.5813 1.59885.1938.24232.2878.54938.2631.85865-.0248.30928-.1664.59749-.3963.80593-.2024.18323-.3442.42386-.4062.68978-.0621.26592-.0416.54445.0588.79838.1004.25394.2759.47118.5031.62272.2272.15155.4952.23016.7682.22535.3095-.00264.6098.10467.8476.30281.2378.19815.3976.47428.4508.77919.0869.75266.0869 1.51283 0 2.26553zm-1.648-1.93346c-.5197-.0122-1.0246-.17548-1.4531-.46989-.4284-.29442-.7619-.70723-.9596-1.18802s-.2511-1.00874-.1537-1.5194c.0974-.51065.3413-.9819.7021-1.35618-.3247-.39872-.687-.76524-1.082-1.09447-.5174.48227-1.1986.75-1.906.74906-.3397.00205-.6764-.06389-.9903-.19393-.4829-.20419-.8954-.54523-1.1868-.98108s-.4488-.94743-.4529-1.47168c-.5122-.04743-1.0276-.04743-1.53975 0-.02825.50428-.2077.98836-.515 1.38918-.3073.40083-.72815.6998-1.2078.858-.27843.17668-.58992.29479-.9155.34708-.70341.00088-1.38122-.26401-1.89765-.74159-.40635.32843-.77983.69554-1.11525 1.09615.36477.37686.61113.8523.70875 1.36761s.04215 1.04794-.15951 1.5321c-.21056.47683-.55241.88387-.9857 1.17361-.4333.28975-.94009.45024-1.46119.46268-.04856.52032-.05135 1.04393-.00833 1.56473.5209.01 1.02744.1721 1.45743.4663.42998.2942.76465.7077.96274 1.1896.19809.4818.25105 1.0111.1523 1.5226-.09876.5116-.34492.9831-.70814 1.3566.32882.3953.69084.7617 1.08202 1.0953.51891-.4798 1.19911-.7472 1.90588-.749.3426-.0026.68229.0636.99881.1947.48305.2035.89575.5441 1.18718.9798.29142.4356.44875.9472.45242 1.4713.51213.0479 1.02759.0479 1.53969 0 .0162-.5179.1809-1.0202.4746-1.4471.2936-.4269.7038-.7604 1.1817-.9607.3095-.1245.6402-.1878.9738-.1864.7063-.0022 1.3872.263 1.9059.7424.4036-.3315.7769-.6983 1.1153-1.0961-.3665-.3758-.6142-.8513-.7119-1.3671-.0977-.5157-.0411-1.0489.1626-1.5327.2057-.4809.5462-.8919.9804-1.1834.4342-.2916.9435-.4512 1.4665-.4595.0502-.5201.0502-1.0438 0-1.56389zm-8.27296 4.09736c-.66.0027-1.30595-.1906-1.856-.5554-.55005-.3647-.97941-.8846-1.23381-1.4936s-.32241-1.27977-.19527-1.92741.44365-1.24298.9094-1.71061c.46576-.46762 1.05983-.78648 1.70696-.91621.64712-.12973 1.31818-.06449 1.92828.18747.61.25196 1.1315.67928 1.4984 1.22787.367.54858.5629 1.19373.5629 1.85374.0013.88235-.3477 1.72925-.9704 2.35435-.6227.6252-1.4681.9776-2.35046.9798zm0-4.98708c-.32887.00164-.64987.10067-.92252.28457-.27264.18391-.48467.44445-.60938.74876-.12472.3043-.1565.63875-.09134.96105.06517.3224.22437.6182.4575.8502.23312.2319.52974.3896.85241.4532s.65689.0301.96059-.0961.5631-.3396.7456-.6132c.1826-.2735.28-.595.2801-.9239.0001-.21936-.0432-.43658-.1273-.63918-.0842-.20259-.2075-.38657-.363-.54134-.1554-.15477-.3399-.27728-.5429-.36049-.203-.08322-.4204-.12551-.63976-.12441z" fill="#001640" fill-rule="evenodd"/></svg>