<svg fill="none" height="115" viewBox="0 0 126 115" width="126" xmlns="http://www.w3.org/2000/svg"><rect fill="#eff4f7" height="90" rx="12" width="87" x="16" y="13"/><path clip-rule="evenodd" d="m0 16c0-8.83656 7.16344-16 16-16h71c8.8366 0 16 7.16344 16 16v71c0 8.8366-7.1634 16-16 16h-33.6373c-2.2091 0-4-1.791-4-4 0-2.2091 1.7909-4 4-4h33.6373c4.4183 0 8-3.5817 8-8v-71c0-4.4183-3.5817-8-8-8h-71c-4.4183 0-8 3.5817-8 8v71c0 4.4183 3.5817 8 8 8h12.201c2.2091 0 4 1.7909 4 4 0 2.209-1.7909 4-4 4h-12.201c-8.83656 0-16-7.1635-16-16z" fill="#001640" fill-rule="evenodd"/><path clip-rule="evenodd" d="m38.4832 77.9595-14.4542.0405-.029-14.4911 39.2495-38.8404c.5281-.5288 1.1552-.9485 1.8462-1.2348.6909-.2863 1.4317-.4337 2.1799-.4337.7481 0 1.4889.1474 2.1799.4337.6909.2863 1.3184.706 1.8464 1.2348l6.0253 6.0404c.5304.529.9512 1.157 1.2382 1.8483.2871.6913.4346 1.4322.4346 2.1805s-.1475 1.4892-.4346 2.1805c-.287.6912-.7078 1.3193-1.2382 1.8483zm-8.6899-5.7802h8.6899l-8.6899-8.6704zm37.4823-43.482-31.6891 31.9215 5.7933 5.7802 31.921-31.6613z" fill="#001640" fill-rule="evenodd"/><path d="m49 83c0-6.6274 5.3726-12 12-12h49c6.627 0 12 5.3726 12 12v16c0 6.627-5.373 12-12 12h-49c-6.6274 0-12-5.373-12-12z" fill="#fff"/><g fill="#6321b6"><path clip-rule="evenodd" d="m83 71c0-2.2091 1.7909-4 4-4h23c8.837 0 16 7.1634 16 16v16c0 8.837-7.163 16-16 16h-35c-2.2091 0-4-1.791-4-4s1.7909-4 4-4h35c4.418 0 8-3.582 8-8v-16c0-4.4183-3.582-8-8-8h-23c-2.2091 0-4-1.7909-4-4zm-34 6c2.2091 0 4 1.7909 4 4v18c0 4.418 3.5817 8 8 8 2.2091 0 4 1.791 4 4s-1.7909 4-4 4c-8.8366 0-16-7.163-16-16v-18c0-2.2091 1.7909-4 4-4z" fill-rule="evenodd"/><path d="m77 90.5c0 3.5899-2.9102 6.5-6.5 6.5s-6.5-2.9101-6.5-6.5 2.9102-6.5 6.5-6.5 6.5 2.9101 6.5 6.5z"/><path d="m102 90.5c0 3.5899-2.9102 6.5-6.5 6.5s-6.5-2.9101-6.5-6.5 2.9102-6.5 6.5-6.5 6.5 2.9101 6.5 6.5z"/></g></svg>