<svg fill="none" height="108" viewBox="0 0 143 108" width="143" xmlns="http://www.w3.org/2000/svg"><path d="m47.5 97v-52.5l43.5 30.5 52-37v59z" fill="#eff4f6"/><path d="m52.5 0c-2.2091 0-4 1.79086-4 4v16.5c0 2.2091 1.7909 4 4 4s4-1.7909 4-4v-12.5h66v22c0 1.7328 1.102 3.2082 2.643 3.7639l-35.1049 23.4033-12.2672-8.46c-1.8186-1.2542-4.3096-.7967-5.5638 1.0219s-.7966 4.3096 1.022 5.5638l14.5 10c1.3482.9298 3.127.9438 4.4897.0353l41.7812-27.8541v56.5259h-88v-56.5259l11.7812 7.8541c1.8381 1.2254 4.3216.7287 5.547-1.1094s.7287-4.3216-1.1094-5.547l-18-12c-1.2274-.8183-2.8056-.8946-4.1062-.1985-1.3007.6961-2.1126 2.0515-2.1126 3.5267v68c0 2.209 1.7909 4 4 4h96c2.209 0 4-1.791 4-4v-68c0-1.001-.368-1.9162-.975-2.6177-.026-.0295-.052-.0585-.078-.0872-.104-.1127-.214-.2195-.329-.3197-.024-.0209-.049-.0416-.074-.062-.66-.5451-1.499-.8823-2.415-.9114-.043-.0013-.086-.002-.129-.002h-7.5v-22c0-2.20914-1.791-4-4-4z" fill="#001640"/><path d="m0 59c0-6.6274 5.37258-12 12-12h37c6.6274 0 12 5.3726 12 12v37c0 6.627-5.3726 12-12 12h-37c-6.62742 0-12-5.373-12-12z" fill="#fff"/><g fill="#6321b6"><path d="m44.4778 70.8293c1.075-1.8585.437-4.235-1.4248-5.308-1.8618-1.0731-4.2424-.4363-5.3174 1.4223l-8.2002 13.9974-6.8903-6.8783c-1.5202-1.5175-3.9848-1.5175-5.505 0-1.5201 1.5175-1.5202 3.9779 0 5.4954l10.3219 10.3038c1.5202 1.5175 3.9848 1.5175 5.505 0 .1973-.197.369-.4099.5151-.6345.3009-.2683.5649-.5884.7777-.9563z"/><path clip-rule="evenodd" d="m0 59c0-6.6274 5.37258-12 12-12h37c6.6274 0 12 5.3726 12 12v37c0 6.627-5.3726 12-12 12h-37c-6.62742 0-12-5.373-12-12zm12-3h37c1.6569 0 3 1.3431 3 3v37c0 1.6569-1.3431 3-3 3h-37c-1.6569 0-3-1.3431-3-3v-37c0-1.6569 1.3431-3 3-3z" fill-rule="evenodd"/></g></svg>