<svg enable-background="new 0 0 512 512" viewBox="0 0 512 512" xmlns="http://www.w3.org/2000/svg"><g fill="#999" transform="translate(1 1)"><path d="m211.3 389.2-60.3 60.3c-25 25-65.5 25-90.5 0s-25-65.5 0-90.5l120.7-120.7c25-25 65.5-25 90.5 0 8.3 8.3 21.8 8.3 30.2 0 8.3-8.3 8.3-21.8 0-30.2-41.7-41.7-109.2-41.7-150.8 0l-120.9 120.8c-41.7 41.7-41.7 109.2 0 150.8 41.6 41.7 109.2 41.7 150.9 0l60.3-60.3c8.3-8.3 8.3-21.8 0-30.2s-21.8-8.3-30.1 0z"/><path d="m479.8 30.2c-41.7-41.7-109.2-41.7-150.9 0l-72.4 72.4c-8.3 8.3-8.3 21.8 0 30.2 8.3 8.3 21.8 8.3 30.2 0l72.4-72.4c25-25 65.5-25 90.5 0s25 65.5 0 90.5l-132.8 132.7c-25 25-65.5 25-90.5 0-8.3-8.3-21.8-8.3-30.2 0s-8.3 21.8 0 30.2c41.7 41.7 109.2 41.7 150.8 0l132.7-132.7c41.8-41.7 41.8-109.2.2-150.9z"/></g></svg>