<svg fill="none" height="116" viewBox="0 0 108 116" width="108" xmlns="http://www.w3.org/2000/svg"><path d="m91.0282 52.0709c8.1242 4.5942 8.1242 16.297 0 20.8911l-73.1214 41.349c-7.99956 4.524-17.90686558-1.255-17.90686518-10.445l.00000362-82.6987c.0000004-9.19 9.90730156-14.9692 17.90686156-10.4456z" fill="#eff4f7"/><path clip-rule="evenodd" d="m99.0865 40.6318c11.2225 6.3062 11.2225 22.4631 0 28.7693l-68.5036 38.4929c-10.9989 6.18-24.5828-1.769-24.5828-14.3851v-10.8604c0-2.4853 2.01472-4.5 4.5-4.5 2.4853 0 4.5 2.0147 4.5 4.5v10.8604c0 5.7347 6.1745 9.3481 11.174 6.5381l68.5036-38.4921c5.1013-2.8664 5.1013-10.2104 0-13.0769l-68.5036-38.49249c-4.9995-2.80923-11.174.80379-11.174 6.53849v19.9123c0 2.4853-2.0147 4.5-4.5 4.5-2.48528 0-4.49999-2.0147-4.49999-4.5v-19.9123c0-12.61633 13.58389-20.56499 24.58279-14.38466z" fill="#001640" fill-rule="evenodd"/><circle cx="11" cy="52.5165" fill="#001640" r="5.5"/><rect fill="#001640" height="23" rx="5.5" width="11" x="5.5" y="47.0165"/><path d="m97.5 80.5165c0 18.5015-14.9985 33.4995-33.5 33.4995s-33.5-14.998-33.5-33.4995c0-18.5016 14.9985-33.5 33.5-33.5s33.5 14.9984 33.5 33.5z" fill="#fff"/><g fill="#6321b6"><path d="m63.5 65.0165c2.2091 0 4 1.7908 4 4v21.7128c0 2.2091-1.7909 4-4 4s-4-1.7909-4-4v-21.7128c0-2.2092 1.7909-4 4-4z"/><path d="m80.5 79.0165c0-2.2092-1.7909-4-4-4s-4 1.7908-4 4v11.7128c0 2.2091 1.7909 4 4 4s4-1.7909 4-4z"/><path d="m54.5 89.0165c0-2.2092-1.7909-4-4-4s-4 1.7908-4 4v1.7128c0 2.2091 1.7909 4 4 4s4-1.7909 4-4z"/><path clip-rule="evenodd" d="m64 114.016c18.5015 0 33.5-14.998 33.5-33.4995 0-18.5016-14.9985-33.5-33.5-33.5s-33.5 14.9984-33.5 33.5c0 18.5015 14.9985 33.4995 33.5 33.4995zm0-8c14.0833 0 25.5-11.4163 25.5-25.4995 0-14.0833-11.4167-25.5-25.5-25.5s-25.5 11.4167-25.5 25.5c0 14.0832 11.4167 25.4995 25.5 25.4995z" fill-rule="evenodd"/></g></svg>