<svg fill="none" height="24" viewBox="0 0 24 24" width="24" xmlns="http://www.w3.org/2000/svg"><path clip-rule="evenodd" d="m12 24c-2.37338 0-4.69349-.7038-6.66688-2.0224s-3.51142-3.1927-4.419675-5.3854c-.90825123-2.1927-1.145884-4.6055-.682861-6.9333.463023-2.32777 1.605886-4.46597 3.284116-6.1442s3.81646-2.821093 6.14423-3.284116 4.74057-.22539023 6.93327.682861c2.1927.908255 4.0669 2.446315 5.3855 4.419705 1.3185 1.97339 2.0223 4.29347 2.0223 6.66685 0 3.1826-1.2643 6.2348-3.5147 8.4853-2.2505 2.2504-5.3027 3.5147-8.4853 3.5147zm0-22.00001c-1.9778 0-3.91124.58649-5.55573 1.68531-1.64449 1.09881-2.92617 2.66059-3.68305 4.48785-.75687 1.82725-.95494 3.83795-.56909 5.77775s1.33829 3.7216 2.73682 5.1202c1.39852 1.3985 3.18031 2.3509 5.12015 2.7368 1.9398.3858 3.9505.1878 5.7777-.5691 1.8273-.7569 3.3891-2.0386 4.4879-3.6831s1.6853-3.5779 1.6853-5.5557c0-2.65217-1.0536-5.19572-2.929-7.07108-1.8753-1.87537-4.4188-2.92893-7.071-2.92893zm0 16.00001c-.264-.0019-.5166-.108-.7026-.2954-.186-.1873-.2904-.4406-.2904-.7046v-5.99c-.0042-.133.0183-.2655.0663-.3896s.1204-.2373.213-.3328c.0926-.0956.2034-.1716.3259-.2235.1226-.0519.2543-.0786.3873-.0786.1331 0 .2648.0267.3873.0786s.2333.1279.3259.2235c.0926.0955.165.2087.213.3328s.0705.2566.0663.3896v5.99c.0008.1309-.0243.2606-.0737.3818-.0495.1211-.1225.2313-.2146.3242-.0922.0929-.2018.1667-.3225.2172-.1208.0504-.2503.0765-.3812.0768zm0-10.00001c-.1962.0002-.3881-.0578-.5514-.16668-.1633-.10889-.2905-.26376-.3658-.44501-.0752-.18125-.095-.38072-.0569-.57321.0382-.1925.1326-.36935.2713-.50818s.3155-.23343.5079-.27179c.1925-.03836.392-.01875.5733.0563.1813.07506.3363.20217.4453.36533.1091.16315.1673.355.1673.55124-.0005.26276-.1051.51464-.2908.70053s-.4374.29068-.7002.29147zm-.993-1c.0001.00167.0001.00334 0 .00501zm1.985 0v.01001c-.0001-.00166-.0001-.00334 0-.005z" fill="#001640" fill-rule="evenodd"/></svg>