<svg viewBox="0 0 362.11 54.94" xmlns="http://www.w3.org/2000/svg"><g fill="#001640"><path d="m0 54.35v-52.12h21.07a32.81 32.81 0 0 1 10.24 1.42 15 15 0 0 1 6.55 3.91 15.72 15.72 0 0 1 3.28 5.32 18.81 18.81 0 0 1 1 6.33 16.39 16.39 0 0 1 -2.75 9.23 15.61 15.61 0 0 1 -7.44 6l14.51 19.91h-13.93l-12.73-17.8h-8.26v17.8zm11.54-41.35v12.76h9.75a10.84 10.84 0 0 0 6.55-1.76 5.67 5.67 0 0 0 2.31-4.84 5.45 5.45 0 0 0 -2-4.62q-2.09-1.54-7.3-1.54z"/><path d="m82.27 47.2q-6.18 7.74-16.68 7.74-9.45 0-15.19-5.47t-5.73-14.55q0-8.78 5.29-14.44t14.81-5.66a18.55 18.55 0 0 1 13.23 4.91q5.21 4.91 5.21 12.88a43 43 0 0 1 -.6 6.25h-26.61q1.49 6 9.75 6a14.94 14.94 0 0 0 5.66-1.12 10.73 10.73 0 0 0 4.39-3.13zm-26.06-17.64h15.86q-1.34-5.06-7.67-5.06t-8.19 5.06z"/><path d="m107.43 54.35h-8.19l-17.79-38.72h12.13l9.9 22.37 9.46-22.33h11.46z"/><path d="m127.6 1.53a6.36 6.36 0 0 1 4.4-1.53 6.25 6.25 0 0 1 4.32 1.53 4.92 4.92 0 0 1 1.68 3.83 5.11 5.11 0 0 1 -1.71 3.95 6.16 6.16 0 0 1 -4.29 1.56 6.29 6.29 0 0 1 -4.47-1.53 5.19 5.19 0 0 1 -1.64-4 4.92 4.92 0 0 1 1.71-3.81zm-1 14.11h10.79v38.71h-10.83z"/><path d="m180.46 47.2q-6.18 7.74-16.68 7.74-9.46 0-15.19-5.47t-5.73-14.55q0-8.78 5.29-14.44t14.85-5.66a18.55 18.55 0 0 1 13.25 4.91q5.21 4.91 5.21 12.88a43 43 0 0 1 -.6 6.25h-26.68q1.49 6 9.75 6a14.94 14.94 0 0 0 5.66-1.12 10.74 10.74 0 0 0 4.41-3.09zm-26.06-17.64h15.86q-1.34-5.06-7.67-5.06t-8.19 5.06z"/><path d="m227.21 54.35h-8.56l-7.74-21-7.82 21h-8.49l-12.8-38.72h11.2l6.52 20.37 7.48-20.37h8l7.52 20.37 6.18-20.32h10.94z"/><path d="m277.39 47.2q-6.18 7.74-16.68 7.74-9.46 0-15.19-5.47t-5.72-14.55q0-8.78 5.29-14.44t14.82-5.66a18.55 18.55 0 0 1 13.25 4.91q5.21 4.91 5.21 12.88a43 43 0 0 1 -.6 6.25h-26.66q1.49 6 9.75 6a14.94 14.94 0 0 0 5.66-1.12 10.74 10.74 0 0 0 4.39-3.13zm-26.05-17.64h15.86q-1.34-5.06-7.67-5.06t-8.19 5.06z"/><path d="m318.94 47.2q-6.18 7.74-16.68 7.74-9.46 0-15.19-5.47t-5.73-14.55q0-8.78 5.29-14.44t14.82-5.66a18.55 18.55 0 0 1 13.25 4.91q5.21 4.91 5.21 12.88a43 43 0 0 1 -.6 6.25h-26.66q1.49 6 9.75 6a14.94 14.94 0 0 0 5.66-1.12 10.74 10.74 0 0 0 4.39-3.13zm-26.06-17.64h15.86q-1.34-5.06-7.67-5.06t-8.19 5.06z"/><path d="m324.74 0h10.79v28.74l12.21-13.1h13.85l-16.59 16.89 17.12 21.81h-13.7l-11.54-14.59-1.34.89v13.7h-10.8z"/></g></svg>