<svg fill="none" height="17" viewBox="0 0 17 17" width="17" xmlns="http://www.w3.org/2000/svg"><path d="m13.7181 10.9443c-.4922.5678-1.1486 1.0093-1.9362 1.3247-.8205.3154-1.641.4731-2.49426.4731-2.42857 0-3.87258-.8516-4.29922-2.5547h11.74908c.164-1.07237.2625-1.95549.2625-2.64937 0-2.23933-.7876-4.06864-2.2973-5.4564-1.5425-1.387752-3.4788-2.08163-5.8417-2.08163-2.82239 0-4.98841.820033-6.53088 2.39703-1.575294 1.60853-2.33012 3.65863-2.33012 6.11874 0 2.58623.820463 4.63633 2.52703 6.18183 1.67374 1.5454 3.9054 2.3024 6.69498 2.3024 3.08489 0 5.51349-1.0724 7.35139-3.2801zm-5.02119-6.84411c1.83779 0 2.98649.72541 3.38029 2.14471h-6.99033c.59074-1.4193 1.7722-2.14471 3.61004-2.14471z" fill="#001640"/></svg>