<svg fill="none" height="26" viewBox="0 0 43 26" width="43" xmlns="http://www.w3.org/2000/svg"><g fill="#fff"><path d="m20.1677 16.6245c-.6926.8428-1.616 1.4982-2.7241 1.9664-1.1542.4682-2.3085.7023-3.5089.7023-3.4165 0-5.44802-1.2641-6.04822-3.7923h16.52882c.2308-1.5919.3694-2.9028.3694-3.9328 0-3.32419-1.1081-6.03969-3.2319-8.09973-2.17-2.06003-4.894-3.090051-8.2183-3.090051-3.97059 0-7.0178 1.217291-9.18779 3.558241-2.21615 2.38777-3.278058 5.431-3.278058 9.08284 0 3.8392 1.154248 6.8824 3.555078 9.1766 2.35467 2.2941 5.49422 3.4178 9.41867 3.4178 4.34 0 7.7565-1.5919 10.3421-4.8692zm-7.064-10.15971c2.5855 0 4.2014 1.07683 4.7555 3.18369h-9.83421c.83105-2.10686 2.49321-3.18369 5.07871-3.18369z"/><path d="m27.7324 25.2392h6.6946v-15.73118c.4617-1.68548 1.3851-2.52823 2.8164-2.52823 1.108 0 1.8006.32774 2.1699.98321l3.4166-5.43101c-.6002-.74911-1.2466-1.26411-1.893-1.591844-.6925-.327731-1.6159-.51501-2.8163-.51501-.7387 0-1.4775.187272-2.2162.468185-.7387.280919-1.2004.608649-1.4774.983199v-.983199h-6.6946z"/></g></svg>