<svg clip-rule="evenodd" fill-rule="evenodd" height="41.6904mm" image-rendering="optimizeQuality" shape-rendering="geometricPrecision" text-rendering="geometricPrecision" viewBox="0 0 20598 4279" width="200.704mm" xmlns="http://www.w3.org/2000/svg"><path d="m505 2552h754c-18 89-71 161-161 213-89 54-199 80-330 80-237 0-409-62-519-185l-249 175c169 199 421 296 759 296 276 0 493-65 650-199 157-133 237-306 237-517 0-213-77-386-235-513-155-127-368-189-634-189-258 0-576 63-756 264l249 199c62-62 137-107 229-133 89-26 179-42 267-42 127 0 235 24 320 71 86 48 143 110 169 193h-750v288-2zm1157-534h546v1098h376v-1098h549v-288h-1469v288zm1483 406c0 205 86 374 255 511s376 205 623 205c246 0 451-68 623-205 169-137 255-308 255-511 0-205-86-374-255-511s-376-205-623-205c-246 0-454 68-623 207s-255 308-255 507v1zm392 0c0-125 48-225 143-302s211-115 344-115c131 0 243 38 338 115 98 77 145 179 145 302 0 125-48 225-139 302-92 77-207 115-344 115-133 0-249-38-344-115s-143-179-143-302zm2569 692v-436h330c249 0 430-44 549-137 115-92 175-205 175-336 0-62-12-119-32-173s-60-104-110-151c-50-48-127-86-225-113-98-26-217-42-356-42h-706v1386h376l-1 1zm338-1098c213 0 320 62 320 187s-113 187-336 187h-324v-376h338v2h1zm593 1098h388l139-258h712l139 258h394l-748-1386h-279l-748 1386h1zm884-929 219 412h-442zm1682 955c211 0 374-44 505-125 127-80 193-193 193-332 0-157-77-261-231-312 115-56 175-143 175-264 0-127-56-225-169-296s-276-107-487-107c-332 0-581 92-748 279l290 161c110-101 255-151 433-151 80 0 149 12 211 32 60 24 89 60 89 110 0 38-26 71-83 95-56 24-133 36-231 36h-252v288h267c237 0 356 50 356 149 0 101-110 151-330 151-229 0-398-62-513-187l-300 163c173 207 445 312 821 312h2 1zm952-26h742c273 0 664-64 664-412 0-157-74-267-223-324 110-77 167-179 167-296 0-237-195-354-590-354h-762v1386zm724-567c107 0 181 12 223 32 44 20 65 56 65 107 0 50-24 89-71 110-48 20-127 32-237 32h-326v-282h348l-1 1zm-24-531c98 0 167 12 205 32s56 56 56 104c0 36-20 65-60 86-38 20-95 30-169 30h-354v-252h320l1 1zm890 406c0 205 86 374 255 511s376 205 623 205c246 0 451-68 623-205 169-137 255-308 255-511 0-205-86-374-255-511s-376-205-623-205c-246 0-454 68-623 207s-255 308-255 507v1zm392 0c0-125 48-225 143-302s211-115 344-115c131 0 243 38 338 115 98 77 145 179 145 302 0 125-48 225-139 302-92 77-207 115-344 115-133 0-249-38-344-115s-143-179-143-302zm1368 923h354v-231h1092v231h354v-519h-195v-1098h-1240v167c0 418-60 730-179 932h-185v519-1zm724-1328h501v809h-650c89-167 137-409 145-733l2-77 1 1zm1686-840c0 651-76 1243 181 1843 206 484 1068 1333 1468 1253 332-64 857-538 1051-798 544-727 470-1330 470-2215 0-344-305-439-567-536-626-225-1373-229-2012-17-194 64-592 229-592 465v2 1zm773 573h484c11-202 146-332 352-332 202 0 340 124 340 293s-70 256-301 394c-248 144-346 307-324 586l2 105h476v-95c0-175 64-262 305-400 254-149 383-336 383-606 0-408-338-693-851-693-550 0-862 307-870 750h2v-1zm804 1902c163 0 293-124 293-282s-130-282-293-282c-161 0-293 124-293 282s130 282 293 282zm1567-3534h183v454h127v-454h183v-118h-493v118h-1zm552 454h127v-344l152 231h33l149-229v340h127v-569h-113l-175 274-183-274h-118v569 1z" fill="#001640"/></svg>