<svg fill="none" height="17" viewBox="0 0 104 17" width="104" xmlns="http://www.w3.org/2000/svg"><g fill="#001640"><path d="m9.42821 12.5357c-.33833.4132-.78944.7347-1.33078.9643-.56388.2295-1.12777.3443-1.71422.3443-1.6691 0-2.66155-.6199-2.95477-1.8596h8.07486c.1128-.7807.1805-1.4235.1805-1.9286 0-1.63011-.5414-2.96173-1.5789-3.97193-1.06013-1.0102-2.39091-1.51531-4.01491-1.51531-1.93977 0-3.42844.59694-4.48855 1.74489-1.082663 1.17092-1.60144 2.66326-1.60144 4.45405 0 1.8827.563888 3.375 1.73678 4.5 1.15033 1.125 2.6841 1.676 4.60132 1.676 2.12022 0 3.7893-.7806 5.0524-2.3877zm-3.451-4.98215c1.26311 0 2.05256.52806 2.32322 1.56122h-4.80432c.406-1.03316 1.218-1.56122 2.4811-1.56122z"/><path d="m12.239 7.92089h2.233v4.86731c0 1.3546.3609 2.3878 1.1278 3.0765.7443.6888 1.7593 1.0332 3.0224 1.0332 1.4887 0 2.7292-.5051 3.6766-1.5153l-1.3534-2.3648c-.6541.5281-1.3307.7806-2.0074.7806-.4511 0-.7443-.1377-.9248-.4592-.1804-.2984-.2706-.8035-.2706-1.5382v-3.88011h3.5863v-3.09948h-3.5863v-2.77805h-3.2706v2.77805h-2.233z"/><path d="m22.159 10.7678c0 1.7908.5865 3.2832 1.8045 4.4311 1.1954 1.1709 2.7066 1.7449 4.5336 1.7449 1.8496 0 3.3834-.574 4.5788-1.7449 1.1955-1.1479 1.8045-2.6403 1.8045-4.4311 0-1.79079-.609-3.28313-1.8045-4.45405-1.1954-1.14795-2.7292-1.74489-4.5788-1.74489-1.8721 0-3.4058.59694-4.5787 1.74489-1.1729 1.17092-1.7594 2.66326-1.7594 4.45405zm3.3834 0c0-.96426.2706-1.72191.8345-2.27293.5414-.55102 1.2631-.82653 2.1202-.82653.8572 0 1.5564.29847 2.1428.84949.5639.55102.8571 1.30867.8571 2.24997 0 .9643-.2932 1.699-.8345 2.25-.5414.551-1.2631.8265-2.1654.8265-.8796 0-1.6014-.2755-2.1427-.8724-.5414-.574-.812-1.3087-.812-2.2041z"/><path d="m36.3355 16.7601h3.2706v-7.71421c.2255-.82653.6767-1.23979 1.3759-1.23979.5413 0 .8796.16071 1.0601.48214l1.6691-2.66326c-.2932-.36735-.609-.61989-.9248-.78061-.3383-.16071-.7894-.25255-1.3759-.25255-.3609 0-.7217.09184-1.0826.22959-.3609.13776-.5865.29847-.7218.48214v-.48214h-3.2706z"/><path d="m45.5588 8.8163c.609-.43622 1.1503-.73469 1.6015-.89541.4511-.16071 1.015-.25255 1.6465-.25255.6316 0 1.1278.13776 1.4436.41326.3157.27551.4511.68878.4511 1.28572-.5414-.18367-1.2631-.29847-2.1202-.29847-1.5338 0-2.7969.34439-3.8119.98725-1.015.6658-1.5112 1.653-1.5112 2.9388 0 1.1938.3834 2.1352 1.1728 2.8469.7669.7117 1.8045 1.0561 3.1127 1.0561.6767 0 1.2857-.1148 1.8721-.3673.5865-.2296 1.015-.5281 1.2857-.8495v1.079h3.2705v-7.23207c0-1.56122-.4285-2.77805-1.2631-3.6505-.8571-.87244-2.03-1.30867-3.5412-1.30867-2.3007 0-4.0149.6199-5.1652 1.83673zm2.6616 5.2117c-.4963 0-.9023-.0918-1.1729-.2755-.2707-.1837-.406-.4362-.406-.7576 0-.7807.7443-1.171 2.2781-1.171.6541 0 1.2405.1148 1.7819.2985v.551c-.203.3903-.5414.7118-.9925.9643-.4511.2755-.9473.3903-1.4886.3903z"/><path d="m55.7139 7.92089h5.481l-5.8193 6.68111v2.1581h10.5785v-3.0994h-5.7291l5.8419-6.70409v-2.1352h-10.353z"/><path d="m79.2256 4.82141h-3.4736l-2.8645 6.88769-2.9999-6.88769h-3.6766l5.3908 11.93869h2.4811z"/><path d="m78.636 10.7678c0 1.7908.5864 3.2832 1.8044 4.4311 1.1954 1.1709 2.7067 1.7449 4.5337 1.7449 1.8495 0 3.3833-.574 4.5787-1.7449 1.1955-1.1479 1.8045-2.6403 1.8045-4.4311 0-1.79079-.609-3.28313-1.8045-4.45405-1.1954-1.14795-2.7292-1.74489-4.5787-1.74489-1.8721 0-3.4059.59694-4.5788 1.74489-1.1729 1.17092-1.7593 2.66326-1.7593 4.45405zm3.3833 0c0-.96426.2707-1.72191.8345-2.27293.5414-.55102 1.2632-.82653 2.1203-.82653s1.5563.29847 2.1427.84949c.5639.55102.8572 1.30867.8572 2.24997 0 .9643-.2933 1.699-.8346 2.25s-1.2631.8265-2.1653.8265c-.8797 0-1.6015-.2755-2.1428-.8724-.5413-.574-.812-1.3087-.812-2.2041z"/><path d="m100.729 16.7601h3.271v-16.7601h-3.271v5.14284c-.586-.36734-1.5108-.57398-2.7513-.57398-1.6015 0-2.9548.59694-4.06 1.76786-1.1278 1.19387-1.6691 2.68621-1.6691 4.47698 0 1.9516.4962 3.4669 1.5112 4.523 1.015 1.0791 2.3458 1.6071 4.0149 1.6071.6766 0 1.2856-.1148 1.8044-.3444.4959-.2296.8799-.4821 1.1499-.7806zm-2.2551-2.9158c-.8571 0-1.5338-.2755-2.0526-.8265-.5413-.551-.7894-1.2857-.7894-2.25 0-.96426.2707-1.72191.8571-2.27293s1.3082-.82653 2.1879-.82653 1.5561.32143 2.0521.91837v3.85709c-.18.4133-.496.7577-.9243 1.0102-.4511.2755-.8797.3903-1.3308.3903z"/></g></svg>