<svg fill="none" height="20" viewBox="0 0 15 20" width="15" xmlns="http://www.w3.org/2000/svg"><path clip-rule="evenodd" d="m8.33333 17.5v1.6667c0 .221-.08781.4329-.24409.5892s-.36823.2441-.58924.2441-.43296-.0878-.58924-.2441-.24409-.3682-.24409-.5892v-1.6667c-1.76811 0-3.46381-.7024-4.71405-1.9526-1.250246-1.2503-1.95262-2.946-1.95262-4.7141h1.66667c0 3.2217 2.61166 5 5.83333 5 3.2217 0 5.8333-1.7783 5.8333-5h1.6667c0 1.7681-.7024 3.4638-1.9526 4.7141-1.2503 1.2502-2.946 1.9526-4.71407 1.9526zm-.83333-3.3333c-.88406 0-1.7319-.3512-2.35703-.9763-.62512-.6252-.9763-1.473-.9763-2.3571v-7.49997c0-.88405.35118-1.7319.9763-2.357022.62513-.625121 1.47297-.976308 2.35703-.976308s1.7319.351187 2.35703.976308c.62507.625122.97627 1.472972.97627 2.357022v7.49997c0 .8841-.3512 1.7319-.97627 2.3571-.62513.6251-1.47297.9763-2.35703.9763zm1.66667-10.83337c0-.44202-.17562-.86595-.48818-1.17851s-.73646-.48815-1.17849-.48815-.86593.17559-1.17849.48815-.48818.73649-.48818 1.17851v7.49997c0 .4421.17562.866.48818 1.1785.31256.3126.73646.4882 1.17849.4882s.86593-.1756 1.17849-.4882c.31256-.3125.48818-.7364.48818-1.1785z" fill="#001640" fill-rule="evenodd"/></svg>