<svg fill="none" height="20" viewBox="0 0 24 20" width="24" xmlns="http://www.w3.org/2000/svg" xmlns:xlink="http://www.w3.org/1999/xlink"><clipPath id="a"><path d="m0 0h24v20h-24z"/></clipPath><g clip-path="url(#a)"><path clip-rule="evenodd" d="m22 12c0-2.65216-1.0536-5.19571-2.929-7.07108-1.8753-1.87536-4.4188-2.92892-7.071-2.92892-2.65216 0-5.19568 1.05356-7.07104 2.92892-1.87537 1.87537-2.92896 4.41892-2.92896 7.07108h-2c0-3.1826 1.26427-6.23484 3.51471-8.48528 2.25044-2.25043 5.30269-3.51472 8.48529-3.51472s6.2349 1.26429 8.4853 3.51472c2.2504 2.25044 3.5147 5.30268 3.5147 8.48528zm-10.97.133c-.0149-.0431-.025-.0877-.03-.133v-6c0-.26522.1054-.51957.2929-.70711.1875-.18753.4419-.29289.7071-.29289s.5196.10536.7071.29289c.1875.18754.2929.44189.2929.70711v6c-.005.0453-.0151.0899-.03.133.9471.2367 1.775.8117 2.3275 1.6165.5526.8047.7918 1.7838.6725 2.7528-.1192.9689-.5887 1.8608-1.32 2.5075-.7312.6468-1.6738 1.0038-2.65 1.0038s-1.9188-.357-2.65002-1.0038c-.73126-.6467-1.20075-1.5386-1.32001-2.5075-.11926-.969.1199-1.9481.67248-2.7528.55259-.8048 1.38045-1.3798 2.32755-1.6165zm.97 5.867c.3956 0 .7822-.1173 1.1111-.3371.3289-.2197.5853-.5321.7367-.8975.1514-.3655.1909-.7676.1137-1.1556-.0771-.3879-.2676-.7443-.5473-1.024s-.636-.4702-1.024-.5474c-.388-.0771-.7901-.0375-1.1556.1138-.3654.1514-.6778.4078-.8976.7367-.2197.3289-.337.7155-.337 1.1111 0 .5304.2107 1.0391.5858 1.4142s.8838.5858 1.4142.5858z" fill="#6321b6" fill-rule="evenodd"/></g></svg>