<svg enable-background="new 0 0 512 512" viewBox="0 0 512 512" xmlns="http://www.w3.org/2000/svg"><path d="m466.896 87.859-85.512-85.512c-1.502-1.503-3.542-2.347-5.668-2.347h-256.534c-13.851 0-25.119 11.268-25.119 25.119v291.273h-26.188c-13.851 0-25.119 11.268-25.119 25.119v85.511c0 13.851 11.268 25.119 25.119 25.119h26.188v34.739c0 13.851 11.268 25.119 25.119 25.119h324.944c13.851 0 25.119-11.268 25.119-25.119v-393.352c-.001-2.127-.845-4.165-2.349-5.669zm-83.163-60.489 58.141 58.141h-49.056c-5.01 0-9.086-4.076-9.086-9.086v-49.055zm-315.858 408.739c-5.01 0-9.086-4.076-9.086-9.086v-85.511c0-5.01 4.076-9.086 9.086-9.086h230.881c5.01 0 9.086 4.076 9.086 9.086v85.511c0 5.01-4.076 9.086-9.086 9.086zm385.336 50.772c0 5.01-4.076 9.086-9.086 9.086h-324.943c-5.01 0-9.086-4.076-9.086-9.086v-34.739h188.66c13.851 0 25.119-11.268 25.119-25.119v-85.511c0-13.851-11.268-25.119-25.119-25.119h-188.66v-291.274c0-5.01 4.076-9.086 9.086-9.086h248.518v60.393c0 13.851 11.268 25.119 25.119 25.119h60.393v385.336z"/><path d="m119.182 350.597h-34.205c-4.427 0-8.017 3.589-8.017 8.017v51.307c0 4.427 3.589 8.017 8.017 8.017s8.017-3.589 8.017-8.017v-9.086h26.188c13.851 0 25.119-11.268 25.119-25.119s-11.269-25.119-25.119-25.119zm0 34.205h-26.188v-18.172h26.188c5.01 0 9.086 4.076 9.086 9.086-.001 5.01-4.076 9.086-9.086 9.086z"/><path d="m187.591 350.597h-25.653c-4.427 0-8.017 3.589-8.017 8.017v51.307c0 4.427 3.589 8.017 8.017 8.017h25.653c18.566 0 33.67-15.105 33.67-33.67 0-18.566-15.105-33.671-33.67-33.671zm0 51.307h-17.637v-35.274h17.637c9.725 0 17.637 7.912 17.637 17.637s-7.912 17.637-17.637 17.637z"/><path d="m281.653 350.597h-42.756c-4.427 0-8.017 3.589-8.017 8.017v51.307c0 4.427 3.589 8.017 8.017 8.017s8.017-3.589 8.017-8.017v-17.637h17.637c4.427 0 8.017-3.589 8.017-8.017 0-4.427-3.589-8.017-8.017-8.017h-17.637v-9.62h34.739c4.427 0 8.017-3.589 8.017-8.017s-3.589-8.016-8.017-8.016z"/><path d="m281.653 94.063c-51.572 0-93.528 41.956-93.528 93.528s41.956 93.528 93.528 93.528 93.528-41.956 93.528-93.528-41.956-93.528-93.528-93.528zm0 171.023c-42.731 0-77.495-34.764-77.495-77.495s34.764-77.495 77.495-77.495 77.495 34.764 77.495 77.495-34.763 77.495-77.495 77.495z"/><path d="m281.739 136.818h-.086c-4.427 0-7.974 3.589-7.974 8.017s3.632 8.017 8.059 8.017 8.017-3.589 8.017-8.017-3.589-8.017-8.016-8.017z"/><path d="m290.205 222.33h-.534v-43.825h.534c4.427 0 8.017-3.589 8.017-8.017s-3.589-8.017-8.017-8.017h-17.102c-4.427 0-8.017 3.589-8.017 8.017s3.589 8.017 8.017 8.017h.534v43.825h-.534c-4.427 0-8.017 3.589-8.017 8.017s3.589 8.017 8.017 8.017h17.102c4.427 0 8.017-3.589 8.017-8.017s-3.59-8.017-8.017-8.017z"/></svg>