<svg enable-background="new 0 0 21 20" viewBox="0 0 21 20" xmlns="http://www.w3.org/2000/svg"><path d="m16.8 5.7h-2.1c-.8 0-1.6.5-2 1.2l-1.2 2.4c-.3.6-.3 1.4 0 2l1.2 2.4c.4.7 1.1 1.2 2 1.2h2.1c.8 0 1.6-.5 2-1.2l1.2-2.4c.3-.6.3-1.4 0-2l-1.2-2.4c-.4-.7-1.2-1.2-2-1.2z" fill="#6321b6" stroke="#6321b6" stroke-miterlimit="10"/><path d="m15.5 14.9h-13.4c-.8 0-1.4-.6-1.4-1.4v-6.4c0-.8.6-1.4 1.4-1.4h13.4c.8 0 1.4.6 1.4 1.4v6.4c0 .7-.6 1.4-1.4 1.4z" fill="#6321b6" stroke="#6321b6" stroke-miterlimit="10"/><text fill="#fff" font-family="'Stem-Medium'" font-size="6.266" transform="matrix(.9041 0 0 1 4.228 12.459)">PRO</text></svg>