<svg fill="none" height="14" viewBox="0 0 19 14" width="19" xmlns="http://www.w3.org/2000/svg"><path clip-rule="evenodd" d="m17.4167 14h-15.83337c-.41992 0-.822627-.1639-1.119559-.4556-.296933-.2917-.463771-.6874-.463771-1.1v-10.88884c0-.41256.166838-.808226.463771-1.09995.296932-.291723.699639-.45561 1.119559-.45561h15.83337c.4199 0 .8226.163887 1.1195.45561.297.291724.4638.68739.4638 1.09995v10.88884c0 .4126-.1668.8083-.4638 1.1-.2969.2917-.6996.4556-1.1195.4556zm-13.1496-12.44444 5.2329 5.14033 5.2329-5.14033zm13.1496 0h-.4829l-6.8084 6.68888c-.0176.03181-.0389.06155-.0633.08867-.15136.14224-.35268.22163-.5621.22163s-.41074-.07939-.56205-.22163c-.02444-.02712-.04575-.05686-.0634-.08867l-6.80831-6.68888h-.48291v10.88884h15.83337z" fill="#999" fill-rule="evenodd"/></svg>