<svg fill="none" height="18" viewBox="0 0 20 18" width="20" xmlns="http://www.w3.org/2000/svg"><path d="m16.1006 17.9448c-.1563 0-.3114-.0463-.4445-.1365l-5.0288-3.4112-2.69718 1.9408c-.21154.1521-.48419.1904-.72982.1026-.24531-.088-.43161-.2912-.49811-.5432l-1.35429-5.1323-4.838996-1.85033c-.304635-.11653-.50666891-.40797-.50888558-.73414s.19580658-.62035.49896258-.741l18.399619-7.32136c.0835-.0354669.1719-.0559448.261-.0614337.0319-.0019.0638-.0018999.0956-.0001055.1845.0109778.3658.0861332.5072.2248342.0147.014356.0286.029028.0418.044333.1172.133845.1816.297035.1937.463285.003.041801.0028.084128-.0009.126456-.0026.030189-.0069.060273-.013.090141l-3.1058 16.29562c-.0499.2618-.2281.4809-.4743.583-.0976.0405-.2007.0605-.3033.0605zm-5.0318-5.1614 4.4795 3.0384 2.4166-12.67977-8.7281 8.39867 1.8109 1.2285c.0073.0045.0143.0093.0211.0142zm-3.72895-.6757.59977 2.2727 1.29221-.9299-1.69206-1.1478c-.07864-.0532-.14598-.1195-.19992-.195zm-4.36991-3.94733 3.32269 1.27037c.23803.09099.41768.29112.48271.53749l.42138 1.59697c.01931-.1842.10281-.3575.23845-.4881l8.31663-8.00263z" fill="#999"/></svg>