<svg fill="none" height="14" viewBox="0 0 20 14" width="20" xmlns="http://www.w3.org/2000/svg"><path clip-rule="evenodd" d="m18.3333 11.6667-4.1666-1.6667v1.6667c0 .442-.1757.8659-.4882 1.1785-.3126.3125-.7365.4881-1.1785.4881h-10.83333c-.44203 0-.86593-.1756-1.17849-.4881-.312561-.3126-.48818-.7365-.48818-1.1785v-10.00003c0-.44203.175619-.865955.48818-1.178516.31256-.312561.73646-.488154 1.17849-.488154h10.83333c.442 0 .8659.175593 1.1785.488154.3125.312561.4882.736486.4882 1.178516v1.66666l4.1666-1.66666c.4421 0 .866.17559 1.1785.48815.3126.31256.4882.73649.4882 1.17851v6.66667c0 .442-.1756.866-.4882 1.1785-.3125.3126-.7364.4882-1.1785.4882zm-5.8333-3.33337v-6.66666h-10.83333v10.00003h10.83333zm5.8333-5-4.1666 1.66667v3.33333l4.1666 1.66667z" fill="#001640" fill-rule="evenodd"/></svg>