<svg fill="none" height="16" viewBox="0 0 16 16" width="16" xmlns="http://www.w3.org/2000/svg"><path clip-rule="evenodd" d="m14.6667 16h-13.33337c-.353619 0-.692738-.1405-.942786-.3905-.250049-.2501-.390544-.5892-.390544-.9428v-13.33337c0-.353619.140495-.692758.390544-.942807.250048-.250048.589167-.390523.942786-.390523h13.33337c.3536 0 .6927.140475.9428.390523.25.250049.3905.589188.3905.942807v13.33337c0 .3536-.1405.6927-.3905.9428-.2501.25-.5892.3905-.9428.3905zm0-14.66667h-13.33337v10.38937l3.52002-3.51003c.12822-.12558.30052-.19591.47998-.19591.17947 0 .35177.07033.47998.19591l2.87338 2.86663 5.69991-3.64796c.0857-.04908.1815-.07782.2801-.08401zm0 7.59334-5.51338 3.52933c-.00667.0047-.00668.0113-.01335.016-.10243.097-.23327.1584-.37329.1753-.10542.0277-.21653.0248-.32039-.0082-.10386-.0331-.19621-.0949-.26628-.1784l-2.84668-2.8307-3.52002 3.5107c-.12771.1263-.30033.1968-.47998.196v1.33h13.33337zm-10.00003-2.92667c-.26371 0-.52146-.0782-.74073-.22471-.21926-.14651-.39021-.35474-.49113-.59838-.10091-.24363-.12729-.51172-.07584-.77036.05145-.25865.17844-.49622.36491-.68269s.42405-.31346.6827-.3649c.25864-.05145.52671-.02505.77034.07586.24364.10092.45188.27182.59839.49108.14651.21927.22469.47706.22469.74077 0 .35362-.14049.69276-.39054.94281s-.58917.39052-.94279.39052z" fill="#001640" fill-rule="evenodd"/></svg>