<svg fill="none" height="20" viewBox="0 0 20 20" width="20" xmlns="http://www.w3.org/2000/svg"><circle cx="10" cy="10" r="9" stroke="#21b67b" stroke-width="2"/><path d="m8.46712 11.4711-1.06662-1.0036c-.16062-.1331-.36948-.2039-.58397-.1978s-.41836.0886-.57003.2307c-.15168.1421-.23978.333-.24613.5337-.00636.2008.06944.3962.21186.5465l1.70291 1.592c.05463.1752.17168.3276.33167.4319.15999.1044.35323.1543.54776.1416.12325.0116.24768-.0028.36422-.0421.11655-.0392.22224-.1023.3094-.1847.10538-.1025.17976-.2294.21529-.3678l3.68632-6.79184c.1269-.2073.1628-.45266.0999-.68422-.0628-.23157-.2195-.43118-.4367-.55664-.108-.0588-.2274-.09676-.3513-.11166s-.2497-.00643-.3701.02491c-.1203.03134-.2328.08492-.3306.15758-.0979.07265-.1792.1629-.2392.26544z" fill="#21b67b"/></svg>