<svg fill="none" height="15" viewBox="0 0 15 15" width="15" xmlns="http://www.w3.org/2000/svg"><path clip-rule="evenodd" d="m14.375 15h-13.75c-.16576 0-.324761-.0659-.441971-.1831-.1172101-.1172-.183029-.2761-.183029-.4419v-13.75c0-.16576.0658189-.324732.183029-.441942.11721-.1172104.276211-.183058.441971-.183058s.324761.0658476.44197.183058c.11721.11721.18303.276182.18303.441942v13.125h13.125c.1658 0 .3248.0659.442.1831s.183.2761.183.4419-.0658.3247-.183.4419-.2762.1831-.442.1831zm-3.125-2.5c-.1658 0-.3248-.0659-.442-.1831s-.183-.2761-.183-.4419v-6.875c0-.16576.0658-.32473.183-.44194s.2762-.18306.442-.18306.3248.06585.442.18306.183.27618.183.44194v6.875c0 .1658-.0658.3247-.183.4419s-.2762.1831-.442.1831zm-2.5 0c-.16576 0-.32476-.0659-.44197-.1831s-.18303-.2761-.18303-.4419v-4.375c0-.16576.06582-.32473.18303-.44194s.27621-.18306.44197-.18306.32476.06585.44197.18306.18303.27618.18303.44194v4.375c0 .1658-.06582.3247-.18303.4419s-.27621.1831-.44197.1831zm-2.5 0c-.16576 0-.32476-.0659-.44197-.1831s-.18303-.2761-.18303-.4419v-10c0-.16576.06582-.32473.18303-.44194s.27621-.18306.44197-.18306.32476.06585.44197.18306.18303.27618.18303.44194v10c0 .1658-.06582.3247-.18303.4419s-.27621.1831-.44197.1831zm-2.5 0c-.16576 0-.32476-.0659-.44197-.1831s-.18303-.2761-.18303-.4419v-6.25c0-.16576.06582-.32473.18303-.44194s.27621-.18306.44197-.18306.32476.06585.44197.18306.18303.27618.18303.44194v6.25c0 .1658-.06582.3247-.18303.4419s-.27621.1831-.44197.1831z" fill="#001640" fill-rule="evenodd"/></svg>