<svg clip-rule="evenodd" fill-rule="evenodd" height="46.3993mm" image-rendering="optimizeQuality" shape-rendering="geometricPrecision" text-rendering="geometricPrecision" viewBox="0 0 186124 38052" width="226.953mm" xmlns="http://www.w3.org/2000/svg"><g fill="#001640"><path d="m3694 28353v-4356h2645l4076 4356h4457l-4647-4867c1001-304 1795-796 2383-1476 588-681 882-1434 882-2260 0-571-107-1088-322-1549-214-462-564-896-1049-1303s-1184-726-2097-957c-914-231-2006-346-3277-346h-6745v12759h3694zm2979-10116c1112 0 1887 128 2324 383s655 632 655 1130c0 510-246 905-739 1185-493 279-1192 419-2097 419h-3122v-3117zm9986 10116h12965v-2643h-9271v-2552h8461v-2552h-8461v-2370h9057v-2643h-12751v12759zm31793-12759h-3980l-4743 8457-5076-8457h-4075l7841 12759h2574l7460-12759zm1668 12759h3694v-12759h-3694zm7150 0h12965v-2643h-9271v-2552h8461v-2552h-8461v-2370h9057v-2643h-12751v12759zm37299-12759h-3670l-2908 7637-3408-7637h-2955l-3337 7692-3051-7692h-3813l5195 12759h3003l3456-7728 3551 7728h3003l4933-12759zm1787 12759h12965v-2643h-9271v-2552h8461v-2552h-8461v-2370h9057v-2643h-12751v12759zm15706 0h12965v-2643h-9271v-2552h8461v-2552h-8461v-2370h9057v-2643h-12751v12759zm15706 0h3694v-4283l1192-930 5648 5213h4862l-7722-7109 7245-5650h-4814l-6411 4976v-4976h-3694z" fill-rule="nonzero"/><path d="m147970 10464c0 5794-677 11053 1609 16391 1838 4309 9514 11862 13075 11150 2954-572 7633-4783 9356-7097 4845-6463 4185-11827 4185-19706 0-3060-2718-3904-5047-4766-5575-2005-12223-2040-17921-150-1723 572-5276 2040-5276 4133 0 25-2 21 8 44l10 1zm6885 5100h4309c96-1794 1301-2954 3130-2954 1803 0 3025 1099 3025 2603 0 1503-624 2278-2682 3509-2207 1284-3078 2734-2884 5214l18 932h4239v-844c0-1557 572-2330 2718-3561 2260-1327 3412-2990 3412-5390 0-3632-3008-6164-7580-6164-4898 0-7677 2734-7747 6674h18v-8l26-8-1-1zm7158 16918c1451 0 2612-1099 2612-2506s-1161-2506-2612-2506c-1433 0-2612 1099-2612 2506s1161 2506 2612 2506zm13955-31436h1627v4036h1135v-4036h1627v-1047h-4387v1047h-8 8-1zm4915 4037h1135v-3060l1355 2058h290l1327-2040v3025h1135v-5065h-1003l-1557 2436-1627-2436h-1047v5073l8 8h-18 1z"/></g></svg>