<svg clip-rule="evenodd" fill-rule="evenodd" height="84.8242mm" image-rendering="optimizeQuality" shape-rendering="geometricPrecision" text-rendering="geometricPrecision" viewBox="0 0 1765 2080" width="71.9576mm" xmlns="http://www.w3.org/2000/svg"><g fill="#fff"><path d="m305 1516c0 167 143 156 234 156v285c0 67 64 123 104 123h39c62 0 117-61 117-123v-285h169v272c0 75 51 136 117 136h39c50 0 104-64 104-117v-292c84 0 140 11 194-46 27-29 39-61 39-116v-811h-1155v817z"/><path d="m506 4c1 36 48 107 67 141 10 17 16 32 24 47-57 30-55 26-106 69-117 99-186 221-186 391h1155c0-119-35-214-95-294-30-39-49-65-87-95-26-20-77-63-109-72 22-42 90-148 91-188-25-6-28-8-43 15l-54 102c-10 17-17 35-26 52-67-16-105-52-247-52-157 0-179 33-260 52l-78-149c-12-20-20-29-45-19z"/><path d="m1505 796v551c0 164 260 163 260-6v-538c0-35-17-68-35-88-50-53-133-54-184-8-20 18-41 53-41 89z"/><path d="m0 802v538c0 78 65 130 136 130 64 0 123-59 123-123v-551c0-161-260-164-260 6z"/></g></svg>