<svg fill="none" height="17" viewBox="0 0 17 17" width="17" xmlns="http://www.w3.org/2000/svg" xmlns:xlink="http://www.w3.org/1999/xlink"><clipPath id="a"><path d="m.380371.457764h15.8624v15.8624h-15.8624z"/></clipPath><g clip-path="url(#a)" fill="#5b6068"><path d="m2.64642 16.3201c1.25151 0 2.26605-1.0146 2.26605-2.2661s-1.01454-2.266-2.26605-2.266c-1.2515 0-2.266049 1.0145-2.266049 2.266s1.014549 2.2661 2.266049 2.2661z"/><path d="m.380371 5.74561v3.02177c4.164999 0 7.553879 3.38772 7.553879 7.55272h3.02065c0-5.8305-4.74398-10.57449-10.574529-10.57449z"/><path d="m.380371.457764v3.021776c7.081409 0 12.841729 5.75917 12.841729 12.84056h3.0206c0-8.74694-7.11538-15.862336-15.862329-15.862336z"/></g></svg>