<svg fill="none" height="20" viewBox="0 0 20 20" width="20" xmlns="http://www.w3.org/2000/svg"><path d="m19.4395 11.9332c.1414-.6347.2145-1.2926.2145-1.9675 0-5.06179-4.1616-9.16605-9.2965-9.16605-.54085 0-1.07201.046293-1.58976.134006-.83084-.515316-1.81396-.815004-2.86774-.815004-2.97861 0-5.391943 2.379228-5.391943 5.316408 0 .98069.270449 1.89802.740693 2.68866-.12304.5945-.18883 1.21094-.18883 1.84198 0 5.063 4.16273 9.1673 9.29638 9.1673.5823 0 1.1513-.0536 1.7031-.1535.7602.402 1.6276.631 2.5498.631 2.9774 0 5.3907-2.3804 5.3907-5.3152 0-.8491-.2022-1.6495-.5604-2.3621zm-4.3138 2.4133c-.43.6006-1.0647 1.0757-1.8894 1.4119-.8151.3351-1.7909.5056-2.9043.5056-1.33523 0-2.4548-.2314-3.32949-.6895-.62496-.3326-1.13906-.7821-1.53012-1.3401-.39592-.5604-.5945-1.1171-.5945-1.6556 0-.335.13035-.6261.3874-.8637.25462-.2376.5811-.3557.97094-.3557.31918 0 .5945.0938.81866.2802.21319.1791.39715.4446.54456.7845.16446.3728.34354.6871.53237.932.18395.24.44587.4398.78089.5969.33745.1559.79186.2376 1.34979.2376.7687 0 1.3998-.1621 1.8725-.4812.4641-.3107.6883-.6859.6883-1.144 0-.3606-.1182-.6456-.3582-.8686-.2534-.2339-.5872-.4154-.9916-.5409-.4228-.1291-.9966-.2704-1.70558-.4166-.96607-.2035-1.78595-.4447-2.43649-.7188-.66638-.28017-1.20484-.66757-1.59711-1.15243-.39959-.49339-.60182-1.11104-.60182-1.83711 0-.69196.21198-1.3157.63105-1.85417.41542-.5348 1.02211-.95266 1.80544-1.23651.77115-.28142 1.68848-.42395 2.72761-.42395.8297 0 1.5594.09502 2.1697.28263.6128.18761 1.1293.44101 1.535.75409.4093.31675.7139.65176.9039 1.00262.1925.35329.2912.70536.2912 1.04525 0 .32771-.1279.62618-.3813.88444-.2558.26193-.5775.3935-.9551.3935-.3436 0-.614-.08406-.8004-.24609-.1742-.15228-.3557-.38984-.5555-.72851-.2315-.43369-.5129-.77602-.8345-1.01845-.3131-.23512-.8345-.35207-1.5533-.35207-.66513 0-1.20846.13157-1.61048.39227-.3874.24974-.57623.53725-.57623.87836 0 .20832.06091.38252.18639.53237.13157.16081.31796.29847.5543.41542.24365.1206.49582.21806.748.28629.25827.07065.69072.17664 1.28642.31187.7529.15837 1.4437.33745 2.0552.53115.6201.1937 1.1537.43369 1.5923.71511.4446.28628.7967.65172 1.0476 1.09032.251.4422.3777.9843.3777 1.6154-.0012.7541-.2205 1.4424-.6518 2.0442z" fill="#5b6068"/></svg>