<svg fill="none" height="24" viewBox="0 0 24 24" width="24" xmlns="http://www.w3.org/2000/svg" xmlns:xlink="http://www.w3.org/1999/xlink"><clipPath id="a"><path d="m0 0h24v24h-24z"/></clipPath><g clip-path="url(#a)"><path clip-rule="evenodd" d="m12 24c-2.37338 0-4.69349-.7038-6.66688-2.0224-1.97339-1.3185-3.51142-3.1927-4.419675-5.3854-.90825123-2.1927-1.145884-4.6055-.682861-6.93328.463023-2.32777 1.605886-4.46597 3.284116-6.1442s3.81646-2.821115 6.14423-3.284138 4.74057-.22538257 6.93327.682869c2.1927.908249 4.0669 2.446329 5.3855 4.419719 1.3185 1.97339 2.0223 4.29346 2.0223 6.66683 0 3.1826-1.2643 6.2349-3.5147 8.4853-2.2505 2.2504-5.3027 3.5147-8.4853 3.5147zm0-21.99999c-1.9778 0-3.91124.58648-5.55573 1.6853-1.64449 1.09881-2.92617 2.6606-3.68305 4.48786-.75687 1.82723-.95494 3.83793-.56909 5.77773s1.33829 3.7216 2.73682 5.1202c1.39852 1.3985 3.18031 2.3509 5.12015 2.7368 1.9398.3858 3.9505.1878 5.7777-.5691 1.8273-.7569 3.3891-2.0386 4.4879-3.6831s1.6853-3.5779 1.6853-5.5557c0-2.65216-1.0536-5.1957-2.929-7.07106-1.8753-1.87536-4.4188-2.92893-7.071-2.92893zm-.08 14.33299c-.0355.1483-.1117.2837-.22.391-.0933.0939-.2063.1658-.3308.2106s-.2575.0614-.3892.0484c-.2079.0145-.4145-.0425-.5855-.1617-.171-.1191-.2961-.2932-.3545-.4933l-2.82004-2.818c-.15222-.1715-.23317-.3947-.22638-.624.0068-.2292.10083-.4472.26294-.6095.16211-.1622.38008-.2564.60932-.2634s.45247.0738.62414.2259l2.18002 2.184 4.46-7.90699c.064-.11718.1509-.22035.2554-.30341.1046-.08307.2247-.14435.3534-.18024.1286-.03588.2631-.04564.3955-.0287.1325.01694.2603.06024.3757.12734.2322.14327.3996.37122.4667.63565.0672.26444.0289.54463-.1067.78135z" fill="#fe8312" fill-rule="evenodd"/></g></svg>