<svg fill="none" height="40" viewBox="0 0 40 40" width="40" xmlns="http://www.w3.org/2000/svg" xmlns:xlink="http://www.w3.org/1999/xlink"><linearGradient id="a" gradientUnits="userSpaceOnUse" x1="18.4749" x2="20.6383" y1="20.0787" y2="27.0152"><stop offset="0" stop-color="#eff7fc"/><stop offset="1" stop-color="#fff"/></linearGradient><path clip-rule="evenodd" d="m13.8603 0h12.2794c11.2068 0 13.8603 2.65349 13.8603 13.8603v12.2794c0 11.2068-2.6535 13.8603-13.8603 13.8603h-12.2794c-11.20681 0-13.8603-2.6535-13.8603-13.8603v-12.2794c0-11.20681 2.65349-13.8603 13.8603-13.8603z" fill="#2da4d7" fill-rule="evenodd"/><path d="m17.3168 28.0575c-.6455 0-.5358-.2459-.7584-.866l-1.8982-6.3022 14.6112-8.7448" fill="#c8daea"/><path d="m17.3164 28.0561c.4981 0 .7182-.2298.9962-.5025l2.6566-2.606-3.3137-2.016" fill="#a9c9dd"/><path d="m17.655 22.9328 8.0296 5.9848c.9163.51 1.5776.246 1.8058-.8582l3.2685-15.5382c.3346-1.3536-.5114-1.9674-1.388-1.566l-19.1923 7.4659c-1.31002.5301-1.30238 1.2675-.23875 1.596l4.92515 1.5508 11.4023-7.2571c.5383-.3293 1.0322-.1523.6268.2108" fill="url(#a)"/></svg>