<svg fill="none" height="12" viewBox="0 0 12 12" width="12" xmlns="http://www.w3.org/2000/svg"><g fill="#21b67b"><path d="m11.4293 6.49811c.5836-.59896.4033-1.8105-.6076-1.8105l-2.65957.00183c.101-.58066.2473-1.54322.2415-1.6341-.05584-.86073-.58802-1.90827-.61104-1.95115-.09707-.186355-.58713-.439016-1.08032-.330754-.63763.140724-.70276.560064-.70016.675674 0 0 .02747 1.14716.03015 1.45326-.30486.6903-1.35599 2.5044-1.67458 2.6442-.0762-.04754-.16264-.07311-.25258-.07311h-3.360151c-.285397 0-.514948.23796-.514948.53081l.000446 4.78773c.019977.2581.23267.4606.483905.4606h3.018098c.26764 0 .48524-.2244.48524-.5003v-.1589s.11214-.0087.16308.0251c.19405.127.43385.2868.74665.2868h4.5039c1.68388 0 1.50308-1.54087 1.34928-1.75104.2845-.31935.4605-.88263.2203-1.32762.1843-.20144.5087-.75514.2184-1.32853zm-7.79053 4.25329h-2.915309v-4.77821h2.915309zm7.00493-4.29441-.0275.11829c.7759.22748.3629 1.14946-.1937 1.20925l-.0275.11829c.744.19509.3891 1.1444-.1937 1.20925l-.0274.11783c.6075.10283.4604 1.1718-.46003 1.1718l-4.58105.0019c-.3235 0-.61818-.3801-.85612-.3801h-.20764v-3.67798c.25881-.16538.57696-.38007.75378-.53495.33411-.29378 1.70161-2.57201 1.70161-2.85713 0-.28513-.03015-1.51857-.03015-1.51857s.2681-.35633.86674-.09639c0 0 .50381.97396.5552 1.75017 0 0-.22688 1.59896-.34875 2.1006h3.17591c.7803.00092.6314 1.14945-.0997 1.26774z"/><path clip-rule="evenodd" d="m7.78912.755458c.08182.058596.16471.135836.21441.230719.02035.038443.16125.317653.30564.696383.14578.38238.30352.88765.33393 1.35627.00232.03647-.00226.08419-.00532.11457-.00399.03957-.00996.08956-.01733.14662-.01479.11446-.03596.2633-.06032.42636-.03379.22628-.07404.48219-.11252.71543l2.37399-.00164c.3013 0 .5563.09121.753.25245.1952.16006.3198.37829.3806.6114.1062.40735.0232.88211-.2448 1.23885.1064.29964.0871.5889.0177.8295-.0567.1968-.1479.36555-.2368.4915.1709.47007.0198.98534-.2226 1.32964.0032.0107.0061.02125.0088.03157.0208.07914.0362.17239.0433.27352.0142.20127-.0033.44983-.0903.6951-.0881.248-.2479.4932-.5143.6742-.2652.1802-.6184.2849-1.07488.2849h-4.5039c-.28274 0-.5154-.1054-.69347-.2103-.08173.3207-.36506.5575-.7015.5575h-3.018098c-.376323 0-.6932095-.3015-.72314591-.6883l-.00075958-.0098-.00044651-4.7976c0-.42914.336642-.77828.754949-.77828h3.360151c.07558 0 .14943.01211.21962.03515.0034-.00356.00695-.00731.01064-.01128.05106-.05491.1133-.13181.18456-.22829.1421-.19237.30866-.44703.47716-.72263.32185-.52643.63888-1.1097.79456-1.44982-.00229-.17249-.00895-.49168-.0154-.78255-.0036-.1624-.00712-.31526-.00973-.42752l-.00433-.18366-.00001-.00058c-.00229-.10176.02382-.2908.15521-.478796.13544-.193794.36655-.363322.73465-.44456.29847-.065518.59047-.02132.82031.064067.11547.042897.22034.09799.30678.159907zm-1.53708.687922.00433.18381c.00262.1124.00614.26546.00975.42811.00719.32434.01477.68967.01613.84484l.0004.04635c.00076-.0026.00134-.00475.00178-.00646-.00043-.14862-.00765-.51238-.01499-.84721-.00377-.17182-.00753-.33477-.01036-.45477l-.0047-.19673.23992-.00645c-.16972-.13572-.18746-.15009-.18924-.15171-.00005.00008.00005-.00009 0 0l.18924.15171-.23992.00645-.00052-.02145c-.00159.01156-.00189.0198-.00182.02351zm.05465-.16282.00219-.00281.00609-.00752c.00468-.00566.01065-.01257.01792-.02047.01452-.01578.03441-.03566.05989-.05734.05092-.04333.12508-.09461.22379-.13398.01415-.00565.02868-.011.04358-.01601-.19885.06208-.29508.15387-.34333.22291-.00357.0051-.00694.01018-.01013.01522zm.49901-.27348c.15574-.025892.31276-.00861.44962.03248-.17006-.047007-.32023-.052506-.44962-.03248zm.75528.19211.01183.02285-.21177.11644c.21177-.11644.21175-.11647.21177-.11644l.00062.00121.00134.00262.00476.00936c.00407.00804.00988.01964.01721.0345.01465.02972.03538.07256.06029.12621.04976.10715.11657.25818.18511.4345.13499.34722.28523.81379.31354 1.24136l.00175.02644-.00372.02622-.23747-.03581c.23747.03581.23747.0358.23747.03581l-.01006.07023c-.00647.04491-.01585.10956-.02747.18869-.02324.15821-.05552.37451-.09164.60664-.04965.31907-.10767.67558-.15992.9518h2.87878c.2564.0003.4678.09783.6045.27552.1319.17152.1716.38793.1511.58787-.0071.06859-.0216.13806-.0434.20645.071-.18748.0839-.39563.036-.57919-.0377-.14464-.1112-.26673-.2158-.35255-.1032-.08462-.2499-.14485-.4539-.14488-.0001 0 0 0 0 0l-2.94668.00203.05067-.2913c.0501-.288.1116-.67177.15983-.9947.02412-.16152.04475-.30665.05892-.41638.00711-.05503.01241-.09969.01571-.13243.00258-.02566.0031-.03656.00331-.038-.02669-.3903-.1621-.83575-.30123-1.20068-.06909-.18123-.13726-.33791-.18946-.45166-.02607-.05682-.04805-.1027-.06404-.13535-.008-.01632-.01445-.02925-.01913-.03849-.00446-.00883-.00675-.01321-.00713-.01395l-.00148-.00276c-.00004-.00003-.00017-.00021-.0004-.00051-.0015-.002-.00727-.00968-.01981-.02167zm3.58942 5.28271c-.0274.02383-.0562.04626-.0866.06709.0567.05446.1035.11674.1395.18643.0825.15951.0951.33252.0661.49119.0528-.18639.0566-.39783-.0529-.61401zm-.2219 1.33038c-.0265.02302-.0541.04468-.0828.06478.0501.04982.0922.1064.1255.16925.0947.17869.1024.37781.061.55508.0714-.21998.0735-.46069-.031-.65444zm-.2383 1.34225c-.0241.02019-.0491.03925-.0751.05703.0335.04.0623.0841.086.13156.0892.17853.0985.38737.0469.57781-.1062.39217-.4715.72817-1.03403.72817-.00003 0 .00003 0 0 0l-4.58106.0019c-.24265 0-.45486-.1401-.5897-.2291-.01231-.0082-.0241-.016-.03543-.0235-.06054-.0402-.10806-.0717-.15357-.0962-.02538-.0137-.04457-.022-.0589-.0267-.01285-.0043-.01854-.0046-.01873-.0046h-.39781v.6914c.06561-.0454.10892-.1227.10892-.21v-.3886l.22209-.0171.01791.2468c-.01791-.2468-.01795-.2468-.01791-.2468l.00156-.0001.00226-.0002.00648-.0003c.00513-.0003.01196-.0006.02009-.0008.01599-.0004.03842-.0005.06386.001.03541.0021.13295.0091.21582.0637.20049.1312.38422.248.61757.248h4.5039c.38548 0 .64108-.0879.81078-.2032.1685-.1145.2696-.2677.3276-.4311.059-.1663.0727-.34237.0624-.48914-.0051-.07289-.0159-.1345-.0279-.17986-.0104-.03971-.0187-.05542-.0183-.05561 0-.00001 0-.00001 0 0zm-6.8932 1.84427h-3.126317c.017351.0041.035323.0063.053669.0063h3.018098c.01874 0 .037-.0022.05455-.0063zm-3.313541-.1984v-4.84131c-.002274.01471-.003455.02979-.003456.04516l.000445 4.77625c.000741.0067.001748.0134.003011.0199zm.220311-5.07465h3.175v.45025l.06385-.0408c.1875-.11981.3978-.26034.56099-.3824-.01374.00799-.02773.01521-.04194.02144l-.11311.04964-.10516-.06563c-.03959-.0247-.08319-.03736-.1283-.03736h-3.360151c-.017502 0-.034608.00167-.051179.00486zm3.93634-.08032c.00942-.00792.01846-.01566.0271-.02322.02136-.01882.06438-.06666.12917-.15106-.03599.04439-.07098.08513-.10454.12122-.01605.01725-.03335.03523-.05173.05306zm1.21346-1.8413c.08985-.15887.17168-.30905.24016-.44161.06536-.12651.11679-.23358.15124-.31522.01094-.02594.01957-.04788.02613-.06599l-.01042.02359c-.08856.20054-.23517.48732-.40711.79923zm1.82134-.72435c-.02744-.34288-.15173-.73961-.27832-1.06524-.06383-.16421-.12619-.30518-.1725-.40491-.01307-.02813-.02483-.05292-.03495-.07396-.20049-.06969-.32855-.04396-.39935-.01571-.02045.00816-.03801.01729-.05274.02628l.00189.07981c.00283.12018.00661.28341.01038.45559.00751.34262.01514.72573.01514.8718 0 .05814-.01533.11422-.02694.15149-.01344.04316-.03166.09063-.0524.1398-.04164.09868-.09966.21866-.16773.35042-.13655.26433-.32069.58975-.51412.9134-.19354.32385-.39829.64911-.57665.91315-.08909.13189-.17281.25031-.24606.34637-.07001.09182-.14051.17671-.20198.23076-.16503.14456-.43378.32999-.66952.4837v3.29466c.10457.00731.19724.04856.26745.08638.06664.0359.13574.08186.19538.12153.01039.00691.0205.01363.03026.0201.15281.1009.24977.1509.3306.1509l4.58103-.0018c.35782 0 .52642-.1985.57192-.3665.0243-.08966.014-.16734-.0113-.21817-.0222-.04429-.0617-.08241-.1394-.09556l-.25485-.04313.12735-.54617.1681-.0187c.1747-.01945.3398-.18308.3879-.3725.0225-.0882.0131-.15972-.0135-.20998-.0245-.04611-.0799-.10578-.2141-.14097l-.2294-.06014.1222-.5259.1689-.01815c.1653-.01775.3378-.178.3911-.36532.0245-.08593.0168-.15507-.009-.20495-.0243-.04708-.0827-.11195-.2292-.15488l-.2213-.06489.1185-.51015.1588-.02569c.2404-.0389.3935-.24933.4152-.45954.0105-.1021-.0132-.18038-.0499-.22818-.032-.04161-.095-.08799-.2287-.08815h-3.48313l.07471-.30754c.05789-.23829.14346-.75183.21591-1.2175.03584-.23031.06789-.44511.091-.60237.01155-.07861.02085-.1428.02727-.1873zm-6.711448 3.14084v4.28328h2.435308v-4.28328z" fill-rule="evenodd"/></g></svg>