<svg fill="none" height="11" viewBox="0 0 12 11" width="12" xmlns="http://www.w3.org/2000/svg"><g fill="#f00"><path d="m.570698 4.77453c-.5835676.57173-.403254 1.72821.607552 1.72821l2.65962-.00175c-.101.55426-.2473 1.47307-.2415 1.55982.05584.8216.58802 1.82154.61104 1.86246.09706.17793.58713.41903 1.08032.31573.63763-.1343.70276-.53461.70016-.64497 0 0-.02747-1.09501-.03015-1.3872.30486-.65892 1.35599-2.39056 1.67458-2.52401.0762.04538.16264.06979.25258.06979h3.3602c.2853 0 .5149-.22714.5149-.50669l-.0004-4.570136c-.02-.246364-.2327-.439598-.484-.439598h-3.01804c-.26765 0-.48525.214135-.48525.477529v.151721s-.11214.008258-.16308-.023972c-.19405-.121245-.43385-.273843-.74665-.273844h-4.5039c-1.683863 0-1.503104 1.47088-1.3493 1.6715-.284508.30483-.460441.8425-.22027 1.26727-.184324.19228-.50871.72082-.218412 1.26814zm7.790532-4.059938h2.91527v4.560998h-2.91527zm-7.00489 4.099188.02748-.11292c-.775915-.21713-.36293-1.0972.19368-1.15428l.02747-.11291c-.743973-.18622-.38906-1.09238.19369-1.15428l.02747-.11248c-.60755-.09815-.46043-1.11855.46-1.11854l4.58105-.00176c.3235 0 .61818.36279.85612.36279h.20764v3.51079c-.25881.15786-.57696.36279-.75378.51063-.33411.28043-1.70161 2.4551-1.70161 2.72726 0 .27217.03015 1.44954.03015 1.44954s-.2681.34013-.86674.09202c0 0-.50381-.9297-.5552-1.67062 0 0 .22688-1.52628.34875-2.00512h-3.17591c-.780291-.00088-.631392-1.09721.09974-1.21012z"/><path clip-rule="evenodd" d="m4.21087 10.2562c-.08181-.056-.1647-.1297-.2144-.2203-.02035-.03667-.16125-.3032-.30564-.66471-.14578-.36499-.30352-.8473-.33393-1.29462-.00232-.03481.00226-.08036.00532-.10937.00399-.03777.00996-.08548.01733-.13995.01479-.10926.03596-.25133.06032-.40698.03379-.21599.07404-.46027.11252-.68291l-2.37398.00157c-.301286 0-.556343-.08706-.752982-.24097-.195203-.15279-.319845-.3611-.3806191-.58362-.106199-.38883-.0232398-.84201.2447611-1.18253-.106329-.28602-.087084-.56213-.017699-.7918.056753-.18786.147926-.34893.236807-.46916-.170871-.4487-.019797-.94055.222621-1.2692-.003161-.01022-.006088-.02029-.008802-.03014-.020815-.07554-.036212-.16455-.04334-.26108-.014184-.19212.00332-.42939.090364-.66346.088065-.23682.247879-.470833.514249-.643599.26525-.172032.61848-.271937 1.07491-.271937h4.5039c.28274 0 .5154.10064.69347.200691.08173-.306043.36506-.53212503.70151-.532125l3.01804.00000026c.3764.00000003.6933.28780874.7232.65699774l.0008.009367.0004 4.579535c0 .40963-.3366.7429-.7549.7429h-3.3602c-.07558 0-.14943-.01156-.21962-.03356-.0034.0034-.00695.00699-.01064.01078-.05106.05241-.1133.12581-.18456.2179-.1421.18363-.30866.42671-.47716.68979-.32185.5025-.63888 1.05926-.79456 1.38392.00229.16465.00895.46933.0154.74698.0036.15502.00711.30092.00973.40809l.00433.1753.00001.00056c.00229.09714-.02382.27758-.15521.45704-.13544.185-.36655.3468-.73465.4243-.29847.0626-.59047.0204-.82031-.0611-.11547-.041-.22034-.0935-.30679-.1526zm1.53709-.6567c0-.00002 0 .00003 0 0l-.00433-.17546c-.00262-.10728-.00614-.25339-.00975-.40864-.00719-.3096-.01477-.65833-.01613-.80644l-.0004-.04425c-.00076.00249-.00134.00454-.00178.00617.00043.14186.00765.48909.01499.8087.00377.16401.00753.31955.01036.4341l.0047.18778-.23992.00616c.16972.12956.18746.14327.18924.14482.00005-.00008-.00005.00008 0 0l-.18924-.14482.23992-.00616.00052.02048c.00159-.01104.00189-.0189.00182-.02244zm-.05465.15542-.00219.00269-.00609.00717c-.00468.0054-.01065.012-.01792.01954-.01452.01506-.03441.03404-.05989.05473-.05092.04136-.12508.09031-.22379.12789-.01416.0054-.02868.0105-.04358.01529.19885-.05926.29508-.14688.34333-.21278.00357-.00487.00694-.00972.01013-.01453zm-.49901.26108c-.15574.0247-.31276.0082-.44962-.03103.17006.04483.32022.05013.44962.03103zm-.75529-.1834-.01182-.02182.21177-.11114c-.21177.11114-.21175.11117-.21177.11114l-.00062-.00116-.00134-.00249-.00476-.00894c-.00407-.00768-.00988-.01875-.01721-.03294-.01465-.02836-.03538-.06925-.06029-.12046-.04977-.10229-.11657-.24645-.18511-.41475-.13499-.33145-.28523-.77681-.31354-1.18494l-.00175-.02524.00372-.02503.23747.03419c-.23747-.03419-.23747-.03417-.23747-.03419l.01006-.06704c.00647-.04286.01585-.10457.02747-.1801.02324-.15103.05552-.35749.09164-.57908.04965-.30456.10767-.64486.15992-.90853h-2.87878c-.25642-.00029-.467782-.09339-.604463-.263-.131928-.16372-.171686-.3703-.151112-.56115.007057-.06547.021586-.13178.043362-.19706-.071019.17896-.083882.37765-.036027.55286.037709.13807.111199.25461.215858.33653.103199.08077.24985.13827.453892.13829l2.94667-.00194-.05067.27807c-.0501.2749-.1116.64123-.15983.94948-.02412.15418-.04475.29272-.05892.39745-.00711.05254-.01241.09516-.01571.12641-.00258.0245-.0031.03491-.00331.03628.02669.37256.1621.79776.30123 1.1461.06909.17299.13726.32255.18946.43113.02607.05423.04805.09804.06404.12919.008.01559.01445.02792.01912.03675.00447.00843.00676.01261.00714.01331l.00148.00264c.00004.00003.00017.0002.0004.00049.0015.00191.00727.00924.0198.02069zm-3.589378-5.0426c.027338-.02274.056192-.04415.086538-.06404-.056642-.05198-.103483-.11143-.139504-.17795-.082458-.15226-.095084-.31741-.066049-.46886-.0528.17791-.056604.37974.052843.58609zm.221878-1.26991c.02645-.02197.05408-.04265.0828-.06183-.0501-.04755-.09219-.10156-.1255-.16156-.094706-.17057-.102422-.36063-.060979-.52984-.07147.20998-.073569.43975.030999.62468zm.23831-1.28124c.02405-.01927.04909-.03746.07508-.05443-.03353-.03818-.06233-.08028-.08603-.12558-.08914-.17041-.09849-.36977-.04689-.55155.10626-.37435.47151-.695076 1.03405-.695111l4.58106-.001754c.24265 0 .45486.133689.5897.218705.01231.00777.0241.01523.03543.0224.06054.03835.10806.06845.15357.09185.02538.01305.04457.02099.0589.02551.01285.00405.01854.00431.01873.00432h.39781v-.659952c-.06561.043385-.10892.117093-.10892.200457v.370895l-.22209.01635-.01791-.235524c.01791.235524.01795.235524.01791.235524l-.00156.00012-.00226.00014-.00648.00037c-.00513.00027-.01196.00056-.02009.00075-.01599.00038-.03842.00044-.06386-.00101-.03541-.00203-.13295-.00863-.21582-.06075-.20049-.125256-.38422-.236773-.61757-.236773h-4.5039c-.3855 0-.64112.083955-.81077.193983-.16851.10929-.26962.25554-.32762.41152-.05903.15872-.07273.32679-.06239.46688.00513.06958.01594.12839.02787.17169.01044.03791.0187.0529.01836.05309 0 0 .00002 0 0 0zm6.89318-1.760444h3.1263c-.0173-.003946-.0353-.006033-.0537-.006033h-3.01804c-.01875 0-.037.002086-.05456.006033zm3.3135.189366v4.621278c.0023-.01404.0035-.02844.0035-.04311 0-.00001 0 .00001 0 0l-.0004-4.559106c-.0008-.006431-.0018-.012789-.0031-.019062zm-.2203 4.844008h-3.17497v-.42978l-.06385.03894c-.1875.11436-.3978.24851-.56099.36503.01374-.00763.02773-.01452.04194-.02047l.11311-.04738.10516.06264c.03959.02358.08319.03566.1283.03566h3.3602c.0175 0 .0346-.00159.0511-.00464zm-3.93631.07668c-.00942.00755-.01847.01494-.0271.02216-.02136.01796-.06438.06363-.12917.14419.03599-.04237.07097-.08126.10454-.11571.01605-.01647.03335-.03362.05173-.05064zm-1.21346 1.7576c-.08985.15165-.17168.295-.24016.42153-.06536.12076-.11679.22297-.15124.30089-.01094.02477-.01957.04571-.02613.063l.01042-.02252c.08856-.19143.23517-.46517.40711-.7629zm-1.82134.69142c.02744.3273.15173.70599.27832 1.01683.06383.15674.12619.29131.1725.38649.01306.02686.02483.05053.03495.07061.20049.06652.32854.04196.39935.01499.02045-.00778.03801-.0165.05274-.02508l-.0019-.07618c-.00282-.11472-.0066-.27054-.01037-.43489-.00751-.32704-.01514-.69274-.01514-.83217 0-.0555.01533-.10902.02693-.1446.01345-.0412.03166-.08652.05241-.13345.04164-.09419.09966-.20872.16773-.33449.13655-.25232.32069-.56294.51412-.87189.19354-.30912.39829-.6196.57665-.87164.08909-.12589.17281-.23893.24606-.33062.07001-.08765.14051-.16868.20198-.22027.16503-.13799.43378-.315.66952-.46172v-3.1449c-.10457-.00698-.19724-.04636-.26745-.08246-.06664-.03426-.13574-.07813-.19538-.116-.01039-.00659-.0205-.01301-.03026-.01916-.15281-.09635-.24977-.14406-.3306-.14408-.00002 0 .00002 0 0 0l-4.58103.00175c-.35784 0-.52642.18946-.57193.34982-.02429.08559-.01403.15973.01135.20825.02212.04228.06169.07867.13937.09122l.25484.04117-.12736.52134-.16808.01786c-.17472.01856-.33981.17475-.38795.35556-.02242.0842-.01306.15247.01358.20044.02444.04401.07989.10097.21409.13456l.22936.05741-.12215.50199-.16897.01733c-.16522.01694-.3378.16991-.39112.34871-.02446.08203-.01677.14803.00902.19564.02433.04493.08278.10686.22919.14783l.22135.06195-.1185.48696-.15876.02452c-.24044.03713-.39357.238-.415201.43866-.010506.09745.01312.17218.049881.2178.03201.03972.09493.08399.22865.08414h3.48315l-.07471.29357c-.05789.22746-.14346.71765-.21591 1.16215-.03584.21984-.06789.42488-.091.57499-.01155.07504-.02085.13631-.02727.17879zm6.71141-2.99807v-4.088631h-2.43527v4.088631z" fill-rule="evenodd"/></g></svg>