<svg fill="none" height="15" viewBox="0 0 21 20" width="15" xmlns="http://www.w3.org/2000/svg"><path clip-rule="evenodd" d="m19.3659 15h-18.33335c-.221012 0-.433012-.0878-.589292-.2441-.156281-.1563-.244039-.3682-.244039-.5892s.087758-.433.244039-.5893c.15628-.1563.36828-.2441.589292-.2441h1.66667v-6.66663c0-1.76811.70237-3.4638 1.95261-4.71405 1.25025-1.25024 2.94595-1.95262 4.71405-1.95262h1.66672c1.7681 0 3.4638.70238 4.714 1.95262 1.2502 1.25025 1.9526 2.94594 1.9526 4.71405v6.66663h1.6667c.221 0 .433.0878.5893.2441s.244.3683.244.5893-.0877.4329-.244.5892-.3683.2441-.5893.2441zm-3.3333-7.5c0-1.5471-.6147-3.03083-1.7086-4.12479-1.094-1.09396-2.5777-1.70854-4.1248-1.70854-1.54708 0-3.03077.61458-4.12474 1.70854-1.09396 1.09396-1.70857 2.57769-1.70857 4.12479v5.8333h11.66671zm-6.66672 10c0 .221.08776.433.24404.5893.15628.1562.36828.244.58928.244s.433-.0878.5893-.244c.1563-.1563.2441-.3683.2441-.5893v-.8333h1.6666v.8333c0 .663-.2634 1.2989-.7322 1.7678-.4688.4688-1.1047.7322-1.7678.7322-.66302 0-1.29892-.2634-1.76776-.7322-.46884-.4689-.73222-1.1048-.73222-1.7678v-.8333h1.66666z" fill="#001640" fill-rule="evenodd"/></svg>