<svg enable-background="new 0 0 21 20" viewBox="0 0 21 20" xmlns="http://www.w3.org/2000/svg"><path clip-rule="evenodd" d="m19.4 15h-18.4c-.2 0-.4-.1-.6-.2-.2-.2-.2-.4-.2-.6s.1-.4.2-.6c.2-.2.4-.2.6-.2h1.7v-6.7c0-1.8.7-3.5 2-4.7 1.3-1.3 2.9-2 4.7-2h1.6c1.8 0 3.5.7 4.7 2 1.3 1.3 2 2.9 2 4.7v6.7h1.7c.2 0 .4.1.6.2.2.2.2.4.2.6s-.1.4-.2.6c-.2.1-.4.2-.6.2zm-3.4-7.5c0-1.5-.6-3-1.7-4.1s-2.6-1.7-4.1-1.7-3 .6-4.1 1.7-1.7 2.6-1.7 4.1v5.8h11.6zm-6.6 10c0 .2.1.4.2.6.2.2.4.2.6.2s.4-.1.6-.2c.2-.2.2-.4.2-.6v-.8h1.7v.8c0 .7-.3 1.3-.7 1.8-.5.5-1.1.7-1.8.7s-1.3-.3-1.8-.7c-.5-.5-.7-1.1-.7-1.8v-.8h1.7z" fill="#001640" fill-rule="evenodd"/><circle cx="16.3" cy="4.4" fill="#6321b6" r="2.7" stroke="#6321b6" stroke-miterlimit="10"/></svg>