<svg fill="none" height="20" viewBox="0 0 21 20" width="21" xmlns="http://www.w3.org/2000/svg"><path clip-rule="evenodd" d="m16.8659 15.8333c1.8409 0 3.3333-1.4924 3.3333-3.3333v-9.16667c0-1.84095-1.4924-3.33333-3.3333-3.33333h-13.33335c-1.84095 0-3.333331 1.49238-3.333331 3.33333v16.66667s.775353-1.0573 1.935481-2.1067c1.14292-1.0338 2.65927-2.06 4.17563-2.06zm-14.7312-.4204c1.13572-.7993 2.58331-1.5151 4.17563-1.5151h10.55517c.0001 0 .0004 0 .0004 1.9355l-.0004-1.9355c.7721 0 1.3982-.6258 1.3982-1.3978v-9.16667c0-.77201-.6258-1.39785-1.3978-1.39785h-13.33335c-.77201 0-1.39785.62584-1.39785 1.39785z" fill="#001640" fill-rule="evenodd"/></svg>