<svg fill="none" height="40" viewBox="0 0 40 40" width="40" xmlns="http://www.w3.org/2000/svg"><path clip-rule="evenodd" d="m13.8603 0h12.2794c11.2068 0 13.8603 2.65349 13.8603 13.8603v12.2794c0 11.2068-2.6535 13.8603-13.8603 13.8603h-12.2794c-11.20681 0-13.8603-2.6535-13.8603-13.8603v-12.2794c0-11.20681 2.65349-13.8603 13.8603-13.8603z" fill="#7f4da0" fill-rule="evenodd"/><g fill="#fff"><path d="m24.5969 17.9222c-.0741-.5908-.2592-1.0547-.5879-1.4656-.4268-.5291-.9723-.8459-1.7799-1.0339-.5263-.1253-.739-.1109-.9293.0597-.1773.1598-.2119.4801-.0764.6877.0953.1506.2052.2044.5109.2633.4071.0735.6885.1689.9444.3125.5433.3077.7963.7893.8234 1.5689.0126.366.0449.4785.1752.6084.2416.2373.6714.1912.8537-.0928.067-.1071.0771-.1537.0842-.4022.0047-.1539-.002-.383-.0183-.506z"/><path d="m26.7238 18.5884c-.1074-1.8101-.829-3.2664-2.1205-4.291-.7277-.5758-1.6073-.9717-2.5715-1.1642-.3531-.0689-1.0034-.1246-1.1149-.0927-.1053.0296-.2543.1413-.3206.2425-.0702.1097-.086.3545-.0261.4961.0966.2368.2764.3204.7798.3637.776.0666 1.5765.334 2.1814.7301.6905.4509 1.2393 1.0676 1.5945 1.7923.3068.6227.4955 1.52.4902 2.3236-.0017.2906.044.4547.1632.5747.1798.1845.4419.2249.6732.1023.2564-.1322.3164-.3644.2713-1.0774z"/><path d="m29.0787 25.559c-.036-.1035-.1203-.2631-.1804-.3547-.3791-.5615-2.4155-2.125-3.4322-2.6363-.5805-.2926-1.0106-.3901-1.3295-.2986-.3429.0947-.5234.2513-1.0979.9518-.2316.2808-.4693.5438-.5324.5852-.1565.1064-.4633.1921-.6799.1921-.5023-.003-1.4137-.3222-2.1146-.7419-.5444-.3251-1.2423-.9073-1.7777-1.4836-.6317-.6768-1.0618-1.2739-1.4018-1.9477-.4391-.866-.5504-1.395-.367-1.7822.0452-.0975.1054-.2009.1324-.2335.0271-.0295.3099-.2571.6226-.5054.6137-.4788.713-.5881.8273-.9162.1444-.4167.1053-.8423-.1173-1.2708-.1715-.3252-.6197-1.0345-.9445-1.4926-.4302-.6029-1.501-1.8915-1.7147-2.0659-.3849-.3073-.8782-.3605-1.4227-.1536-.5745.2186-1.6514 1.0699-2.1116 1.6639-.4151.5379-.5745.9192-.5986 1.4216-.021.4138.015.5852.2376 1.1142 1.7416 4.1495 4.3406 7.4627 7.9111 10.0931 1.8649 1.3743 3.7991 2.4206 5.8055 3.1358 1.17.4167 1.6784.4374 2.277.0946.2527-.1478.8783-.7773 1.2273-1.2354.5775-.7626.7911-1.1142.8512-1.395.0421-.1922.0091-.5261-.0692-.7389z"/><path d="m28.8906 19.0037c-.0386-1.0238-.2143-1.8637-.5807-2.8001-.3617-.921-.7278-1.522-1.4193-2.335-.6536-.7622-1.1614-1.1974-1.9666-1.6818-1.1235-.675-2.4907-1.1217-4.023-1.3095-.5225-.0657-.6407-.061-.801.044-.3107.1988-.3066.6946.005.8904.1032.0623.1948.085.6127.1387.6417.0847 1.0543.1646 1.5438.2957 1.9198.5148 3.3961 1.5672 4.383 3.1294.826 1.302 1.1688 2.6042 1.1202 4.2674-.017.5622-.0046.6611.0829.7963.1678.2517.6103.3016.8372.0926.1413-.1273.1679-.2229.1957-.7041.0133-.2511.0162-.6217.0101-.824z"/></g></svg>