<svg fill="none" height="15" viewBox="0 0 20 15" width="20" xmlns="http://www.w3.org/2000/svg"><rect height="13" rx="1" stroke="#fff" stroke-width="2" width="18" x="1" y="1"/><path d="m4.33337 4.83337h11.33333" stroke="#fff" stroke-linecap="round" stroke-linejoin="round" stroke-width="2"/><path clip-rule="evenodd" d="m5.41671 11.3483c-.22115.198-.51319.3183-.83334.3183-.69035 0-1.25-.5596-1.25-1.25 0-.69033.55965-1.24997 1.25-1.24997.32015 0 .61219.12035.83334.31829.22115-.19794.51318-.31829.83333-.31829.69036 0 1.25.55964 1.25 1.24997 0 .6904-.55964 1.25-1.25 1.25-.32015 0-.61218-.1203-.83333-.3183z" fill="#fff" fill-rule="evenodd"/></svg>