<svg fill="none" height="16" viewBox="0 0 18 16" width="18" xmlns="http://www.w3.org/2000/svg"><path clip-rule="evenodd" d="m16.5 16h-15c-.39782 0-.779334-.1532-1.060638-.426-.281305-.2728-.439362-.6428-.439362-1.0285v-13.09095c0-.38577.158057-.755744.439362-1.028525.281304-.27278.662818-.426025 1.060638-.426025h12c.3978 0 .7793.153245 1.0606.426025.2813.272781.4394.642755.4394 1.028525v1.45454h1.5c.3978 0 .7793.15325 1.0606.42603s.4394.64275.4394 1.02852v10.18186c0 .3857-.1581.7557-.4394 1.0285s-.6628.426-1.0606.426zm-3-14.54545h-12v1.45454h12zm3 2.90909h-15v10.18186h15zm-3.75 2.90909c.445 0 .8801.12795 1.2501.3677.37.23974.6583.5805.8286.97918.1703.39867.2149.83735.1281 1.26058-.0868.42321-.3011.81201-.6158 1.11711s-.7155.513-1.152.5971c-.4365.0842-.8889.041-1.3001-.1241-.4111-.1652-.7625-.4448-1.0097-.8036s-.3792-.78063-.3792-1.21215c0-.57866.237-1.1336.659-1.54277s.9943-.63905 1.591-.63905zm0 2.90907c.1483 0 .2933-.0426.4167-.1225.1233-.07995.2194-.19354.2762-.32643.0567-.1329.0717-.27914.0427-.42021-.0289-.14108-.1003-.27065-.2052-.37236s-.2386-.17098-.3841-.19904c-.1455-.02807-.2963-.01368-.4333.04137-.1371.05504-.2542.14826-.3366.26786s-.1264.26022-.1264.40406c0 .19288.079.37785.2196.51424.1407.13641.3315.21301.5304.21301z" fill="#fff" fill-rule="evenodd"/></svg>