<svg fill="none" height="20" viewBox="0 0 21 20" width="21" xmlns="http://www.w3.org/2000/svg"><path d="m10.5318.118652h-.0049c-5.37362 0-9.743453 4.371058-9.743453 9.745938 0 2.13191.687093 4.10791 1.855383 5.71231l-1.21459 3.6206 3.7461-1.1975c1.54107 1.0209 3.3794 1.6105 5.36146 1.6105 5.3737 0 9.7435-4.3722 9.7435-9.74591 0-5.37367-4.3698-9.745938-9.7435-9.745938zm5.6709 13.762448c-.2351.664-1.1683 1.2146-1.9126 1.3754-.5092.1085-1.1744.195-3.4135-.7334-2.8641-1.1865-4.70852-4.0969-4.85227-4.2857-.13767-.1889-1.15733-1.5411-1.15733-2.93965 0-1.39854.71023-2.07954.99652-2.37191.23512-.24.62374-.34964.99652-.34964.12061 0 .22903.00609.32649.01096.28629.01219.43004.02924.61887.48121.23512.56648.80769 1.96503.87591 2.10878.06944.14375.13888.33867.04142.5275-.09137.19492-.17177.28141-.31552.44709-.14376.16568-.2802.29238-.42395.47024-.13157.15472-.2802.3204-.11452.60669.16569.28019.73826 1.21463 1.58128 1.96503 1.08788.9685 1.96988 1.2779 2.28538 1.4095.2352.0975.5154.0743.6871-.1084.2181-.2351.4873-.625.7614-1.0087.195-.2754.441-.3095.6993-.212.2631.0914 1.6556.7797 1.9419.9222.2863.1438.4751.212.5445.3326.0683.1206.0683.6871-.1669 1.3522z" fill="#5b6068"/></svg>