<svg clip-rule="evenodd" fill-rule="evenodd" height="137.357mm" image-rendering="optimizeQuality" shape-rendering="geometricPrecision" text-rendering="geometricPrecision" viewBox="0 0 2168 2536" width="117.448mm" xmlns="http://www.w3.org/2000/svg"><path d="m7 421c0 443-51 846 123 1256 140 329 728 908 999 855 227-44 584-367 715-543 371-495 321-907 321-1508 0-234-207-300-386-364-426-153-935-155-1370-12-132 43-403 155-403 316zm1329 436c0 45-16 84-47 117-32 33-70 61-114 85-45 23-90 49-135 77s-84 68-115 121c-32 52-47 115-47 187 0 43 6 85 19 126l291-5c0-5-1-16-4-34s-4-35-4-51c0-37 12-69 36-95 24-27 54-48 91-65 36-17 76-39 118-66s81-58 118-91c36-33 67-81 91-144s36-137 36-222c0-134-48-245-144-333-96-89-229-133-398-133-87 0-170 16-252 47-81 31-156 84-226 157-69 73-118 161-145 264l291 118c27-76 66-132 116-169s118-56 203-56c67 0 122 16 163 48s62 71 62 116zm-480 1002c0 50 16 93 49 130s76 56 128 56c48 0 89-19 122-56s49-80 49-130c0-45-17-87-51-124-34-38-74-57-121-57-51 0-93 19-127 56s-51 79-51 126z" fill="#731abb"/></svg>