<svg clip-rule="evenodd" fill-rule="evenodd" height="40.424mm" image-rendering="optimizeQuality" shape-rendering="geometricPrecision" text-rendering="geometricPrecision" viewBox="0 0 2957 3458" width="34.5698mm" xmlns="http://www.w3.org/2000/svg"><path d="m10 580c0 604-71 1153 168 1710 192 449 992 1237 1364 1163 308-60 796-499 976-740 505-674 437-1234 437-2055 0-319-283-407-526-497-581-209-1275-213-1869-16-180 60-550 213-550 431 0 3 0 2 1 5h1zm718 532h449c10-187 136-308 327-308 188 0 316 115 316 271 0 157-65 238-280 366-230 134-321 285-301 544l2 97h442v-88c0-162 60-243 283-371 236-138 356-312 356-562 0-379-314-643-791-643-511 0-801 285-808 696h2v-1zm747 1765c151 0 272-115 272-261 0-147-121-261-272-261-149 0-272 115-272 261 0 147 121 261 272 261z" fill="#731abb"/></svg>